<REAPER_PROJECT 0.1 "6.29/linux-x86_64" 1626503821
  RIPPLE 0
  GROUPOVERRIDE 0 0 0
  AUTOXFADE 1
  ENVATTACH 1
  POOLEDENVATTACH 0
  MIXERUIFLAGS 11 48
  PEAKGAIN 1
  FEEDBACK 0
  PANLAW 1
  PROJOFFS 0 0 0
  MAXPROJLEN 0 600
  GRID 3199 8 1 8 1 0 0 0
  TIMEMODE 1 5 -1 30 0 0 -1
  VIDEO_CONFIG 0 0 256
  PANMODE 3
  CURSOR 0
  ZOOM 1.65356763727899 0 0
  VZOOMEX 6 661
  USE_REC_CFG 0
  RECMODE 1
  SMPTESYNC 0 30 100 40 1000 300 0 0 1 0 0
  LOOP 0
  LOOPGRAN 0 4
  RECORD_PATH "" ""
  <RECORD_CFG
  >
  <APPLYFX_CFG
  >
  RENDER_FILE ""
  RENDER_PATTERN ""
  RENDER_FMT 0 2 0
  RENDER_1X 0
  RENDER_RANGE 1 0 0 18 1000
  RENDER_RESAMPLE 3 0 1
  RENDER_ADDTOPROJ 0
  RENDER_STEMS 0
  RENDER_DITHER 0
  TIMELOCKMODE 1
  TEMPOENVLOCKMODE 1
  ITEMMIX 0
  DEFPITCHMODE 589824 0
  TAKELANE 1
  SAMPLERATE 44100 0 0
  <RENDER_CFG
  >
  LOCK 1
  <METRONOME 6 2
    VOL 0.25 0.125
    FREQ 800 1600 1
    BEATLEN 4
    SAMPLES "" ""
    PATTERN 2863311530 2863311529
  >
  GLOBAL_AUTO -1
  TEMPO 120 4 4
  PLAYRATE 1 0 0.25 4
  SELECTION 0 0
  SELECTION2 0 0
  MASTERAUTOMODE 0
  MASTERTRACKHEIGHT 0 0
  MASTERPEAKCOL 16576
  MASTERMUTESOLO 0
  MASTERTRACKVIEW 0 0.6667 0.5 0.5 -1 -1 -1 0 0 0 -1 -1 0
  MASTERHWOUT 0 0 1 0 0 0 0 -1
  MASTER_NCH 2 2
  MASTER_VOLUME 1 0 -1 -1 1
  MASTER_FX 1
  MASTER_SEL 0
  <MASTERPLAYSPEEDENV
    EGUID {1A68DBEE-81EC-4E42-EC75-030D51D9EA78}
    ACT 0 -1
    VIS 0 1 1
    LANEHEIGHT 0 0
    ARM 0
    DEFSHAPE 0 -1 -1
  >
  <TEMPOENVEX
    EGUID {3AF0DFD2-C476-D47D-35C9-FEB0EDD837B2}
    ACT 1 -1
    VIS 1 0 1
    LANEHEIGHT 0 0
    ARM 0
    DEFSHAPE 1 -1 -1
    PT 0.000000000000 137.9998758001 1 262148 0 1
  >
  <PROJBAY
  >
  <TRACK {C29E023A-87E5-D403-B2CC-7193D49A9D5A}
    NAME Darude_-_Sandstorm_out
    PEAKCOL 16576
    BEAT -1
    AUTOMODE 0
    VOLPAN 1 0 -1 -1 1
    MUTESOLO 0 0 0
    IPHASE 0
    PLAYOFFS 0 1
    ISBUS 0 0
    BUSCOMP 0 0 0 0 0
    SHOWINMIX 1 0.6667 0.5 1 0.5 -1 -1 -1
    FREEMODE 0
    SEL 0
    REC 0 0 1 0 0 0 0
    VU 2
    TRACKHEIGHT 0 0 0 0 0 0
    INQ 0 0 0 0.5 100 0 0 100
    NCHAN 2
    FX 1
    TRACKID {C29E023A-87E5-D403-B2CC-7193D49A9D5A}
    PERF 0
    MIDIOUT 74
    MAINSEND 1 0
    <ITEM
      POSITION 0
      SNAPOFFS 0
      LENGTH 239.565433
      LOOP 1
      ALLTAKES 0
      FADEIN 1 0.01 0 1 0 0 0
      FADEOUT 1 0.01 0 1 0 0 0
      MUTE 0 0
      SEL 1
      IGUID {C92FE8F1-B845-CFE9-ACD1-F1EFA9CDA3AC}
      IID 1
      NAME Darude_-_Sandstorm_out.mid
      VOLPAN 1 0 1 -1
      SOFFS 0 0
      PLAYRATE 1 1 0 -1 0 0.0025
      CHANMODE 0
      GUID {264E9FA0-4964-5293-09CD-E755DA6759E1}
      <SOURCE MIDI
        HASDATA 1 120 QN
        CCINTERP 32
        POOLEDEVTS {BFDF504C-8B5B-332B-1B10-1C5A5EBE52FF}
        E 0 c0 00 00
        E 0 b0 07 7f
        E 1200 90 43 64
        E 27 90 43 00
        E 213 90 43 64
        E 27 90 43 00
        E 213 90 43 64
        E 27 90 43 00
        E 213 90 40 64
        E 27 90 40 00
        E 213 90 40 64
        E 27 90 40 00
        E 213 90 40 64
        E 27 90 40 00
        E 213 90 40 64
        E 27 90 40 00
        E 213 90 43 64
        E 27 90 43 00
        E 213 90 43 64
        E 27 90 43 00
        E 213 90 4c 64
        E 27 90 4c 00
        E 213 90 4a 64
        E 27 90 4a 00
        E 213 90 43 64
        E 27 90 43 00
        E 213 90 40 64
        E 27 90 40 00
        E 213 90 43 64
        E 27 90 43 00
        E 213 90 40 64
        E 27 90 40 00
        E 213 90 43 64
        E 27 90 43 00
        E 213 90 43 64
        E 27 90 43 00
        E 213 90 48 64
        E 27 90 48 00
        E 213 90 4a 64
        E 27 90 4a 00
        E 213 90 43 64
        E 27 90 43 00
        E 213 90 40 64
        E 27 90 40 00
        E 213 90 40 64
        E 27 90 40 00
        E 213 90 43 64
        E 27 90 43 00
        E 213 90 40 64
        E 27 90 40 00
        E 213 90 40 64
        E 27 90 40 00
        E 213 90 40 64
        E 27 90 40 00
        E 213 90 43 64
        E 27 90 43 00
        E 213 90 47 64
        E 27 90 47 00
        E 213 90 40 64
        E 27 90 40 00
        E 213 90 43 64
        E 27 90 43 00
        E 213 90 43 64
        E 27 90 43 00
        E 213 90 47 64
        E 27 90 47 00
        E 213 90 40 64
        E 27 90 40 00
        E 213 90 4c 64
        E 27 90 4c 00
        E 213 90 43 64
        E 27 90 43 00
        E 213 90 47 64
        E 27 90 47 00
        E 213 90 40 64
        E 27 90 40 00
        E 213 90 43 64
        E 27 90 43 00
        E 213 90 43 64
        E 27 90 43 00
        E 213 90 43 64
        E 27 90 43 00
        E 213 90 47 64
        E 27 90 47 00
        E 213 90 48 64
        E 27 90 48 00
        E 213 90 43 64
        E 27 90 43 00
        E 213 90 43 64
        E 27 90 43 00
        E 213 90 43 64
        E 27 90 43 00
        E 213 90 47 64
        E 27 90 47 00
        E 213 90 40 64
        E 27 90 40 00
        E 213 90 47 64
        E 27 90 47 00
        E 213 90 43 64
        E 27 90 43 00
        E 213 90 4c 64
        E 27 90 4c 00
        E 213 90 4a 64
        E 27 90 4a 00
        E 213 90 43 64
        E 27 90 43 00
        E 213 90 43 64
        E 27 90 43 00
        E 213 90 40 64
        E 27 90 40 00
        E 213 90 40 64
        E 27 90 40 00
        E 213 90 40 64
        E 27 90 40 00
        E 213 90 43 64
        E 27 90 43 00
        E 213 90 43 64
        E 27 90 43 00
        E 213 90 47 64
        E 27 90 47 00
        E 213 90 43 64
        E 27 90 43 00
        E 213 90 47 64
        E 27 90 47 00
        E 213 90 40 64
        E 27 90 40 00
        E 213 90 40 64
        E 27 90 40 00
        E 213 90 43 64
        E 27 90 43 00
        E 213 90 40 64
        E 27 90 40 00
        E 213 90 47 64
        E 27 90 47 00
        E 213 90 47 64
        E 27 90 47 00
        E 213 90 47 64
        E 27 90 47 00
        E 213 90 40 64
        E 27 90 40 00
        E 213 90 43 64
        E 40 90 43 00
        E 200 90 47 64
        E 27 90 47 00
        E 213 90 43 64
        E 27 90 43 00
        E 213 90 43 64
        E 27 90 43 00
        E 213 90 43 64
        E 27 90 43 00
        E 213 90 40 64
        E 27 90 40 00
        E 213 90 47 64
        E 27 90 47 00
        E 213 90 43 64
        E 27 90 43 00
        E 213 90 43 64
        E 40 90 43 00
        E 200 90 47 64
        E 27 90 47 00
        E 213 90 43 64
        E 27 90 43 00
        E 213 90 47 64
        E 27 90 47 00
        E 213 90 47 64
        E 27 90 47 00
        E 213 90 47 64
        E 27 90 47 00
        E 213 90 47 64
        E 27 90 47 00
        E 213 90 43 64
        E 27 90 43 00
        E 213 90 43 64
        E 27 90 43 00
        E 213 90 43 64
        E 27 90 43 00
        E 213 90 43 64
        E 27 90 43 00
        E 213 90 43 64
        E 27 90 43 00
        E 213 90 48 64
        E 27 90 48 00
        E 213 90 47 64
        E 27 90 47 00
        E 213 90 43 64
        E 27 90 43 00
        E 213 90 40 64
        E 27 90 40 00
        E 213 90 47 64
        E 27 90 47 00
        E 213 90 40 64
        E 27 90 40 00
        E 213 90 40 64
        E 27 90 40 00
        E 213 90 43 64
        E 27 90 43 00
        E 213 90 48 64
        E 27 90 48 00
        E 213 90 47 64
        E 27 90 47 00
        E 213 90 43 64
        E 27 90 43 00
        E 213 90 43 64
        E 27 90 43 00
        E 213 90 43 64
        E 27 90 43 00
        E 213 90 43 64
        E 27 90 43 00
        E 213 90 47 64
        E 27 90 47 00
        E 213 90 43 64
        E 27 90 43 00
        E 213 90 4c 64
        E 27 90 4c 00
        E 213 90 47 64
        E 27 90 47 00
        E 213 90 43 64
        E 27 90 43 00
        E 213 90 40 64
        E 27 90 40 00
        E 213 90 43 64
        E 27 90 43 00
        E 213 90 47 64
        E 27 90 47 00
        E 213 90 47 64
        E 27 90 47 00
        E 213 90 43 64
        E 27 90 43 00
        E 213 90 4c 64
        E 27 90 4c 00
        E 213 90 47 64
        E 27 90 47 00
        E 213 90 43 64
        E 27 90 43 00
        E 213 90 40 64
        E 27 90 40 00
        E 213 90 43 64
        E 27 90 43 00
        E 213 90 47 64
        E 27 90 47 00
        E 213 90 43 64
        E 27 90 43 00
        E 213 90 47 64
        E 27 90 47 00
        E 213 90 47 64
        E 27 90 47 00
        E 213 90 47 64
        E 27 90 47 00
        E 213 90 47 64
        E 27 90 47 00
        E 213 90 43 64
        E 27 90 43 00
        E 213 90 43 64
        E 27 90 43 00
        E 213 90 43 64
        E 27 90 43 00
        E 453 90 47 64
        E 27 90 47 00
        E 213 90 47 64
        E 27 90 47 00
        E 213 90 47 64
        E 27 90 47 00
        E 213 90 47 64
        E 27 90 47 00
        E 213 90 43 64
        E 27 90 43 00
        E 213 90 43 64
        E 27 90 43 00
        E 213 90 43 64
        E 27 90 43 00
        E 453 90 47 64
        E 27 90 47 00
        E 213 90 47 64
        E 27 90 47 00
        E 213 90 47 64
        E 27 90 47 00
        E 213 90 47 64
        E 27 90 47 00
        E 213 90 43 64
        E 27 90 43 00
        E 213 90 43 64
        E 27 90 43 00
        E 213 90 43 64
        E 27 90 43 00
        E 453 90 47 64
        E 27 90 47 00
        E 213 90 47 64
        E 27 90 47 00
        E 213 90 47 64
        E 27 90 47 00
        E 213 90 47 64
        E 27 90 47 00
        E 213 90 43 64
        E 27 90 43 00
        E 213 90 43 64
        E 27 90 43 00
        E 213 90 43 64
        E 27 90 43 00
        E 453 90 47 64
        E 27 90 47 00
        E 213 90 47 64
        E 27 90 47 00
        E 213 90 47 64
        E 27 90 47 00
        E 213 90 47 64
        E 27 90 47 00
        E 213 90 43 64
        E 27 90 43 00
        E 213 90 43 64
        E 27 90 43 00
        E 213 90 43 64
        E 27 90 43 00
        E 453 90 40 64
        E 27 90 40 00
        E 213 90 4c 64
        E 27 90 4c 00
        E 213 90 43 64
        E 27 90 43 00
        E 213 90 47 64
        E 27 90 47 00
        E 213 90 40 64
        E 27 90 40 00
        E 213 90 43 64
        E 27 90 43 00
        E 213 90 43 64
        E 27 90 43 00
        E 213 90 43 64
        E 27 90 43 00
        E 213 90 47 64
        E 27 90 47 00
        E 213 90 48 64
        E 27 90 48 00
        E 213 90 43 64
        E 27 90 43 00
        E 213 90 43 64
        E 27 90 43 00
        E 213 90 43 64
        E 27 90 43 00
        E 213 90 47 64
        E 27 90 47 00
        E 213 90 40 64
        E 27 90 40 00
        E 213 90 47 64
        E 27 90 47 00
        E 213 90 43 64
        E 27 90 43 00
        E 213 90 4c 64
        E 27 90 4c 00
        E 213 90 4a 64
        E 27 90 4a 00
        E 213 90 43 64
        E 27 90 43 00
        E 213 90 43 64
        E 27 90 43 00
        E 213 90 40 64
        E 27 90 40 00
        E 213 90 40 64
        E 27 90 40 00
        E 213 90 40 64
        E 27 90 40 00
        E 213 90 43 64
        E 27 90 43 00
        E 213 90 43 64
        E 27 90 43 00
        E 213 90 47 64
        E 27 90 47 00
        E 213 90 43 64
        E 27 90 43 00
        E 213 90 47 64
        E 27 90 47 00
        E 213 90 40 64
        E 27 90 40 00
        E 213 90 40 64
        E 27 90 40 00
        E 213 90 43 64
        E 27 90 43 00
        E 213 90 40 64
        E 27 90 40 00
        E 213 90 47 64
        E 27 90 47 00
        E 213 90 47 64
        E 27 90 47 00
        E 213 90 47 64
        E 27 90 47 00
        E 213 90 40 64
        E 27 90 40 00
        E 213 90 43 64
        E 40 90 43 00
        E 200 90 47 64
        E 27 90 47 00
        E 213 90 43 64
        E 27 90 43 00
        E 213 90 43 64
        E 27 90 43 00
        E 213 90 43 64
        E 27 90 43 00
        E 213 90 40 64
        E 27 90 40 00
        E 213 90 47 64
        E 27 90 47 00
        E 213 90 43 64
        E 27 90 43 00
        E 213 90 43 64
        E 40 90 43 00
        E 200 90 47 64
        E 27 90 47 00
        E 213 90 43 64
        E 27 90 43 00
        E 213 90 47 64
        E 27 90 47 00
        E 213 90 47 64
        E 27 90 47 00
        E 213 90 47 64
        E 27 90 47 00
        E 213 90 47 64
        E 27 90 47 00
        E 213 90 43 64
        E 27 90 43 00
        E 213 90 43 64
        E 27 90 43 00
        E 213 90 43 64
        E 27 90 43 00
        E 213 90 47 64
        E 27 90 47 00
        E 213 90 40 64
        E 27 90 40 00
        E 213 90 4c 64
        E 27 90 4c 00
        E 213 90 43 64
        E 27 90 43 00
        E 213 90 47 64
        E 27 90 47 00
        E 213 90 40 64
        E 27 90 40 00
        E 213 90 43 64
        E 27 90 43 00
        E 213 90 43 64
        E 27 90 43 00
        E 213 90 43 64
        E 27 90 43 00
        E 213 90 47 64
        E 27 90 47 00
        E 213 90 48 64
        E 27 90 48 00
        E 213 90 43 64
        E 27 90 43 00
        E 213 90 43 64
        E 27 90 43 00
        E 213 90 43 64
        E 27 90 43 00
        E 213 90 47 64
        E 27 90 47 00
        E 213 90 40 64
        E 27 90 40 00
        E 213 90 47 64
        E 27 90 47 00
        E 213 90 43 64
        E 27 90 43 00
        E 213 90 4c 64
        E 27 90 4c 00
        E 213 90 4a 64
        E 27 90 4a 00
        E 213 90 43 64
        E 27 90 43 00
        E 213 90 43 64
        E 27 90 43 00
        E 213 90 40 64
        E 27 90 40 00
        E 213 90 40 64
        E 27 90 40 00
        E 213 90 40 64
        E 27 90 40 00
        E 213 90 43 64
        E 27 90 43 00
        E 213 90 43 64
        E 27 90 43 00
        E 213 90 47 64
        E 27 90 47 00
        E 213 90 43 64
        E 27 90 43 00
        E 213 90 47 64
        E 27 90 47 00
        E 213 90 40 64
        E 27 90 40 00
        E 213 90 40 64
        E 27 90 40 00
        E 213 90 43 64
        E 27 90 43 00
        E 213 90 40 64
        E 27 90 40 00
        E 213 90 47 64
        E 27 90 47 00
        E 213 90 47 64
        E 27 90 47 00
        E 213 90 47 64
        E 27 90 47 00
        E 213 90 40 64
        E 27 90 40 00
        E 213 90 43 64
        E 40 90 43 00
        E 200 90 47 64
        E 27 90 47 00
        E 213 90 43 64
        E 27 90 43 00
        E 213 90 43 64
        E 27 90 43 00
        E 213 90 43 64
        E 27 90 43 00
        E 213 90 40 64
        E 27 90 40 00
        E 213 90 47 64
        E 27 90 47 00
        E 213 90 43 64
        E 27 90 43 00
        E 213 90 43 64
        E 40 90 43 00
        E 200 90 47 64
        E 27 90 47 00
        E 213 90 43 64
        E 27 90 43 00
        E 213 90 47 64
        E 27 90 47 00
        E 213 90 47 64
        E 27 90 47 00
        E 213 90 47 64
        E 27 90 47 00
        E 213 90 47 64
        E 27 90 47 00
        E 213 90 43 64
        E 27 90 43 00
        E 213 90 43 64
        E 27 90 43 00
        E 213 90 43 64
        E 27 90 43 00
        E 93 b0 7b 00
        CCINTERP 32
        CHASE_CC_TAKEOFFS 1
        GUID {8E066117-F239-08AC-60E4-040F0908B3C8}
        IGNTEMPO 0 120 4 4
        SRCCOLOR 1
      >
    >
  >
  <TRACK {7BD6E359-6F61-9BB9-FDE7-145220D93283}
    NAME "Track2 - Darude_-_Sandstorm_out"
    PEAKCOL 16576
    BEAT -1
    AUTOMODE 0
    VOLPAN 1 0 -1 -1 1
    MUTESOLO 0 0 0
    IPHASE 0
    PLAYOFFS 0 1
    ISBUS 0 0
    BUSCOMP 0 0 0 0 0
    SHOWINMIX 1 0.6667 0.5 1 0.5 -1 -1 -1
    FREEMODE 0
    SEL 0
    REC 0 0 1 0 0 0 0
    VU 2
    TRACKHEIGHT 0 0 0 0 0 0
    INQ 0 0 0 0.5 100 0 0 100
    NCHAN 2
    FX 1
    TRACKID {7BD6E359-6F61-9BB9-FDE7-145220D93283}
    PERF 0
    MIDIOUT -1
    MAINSEND 1 0
    <ITEM
      POSITION 0
      SNAPOFFS 0
      LENGTH 240.000216
      LOOP 1
      ALLTAKES 0
      FADEIN 1 0.01 0 1 0 0 0
      FADEOUT 1 0.01 0 1 0 0 0
      MUTE 0 0
      SEL 1
      IGUID {79141BEB-CF3E-1778-6B51-2ED2E5AC0D4B}
      IID 2
      NAME "Track2 - Darude_-_Sandstorm_out.mid"
      VOLPAN 1 0 1 -1
      SOFFS 0 0
      PLAYRATE 1 1 0 -1 0 0.0025
      CHANMODE 0
      GUID {3D3E6F79-1125-C69C-0E0B-2AA425BEED0B}
      <SOURCE MIDI
        HASDATA 1 120 QN
        CCINTERP 32
        POOLEDEVTS {B72DB1EF-5C8C-62F9-5AD6-698F2719D9B5}
        <X 0 0 0 0 3 Track2
          /wNUcmFjazI=
        >
        E 0 c1 00 00
        E 0 b1 07 7f
        E 25920 91 28 64
        E 30 91 28 00
        E 0 91 28 64
        E 30 91 28 00
        E 0 91 1c 64
        E 30 91 1c 00
        E 0 91 28 64
        E 30 91 28 00
        E 0 91 28 64
        E 30 91 28 00
        E 0 91 1c 64
        E 30 91 1c 00
        E 0 91 28 64
        E 60 91 28 00
        E 0 91 28 64
        E 30 91 28 00
        E 0 91 28 64
        E 30 91 28 00
        E 0 91 1c 64
        E 30 91 1c 00
        E 0 91 28 64
        E 30 91 28 00
        E 0 91 28 64
        E 30 91 28 00
        E 0 91 1c 64
        E 30 91 1c 00
        E 0 91 28 64
        E 60 91 28 00
        E 3 91 28 64
        E 27 91 28 00
        E 0 91 28 64
        E 30 91 28 00
        E 0 91 1c 64
        E 30 91 1c 00
        E 0 91 28 64
        E 30 91 28 00
        E 0 91 28 64
        E 30 91 28 00
        E 0 91 1c 64
        E 30 91 1c 00
        E 0 91 28 64
        E 60 91 28 00
        E 0 91 28 64
        E 30 91 28 00
        E 0 91 28 64
        E 30 91 28 00
        E 0 91 1c 64
        E 30 91 1c 00
        E 0 91 28 64
        E 30 91 28 00
        E 0 91 28 64
        E 30 91 28 00
        E 0 91 1c 64
        E 30 91 1c 00
        E 0 91 28 64
        E 60 91 28 00
        E 3 91 28 64
        E 27 91 28 00
        E 0 91 28 64
        E 30 91 28 00
        E 0 91 1c 64
        E 30 91 1c 00
        E 0 91 28 64
        E 30 91 28 00
        E 0 91 28 64
        E 30 91 28 00
        E 0 91 1c 64
        E 30 91 1c 00
        E 0 91 28 64
        E 60 91 28 00
        E 0 91 28 64
        E 30 91 28 00
        E 0 91 28 64
        E 30 91 28 00
        E 0 91 1c 64
        E 30 91 1c 00
        E 0 91 28 64
        E 30 91 28 00
        E 0 91 28 64
        E 30 91 28 00
        E 0 91 1c 64
        E 30 91 1c 00
        E 0 91 28 64
        E 60 91 28 00
        E 3 91 28 64
        E 27 91 28 00
        E 0 91 28 64
        E 30 91 28 00
        E 0 91 1c 64
        E 30 91 1c 00
        E 0 91 28 64
        E 30 91 28 00
        E 0 91 28 64
        E 30 91 28 00
        E 0 91 1c 64
        E 30 91 1c 00
        E 0 91 28 64
        E 60 91 28 00
        E 0 91 28 64
        E 30 91 28 00
        E 0 91 28 64
        E 30 91 28 00
        E 0 91 1c 64
        E 30 91 1c 00
        E 0 91 28 64
        E 30 91 28 00
        E 0 91 28 64
        E 30 91 28 00
        E 0 91 1c 64
        E 30 91 1c 00
        E 0 91 28 64
        E 60 91 28 00
        E 3 91 28 64
        E 27 91 28 00
        E 0 91 28 64
        E 30 91 28 00
        E 0 91 1c 64
        E 30 91 1c 00
        E 0 91 28 64
        E 30 91 28 00
        E 0 91 28 64
        E 30 91 28 00
        E 0 91 1c 64
        E 30 91 1c 00
        E 0 91 28 64
        E 60 91 28 00
        E 0 91 28 64
        E 30 91 28 00
        E 0 91 28 64
        E 30 91 28 00
        E 0 91 1c 64
        E 30 91 1c 00
        E 0 91 28 64
        E 30 91 28 00
        E 0 91 28 64
        E 30 91 28 00
        E 0 91 1c 64
        E 30 91 1c 00
        E 0 91 28 64
        E 60 91 28 00
        E 3 91 28 64
        E 27 91 28 00
        E 0 91 28 64
        E 30 91 28 00
        E 0 91 1c 64
        E 30 91 1c 00
        E 0 91 28 64
        E 30 91 28 00
        E 0 91 28 64
        E 30 91 28 00
        E 0 91 1c 64
        E 30 91 1c 00
        E 0 91 28 64
        E 60 91 28 00
        E 0 91 28 64
        E 30 91 28 00
        E 0 91 28 64
        E 30 91 28 00
        E 0 91 1c 64
        E 30 91 1c 00
        E 0 91 28 64
        E 30 91 28 00
        E 0 91 28 64
        E 30 91 28 00
        E 0 91 1c 64
        E 30 91 1c 00
        E 0 91 28 64
        E 60 91 28 00
        E 3 91 28 64
        E 27 91 28 00
        E 0 91 28 64
        E 30 91 28 00
        E 0 91 1c 64
        E 30 91 1c 00
        E 0 91 28 64
        E 30 91 28 00
        E 0 91 28 64
        E 30 91 28 00
        E 0 91 1c 64
        E 30 91 1c 00
        E 0 91 28 64
        E 60 91 28 00
        E 0 91 28 64
        E 30 91 28 00
        E 0 91 28 64
        E 30 91 28 00
        E 0 91 1c 64
        E 30 91 1c 00
        E 0 91 28 64
        E 30 91 28 00
        E 0 91 28 64
        E 30 91 28 00
        E 0 91 1c 64
        E 30 91 1c 00
        E 0 91 28 64
        E 60 91 28 00
        E 3 91 28 64
        E 27 91 28 00
        E 0 91 28 64
        E 30 91 28 00
        E 0 91 1c 64
        E 30 91 1c 00
        E 0 91 28 64
        E 30 91 28 00
        E 0 91 28 64
        E 30 91 28 00
        E 0 91 1c 64
        E 30 91 1c 00
        E 0 91 28 64
        E 60 91 28 00
        E 0 91 28 64
        E 30 91 28 00
        E 0 91 28 64
        E 30 91 28 00
        E 0 91 1c 64
        E 30 91 1c 00
        E 0 91 28 64
        E 30 91 28 00
        E 0 91 28 64
        E 30 91 28 00
        E 0 91 1c 64
        E 30 91 1c 00
        E 0 91 28 64
        E 60 91 28 00
        E 3 91 28 64
        E 27 91 28 00
        E 0 91 28 64
        E 30 91 28 00
        E 0 91 1c 64
        E 30 91 1c 00
        E 0 91 28 64
        E 30 91 28 00
        E 0 91 28 64
        E 30 91 28 00
        E 0 91 1c 64
        E 30 91 1c 00
        E 0 91 28 64
        E 60 91 28 00
        E 0 91 28 64
        E 30 91 28 00
        E 0 91 28 64
        E 30 91 28 00
        E 0 91 1c 64
        E 30 91 1c 00
        E 0 91 28 64
        E 30 91 28 00
        E 0 91 28 64
        E 30 91 28 00
        E 0 91 1c 64
        E 30 91 1c 00
        E 0 91 28 64
        E 60 91 28 00
        E 3 91 28 64
        E 27 91 28 00
        E 0 91 28 64
        E 30 91 28 00
        E 0 91 1c 64
        E 30 91 1c 00
        E 0 91 28 64
        E 30 91 28 00
        E 0 91 28 64
        E 30 91 28 00
        E 0 91 1c 64
        E 30 91 1c 00
        E 0 91 28 64
        E 60 91 28 00
        E 0 91 28 64
        E 30 91 28 00
        E 0 91 28 64
        E 30 91 28 00
        E 0 91 1c 64
        E 30 91 1c 00
        E 0 91 28 64
        E 30 91 28 00
        E 0 91 28 64
        E 30 91 28 00
        E 0 91 1c 64
        E 30 91 1c 00
        E 0 91 28 64
        E 60 91 28 00
        E 3 91 28 64
        E 27 91 28 00
        E 0 91 28 64
        E 30 91 28 00
        E 0 91 1c 64
        E 30 91 1c 00
        E 0 91 28 64
        E 30 91 28 00
        E 0 91 28 64
        E 30 91 28 00
        E 0 91 1c 64
        E 30 91 1c 00
        E 0 91 28 64
        E 60 91 28 00
        E 0 91 28 64
        E 30 91 28 00
        E 0 91 28 64
        E 30 91 28 00
        E 0 91 1c 64
        E 30 91 1c 00
        E 0 91 28 64
        E 30 91 28 00
        E 0 91 28 64
        E 30 91 28 00
        E 0 91 1c 64
        E 30 91 1c 00
        E 0 91 28 64
        E 60 91 28 00
        E 3 91 28 64
        E 27 91 28 00
        E 0 91 28 64
        E 30 91 28 00
        E 0 91 1c 64
        E 30 91 1c 00
        E 0 91 28 64
        E 30 91 28 00
        E 0 91 28 64
        E 30 91 28 00
        E 0 91 1c 64
        E 30 91 1c 00
        E 0 91 28 64
        E 60 91 28 00
        E 0 91 28 64
        E 30 91 28 00
        E 0 91 28 64
        E 30 91 28 00
        E 0 91 1c 64
        E 30 91 1c 00
        E 0 91 28 64
        E 30 91 28 00
        E 0 91 28 64
        E 30 91 28 00
        E 0 91 1c 64
        E 30 91 1c 00
        E 0 91 28 64
        E 60 91 28 00
        E 3 91 28 64
        E 27 91 28 00
        E 0 91 28 64
        E 30 91 28 00
        E 0 91 1c 64
        E 30 91 1c 00
        E 0 91 28 64
        E 30 91 28 00
        E 0 91 28 64
        E 30 91 28 00
        E 0 91 1c 64
        E 30 91 1c 00
        E 0 91 28 64
        E 60 91 28 00
        E 0 91 28 64
        E 30 91 28 00
        E 0 91 28 64
        E 30 91 28 00
        E 0 91 1c 64
        E 30 91 1c 00
        E 0 91 28 64
        E 30 91 28 00
        E 0 91 28 64
        E 30 91 28 00
        E 0 91 1c 64
        E 30 91 1c 00
        E 0 91 28 64
        E 60 91 28 00
        E 3 91 28 64
        E 27 91 28 00
        E 0 91 28 64
        E 30 91 28 00
        E 0 91 1c 64
        E 30 91 1c 00
        E 0 91 28 64
        E 30 91 28 00
        E 0 91 28 64
        E 30 91 28 00
        E 0 91 1c 64
        E 30 91 1c 00
        E 0 91 28 64
        E 60 91 28 00
        E 0 91 28 64
        E 30 91 28 00
        E 0 91 28 64
        E 30 91 28 00
        E 0 91 1c 64
        E 30 91 1c 00
        E 0 91 28 64
        E 30 91 28 00
        E 0 91 28 64
        E 30 91 28 00
        E 0 91 1c 64
        E 30 91 1c 00
        E 0 91 28 64
        E 60 91 28 00
        E 3 91 28 64
        E 27 91 28 00
        E 0 91 28 64
        E 30 91 28 00
        E 0 91 1c 64
        E 30 91 1c 00
        E 0 91 28 64
        E 30 91 28 00
        E 0 91 28 64
        E 30 91 28 00
        E 0 91 1c 64
        E 30 91 1c 00
        E 0 91 28 64
        E 60 91 28 00
        E 0 91 28 64
        E 30 91 28 00
        E 0 91 28 64
        E 30 91 28 00
        E 0 91 1c 64
        E 30 91 1c 00
        E 0 91 28 64
        E 30 91 28 00
        E 0 91 28 64
        E 30 91 28 00
        E 0 91 1c 64
        E 30 91 1c 00
        E 0 91 28 64
        E 60 91 28 00
        E 3 91 28 64
        E 27 91 28 00
        E 0 91 28 64
        E 30 91 28 00
        E 0 91 1c 64
        E 30 91 1c 00
        E 0 91 28 64
        E 30 91 28 00
        E 0 91 28 64
        E 30 91 28 00
        E 0 91 1c 64
        E 30 91 1c 00
        E 0 91 28 64
        E 60 91 28 00
        E 0 91 28 64
        E 30 91 28 00
        E 0 91 28 64
        E 30 91 28 00
        E 0 91 1c 64
        E 30 91 1c 00
        E 0 91 28 64
        E 30 91 28 00
        E 0 91 28 64
        E 30 91 28 00
        E 0 91 1c 64
        E 30 91 1c 00
        E 0 91 28 64
        E 60 91 28 00
        E 3 91 28 64
        E 27 91 28 00
        E 0 91 28 64
        E 30 91 28 00
        E 0 91 1c 64
        E 30 91 1c 00
        E 0 91 28 64
        E 30 91 28 00
        E 0 91 28 64
        E 30 91 28 00
        E 0 91 1c 64
        E 30 91 1c 00
        E 0 91 28 64
        E 60 91 28 00
        E 0 91 28 64
        E 30 91 28 00
        E 0 91 28 64
        E 30 91 28 00
        E 0 91 1c 64
        E 30 91 1c 00
        E 0 91 28 64
        E 30 91 28 00
        E 0 91 28 64
        E 30 91 28 00
        E 0 91 1c 64
        E 30 91 1c 00
        E 0 91 28 64
        E 60 91 28 00
        E 3 91 28 64
        E 27 91 28 00
        E 0 91 28 64
        E 30 91 28 00
        E 0 91 1c 64
        E 30 91 1c 00
        E 0 91 28 64
        E 30 91 28 00
        E 0 91 28 64
        E 30 91 28 00
        E 0 91 1c 64
        E 30 91 1c 00
        E 0 91 28 64
        E 60 91 28 00
        E 0 91 28 64
        E 30 91 28 00
        E 0 91 28 64
        E 30 91 28 00
        E 0 91 1c 64
        E 30 91 1c 00
        E 0 91 28 64
        E 30 91 28 00
        E 0 91 28 64
        E 30 91 28 00
        E 0 91 1c 64
        E 30 91 1c 00
        E 0 91 28 64
        E 60 91 28 00
        E 3 91 28 64
        E 27 91 28 00
        E 0 91 28 64
        E 30 91 28 00
        E 0 91 1c 64
        E 30 91 1c 00
        E 0 91 28 64
        E 30 91 28 00
        E 0 91 28 64
        E 30 91 28 00
        E 0 91 1c 64
        E 30 91 1c 00
        E 0 91 28 64
        E 60 91 28 00
        E 0 91 28 64
        E 30 91 28 00
        E 0 91 28 64
        E 30 91 28 00
        E 0 91 1c 64
        E 30 91 1c 00
        E 0 91 28 64
        E 30 91 28 00
        E 0 91 28 64
        E 30 91 28 00
        E 0 91 1c 64
        E 30 91 1c 00
        E 0 91 28 64
        E 60 91 28 00
        E 3 91 28 64
        E 27 91 28 00
        E 0 91 28 64
        E 30 91 28 00
        E 0 91 1c 64
        E 30 91 1c 00
        E 0 91 28 64
        E 30 91 28 00
        E 0 91 28 64
        E 30 91 28 00
        E 0 91 1c 64
        E 30 91 1c 00
        E 0 91 28 64
        E 60 91 28 00
        E 0 91 28 64
        E 30 91 28 00
        E 0 91 28 64
        E 30 91 28 00
        E 0 91 1c 64
        E 30 91 1c 00
        E 0 91 28 64
        E 30 91 28 00
        E 0 91 28 64
        E 30 91 28 00
        E 0 91 1c 64
        E 30 91 1c 00
        E 0 91 28 64
        E 60 91 28 00
        E 3 91 28 64
        E 27 91 28 00
        E 0 91 28 64
        E 30 91 28 00
        E 0 91 1c 64
        E 30 91 1c 00
        E 0 91 28 64
        E 30 91 28 00
        E 0 91 28 64
        E 30 91 28 00
        E 0 91 1c 64
        E 30 91 1c 00
        E 0 91 28 64
        E 60 91 28 00
        E 0 91 28 64
        E 30 91 28 00
        E 0 91 28 64
        E 30 91 28 00
        E 0 91 1c 64
        E 30 91 1c 00
        E 0 91 28 64
        E 30 91 28 00
        E 0 91 28 64
        E 30 91 28 00
        E 0 91 1c 64
        E 30 91 1c 00
        E 0 91 28 64
        E 60 91 28 00
        E 3 91 28 64
        E 27 91 28 00
        E 0 91 28 64
        E 30 91 28 00
        E 0 91 1c 64
        E 30 91 1c 00
        E 0 91 28 64
        E 30 91 28 00
        E 0 91 28 64
        E 30 91 28 00
        E 0 91 1c 64
        E 30 91 1c 00
        E 0 91 28 64
        E 60 91 28 00
        E 0 91 28 64
        E 30 91 28 00
        E 0 91 28 64
        E 30 91 28 00
        E 0 91 1c 64
        E 30 91 1c 00
        E 0 91 28 64
        E 30 91 28 00
        E 0 91 28 64
        E 30 91 28 00
        E 0 91 1c 64
        E 30 91 1c 00
        E 0 91 28 64
        E 60 91 28 00
        E 3 91 28 64
        E 27 91 28 00
        E 0 91 28 64
        E 30 91 28 00
        E 0 91 1c 64
        E 30 91 1c 00
        E 0 91 28 64
        E 30 91 28 00
        E 0 91 28 64
        E 30 91 28 00
        E 0 91 1c 64
        E 30 91 1c 00
        E 0 91 28 64
        E 60 91 28 00
        E 0 91 28 64
        E 30 91 28 00
        E 0 91 28 64
        E 30 91 28 00
        E 0 91 1c 64
        E 30 91 1c 00
        E 0 91 28 64
        E 30 91 28 00
        E 0 91 28 64
        E 30 91 28 00
        E 0 91 1c 64
        E 30 91 1c 00
        E 0 91 28 64
        E 60 91 28 00
        E 3 91 28 64
        E 27 91 28 00
        E 0 91 28 64
        E 30 91 28 00
        E 0 91 1c 64
        E 30 91 1c 00
        E 0 91 28 64
        E 30 91 28 00
        E 0 91 28 64
        E 30 91 28 00
        E 0 91 1c 64
        E 30 91 1c 00
        E 0 91 28 64
        E 60 91 28 00
        E 0 91 28 64
        E 30 91 28 00
        E 0 91 28 64
        E 30 91 28 00
        E 0 91 1c 64
        E 30 91 1c 00
        E 0 91 28 64
        E 30 91 28 00
        E 0 91 28 64
        E 30 91 28 00
        E 0 91 1c 64
        E 30 91 1c 00
        E 0 91 28 64
        E 60 91 28 00
        E 3 91 28 64
        E 27 91 28 00
        E 0 91 28 64
        E 30 91 28 00
        E 0 91 1c 64
        E 30 91 1c 00
        E 0 91 28 64
        E 30 91 28 00
        E 0 91 28 64
        E 30 91 28 00
        E 0 91 1c 64
        E 30 91 1c 00
        E 0 91 28 64
        E 60 91 28 00
        E 0 91 28 64
        E 30 91 28 00
        E 0 91 28 64
        E 30 91 28 00
        E 0 91 1c 64
        E 30 91 1c 00
        E 0 91 28 64
        E 30 91 28 00
        E 0 91 28 64
        E 30 91 28 00
        E 0 91 1c 64
        E 30 91 1c 00
        E 0 91 28 64
        E 60 91 28 00
        E 3 91 28 64
        E 27 91 28 00
        E 0 91 28 64
        E 30 91 28 00
        E 0 91 1c 64
        E 30 91 1c 00
        E 0 91 28 64
        E 30 91 28 00
        E 0 91 28 64
        E 30 91 28 00
        E 0 91 1c 64
        E 30 91 1c 00
        E 0 91 28 64
        E 60 91 28 00
        E 0 91 28 64
        E 30 91 28 00
        E 0 91 28 64
        E 30 91 28 00
        E 0 91 1c 64
        E 30 91 1c 00
        E 0 91 28 64
        E 30 91 28 00
        E 0 91 28 64
        E 30 91 28 00
        E 0 91 1c 64
        E 30 91 1c 00
        E 0 91 28 64
        E 60 91 28 00
        E 3 91 28 64
        E 27 91 28 00
        E 0 91 28 64
        E 30 91 28 00
        E 0 91 1c 64
        E 30 91 1c 00
        E 0 91 28 64
        E 30 91 28 00
        E 0 91 28 64
        E 30 91 28 00
        E 0 91 1c 64
        E 30 91 1c 00
        E 0 91 28 64
        E 60 91 28 00
        E 0 91 28 64
        E 30 91 28 00
        E 0 91 28 64
        E 30 91 28 00
        E 0 91 1c 64
        E 30 91 1c 00
        E 0 91 28 64
        E 30 91 28 00
        E 0 91 28 64
        E 30 91 28 00
        E 0 91 1c 64
        E 30 91 1c 00
        E 0 91 28 64
        E 60 91 28 00
        E 3 91 28 64
        E 27 91 28 00
        E 0 91 28 64
        E 30 91 28 00
        E 0 91 1c 64
        E 30 91 1c 00
        E 0 91 28 64
        E 30 91 28 00
        E 0 91 28 64
        E 30 91 28 00
        E 0 91 1c 64
        E 30 91 1c 00
        E 0 91 28 64
        E 60 91 28 00
        E 0 91 28 64
        E 30 91 28 00
        E 0 91 28 64
        E 30 91 28 00
        E 0 91 1c 64
        E 30 91 1c 00
        E 0 91 28 64
        E 30 91 28 00
        E 0 91 28 64
        E 30 91 28 00
        E 0 91 1c 64
        E 30 91 1c 00
        E 0 91 28 64
        E 60 91 28 00
        E 3 91 28 64
        E 27 91 28 00
        E 0 91 28 64
        E 30 91 28 00
        E 0 91 1c 64
        E 30 91 1c 00
        E 0 91 28 64
        E 30 91 28 00
        E 0 91 28 64
        E 30 91 28 00
        E 0 91 1c 64
        E 30 91 1c 00
        E 0 91 28 64
        E 60 91 28 00
        E 0 91 28 64
        E 30 91 28 00
        E 0 91 28 64
        E 30 91 28 00
        E 0 91 1c 64
        E 30 91 1c 00
        E 0 91 28 64
        E 30 91 28 00
        E 0 91 28 64
        E 30 91 28 00
        E 0 91 1c 64
        E 30 91 1c 00
        E 0 91 28 64
        E 60 91 28 00
        E 0 91 2d 64
        E 30 91 2d 00
        E 0 91 2d 64
        E 30 91 2d 00
        E 0 91 21 64
        E 30 91 21 00
        E 0 91 2d 64
        E 30 91 2d 00
        E 0 91 2d 64
        E 30 91 2d 00
        E 0 91 21 64
        E 30 91 21 00
        E 0 91 2d 64
        E 60 91 2d 00
        E 0 91 2b 64
        E 30 91 2b 00
        E 0 91 2b 64
        E 30 91 2b 00
        E 0 91 1f 64
        E 30 91 1f 00
        E 0 91 2b 64
        E 30 91 2b 00
        E 0 91 2b 64
        E 30 91 2b 00
        E 0 91 1f 64
        E 30 91 1f 00
        E 0 91 2b 64
        E 60 91 2b 00
        E 0 91 28 64
        E 30 91 28 00
        E 0 91 28 64
        E 30 91 28 00
        E 0 91 1c 64
        E 30 91 1c 00
        E 0 91 28 64
        E 30 91 28 00
        E 0 91 28 64
        E 30 91 28 00
        E 0 91 1c 64
        E 30 91 1c 00
        E 0 91 28 64
        E 60 91 28 00
        E 0 91 28 64
        E 30 91 28 00
        E 0 91 28 64
        E 30 91 28 00
        E 0 91 1c 64
        E 30 91 1c 00
        E 0 91 28 64
        E 30 91 28 00
        E 0 91 28 64
        E 30 91 28 00
        E 0 91 1c 64
        E 30 91 1c 00
        E 0 91 28 64
        E 60 91 28 00
        E 0 91 28 64
        E 30 91 28 00
        E 0 91 28 64
        E 30 91 28 00
        E 0 91 1c 64
        E 30 91 1c 00
        E 0 91 28 64
        E 30 91 28 00
        E 0 91 28 64
        E 30 91 28 00
        E 0 91 1c 64
        E 30 91 1c 00
        E 0 91 28 64
        E 60 91 28 00
        E 0 91 28 64
        E 30 91 28 00
        E 0 91 28 64
        E 30 91 28 00
        E 0 91 1c 64
        E 30 91 1c 00
        E 0 91 28 64
        E 30 91 28 00
        E 0 91 28 64
        E 30 91 28 00
        E 0 91 1c 64
        E 30 91 1c 00
        E 0 91 28 64
        E 60 91 28 00
        E 0 91 28 64
        E 30 91 28 00
        E 0 91 28 64
        E 30 91 28 00
        E 0 91 1c 64
        E 30 91 1c 00
        E 0 91 28 64
        E 30 91 28 00
        E 0 91 28 64
        E 30 91 28 00
        E 0 91 1c 64
        E 30 91 1c 00
        E 0 91 28 64
        E 60 91 28 00
        E 0 91 28 64
        E 30 91 28 00
        E 0 91 28 64
        E 30 91 28 00
        E 0 91 1c 64
        E 30 91 1c 00
        E 0 91 28 64
        E 30 91 28 00
        E 0 91 28 64
        E 30 91 28 00
        E 0 91 1c 64
        E 30 91 1c 00
        E 0 91 28 64
        E 60 91 28 00
        E 0 91 2d 64
        E 30 91 2d 00
        E 0 91 2d 64
        E 30 91 2d 00
        E 0 91 21 64
        E 30 91 21 00
        E 0 91 2d 64
        E 30 91 2d 00
        E 0 91 2d 64
        E 30 91 2d 00
        E 0 91 21 64
        E 30 91 21 00
        E 0 91 2d 64
        E 60 91 2d 00
        E 0 91 2b 64
        E 30 91 2b 00
        E 0 91 2b 64
        E 30 91 2b 00
        E 0 91 1f 64
        E 30 91 1f 00
        E 0 91 2b 64
        E 30 91 2b 00
        E 0 91 2b 64
        E 30 91 2b 00
        E 0 91 1f 64
        E 30 91 1f 00
        E 0 91 2b 64
        E 60 91 2b 00
        E 0 91 28 64
        E 30 91 28 00
        E 0 91 28 64
        E 30 91 28 00
        E 0 91 1c 64
        E 30 91 1c 00
        E 0 91 28 64
        E 30 91 28 00
        E 0 91 28 64
        E 30 91 28 00
        E 0 91 1c 64
        E 30 91 1c 00
        E 0 91 28 64
        E 60 91 28 00
        E 0 91 28 64
        E 30 91 28 00
        E 0 91 28 64
        E 30 91 28 00
        E 0 91 1c 64
        E 30 91 1c 00
        E 0 91 28 64
        E 30 91 28 00
        E 0 91 28 64
        E 30 91 28 00
        E 0 91 1c 64
        E 30 91 1c 00
        E 0 91 28 64
        E 60 91 28 00
        E 0 91 28 64
        E 30 91 28 00
        E 0 91 28 64
        E 30 91 28 00
        E 0 91 1c 64
        E 30 91 1c 00
        E 0 91 28 64
        E 30 91 28 00
        E 0 91 28 64
        E 30 91 28 00
        E 0 91 1c 64
        E 30 91 1c 00
        E 0 91 28 64
        E 60 91 28 00
        E 0 91 28 64
        E 30 91 28 00
        E 0 91 28 64
        E 30 91 28 00
        E 0 91 1c 64
        E 30 91 1c 00
        E 0 91 28 64
        E 30 91 28 00
        E 0 91 28 64
        E 30 91 28 00
        E 0 91 1c 64
        E 30 91 1c 00
        E 0 91 28 64
        E 60 91 28 00
        E 0 91 28 64
        E 30 91 28 00
        E 0 91 28 64
        E 30 91 28 00
        E 0 91 1c 64
        E 30 91 1c 00
        E 0 91 28 64
        E 30 91 28 00
        E 0 91 28 64
        E 30 91 28 00
        E 0 91 1c 64
        E 30 91 1c 00
        E 0 91 28 64
        E 60 91 28 00
        E 0 91 28 64
        E 30 91 28 00
        E 0 91 28 64
        E 30 91 28 00
        E 0 91 1c 64
        E 30 91 1c 00
        E 0 91 28 64
        E 30 91 28 00
        E 0 91 28 64
        E 30 91 28 00
        E 0 91 1c 64
        E 30 91 1c 00
        E 0 91 28 64
        E 60 91 28 00
        E 0 91 2d 64
        E 30 91 2d 00
        E 0 91 2d 64
        E 30 91 2d 00
        E 0 91 21 64
        E 30 91 21 00
        E 0 91 2d 64
        E 30 91 2d 00
        E 0 91 2d 64
        E 30 91 2d 00
        E 0 91 21 64
        E 30 91 21 00
        E 0 91 2d 64
        E 60 91 2d 00
        E 0 91 2b 64
        E 30 91 2b 00
        E 0 91 2b 64
        E 30 91 2b 00
        E 0 91 1f 64
        E 30 91 1f 00
        E 0 91 2b 64
        E 30 91 2b 00
        E 0 91 2b 64
        E 30 91 2b 00
        E 0 91 1f 64
        E 30 91 1f 00
        E 0 91 2b 64
        E 60 91 2b 00
        E 0 91 28 64
        E 30 91 28 00
        E 0 91 28 64
        E 30 91 28 00
        E 0 91 1c 64
        E 30 91 1c 00
        E 0 91 28 64
        E 30 91 28 00
        E 0 91 28 64
        E 30 91 28 00
        E 0 91 1c 64
        E 30 91 1c 00
        E 0 91 28 64
        E 60 91 28 00
        E 0 91 28 64
        E 30 91 28 00
        E 0 91 28 64
        E 30 91 28 00
        E 0 91 1c 64
        E 30 91 1c 00
        E 0 91 28 64
        E 30 91 28 00
        E 0 91 28 64
        E 30 91 28 00
        E 0 91 1c 64
        E 30 91 1c 00
        E 0 91 28 64
        E 60 91 28 00
        E 0 91 28 64
        E 30 91 28 00
        E 0 91 28 64
        E 30 91 28 00
        E 0 91 1c 64
        E 30 91 1c 00
        E 0 91 28 64
        E 30 91 28 00
        E 0 91 28 64
        E 30 91 28 00
        E 0 91 1c 64
        E 30 91 1c 00
        E 0 91 28 64
        E 60 91 28 00
        E 0 91 28 64
        E 30 91 28 00
        E 0 91 28 64
        E 30 91 28 00
        E 0 91 1c 64
        E 30 91 1c 00
        E 0 91 28 64
        E 30 91 28 00
        E 0 91 28 64
        E 30 91 28 00
        E 0 91 1c 64
        E 30 91 1c 00
        E 0 91 28 64
        E 60 91 28 00
        E 0 91 28 64
        E 30 91 28 00
        E 0 91 28 64
        E 30 91 28 00
        E 0 91 1c 64
        E 30 91 1c 00
        E 0 91 28 64
        E 30 91 28 00
        E 0 91 28 64
        E 30 91 28 00
        E 0 91 1c 64
        E 30 91 1c 00
        E 0 91 28 64
        E 60 91 28 00
        E 0 91 28 64
        E 30 91 28 00
        E 0 91 28 64
        E 30 91 28 00
        E 0 91 1c 64
        E 30 91 1c 00
        E 0 91 28 64
        E 30 91 28 00
        E 0 91 28 64
        E 30 91 28 00
        E 0 91 1c 64
        E 30 91 1c 00
        E 0 91 28 64
        E 60 91 28 00
        E 0 91 2d 64
        E 30 91 2d 00
        E 0 91 2d 64
        E 30 91 2d 00
        E 0 91 21 64
        E 30 91 21 00
        E 0 91 2d 64
        E 30 91 2d 00
        E 0 91 2d 64
        E 30 91 2d 00
        E 0 91 21 64
        E 30 91 21 00
        E 0 91 2d 64
        E 60 91 2d 00
        E 0 91 2b 64
        E 30 91 2b 00
        E 0 91 2b 64
        E 30 91 2b 00
        E 0 91 1f 64
        E 30 91 1f 00
        E 0 91 2b 64
        E 30 91 2b 00
        E 0 91 2b 64
        E 30 91 2b 00
        E 0 91 1f 64
        E 30 91 1f 00
        E 0 91 2b 64
        E 60 91 2b 00
        E 0 91 28 64
        E 30 91 28 00
        E 0 91 28 64
        E 30 91 28 00
        E 0 91 1c 64
        E 30 91 1c 00
        E 0 91 28 64
        E 30 91 28 00
        E 0 91 28 64
        E 30 91 28 00
        E 0 91 1c 64
        E 30 91 1c 00
        E 0 91 28 64
        E 60 91 28 00
        E 0 91 28 64
        E 30 91 28 00
        E 0 91 28 64
        E 30 91 28 00
        E 0 91 1c 64
        E 30 91 1c 00
        E 0 91 28 64
        E 30 91 28 00
        E 0 91 28 64
        E 30 91 28 00
        E 0 91 1c 64
        E 30 91 1c 00
        E 0 91 28 64
        E 60 91 28 00
        E 0 91 28 64
        E 30 91 28 00
        E 0 91 28 64
        E 30 91 28 00
        E 0 91 1c 64
        E 30 91 1c 00
        E 0 91 28 64
        E 30 91 28 00
        E 0 91 28 64
        E 30 91 28 00
        E 0 91 1c 64
        E 30 91 1c 00
        E 0 91 28 64
        E 60 91 28 00
        E 0 91 28 64
        E 30 91 28 00
        E 0 91 28 64
        E 30 91 28 00
        E 0 91 1c 64
        E 30 91 1c 00
        E 0 91 28 64
        E 30 91 28 00
        E 0 91 28 64
        E 30 91 28 00
        E 0 91 1c 64
        E 30 91 1c 00
        E 0 91 28 64
        E 60 91 28 00
        E 0 91 28 64
        E 30 91 28 00
        E 0 91 28 64
        E 30 91 28 00
        E 0 91 1c 64
        E 30 91 1c 00
        E 0 91 28 64
        E 30 91 28 00
        E 0 91 28 64
        E 30 91 28 00
        E 0 91 1c 64
        E 30 91 1c 00
        E 0 91 28 64
        E 60 91 28 00
        E 0 91 28 64
        E 30 91 28 00
        E 0 91 28 64
        E 30 91 28 00
        E 0 91 1c 64
        E 30 91 1c 00
        E 0 91 28 64
        E 30 91 28 00
        E 0 91 28 64
        E 30 91 28 00
        E 0 91 1c 64
        E 30 91 1c 00
        E 0 91 28 64
        E 60 91 28 00
        E 0 91 28 64
        E 30 91 28 00
        E 0 91 28 64
        E 30 91 28 00
        E 0 91 1c 64
        E 30 91 1c 00
        E 0 91 28 64
        E 30 91 28 00
        E 0 91 28 64
        E 30 91 28 00
        E 0 91 1c 64
        E 30 91 1c 00
        E 0 91 28 64
        E 60 91 28 00
        E 0 91 28 64
        E 30 91 28 00
        E 0 91 28 64
        E 30 91 28 00
        E 0 91 1c 64
        E 30 91 1c 00
        E 0 91 28 64
        E 30 91 28 00
        E 0 91 28 64
        E 30 91 28 00
        E 0 91 1c 64
        E 30 91 1c 00
        E 0 91 28 64
        E 60 91 28 00
        E 0 91 28 64
        E 30 91 28 00
        E 0 91 28 64
        E 30 91 28 00
        E 0 91 1c 64
        E 30 91 1c 00
        E 0 91 28 64
        E 30 91 28 00
        E 0 91 28 64
        E 30 91 28 00
        E 0 91 1c 64
        E 30 91 1c 00
        E 0 91 28 64
        E 60 91 28 00
        E 0 91 28 64
        E 30 91 28 00
        E 0 91 28 64
        E 30 91 28 00
        E 0 91 1c 64
        E 30 91 1c 00
        E 0 91 28 64
        E 30 91 28 00
        E 0 91 28 64
        E 30 91 28 00
        E 0 91 1c 64
        E 30 91 1c 00
        E 0 91 28 64
        E 60 91 28 00
        E 0 91 2d 64
        E 30 91 2d 00
        E 0 91 2d 64
        E 30 91 2d 00
        E 0 91 21 64
        E 30 91 21 00
        E 0 91 2d 64
        E 30 91 2d 00
        E 0 91 2d 64
        E 30 91 2d 00
        E 0 91 21 64
        E 30 91 21 00
        E 0 91 2d 64
        E 60 91 2d 00
        E 0 91 2b 64
        E 30 91 2b 00
        E 0 91 2b 64
        E 30 91 2b 00
        E 0 91 1f 64
        E 30 91 1f 00
        E 0 91 2b 64
        E 30 91 2b 00
        E 0 91 2b 64
        E 30 91 2b 00
        E 0 91 1f 64
        E 30 91 1f 00
        E 0 91 2b 64
        E 60 91 2b 00
        E 0 91 28 64
        E 30 91 28 00
        E 0 91 28 64
        E 30 91 28 00
        E 0 91 1c 64
        E 30 91 1c 00
        E 0 91 28 64
        E 30 91 28 00
        E 0 91 28 64
        E 30 91 28 00
        E 0 91 1c 64
        E 30 91 1c 00
        E 0 91 28 64
        E 60 91 28 00
        E 0 91 28 64
        E 30 91 28 00
        E 0 91 28 64
        E 30 91 28 00
        E 0 91 1c 64
        E 30 91 1c 00
        E 0 91 28 64
        E 30 91 28 00
        E 0 91 28 64
        E 30 91 28 00
        E 0 91 1c 64
        E 30 91 1c 00
        E 0 91 28 64
        E 60 91 28 00
        E 0 91 28 64
        E 30 91 28 00
        E 0 91 28 64
        E 30 91 28 00
        E 0 91 1c 64
        E 30 91 1c 00
        E 0 91 28 64
        E 30 91 28 00
        E 0 91 28 64
        E 30 91 28 00
        E 0 91 1c 64
        E 30 91 1c 00
        E 0 91 28 64
        E 60 91 28 00
        E 0 91 28 64
        E 30 91 28 00
        E 0 91 28 64
        E 30 91 28 00
        E 0 91 1c 64
        E 30 91 1c 00
        E 0 91 28 64
        E 30 91 28 00
        E 0 91 28 64
        E 30 91 28 00
        E 0 91 1c 64
        E 30 91 1c 00
        E 0 91 28 64
        E 60 91 28 00
        E 0 91 28 64
        E 30 91 28 00
        E 0 91 28 64
        E 30 91 28 00
        E 0 91 1c 64
        E 30 91 1c 00
        E 0 91 28 64
        E 30 91 28 00
        E 0 91 28 64
        E 30 91 28 00
        E 0 91 1c 64
        E 30 91 1c 00
        E 0 91 28 64
        E 60 91 28 00
        E 0 91 28 64
        E 30 91 28 00
        E 0 91 28 64
        E 30 91 28 00
        E 0 91 1c 64
        E 30 91 1c 00
        E 0 91 28 64
        E 30 91 28 00
        E 0 91 28 64
        E 30 91 28 00
        E 0 91 1c 64
        E 30 91 1c 00
        E 0 91 28 64
        E 60 91 28 00
        E 0 91 2d 64
        E 30 91 2d 00
        E 0 91 2d 64
        E 30 91 2d 00
        E 0 91 21 64
        E 30 91 21 00
        E 0 91 2d 64
        E 30 91 2d 00
        E 0 91 2d 64
        E 30 91 2d 00
        E 0 91 21 64
        E 30 91 21 00
        E 0 91 2d 64
        E 60 91 2d 00
        E 0 91 2b 64
        E 30 91 2b 00
        E 0 91 2b 64
        E 30 91 2b 00
        E 0 91 1f 64
        E 30 91 1f 00
        E 0 91 2b 64
        E 30 91 2b 00
        E 0 91 2b 64
        E 30 91 2b 00
        E 0 91 1f 64
        E 30 91 1f 00
        E 0 91 2b 64
        E 60 91 2b 00
        E 0 91 28 64
        E 30 91 28 00
        E 0 91 28 64
        E 30 91 28 00
        E 0 91 1c 64
        E 30 91 1c 00
        E 0 91 28 64
        E 30 91 28 00
        E 0 91 28 64
        E 30 91 28 00
        E 0 91 1c 64
        E 30 91 1c 00
        E 0 91 28 64
        E 60 91 28 00
        E 0 91 28 64
        E 30 91 28 00
        E 0 91 28 64
        E 30 91 28 00
        E 0 91 1c 64
        E 30 91 1c 00
        E 0 91 28 64
        E 30 91 28 00
        E 0 91 28 64
        E 30 91 28 00
        E 0 91 1c 64
        E 30 91 1c 00
        E 0 91 28 64
        E 60 91 28 00
        E 0 91 28 64
        E 30 91 28 00
        E 0 91 28 64
        E 30 91 28 00
        E 0 91 1c 64
        E 30 91 1c 00
        E 0 91 28 64
        E 30 91 28 00
        E 0 91 28 64
        E 30 91 28 00
        E 0 91 1c 64
        E 30 91 1c 00
        E 0 91 28 64
        E 60 91 28 00
        E 0 91 28 64
        E 30 91 28 00
        E 0 91 28 64
        E 30 91 28 00
        E 0 91 1c 64
        E 30 91 1c 00
        E 0 91 28 64
        E 30 91 28 00
        E 0 91 28 64
        E 30 91 28 00
        E 0 91 1c 64
        E 30 91 1c 00
        E 0 91 28 64
        E 60 91 28 00
        E 0 91 28 64
        E 30 91 28 00
        E 0 91 28 64
        E 30 91 28 00
        E 0 91 1c 64
        E 30 91 1c 00
        E 0 91 28 64
        E 30 91 28 00
        E 0 91 28 64
        E 30 91 28 00
        E 0 91 1c 64
        E 30 91 1c 00
        E 0 91 28 64
        E 60 91 28 00
        E 0 91 28 64
        E 30 91 28 00
        E 0 91 28 64
        E 30 91 28 00
        E 0 91 1c 64
        E 30 91 1c 00
        E 0 91 28 64
        E 30 91 28 00
        E 0 91 28 64
        E 30 91 28 00
        E 0 91 1c 64
        E 30 91 1c 00
        E 0 91 28 64
        E 60 91 28 00
        E 0 91 28 64
        E 30 91 28 00
        E 0 91 28 64
        E 30 91 28 00
        E 0 91 1c 64
        E 30 91 1c 00
        E 0 91 28 64
        E 30 91 28 00
        E 0 91 28 64
        E 30 91 28 00
        E 0 91 1c 64
        E 30 91 1c 00
        E 0 91 28 64
        E 60 91 28 00
        E 0 91 28 64
        E 30 91 28 00
        E 0 91 28 64
        E 30 91 28 00
        E 0 91 1c 64
        E 30 91 1c 00
        E 0 91 28 64
        E 30 91 28 00
        E 0 91 28 64
        E 30 91 28 00
        E 0 91 1c 64
        E 30 91 1c 00
        E 0 91 28 64
        E 60 91 28 00
        E 0 91 28 64
        E 30 91 28 00
        E 0 91 28 64
        E 30 91 28 00
        E 0 91 1c 64
        E 30 91 1c 00
        E 0 91 28 64
        E 30 91 28 00
        E 0 91 28 64
        E 30 91 28 00
        E 0 91 1c 64
        E 30 91 1c 00
        E 0 91 28 64
        E 60 91 28 00
        E 0 91 28 64
        E 30 91 28 00
        E 0 91 28 64
        E 30 91 28 00
        E 0 91 1c 64
        E 30 91 1c 00
        E 0 91 28 64
        E 30 91 28 00
        E 0 91 28 64
        E 30 91 28 00
        E 0 91 1c 64
        E 30 91 1c 00
        E 0 91 28 64
        E 60 91 28 00
        E 0 91 2d 64
        E 30 91 2d 00
        E 0 91 2d 64
        E 30 91 2d 00
        E 0 91 21 64
        E 30 91 21 00
        E 0 91 2d 64
        E 30 91 2d 00
        E 0 91 2d 64
        E 30 91 2d 00
        E 0 91 21 64
        E 30 91 21 00
        E 0 91 2d 64
        E 60 91 2d 00
        E 0 91 2b 64
        E 30 91 2b 00
        E 0 91 2b 64
        E 30 91 2b 00
        E 0 91 1f 64
        E 30 91 1f 00
        E 0 91 2b 64
        E 30 91 2b 00
        E 0 91 2b 64
        E 30 91 2b 00
        E 0 91 1f 64
        E 30 91 1f 00
        E 0 91 2b 64
        E 60 91 2b 00
        E 0 91 28 64
        E 30 91 28 00
        E 0 91 28 64
        E 30 91 28 00
        E 0 91 1c 64
        E 30 91 1c 00
        E 0 91 28 64
        E 30 91 28 00
        E 0 91 28 64
        E 30 91 28 00
        E 0 91 1c 64
        E 30 91 1c 00
        E 0 91 28 64
        E 60 91 28 00
        E 0 91 28 64
        E 30 91 28 00
        E 0 91 28 64
        E 30 91 28 00
        E 0 91 1c 64
        E 30 91 1c 00
        E 0 91 28 64
        E 30 91 28 00
        E 0 91 28 64
        E 30 91 28 00
        E 0 91 1c 64
        E 30 91 1c 00
        E 0 91 28 64
        E 60 91 28 00
        E 0 91 28 64
        E 30 91 28 00
        E 0 91 28 64
        E 30 91 28 00
        E 0 91 1c 64
        E 30 91 1c 00
        E 0 91 28 64
        E 30 91 28 00
        E 0 91 28 64
        E 30 91 28 00
        E 0 91 1c 64
        E 30 91 1c 00
        E 0 91 28 64
        E 60 91 28 00
        E 0 91 28 64
        E 30 91 28 00
        E 0 91 28 64
        E 30 91 28 00
        E 0 91 1c 64
        E 30 91 1c 00
        E 0 91 28 64
        E 30 91 28 00
        E 0 91 28 64
        E 30 91 28 00
        E 0 91 1c 64
        E 30 91 1c 00
        E 0 91 28 64
        E 60 91 28 00
        E 0 91 28 64
        E 30 91 28 00
        E 0 91 28 64
        E 30 91 28 00
        E 0 91 1c 64
        E 30 91 1c 00
        E 0 91 28 64
        E 30 91 28 00
        E 0 91 28 64
        E 30 91 28 00
        E 0 91 1c 64
        E 30 91 1c 00
        E 0 91 28 64
        E 60 91 28 00
        E 0 91 28 64
        E 30 91 28 00
        E 0 91 28 64
        E 30 91 28 00
        E 0 91 1c 64
        E 30 91 1c 00
        E 0 91 28 64
        E 30 91 28 00
        E 0 91 28 64
        E 30 91 28 00
        E 0 91 1c 64
        E 30 91 1c 00
        E 0 91 28 64
        E 60 91 28 00
        E 0 91 2d 64
        E 30 91 2d 00
        E 0 91 2d 64
        E 30 91 2d 00
        E 0 91 21 64
        E 30 91 21 00
        E 0 91 2d 64
        E 30 91 2d 00
        E 0 91 2d 64
        E 30 91 2d 00
        E 0 91 21 64
        E 30 91 21 00
        E 0 91 2d 64
        E 60 91 2d 00
        E 0 91 2b 64
        E 30 91 2b 00
        E 0 91 2b 64
        E 30 91 2b 00
        E 0 91 1f 64
        E 30 91 1f 00
        E 0 91 2b 64
        E 30 91 2b 00
        E 0 91 2b 64
        E 30 91 2b 00
        E 0 91 1f 64
        E 30 91 1f 00
        E 0 91 2b 64
        E 60 91 2b 00
        E 0 91 28 64
        E 30 91 28 00
        E 0 91 28 64
        E 30 91 28 00
        E 0 91 1c 64
        E 30 91 1c 00
        E 0 91 28 64
        E 30 91 28 00
        E 0 91 28 64
        E 30 91 28 00
        E 0 91 1c 64
        E 30 91 1c 00
        E 0 91 28 64
        E 60 91 28 00
        E 0 91 28 64
        E 30 91 28 00
        E 0 91 28 64
        E 30 91 28 00
        E 0 91 1c 64
        E 30 91 1c 00
        E 0 91 28 64
        E 30 91 28 00
        E 0 91 28 64
        E 30 91 28 00
        E 0 91 1c 64
        E 30 91 1c 00
        E 0 91 28 64
        E 60 91 28 00
        E 0 91 28 64
        E 30 91 28 00
        E 0 91 28 64
        E 30 91 28 00
        E 0 91 1c 64
        E 30 91 1c 00
        E 0 91 28 64
        E 30 91 28 00
        E 0 91 28 64
        E 30 91 28 00
        E 0 91 1c 64
        E 30 91 1c 00
        E 0 91 28 64
        E 60 91 28 00
        E 0 91 28 64
        E 30 91 28 00
        E 0 91 28 64
        E 30 91 28 00
        E 0 91 1c 64
        E 30 91 1c 00
        E 0 91 28 64
        E 30 91 28 00
        E 0 91 28 64
        E 30 91 28 00
        E 0 91 1c 64
        E 30 91 1c 00
        E 0 91 28 64
        E 60 91 28 00
        E 0 91 28 64
        E 30 91 28 00
        E 0 91 28 64
        E 30 91 28 00
        E 0 91 1c 64
        E 30 91 1c 00
        E 0 91 28 64
        E 30 91 28 00
        E 0 91 28 64
        E 30 91 28 00
        E 0 91 1c 64
        E 30 91 1c 00
        E 0 91 28 64
        E 60 91 28 00
        E 0 91 28 64
        E 30 91 28 00
        E 0 91 28 64
        E 30 91 28 00
        E 0 91 1c 64
        E 30 91 1c 00
        E 0 91 28 64
        E 30 91 28 00
        E 0 91 28 64
        E 30 91 28 00
        E 0 91 1c 64
        E 30 91 1c 00
        E 0 91 28 64
        E 60 91 28 00
        E 0 91 2d 64
        E 30 91 2d 00
        E 0 91 2d 64
        E 30 91 2d 00
        E 0 91 21 64
        E 30 91 21 00
        E 0 91 2d 64
        E 30 91 2d 00
        E 0 91 2d 64
        E 30 91 2d 00
        E 0 91 21 64
        E 30 91 21 00
        E 0 91 2d 64
        E 60 91 2d 00
        E 0 91 2b 64
        E 30 91 2b 00
        E 0 91 2b 64
        E 30 91 2b 00
        E 0 91 1f 64
        E 30 91 1f 00
        E 0 91 2b 64
        E 30 91 2b 00
        E 0 91 2b 64
        E 30 91 2b 00
        E 0 91 1f 64
        E 30 91 1f 00
        E 0 91 2b 64
        E 60 91 2b 00
        E 0 91 28 64
        E 30 91 28 00
        E 0 91 28 64
        E 30 91 28 00
        E 0 91 1c 64
        E 30 91 1c 00
        E 0 91 28 64
        E 30 91 28 00
        E 0 91 28 64
        E 30 91 28 00
        E 0 91 1c 64
        E 30 91 1c 00
        E 0 91 28 64
        E 60 91 28 00
        E 0 91 28 64
        E 30 91 28 00
        E 0 91 28 64
        E 30 91 28 00
        E 0 91 1c 64
        E 30 91 1c 00
        E 0 91 28 64
        E 30 91 28 00
        E 0 91 28 64
        E 30 91 28 00
        E 0 91 1c 64
        E 30 91 1c 00
        E 0 91 28 64
        E 60 91 28 00
        E 0 91 28 64
        E 30 91 28 00
        E 0 91 28 64
        E 30 91 28 00
        E 0 91 1c 64
        E 30 91 1c 00
        E 0 91 28 64
        E 30 91 28 00
        E 0 91 28 64
        E 30 91 28 00
        E 0 91 1c 64
        E 30 91 1c 00
        E 0 91 28 64
        E 60 91 28 00
        E 0 91 28 64
        E 30 91 28 00
        E 0 91 28 64
        E 30 91 28 00
        E 0 91 1c 64
        E 30 91 1c 00
        E 0 91 28 64
        E 30 91 28 00
        E 0 91 28 64
        E 30 91 28 00
        E 0 91 1c 64
        E 30 91 1c 00
        E 0 91 28 64
        E 60 91 28 00
        E 0 91 28 64
        E 30 91 28 00
        E 0 91 28 64
        E 30 91 28 00
        E 0 91 1c 64
        E 30 91 1c 00
        E 0 91 28 64
        E 30 91 28 00
        E 0 91 28 64
        E 30 91 28 00
        E 0 91 1c 64
        E 30 91 1c 00
        E 0 91 28 64
        E 60 91 28 00
        E 0 91 28 64
        E 30 91 28 00
        E 0 91 28 64
        E 30 91 28 00
        E 0 91 1c 64
        E 30 91 1c 00
        E 0 91 28 64
        E 30 91 28 00
        E 0 91 28 64
        E 30 91 28 00
        E 0 91 1c 64
        E 30 91 1c 00
        E 0 91 28 64
        E 60 91 28 00
        E 0 91 2d 64
        E 30 91 2d 00
        E 0 91 2d 64
        E 30 91 2d 00
        E 0 91 21 64
        E 30 91 21 00
        E 0 91 2d 64
        E 30 91 2d 00
        E 0 91 2d 64
        E 30 91 2d 00
        E 0 91 21 64
        E 30 91 21 00
        E 0 91 2d 64
        E 60 91 2d 00
        E 0 91 2b 64
        E 30 91 2b 00
        E 0 91 2b 64
        E 30 91 2b 00
        E 0 91 1f 64
        E 30 91 1f 00
        E 0 91 2b 64
        E 30 91 2b 00
        E 0 91 2b 64
        E 30 91 2b 00
        E 0 91 1f 64
        E 30 91 1f 00
        E 0 91 2b 64
        E 60 91 2b 00
        E 0 91 28 64
        E 30 91 28 00
        E 0 91 28 64
        E 30 91 28 00
        E 0 91 1c 64
        E 30 91 1c 00
        E 0 91 28 64
        E 30 91 28 00
        E 0 91 28 64
        E 30 91 28 00
        E 0 91 1c 64
        E 30 91 1c 00
        E 0 91 28 64
        E 60 91 28 00
        E 0 91 28 64
        E 30 91 28 00
        E 0 91 28 64
        E 30 91 28 00
        E 0 91 1c 64
        E 30 91 1c 00
        E 0 91 28 64
        E 30 91 28 00
        E 0 91 28 64
        E 30 91 28 00
        E 0 91 1c 64
        E 30 91 1c 00
        E 0 91 28 64
        E 60 91 28 00
        E 0 91 28 64
        E 30 91 28 00
        E 0 91 28 64
        E 30 91 28 00
        E 0 91 1c 64
        E 30 91 1c 00
        E 0 91 28 64
        E 30 91 28 00
        E 0 91 28 64
        E 30 91 28 00
        E 0 91 1c 64
        E 30 91 1c 00
        E 0 91 28 64
        E 60 91 28 00
        E 0 91 28 64
        E 30 91 28 00
        E 0 91 28 64
        E 30 91 28 00
        E 0 91 1c 64
        E 30 91 1c 00
        E 0 91 28 64
        E 30 91 28 00
        E 0 91 28 64
        E 30 91 28 00
        E 0 91 1c 64
        E 30 91 1c 00
        E 0 91 28 64
        E 60 91 28 00
        E 0 91 28 64
        E 30 91 28 00
        E 0 91 28 64
        E 30 91 28 00
        E 0 91 1c 64
        E 30 91 1c 00
        E 0 91 28 64
        E 30 91 28 00
        E 0 91 28 64
        E 30 91 28 00
        E 0 91 1c 64
        E 30 91 1c 00
        E 0 91 28 64
        E 60 91 28 00
        E 0 91 28 64
        E 30 91 28 00
        E 0 91 28 64
        E 30 91 28 00
        E 0 91 1c 64
        E 30 91 1c 00
        E 0 91 28 64
        E 30 91 28 00
        E 0 91 28 64
        E 30 91 28 00
        E 0 91 1c 64
        E 30 91 1c 00
        E 0 91 28 64
        E 60 91 28 00
        E 0 91 28 64
        E 30 91 28 00
        E 0 91 28 64
        E 30 91 28 00
        E 0 91 1c 64
        E 30 91 1c 00
        E 0 91 28 64
        E 30 91 28 00
        E 0 91 28 64
        E 30 91 28 00
        E 0 91 1c 64
        E 30 91 1c 00
        E 0 91 28 64
        E 60 91 28 00
        E 0 91 28 64
        E 30 91 28 00
        E 0 91 28 64
        E 30 91 28 00
        E 0 91 1c 64
        E 30 91 1c 00
        E 0 91 28 64
        E 30 91 28 00
        E 0 91 28 64
        E 30 91 28 00
        E 0 91 1c 64
        E 30 91 1c 00
        E 0 91 28 64
        E 60 91 28 00
        E 0 91 28 64
        E 30 91 28 00
        E 0 91 28 64
        E 30 91 28 00
        E 0 91 1c 64
        E 30 91 1c 00
        E 0 91 28 64
        E 30 91 28 00
        E 0 91 28 64
        E 30 91 28 00
        E 0 91 1c 64
        E 30 91 1c 00
        E 0 91 28 64
        E 60 91 28 00
        E 0 91 28 64
        E 30 91 28 00
        E 0 91 28 64
        E 30 91 28 00
        E 0 91 1c 64
        E 30 91 1c 00
        E 0 91 28 64
        E 30 91 28 00
        E 0 91 28 64
        E 30 91 28 00
        E 0 91 1c 64
        E 30 91 1c 00
        E 0 91 28 64
        E 60 91 28 00
        E 0 91 2d 64
        E 30 91 2d 00
        E 0 91 2d 64
        E 30 91 2d 00
        E 0 91 21 64
        E 30 91 21 00
        E 0 91 2d 64
        E 30 91 2d 00
        E 0 91 2d 64
        E 30 91 2d 00
        E 0 91 21 64
        E 30 91 21 00
        E 0 91 2d 64
        E 60 91 2d 00
        E 0 91 2b 64
        E 30 91 2b 00
        E 0 91 2b 64
        E 30 91 2b 00
        E 0 91 1f 64
        E 30 91 1f 00
        E 0 91 2b 64
        E 30 91 2b 00
        E 0 91 2b 64
        E 30 91 2b 00
        E 0 91 1f 64
        E 30 91 1f 00
        E 0 91 2b 64
        E 60 91 2b 00
        E 0 91 28 64
        E 30 91 28 00
        E 0 91 28 64
        E 30 91 28 00
        E 0 91 1c 64
        E 30 91 1c 00
        E 0 91 28 64
        E 30 91 28 00
        E 0 91 28 64
        E 30 91 28 00
        E 0 91 1c 64
        E 30 91 1c 00
        E 0 91 28 64
        E 60 91 28 00
        E 0 91 28 64
        E 30 91 28 00
        E 0 91 28 64
        E 30 91 28 00
        E 0 91 1c 64
        E 30 91 1c 00
        E 0 91 28 64
        E 30 91 28 00
        E 0 91 28 64
        E 30 91 28 00
        E 0 91 1c 64
        E 30 91 1c 00
        E 0 91 28 64
        E 60 91 28 00
        E 0 91 28 64
        E 30 91 28 00
        E 0 91 28 64
        E 30 91 28 00
        E 0 91 1c 64
        E 30 91 1c 00
        E 0 91 28 64
        E 30 91 28 00
        E 0 91 28 64
        E 30 91 28 00
        E 0 91 1c 64
        E 30 91 1c 00
        E 0 91 28 64
        E 60 91 28 00
        E 0 91 28 64
        E 30 91 28 00
        E 0 91 28 64
        E 30 91 28 00
        E 0 91 1c 64
        E 30 91 1c 00
        E 0 91 28 64
        E 30 91 28 00
        E 0 91 28 64
        E 30 91 28 00
        E 0 91 1c 64
        E 30 91 1c 00
        E 0 91 28 64
        E 60 91 28 00
        E 0 91 28 64
        E 30 91 28 00
        E 0 91 28 64
        E 30 91 28 00
        E 0 91 1c 64
        E 30 91 1c 00
        E 0 91 28 64
        E 30 91 28 00
        E 0 91 28 64
        E 30 91 28 00
        E 0 91 1c 64
        E 30 91 1c 00
        E 0 91 28 64
        E 60 91 28 00
        E 0 91 28 64
        E 30 91 28 00
        E 0 91 28 64
        E 30 91 28 00
        E 0 91 1c 64
        E 30 91 1c 00
        E 0 91 28 64
        E 30 91 28 00
        E 0 91 28 64
        E 30 91 28 00
        E 0 91 1c 64
        E 30 91 1c 00
        E 0 91 28 64
        E 60 91 28 00
        E 0 91 2d 64
        E 30 91 2d 00
        E 0 91 2d 64
        E 30 91 2d 00
        E 0 91 21 64
        E 30 91 21 00
        E 0 91 2d 64
        E 30 91 2d 00
        E 0 91 2d 64
        E 30 91 2d 00
        E 0 91 21 64
        E 30 91 21 00
        E 0 91 2d 64
        E 60 91 2d 00
        E 0 91 2b 64
        E 30 91 2b 00
        E 0 91 2b 64
        E 30 91 2b 00
        E 0 91 1f 64
        E 30 91 1f 00
        E 0 91 2b 64
        E 30 91 2b 00
        E 0 91 2b 64
        E 30 91 2b 00
        E 0 91 1f 64
        E 30 91 1f 00
        E 0 91 2b 64
        E 60 91 2b 00
        E 0 91 28 64
        E 30 91 28 00
        E 0 91 28 64
        E 30 91 28 00
        E 0 91 1c 64
        E 30 91 1c 00
        E 0 91 28 64
        E 30 91 28 00
        E 0 91 28 64
        E 30 91 28 00
        E 0 91 1c 64
        E 30 91 1c 00
        E 0 91 28 64
        E 60 91 28 00
        E 0 91 28 64
        E 30 91 28 00
        E 0 91 28 64
        E 30 91 28 00
        E 0 91 1c 64
        E 30 91 1c 00
        E 0 91 28 64
        E 30 91 28 00
        E 0 91 28 64
        E 30 91 28 00
        E 0 91 1c 64
        E 30 91 1c 00
        E 0 91 28 64
        E 60 91 28 00
        E 0 91 28 64
        E 30 91 28 00
        E 0 91 28 64
        E 30 91 28 00
        E 0 91 1c 64
        E 30 91 1c 00
        E 0 91 28 64
        E 30 91 28 00
        E 0 91 28 64
        E 30 91 28 00
        E 0 91 1c 64
        E 30 91 1c 00
        E 0 91 28 64
        E 60 91 28 00
        E 0 91 28 64
        E 30 91 28 00
        E 0 91 28 64
        E 30 91 28 00
        E 0 91 1c 64
        E 30 91 1c 00
        E 0 91 28 64
        E 30 91 28 00
        E 0 91 28 64
        E 30 91 28 00
        E 0 91 1c 64
        E 30 91 1c 00
        E 0 91 28 64
        E 60 91 28 00
        E 0 91 28 64
        E 30 91 28 00
        E 0 91 28 64
        E 30 91 28 00
        E 0 91 1c 64
        E 30 91 1c 00
        E 0 91 28 64
        E 30 91 28 00
        E 0 91 28 64
        E 30 91 28 00
        E 0 91 1c 64
        E 30 91 1c 00
        E 0 91 28 64
        E 60 91 28 00
        E 0 91 28 64
        E 30 91 28 00
        E 0 91 28 64
        E 30 91 28 00
        E 0 91 1c 64
        E 30 91 1c 00
        E 0 91 28 64
        E 30 91 28 00
        E 0 91 28 64
        E 30 91 28 00
        E 0 91 1c 64
        E 30 91 1c 00
        E 0 91 28 64
        E 60 91 28 00
        E 0 91 28 64
        E 30 91 28 00
        E 0 91 28 64
        E 30 91 28 00
        E 0 91 1c 64
        E 30 91 1c 00
        E 0 91 28 64
        E 30 91 28 00
        E 0 91 28 64
        E 30 91 28 00
        E 0 91 1c 64
        E 30 91 1c 00
        E 0 91 28 64
        E 60 91 28 00
        E 0 91 28 64
        E 30 91 28 00
        E 0 91 28 64
        E 30 91 28 00
        E 0 91 1c 64
        E 30 91 1c 00
        E 0 91 28 64
        E 30 91 28 00
        E 0 91 28 64
        E 30 91 28 00
        E 0 91 1c 64
        E 30 91 1c 00
        E 0 91 28 64
        E 59 91 28 00
        E 1 b0 7b 00
        CCINTERP 32
        CHASE_CC_TAKEOFFS 1
        GUID {A27788E4-0118-CC1F-CC0D-BFA340528DC0}
        IGNTEMPO 0 120 4 4
        SRCCOLOR 2
      >
    >
  >
  <TRACK {4C1011C0-A5E5-3771-BE9F-2173BC3F1CC3}
    NAME "Track3 - Darude_-_Sandstorm_out"
    PEAKCOL 16576
    BEAT -1
    AUTOMODE 0
    VOLPAN 1 0 -1 -1 1
    MUTESOLO 0 0 0
    IPHASE 0
    PLAYOFFS 0 1
    ISBUS 0 0
    BUSCOMP 0 0 0 0 0
    SHOWINMIX 1 0.6667 0.5 1 0.5 -1 -1 -1
    FREEMODE 0
    SEL 0
    REC 0 0 1 0 0 0 0
    VU 2
    TRACKHEIGHT 0 0 0 0 0 0
    INQ 0 0 0 0.5 100 0 0 100
    NCHAN 2
    FX 1
    TRACKID {4C1011C0-A5E5-3771-BE9F-2173BC3F1CC3}
    PERF 0
    MIDIOUT -1
    MAINSEND 1 0
    <ITEM
      POSITION 0
      SNAPOFFS 0
      LENGTH 0.434783
      LOOP 1
      ALLTAKES 0
      FADEIN 1 0.01 0 1 0 0 0
      FADEOUT 1 0.01 0 1 0 0 0
      MUTE 0 0
      SEL 1
      IGUID {A2A1859E-76AD-582B-65AC-FDE5FC9FBFA3}
      IID 3
      NAME "Track3 - Darude_-_Sandstorm_out.mid"
      VOLPAN 1 0 1 -1
      SOFFS 0 0
      PLAYRATE 1 1 0 -1 0 0.0025
      CHANMODE 0
      GUID {61F40A50-5B9D-ADC8-49F1-5F148217E970}
      <SOURCE MIDI
        HASDATA 1 120 QN
        CCINTERP 32
        POOLEDEVTS {7A90F230-197F-154E-7552-A3FDA8CF6EBB}
        <X 0 0 0 0 3 Track3
          /wNUcmFjazM=
        >
        E 0 c2 00 00
        E 0 b2 07 7f
        E 120 b0 7b 00
        CCINTERP 32
        CHASE_CC_TAKEOFFS 1
        GUID {36F256A0-9FF4-A2AC-3F73-666001D87A0A}
        IGNTEMPO 0 120 4 4
        SRCCOLOR 3
      >
    >
  >
  <TRACK {B98CFD81-3815-9B11-1D6B-FD37A3F72194}
    NAME "Track4 - Darude_-_Sandstorm_out"
    PEAKCOL 16576
    BEAT -1
    AUTOMODE 0
    VOLPAN 1 0 -1 -1 1
    MUTESOLO 0 0 0
    IPHASE 0
    PLAYOFFS 0 1
    ISBUS 0 0
    BUSCOMP 0 0 0 0 0
    SHOWINMIX 1 0.6667 0.5 1 0.5 -1 -1 -1
    FREEMODE 0
    SEL 0
    REC 0 0 1 0 0 0 0
    VU 2
    TRACKHEIGHT 0 0 0 0 0 0
    INQ 0 0 0 0.5 100 0 0 100
    NCHAN 2
    FX 1
    TRACKID {B98CFD81-3815-9B11-1D6B-FD37A3F72194}
    PERF 0
    MIDIOUT -1
    MAINSEND 1 0
    <ITEM
      POSITION 0
      SNAPOFFS 0
      LENGTH 0.434783
      LOOP 1
      ALLTAKES 0
      FADEIN 1 0.01 0 1 0 0 0
      FADEOUT 1 0.01 0 1 0 0 0
      MUTE 0 0
      SEL 1
      IGUID {B4F5F808-1070-9B4D-F13B-E805EE674317}
      IID 4
      NAME "Track4 - Darude_-_Sandstorm_out.mid"
      VOLPAN 1 0 1 -1
      SOFFS 0 0
      PLAYRATE 1 1 0 -1 0 0.0025
      CHANMODE 0
      GUID {012F43F7-E84E-83B3-CA93-36D153AAEBB2}
      <SOURCE MIDI
        HASDATA 1 120 QN
        CCINTERP 32
        POOLEDEVTS {EF3877F5-FEF3-5CC9-F44E-073C50588879}
        <X 0 0 0 0 3 Track4
          /wNUcmFjazQ=
        >
        E 0 c3 00 00
        E 0 b3 07 7f
        E 120 b0 7b 00
        CCINTERP 32
        CHASE_CC_TAKEOFFS 1
        GUID {4F6ADB98-7B7D-EFED-80E2-FA3C06038915}
        IGNTEMPO 0 120 4 4
        SRCCOLOR 4
      >
    >
  >
  <TRACK {404F6D40-631F-0E6B-C6D6-1B60E58CEB85}
    NAME "Track5 - Darude_-_Sandstorm_out"
    PEAKCOL 16576
    BEAT -1
    AUTOMODE 0
    VOLPAN 1 0 -1 -1 1
    MUTESOLO 0 0 0
    IPHASE 0
    PLAYOFFS 0 1
    ISBUS 0 0
    BUSCOMP 0 0 0 0 0
    SHOWINMIX 1 0.6667 0.5 1 0.5 -1 -1 -1
    FREEMODE 0
    SEL 0
    REC 0 0 1 0 0 0 0
    VU 2
    TRACKHEIGHT 0 0 0 0 0 0
    INQ 0 0 0 0.5 100 0 0 100
    NCHAN 2
    FX 1
    TRACKID {404F6D40-631F-0E6B-C6D6-1B60E58CEB85}
    PERF 0
    MIDIOUT -1
    MAINSEND 1 0
    <ITEM
      POSITION 0
      SNAPOFFS 0
      LENGTH 0.434783
      LOOP 1
      ALLTAKES 0
      FADEIN 1 0.01 0 1 0 0 0
      FADEOUT 1 0.01 0 1 0 0 0
      MUTE 0 0
      SEL 1
      IGUID {C83699A9-B445-CFF8-9C40-374F0C279588}
      IID 5
      NAME "Track5 - Darude_-_Sandstorm_out.mid"
      VOLPAN 1 0 1 -1
      SOFFS 0 0
      PLAYRATE 1 1 0 -1 0 0.0025
      CHANMODE 0
      GUID {357370C1-D403-61C8-42B2-F2FE52612392}
      <SOURCE MIDI
        HASDATA 1 120 QN
        CCINTERP 32
        POOLEDEVTS {824F7FB9-8A84-34FE-D041-DE4CDE0BDD15}
        <X 0 0 0 0 3 Track5
          /wNUcmFjazU=
        >
        E 0 c4 00 00
        E 0 b4 07 7f
        E 120 b0 7b 00
        CCINTERP 32
        CHASE_CC_TAKEOFFS 1
        GUID {B233EE37-EE3B-9068-CF36-2269798FE22F}
        IGNTEMPO 0 120 4 4
        SRCCOLOR 5
      >
    >
  >
  <TRACK {AC081373-F537-E6A4-D40F-CA4EA1577652}
    NAME "Track6 - Darude_-_Sandstorm_out"
    PEAKCOL 16576
    BEAT -1
    AUTOMODE 0
    VOLPAN 1 0 -1 -1 1
    MUTESOLO 0 0 0
    IPHASE 0
    PLAYOFFS 0 1
    ISBUS 0 0
    BUSCOMP 0 0 0 0 0
    SHOWINMIX 1 0.6667 0.5 1 0.5 -1 -1 -1
    FREEMODE 0
    SEL 0
    REC 0 0 1 0 0 0 0
    VU 2
    TRACKHEIGHT 0 0 0 0 0 0
    INQ 0 0 0 0.5 100 0 0 100
    NCHAN 2
    FX 1
    TRACKID {AC081373-F537-E6A4-D40F-CA4EA1577652}
    PERF 0
    MIDIOUT -1
    MAINSEND 1 0
    <ITEM
      POSITION 0
      SNAPOFFS 0
      LENGTH 127.391419
      LOOP 1
      ALLTAKES 0
      FADEIN 1 0.01 0 1 0 0 0
      FADEOUT 1 0.01 0 1 0 0 0
      MUTE 0 0
      SEL 1
      IGUID {23251E2F-8570-1847-B8FC-E9E81DC6C598}
      IID 6
      NAME "Track6 - Darude_-_Sandstorm_out.mid"
      VOLPAN 1 0 1 -1
      SOFFS 0 0
      PLAYRATE 1 1 0 -1 0 0.0025
      CHANMODE 0
      GUID {92005EA5-88B0-886C-B1BE-DB9071F4E6A5}
      <SOURCE MIDI
        HASDATA 1 120 QN
        CCINTERP 32
        POOLEDEVTS {FEE6B46A-544F-05AD-A49B-CAE4F117148D}
        <X 0 0 0 0 3 Track6
          /wNUcmFjazY=
        >
        E 0 c5 00 00
        E 0 b5 07 7f
        E 29864 95 35 7f
        E 0 95 37 7f
        E 2 95 39 7f
        E 49 95 39 00
        E 1 95 37 00
        E 1 95 35 00
        E 33 95 37 7f
        E 0 95 39 7f
        E 1 95 35 7f
        E 74 95 35 00
        E 1 95 37 00
        E 0 95 39 00
        E 801 95 35 7f
        E 1 95 37 7f
        E 1 95 39 7f
        E 56 95 37 00
        E 0 95 39 00
        E 1 95 35 00
        E 153 95 37 7f
        E 0 95 35 7f
        E 1 95 39 7f
        E 46 95 39 00
        E 1 95 37 00
        E 0 95 35 00
        E 35 95 37 7f
        E 0 95 35 7f
        E 1 95 39 7f
        E 51 95 35 00
        E 2 95 37 00
        E 0 95 39 00
        E 33 95 37 7f
        E 0 95 35 7f
        E 1 95 39 7f
        E 69 95 39 00
        E 2 95 37 00
        E 5 95 35 00
        E 636 95 35 7f
        E 1 95 37 7f
        E 1 95 39 7e
        E 45 95 35 00
        E 0 95 37 00
        E 1 95 39 00
        E 34 95 35 7f
        E 1 95 37 7f
        E 0 95 39 7f
        E 63 95 39 00
        E 2 95 37 00
        E 1 95 35 00
        E 223 95 35 7f
        E 0 95 37 7f
        E 1 95 39 7e
        E 47 95 35 00
        E 0 95 39 00
        E 1 95 37 00
        E 35 95 37 7f
        E 1 95 35 7f
        E 0 95 39 7f
        E 58 95 37 00
        E 0 95 35 00
        E 0 95 39 00
        E 38 95 35 7f
        E 1 95 37 7f
        E 1 95 39 7f
        E 68 95 39 00
        E 1 95 37 00
        E 2 95 35 00
        E 388 95 35 7f
        E 0 95 37 7f
        E 1 95 39 7f
        E 62 95 39 00
        E 1 95 37 00
        E 2 95 35 00
        E 487 95 35 7e
        E 0 95 37 7d
        E 2 95 39 7c
        E 43 95 39 00
        E 1 95 35 00
        E 0 95 37 00
        E 45 95 35 7f
        E 0 95 37 7f
        E 2 95 39 7f
        E 62 95 35 00
        E 0 95 39 00
        E 2 95 37 00
        E 298 95 35 7e
        E 0 95 37 7e
        E 2 95 39 7d
        E 51 95 39 00
        E 1 95 37 00
        E 1 95 35 00
        E 42 95 35 7f
        E 0 95 37 7f
        E 1 95 39 7e
        E 72 95 39 00
        E 1 95 37 00
        E 2 95 35 00
        E 309 95 35 7b
        E 0 95 37 7b
        E 1 95 39 7a
        E 49 95 37 00
        E 1 95 35 00
        E 0 95 39 00
        E 34 95 35 7f
        E 0 95 37 7f
        E 1 95 39 7e
        E 56 95 35 00
        E 1 95 37 00
        E 0 95 39 00
        E 47 95 35 7f
        E 0 95 37 7f
        E 0 95 39 7d
        E 64 95 35 00
        E 1 95 37 00
        E 1 95 39 00
        E 295 95 35 7d
        E 0 95 37 7d
        E 1 95 39 7c
        E 65 95 39 00
        E 2 95 37 00
        E 1 95 35 00
        E 114 b0 7b 00
        CCINTERP 32
        CHASE_CC_TAKEOFFS 1
        GUID {F8758958-56B5-5109-8867-B335861884A2}
        IGNTEMPO 0 120 4 4
        SRCCOLOR 6
      >
    >
  >
  <TRACK {F346EBCB-A36F-A9A9-687D-FADC2A3031DA}
    NAME "Track7 - Darude_-_Sandstorm_out"
    PEAKCOL 16576
    BEAT -1
    AUTOMODE 0
    VOLPAN 1 0 -1 -1 1
    MUTESOLO 0 0 0
    IPHASE 0
    PLAYOFFS 0 1
    ISBUS 0 0
    BUSCOMP 0 0 0 0 0
    SHOWINMIX 1 0.6667 0.5 1 0.5 -1 -1 -1
    FREEMODE 0
    SEL 0
    REC 0 0 1 0 0 0 0
    VU 2
    TRACKHEIGHT 0 0 0 0 0 0
    INQ 0 0 0 0.5 100 0 0 100
    NCHAN 2
    FX 1
    TRACKID {F346EBCB-A36F-A9A9-687D-FADC2A3031DA}
    PERF 0
    MIDIOUT -1
    MAINSEND 1 0
    <ITEM
      POSITION 0
      SNAPOFFS 0
      LENGTH 240.434999
      LOOP 1
      ALLTAKES 0
      FADEIN 1 0.01 0 1 0 0 0
      FADEOUT 1 0.01 0 1 0 0 0
      MUTE 0 0
      SEL 1
      IGUID {8ABBB6BF-AB9F-265C-32AC-B15A05621941}
      IID 7
      NAME "Track7 - Darude_-_Sandstorm_out.mid"
      VOLPAN 1 0 1 -1
      SOFFS 0 0
      PLAYRATE 1 1 0 -1 0 0.0025
      CHANMODE 0
      GUID {0F604167-FB90-4F15-AF85-8BEDF838D3B3}
      <SOURCE MIDI
        HASDATA 1 120 QN
        CCINTERP 32
        POOLEDEVTS {E2CDE76E-E6C7-AFEA-B8E3-925D7D223643}
        <X 0 0 0 0 3 Track7
          /wNUcmFjazc=
        >
        E 0 c6 00 00
        E 0 b6 07 7f
        E 960 96 31 64
        E 0 96 24 64
        E 0 96 2b 64
        E 0 96 23 7f
        E 120 96 31 00
        E 0 96 24 00
        E 0 96 2b 00
        E 0 96 23 00
        E 3600 96 34 64
        E 0 96 2b 64
        E 0 96 24 64
        E 0 96 23 64
        E 120 96 34 00
        E 0 96 2b 00
        E 0 96 24 00
        E 0 96 23 00
        E 0 96 31 64
        E 0 96 24 64
        E 0 96 2b 64
        E 0 96 23 64
        E 0 96 28 1e
        E 30 96 28 00
        E 0 96 28 1e
        E 30 96 28 00
        E 0 96 28 1f
        E 30 96 28 00
        E 0 96 28 1f
        E 30 96 31 00
        E 0 96 24 00
        E 0 96 2b 00
        E 0 96 23 00
        E 0 96 28 00
        E 0 96 28 20
        E 30 96 28 00
        E 0 96 28 20
        E 30 96 28 00
        E 0 96 28 21
        E 30 96 28 00
        E 0 96 28 21
        E 30 96 28 00
        E 0 96 28 22
        E 30 96 28 00
        E 0 96 28 22
        E 30 96 28 00
        E 0 96 28 23
        E 30 96 28 00
        E 0 96 28 24
        E 30 96 28 00
        E 0 96 28 24
        E 30 96 28 00
        E 0 96 28 25
        E 30 96 28 00
        E 0 96 28 25
        E 30 96 28 00
        E 0 96 28 26
        E 30 96 28 00
        E 0 96 28 26
        E 30 96 28 00
        E 0 96 28 27
        E 30 96 28 00
        E 0 96 28 27
        E 30 96 28 00
        E 0 96 28 28
        E 30 96 28 00
        E 0 96 28 29
        E 30 96 28 00
        E 0 96 28 29
        E 30 96 28 00
        E 0 96 28 2a
        E 30 96 28 00
        E 0 96 28 2a
        E 30 96 28 00
        E 0 96 28 2b
        E 30 96 28 00
        E 0 96 28 2b
        E 30 96 28 00
        E 0 96 28 2c
        E 30 96 28 00
        E 0 96 28 2c
        E 30 96 28 00
        E 0 96 28 2d
        E 30 96 28 00
        E 0 96 28 2d
        E 30 96 28 00
        E 0 96 28 2e
        E 30 96 28 00
        E 0 96 28 2f
        E 30 96 28 00
        E 0 96 28 2f
        E 30 96 28 00
        E 0 96 28 30
        E 30 96 28 00
        E 0 96 28 30
        E 30 96 28 00
        E 0 96 28 31
        E 30 96 28 00
        E 0 96 28 31
        E 30 96 28 00
        E 0 96 28 32
        E 30 96 28 00
        E 0 96 28 32
        E 30 96 28 00
        E 0 96 28 33
        E 30 96 28 00
        E 0 96 28 34
        E 30 96 28 00
        E 0 96 28 34
        E 30 96 28 00
        E 0 96 28 35
        E 30 96 28 00
        E 0 96 28 35
        E 30 96 28 00
        E 0 96 28 36
        E 30 96 28 00
        E 0 96 28 36
        E 30 96 28 00
        E 0 96 28 37
        E 30 96 28 00
        E 0 96 28 37
        E 30 96 28 00
        E 0 96 28 38
        E 30 96 28 39
        E 30 96 28 00
        E 0 96 28 39
        E 30 96 28 00
        E 0 96 28 3a
        E 30 96 28 00
        E 0 96 28 3a
        E 30 96 28 00
        E 0 96 28 3b
        E 30 96 28 00
        E 0 96 28 3b
        E 30 96 28 00
        E 0 96 28 3c
        E 30 96 28 00
        E 0 96 28 3c
        E 30 96 28 00
        E 0 96 28 3d
        E 30 96 28 00
        E 0 96 28 3d
        E 30 96 28 00
        E 0 96 28 3e
        E 30 96 28 00
        E 0 96 28 3f
        E 30 96 28 00
        E 0 96 28 3f
        E 30 96 28 00
        E 0 96 28 40
        E 30 96 28 00
        E 0 96 28 40
        E 30 96 28 00
        E 0 96 28 41
        E 30 96 28 00
        E 0 96 28 41
        E 30 96 28 00
        E 0 96 28 42
        E 30 96 28 00
        E 0 96 28 42
        E 30 96 28 00
        E 0 96 28 43
        E 30 96 28 00
        E 0 96 28 44
        E 30 96 28 00
        E 0 96 28 44
        E 30 96 28 00
        E 0 96 28 45
        E 30 96 28 00
        E 0 96 28 45
        E 30 96 28 00
        E 0 96 28 46
        E 30 96 28 00
        E 0 96 28 46
        E 30 96 28 00
        E 0 96 28 47
        E 30 96 28 00
        E 0 96 28 47
        E 30 96 28 00
        E 0 96 28 48
        E 30 96 28 00
        E 0 96 28 48
        E 30 96 28 00
        E 0 96 28 49
        E 30 96 28 00
        E 0 96 28 4a
        E 30 96 28 00
        E 0 96 28 4a
        E 30 96 28 00
        E 0 96 28 4b
        E 30 96 28 00
        E 0 96 28 4b
        E 30 96 28 00
        E 0 96 28 4c
        E 30 96 28 00
        E 0 96 28 4c
        E 30 96 28 00
        E 0 96 28 4d
        E 30 96 28 00
        E 0 96 28 4d
        E 30 96 28 00
        E 0 96 28 4e
        E 30 96 28 00
        E 0 96 28 4f
        E 30 96 28 00
        E 0 96 28 4f
        E 30 96 28 00
        E 0 96 28 50
        E 30 96 28 00
        E 0 96 28 50
        E 30 96 28 00
        E 0 96 28 51
        E 30 96 28 00
        E 0 96 28 51
        E 30 96 28 00
        E 0 96 28 52
        E 30 96 28 00
        E 0 96 28 52
        E 30 96 28 00
        E 0 96 28 53
        E 30 96 28 00
        E 0 96 28 54
        E 30 96 28 00
        E 0 96 28 54
        E 30 96 28 00
        E 0 96 28 55
        E 30 96 28 00
        E 0 96 28 55
        E 30 96 28 00
        E 0 96 28 56
        E 30 96 28 00
        E 0 96 28 56
        E 30 96 28 00
        E 0 96 28 57
        E 30 96 28 00
        E 0 96 28 57
        E 30 96 28 00
        E 0 96 28 58
        E 30 96 28 00
        E 0 96 28 58
        E 30 96 28 00
        E 0 96 28 59
        E 30 96 28 00
        E 0 96 28 5a
        E 30 96 28 00
        E 0 96 28 5a
        E 30 96 28 00
        E 0 96 28 5b
        E 30 96 28 00
        E 0 96 39 64
        E 0 96 28 5b
        E 0 96 3e 7f
        E 30 96 39 00
        E 0 96 28 00
        E 0 96 3e 00
        E 0 96 28 5c
        E 30 96 28 00
        E 0 96 28 5c
        E 30 96 28 00
        E 0 96 28 5d
        E 30 96 28 00
        E 0 96 28 5d
        E 0 96 3e 7f
        E 30 96 28 00
        E 0 96 3e 00
        E 0 96 28 5e
        E 30 96 28 00
        E 0 96 28 5f
        E 30 96 28 00
        E 0 96 28 5f
        E 30 96 28 00
        E 0 96 28 60
        E 0 96 39 64
        E 0 96 3e 7f
        E 30 96 28 00
        E 0 96 39 00
        E 0 96 3e 00
        E 0 96 28 60
        E 30 96 28 00
        E 0 96 28 61
        E 30 96 28 00
        E 0 96 28 61
        E 0 96 3e 7f
        E 0 96 28 61
        E 30 96 28 00
        E 0 96 3e 00
        E 0 96 28 62
        E 0 96 3e 7f
        E 30 96 28 00
        E 0 96 3e 00
        E 0 96 28 62
        E 30 96 28 00
        E 0 96 28 63
        E 0 96 3e 7f
        E 0 96 28 63
        E 30 96 28 00
        E 0 96 3e 00
        E 0 96 28 64
        E 30 96 28 00
        E 0 96 27 5a
        E 0 96 23 7f
        E 0 96 39 64
        E 30 96 27 00
        E 0 96 23 00
        E 0 96 39 00
        E 30 96 2a 64
        E 0 96 3b 64
        E 30 96 2a 00
        E 0 96 3b 00
        E 30 96 23 7f
        E 0 96 27 64
        E 30 96 23 00
        E 0 96 27 00
        E 30 96 3b 64
        E 0 96 2a 64
        E 30 96 3b 00
        E 0 96 2a 00
        E 30 96 23 7f
        E 30 96 23 00
        E 30 96 3b 64
        E 0 96 2a 64
        E 30 96 3b 00
        E 0 96 2a 00
        E 30 96 23 7f
        E 0 96 27 64
        E 30 96 23 00
        E 0 96 27 00
        E 30 96 2a 64
        E 0 96 3b 64
        E 30 96 2a 00
        E 0 96 3b 00
        E 30 96 23 7f
        E 30 96 23 00
        E 30 96 2a 64
        E 0 96 3b 64
        E 30 96 2a 00
        E 0 96 3b 00
        E 30 96 23 7f
        E 0 96 27 64
        E 30 96 23 00
        E 0 96 27 00
        E 30 96 3b 64
        E 0 96 2a 64
        E 30 96 3b 00
        E 0 96 2a 00
        E 30 96 23 7f
        E 30 96 23 00
        E 30 96 2a 64
        E 0 96 3b 64
        E 30 96 2a 00
        E 0 96 3b 00
        E 30 96 23 7f
        E 0 96 27 64
        E 30 96 23 00
        E 0 96 27 00
        E 30 96 3b 64
        E 0 96 2a 64
        E 30 96 3b 00
        E 0 96 2a 00
        E 30 96 23 7f
        E 30 96 23 00
        E 30 96 2a 64
        E 0 96 3b 64
        E 30 96 2a 00
        E 0 96 3b 00
        E 30 96 27 64
        E 0 96 23 7f
        E 30 96 27 00
        E 0 96 23 00
        E 30 96 3b 64
        E 0 96 2a 64
        E 30 96 3b 00
        E 0 96 2a 00
        E 30 96 23 7f
        E 30 96 23 00
        E 30 96 3b 64
        E 0 96 2a 64
        E 30 96 3b 00
        E 0 96 2a 00
        E 30 96 23 7f
        E 0 96 27 64
        E 30 96 23 00
        E 0 96 27 00
        E 30 96 2a 64
        E 0 96 3b 64
        E 30 96 2a 00
        E 0 96 3b 00
        E 30 96 23 7f
        E 0 96 3e 7f
        E 30 96 23 00
        E 0 96 3e 00
        E 30 96 2a 64
        E 0 96 3b 64
        E 30 96 2a 00
        E 0 96 3b 00
        E 0 96 3e 7f
        E 30 96 3e 00
        E 0 96 23 7f
        E 0 96 27 64
        E 0 96 3e 7f
        E 30 96 23 00
        E 0 96 27 00
        E 0 96 3e 00
        E 30 96 3b 64
        E 0 96 2a 64
        E 0 96 3e 7f
        E 30 96 3b 00
        E 0 96 2a 00
        E 0 96 3e 00
        E 30 96 23 7f
        E 0 96 3e 7f
        E 30 96 23 00
        E 0 96 3e 00
        E 30 96 3b 64
        E 0 96 2a 64
        E 30 96 3b 00
        E 0 96 2a 00
        E 0 96 3e 7f
        E 30 96 3e 00
        E 0 96 27 64
        E 0 96 23 7f
        E 0 96 3e 7f
        E 30 96 27 00
        E 0 96 23 00
        E 0 96 3e 00
        E 30 96 3b 64
        E 0 96 2a 64
        E 0 96 3e 7f
        E 30 96 3b 00
        E 0 96 2a 00
        E 0 96 3e 00
        E 30 96 31 64
        E 0 96 23 7f
        E 30 96 31 00
        E 0 96 23 00
        E 30 96 2a 64
        E 0 96 3b 64
        E 30 96 2a 00
        E 0 96 3b 00
        E 30 96 23 7f
        E 0 96 27 64
        E 30 96 23 00
        E 0 96 27 00
        E 30 96 3b 64
        E 0 96 2a 64
        E 30 96 3b 00
        E 0 96 2a 00
        E 30 96 23 7f
        E 30 96 23 00
        E 30 96 3b 64
        E 0 96 2a 64
        E 30 96 3b 00
        E 0 96 2a 00
        E 30 96 27 64
        E 0 96 23 7f
        E 30 96 27 00
        E 0 96 23 00
        E 30 96 2a 64
        E 0 96 3b 64
        E 30 96 2a 00
        E 0 96 3b 00
        E 30 96 23 7f
        E 30 96 23 00
        E 30 96 2a 64
        E 0 96 3b 64
        E 30 96 2a 00
        E 0 96 3b 00
        E 30 96 27 64
        E 0 96 23 7f
        E 30 96 27 00
        E 0 96 23 00
        E 30 96 3b 64
        E 0 96 2a 64
        E 30 96 3b 00
        E 0 96 2a 00
        E 30 96 23 7f
        E 30 96 23 00
        E 30 96 2a 64
        E 0 96 3b 64
        E 30 96 2a 00
        E 0 96 3b 00
        E 30 96 27 64
        E 0 96 23 7f
        E 30 96 27 00
        E 0 96 23 00
        E 30 96 3b 64
        E 0 96 2a 64
        E 30 96 3b 00
        E 0 96 2a 00
        E 30 96 23 7f
        E 30 96 23 00
        E 30 96 2a 64
        E 0 96 3b 64
        E 30 96 2a 00
        E 0 96 3b 00
        E 30 96 23 7f
        E 0 96 27 64
        E 30 96 23 00
        E 0 96 27 00
        E 30 96 2a 64
        E 0 96 3b 64
        E 30 96 2a 00
        E 0 96 3b 00
        E 30 96 23 7f
        E 30 96 23 00
        E 30 96 3b 64
        E 0 96 2a 64
        E 30 96 3b 00
        E 0 96 2a 00
        E 30 96 23 7f
        E 0 96 27 64
        E 30 96 23 00
        E 0 96 27 00
        E 30 96 3b 64
        E 0 96 2a 64
        E 30 96 3b 00
        E 0 96 2a 00
        E 30 96 23 7f
        E 0 96 3e 7f
        E 30 96 23 00
        E 0 96 3e 00
        E 30 96 2a 64
        E 0 96 3b 64
        E 30 96 2a 00
        E 0 96 3b 00
        E 0 96 3e 7f
        E 30 96 3e 00
        E 0 96 23 7f
        E 0 96 27 64
        E 0 96 3e 7f
        E 30 96 23 00
        E 0 96 27 00
        E 0 96 3e 00
        E 30 96 2a 64
        E 0 96 3b 64
        E 0 96 3e 7f
        E 30 96 2a 00
        E 0 96 3b 00
        E 0 96 3e 00
        E 30 96 23 7f
        E 0 96 3e 7f
        E 30 96 23 00
        E 0 96 3e 00
        E 30 96 3b 64
        E 0 96 2a 64
        E 30 96 3b 00
        E 0 96 2a 00
        E 0 96 3e 7f
        E 30 96 3e 00
        E 0 96 23 7f
        E 0 96 27 64
        E 0 96 3e 7f
        E 30 96 23 00
        E 0 96 27 00
        E 0 96 3e 00
        E 30 96 2a 64
        E 0 96 3b 64
        E 0 96 3e 7f
        E 30 96 2a 00
        E 0 96 3b 00
        E 0 96 3e 00
        E 30 96 31 64
        E 0 96 23 7f
        E 30 96 23 00
        E 30 96 3b 64
        E 0 96 2a 64
        E 30 96 3b 00
        E 0 96 2a 00
        E 30 96 31 00
        E 0 96 23 7f
        E 0 96 27 64
        E 30 96 23 00
        E 0 96 27 00
        E 30 96 2a 64
        E 0 96 3b 64
        E 30 96 2a 00
        E 0 96 3b 00
        E 30 96 23 7f
        E 30 96 23 00
        E 30 96 3b 64
        E 0 96 2a 64
        E 30 96 3b 00
        E 0 96 2a 00
        E 30 96 23 7f
        E 0 96 27 64
        E 30 96 23 00
        E 0 96 27 00
        E 30 96 2a 64
        E 0 96 3b 64
        E 30 96 2a 00
        E 0 96 3b 00
        E 30 96 23 7f
        E 30 96 23 00
        E 30 96 3b 64
        E 0 96 2a 64
        E 30 96 3b 00
        E 0 96 2a 00
        E 30 96 23 7f
        E 0 96 27 64
        E 30 96 23 00
        E 0 96 27 00
        E 30 96 2a 64
        E 0 96 3b 64
        E 30 96 2a 00
        E 0 96 3b 00
        E 30 96 23 7f
        E 30 96 23 00
        E 30 96 3b 64
        E 0 96 2a 64
        E 30 96 3b 00
        E 0 96 2a 00
        E 30 96 23 7f
        E 0 96 27 64
        E 30 96 23 00
        E 0 96 27 00
        E 30 96 2a 64
        E 0 96 3b 64
        E 30 96 2a 00
        E 0 96 3b 00
        E 30 96 23 7f
        E 30 96 23 00
        E 30 96 3b 64
        E 0 96 2a 64
        E 30 96 3b 00
        E 0 96 2a 00
        E 30 96 23 7f
        E 0 96 27 64
        E 30 96 23 00
        E 0 96 27 00
        E 30 96 2a 64
        E 0 96 3b 64
        E 30 96 2a 00
        E 0 96 3b 00
        E 30 96 23 7f
        E 30 96 23 00
        E 30 96 3b 64
        E 0 96 2a 64
        E 30 96 3b 00
        E 0 96 2a 00
        E 30 96 27 64
        E 0 96 23 7f
        E 30 96 27 00
        E 0 96 23 00
        E 30 96 2a 64
        E 0 96 3b 64
        E 30 96 2a 00
        E 0 96 3b 00
        E 30 96 23 7f
        E 0 96 3e 7f
        E 30 96 23 00
        E 0 96 3e 00
        E 30 96 3b 64
        E 0 96 2a 64
        E 30 96 3b 00
        E 0 96 2a 00
        E 0 96 3e 7f
        E 30 96 3e 00
        E 0 96 23 7f
        E 0 96 27 64
        E 0 96 3e 7f
        E 30 96 23 00
        E 0 96 27 00
        E 0 96 3e 00
        E 30 96 2a 64
        E 0 96 3b 64
        E 0 96 3e 7f
        E 30 96 2a 00
        E 0 96 3b 00
        E 0 96 3e 00
        E 30 96 23 7f
        E 0 96 3e 7f
        E 30 96 23 00
        E 0 96 3e 00
        E 30 96 3b 64
        E 0 96 2a 64
        E 30 96 3b 00
        E 0 96 2a 00
        E 0 96 3e 7f
        E 30 96 3e 00
        E 0 96 23 7f
        E 0 96 27 64
        E 0 96 3e 7f
        E 30 96 23 00
        E 0 96 27 00
        E 0 96 3e 00
        E 30 96 2a 64
        E 0 96 3b 64
        E 0 96 3e 7f
        E 30 96 2a 00
        E 0 96 3b 00
        E 0 96 3e 00
        E 30 96 31 64
        E 0 96 23 7f
        E 30 96 23 00
        E 30 96 3b 64
        E 0 96 2a 64
        E 30 96 3b 00
        E 0 96 2a 00
        E 30 96 31 00
        E 0 96 23 7f
        E 0 96 27 64
        E 30 96 23 00
        E 0 96 27 00
        E 30 96 2a 64
        E 0 96 3b 64
        E 30 96 2a 00
        E 0 96 3b 00
        E 30 96 23 7f
        E 30 96 23 00
        E 30 96 3b 64
        E 0 96 2a 64
        E 30 96 3b 00
        E 0 96 2a 00
        E 30 96 23 7f
        E 0 96 27 64
        E 30 96 23 00
        E 0 96 27 00
        E 30 96 2a 64
        E 0 96 3b 64
        E 30 96 2a 00
        E 0 96 3b 00
        E 30 96 23 7f
        E 30 96 23 00
        E 30 96 3b 64
        E 0 96 2a 64
        E 30 96 3b 00
        E 0 96 2a 00
        E 30 96 23 7f
        E 0 96 27 64
        E 30 96 23 00
        E 0 96 27 00
        E 30 96 2a 64
        E 0 96 3b 64
        E 30 96 2a 00
        E 0 96 3b 00
        E 30 96 23 7f
        E 30 96 23 00
        E 30 96 3b 64
        E 0 96 2a 64
        E 30 96 3b 00
        E 0 96 2a 00
        E 30 96 23 7f
        E 0 96 27 64
        E 30 96 23 00
        E 0 96 27 00
        E 30 96 2a 64
        E 0 96 3b 64
        E 30 96 2a 00
        E 0 96 3b 00
        E 30 96 23 7f
        E 30 96 23 00
        E 30 96 3b 64
        E 0 96 2a 64
        E 30 96 3b 00
        E 0 96 2a 00
        E 30 96 23 7f
        E 0 96 27 64
        E 30 96 23 00
        E 0 96 27 00
        E 30 96 2a 64
        E 0 96 3b 64
        E 30 96 2a 00
        E 0 96 3b 00
        E 30 96 23 7f
        E 30 96 23 00
        E 30 96 3b 64
        E 0 96 2a 64
        E 30 96 3b 00
        E 0 96 2a 00
        E 30 96 23 7f
        E 0 96 27 64
        E 30 96 23 00
        E 0 96 27 00
        E 30 96 2a 64
        E 0 96 3b 64
        E 30 96 2a 00
        E 0 96 3b 00
        E 30 96 23 7f
        E 0 96 3e 7f
        E 30 96 23 00
        E 0 96 3e 00
        E 30 96 3b 64
        E 0 96 2a 64
        E 30 96 3b 00
        E 0 96 2a 00
        E 0 96 3e 7f
        E 30 96 3e 00
        E 0 96 23 7f
        E 0 96 27 64
        E 0 96 3e 7f
        E 30 96 23 00
        E 0 96 27 00
        E 0 96 3e 00
        E 30 96 2a 64
        E 0 96 3b 64
        E 0 96 3e 7f
        E 30 96 2a 00
        E 0 96 3b 00
        E 0 96 3e 00
        E 30 96 23 7f
        E 0 96 3e 7f
        E 30 96 23 00
        E 0 96 3e 00
        E 30 96 3b 64
        E 0 96 2a 64
        E 30 96 3b 00
        E 0 96 2a 00
        E 0 96 3e 7f
        E 30 96 3e 00
        E 0 96 23 7f
        E 0 96 27 64
        E 0 96 3e 7f
        E 30 96 23 00
        E 0 96 27 00
        E 0 96 3e 00
        E 30 96 2a 64
        E 0 96 3b 64
        E 0 96 3e 7f
        E 30 96 2a 00
        E 0 96 3b 00
        E 0 96 3e 00
        E 30 96 31 64
        E 0 96 23 7f
        E 30 96 31 00
        E 0 96 23 00
        E 30 96 3b 64
        E 0 96 2a 64
        E 30 96 3b 00
        E 0 96 2a 00
        E 30 96 23 7f
        E 0 96 27 64
        E 30 96 23 00
        E 0 96 27 00
        E 30 96 2a 64
        E 0 96 3b 64
        E 30 96 2a 00
        E 0 96 3b 00
        E 30 96 23 7f
        E 30 96 23 00
        E 30 96 2a 64
        E 0 96 3b 64
        E 30 96 2a 00
        E 0 96 3b 00
        E 30 96 27 64
        E 0 96 23 7f
        E 30 96 27 00
        E 0 96 23 00
        E 30 96 3b 64
        E 0 96 2a 64
        E 30 96 3b 00
        E 0 96 2a 00
        E 30 96 23 7f
        E 30 96 23 00
        E 30 96 3b 64
        E 0 96 2a 64
        E 30 96 3b 00
        E 0 96 2a 00
        E 30 96 23 7f
        E 0 96 27 64
        E 30 96 23 00
        E 0 96 27 00
        E 30 96 2a 64
        E 0 96 3b 64
        E 30 96 2a 00
        E 0 96 3b 00
        E 30 96 23 7f
        E 30 96 23 00
        E 30 96 2a 64
        E 0 96 3b 64
        E 30 96 2a 00
        E 0 96 3b 00
        E 30 96 23 7f
        E 0 96 27 64
        E 30 96 23 00
        E 0 96 27 00
        E 30 96 3b 64
        E 0 96 2a 64
        E 30 96 3b 00
        E 0 96 2a 00
        E 30 96 23 7f
        E 30 96 23 00
        E 30 96 3b 64
        E 0 96 2a 64
        E 30 96 3b 00
        E 0 96 2a 00
        E 30 96 23 7f
        E 0 96 27 64
        E 30 96 23 00
        E 0 96 27 00
        E 30 96 2a 64
        E 0 96 3b 64
        E 30 96 2a 00
        E 0 96 3b 00
        E 30 96 23 7f
        E 30 96 23 00
        E 30 96 2a 64
        E 0 96 3b 64
        E 30 96 2a 00
        E 0 96 3b 00
        E 30 96 23 7f
        E 0 96 27 64
        E 30 96 23 00
        E 0 96 27 00
        E 30 96 3b 64
        E 0 96 2a 64
        E 30 96 3b 00
        E 0 96 2a 00
        E 30 96 23 7f
        E 30 96 23 00
        E 30 96 3b 64
        E 0 96 2a 64
        E 30 96 3b 00
        E 0 96 2a 00
        E 30 96 23 7f
        E 0 96 27 64
        E 30 96 23 00
        E 0 96 27 00
        E 30 96 2a 64
        E 0 96 3b 64
        E 30 96 2a 00
        E 0 96 3b 00
        E 30 96 23 7f
        E 30 96 23 00
        E 30 96 2a 64
        E 0 96 3b 64
        E 30 96 2a 00
        E 0 96 3b 00
        E 30 96 23 7f
        E 0 96 27 64
        E 30 96 23 00
        E 0 96 27 00
        E 30 96 3b 64
        E 0 96 2a 64
        E 30 96 3b 00
        E 0 96 2a 00
        E 30 96 23 7f
        E 30 96 23 00
        E 30 96 3b 64
        E 0 96 2a 64
        E 30 96 3b 00
        E 0 96 2a 00
        E 30 96 23 7f
        E 0 96 27 64
        E 30 96 23 00
        E 0 96 27 00
        E 30 96 2a 64
        E 0 96 3b 64
        E 30 96 2a 00
        E 0 96 3b 00
        E 30 96 23 7f
        E 30 96 23 00
        E 30 96 2a 64
        E 0 96 3b 64
        E 30 96 2a 00
        E 0 96 3b 00
        E 30 96 23 7f
        E 0 96 27 64
        E 30 96 23 00
        E 0 96 27 00
        E 30 96 3b 64
        E 0 96 2a 64
        E 30 96 3b 00
        E 0 96 2a 00
        E 30 96 23 7f
        E 30 96 23 00
        E 30 96 3b 64
        E 0 96 2a 64
        E 30 96 3b 00
        E 0 96 2a 00
        E 30 96 23 7f
        E 0 96 27 64
        E 30 96 23 00
        E 0 96 27 00
        E 30 96 2a 64
        E 0 96 3b 64
        E 30 96 2a 00
        E 0 96 3b 00
        E 30 96 23 7f
        E 30 96 23 00
        E 30 96 2a 64
        E 0 96 3b 64
        E 30 96 2a 00
        E 0 96 3b 00
        E 30 96 23 7f
        E 0 96 27 64
        E 30 96 23 00
        E 0 96 27 00
        E 30 96 3b 64
        E 0 96 2a 64
        E 30 96 3b 00
        E 0 96 2a 00
        E 30 96 23 7f
        E 30 96 23 00
        E 30 96 3b 64
        E 0 96 2a 64
        E 30 96 3b 00
        E 0 96 2a 00
        E 30 96 23 7f
        E 0 96 27 64
        E 30 96 23 00
        E 0 96 27 00
        E 30 96 2a 64
        E 0 96 3b 64
        E 30 96 2a 00
        E 0 96 3b 00
        E 30 96 23 7f
        E 30 96 23 00
        E 30 96 2a 64
        E 0 96 3b 64
        E 30 96 2a 00
        E 0 96 3b 00
        E 30 96 27 64
        E 0 96 23 7f
        E 30 96 27 00
        E 0 96 23 00
        E 30 96 3b 64
        E 0 96 2a 64
        E 30 96 3b 00
        E 0 96 2a 00
        E 30 96 23 7f
        E 30 96 23 00
        E 30 96 3b 64
        E 0 96 2a 64
        E 30 96 3b 00
        E 0 96 2a 00
        E 30 96 23 7f
        E 0 96 27 64
        E 30 96 23 00
        E 0 96 27 00
        E 30 96 2a 64
        E 0 96 3b 64
        E 30 96 2a 00
        E 0 96 3b 00
        E 30 96 23 7f
        E 30 96 23 00
        E 30 96 2a 64
        E 0 96 3b 64
        E 30 96 2a 00
        E 0 96 3b 00
        E 30 96 23 7f
        E 0 96 27 64
        E 30 96 23 00
        E 0 96 27 00
        E 30 96 2a 64
        E 0 96 3b 64
        E 30 96 2a 00
        E 0 96 3b 00
        E 30 96 28 3c
        E 0 96 23 7f
        E 30 96 28 00
        E 0 96 23 00
        E 0 96 28 46
        E 30 96 28 00
        E 0 96 3b 64
        E 0 96 28 46
        E 0 96 2a 64
        E 30 96 3b 00
        E 0 96 28 00
        E 0 96 2a 00
        E 0 96 28 46
        E 30 96 28 00
        E 0 96 28 46
        E 0 96 23 7f
        E 0 96 27 64
        E 30 96 28 00
        E 0 96 23 00
        E 0 96 27 00
        E 0 96 28 46
        E 30 96 28 00
        E 0 96 3b 64
        E 0 96 28 46
        E 0 96 2a 64
        E 30 96 3b 00
        E 0 96 28 00
        E 0 96 2a 00
        E 0 96 28 46
        E 30 96 28 00
        E 0 96 28 46
        E 0 96 23 7f
        E 30 96 28 00
        E 0 96 23 00
        E 0 96 28 46
        E 30 96 28 00
        E 0 96 3b 64
        E 0 96 28 46
        E 0 96 2a 64
        E 30 96 3b 00
        E 0 96 28 00
        E 0 96 2a 00
        E 0 96 28 46
        E 30 96 28 00
        E 0 96 28 46
        E 0 96 23 7f
        E 0 96 27 64
        E 30 96 28 00
        E 0 96 23 00
        E 0 96 27 00
        E 0 96 28 46
        E 30 96 28 00
        E 0 96 3b 64
        E 0 96 28 46
        E 0 96 2a 64
        E 30 96 3b 00
        E 0 96 28 00
        E 0 96 2a 00
        E 0 96 28 46
        E 30 96 28 00
        E 0 96 28 46
        E 0 96 23 7f
        E 30 96 28 00
        E 0 96 23 00
        E 0 96 28 46
        E 30 96 28 00
        E 0 96 3b 64
        E 0 96 28 46
        E 0 96 2a 64
        E 30 96 3b 00
        E 0 96 28 00
        E 0 96 2a 00
        E 0 96 28 46
        E 30 96 28 00
        E 0 96 28 46
        E 0 96 23 7f
        E 0 96 27 64
        E 30 96 28 00
        E 0 96 23 00
        E 0 96 27 00
        E 0 96 28 46
        E 30 96 28 00
        E 0 96 3b 64
        E 0 96 28 46
        E 0 96 2a 64
        E 30 96 3b 00
        E 0 96 28 00
        E 0 96 2a 00
        E 0 96 28 46
        E 30 96 28 00
        E 0 96 28 46
        E 0 96 23 7f
        E 30 96 28 00
        E 0 96 23 00
        E 0 96 28 46
        E 30 96 28 00
        E 0 96 28 46
        E 0 96 2a 64
        E 0 96 3b 64
        E 30 96 28 00
        E 0 96 2a 00
        E 0 96 3b 00
        E 0 96 28 46
        E 30 96 28 00
        E 0 96 28 46
        E 0 96 23 7f
        E 0 96 27 64
        E 30 96 28 00
        E 0 96 23 00
        E 0 96 27 00
        E 0 96 28 46
        E 30 96 28 00
        E 0 96 28 46
        E 0 96 2a 64
        E 0 96 3b 64
        E 30 96 28 00
        E 0 96 2a 00
        E 0 96 3b 00
        E 0 96 28 46
        E 30 96 28 00
        E 0 96 28 50
        E 0 96 23 7f
        E 30 96 28 00
        E 0 96 23 00
        E 0 96 28 50
        E 30 96 28 00
        E 0 96 28 50
        E 0 96 2a 64
        E 0 96 3b 64
        E 30 96 28 00
        E 0 96 2a 00
        E 0 96 3b 00
        E 0 96 28 50
        E 30 96 28 00
        E 0 96 28 50
        E 0 96 23 7f
        E 0 96 27 64
        E 30 96 28 00
        E 0 96 23 00
        E 0 96 27 00
        E 0 96 28 50
        E 30 96 28 00
        E 0 96 28 50
        E 0 96 2a 64
        E 0 96 3b 64
        E 30 96 28 00
        E 0 96 2a 00
        E 0 96 3b 00
        E 0 96 28 50
        E 30 96 28 00
        E 0 96 28 50
        E 0 96 23 7f
        E 30 96 28 00
        E 0 96 23 00
        E 0 96 28 50
        E 30 96 28 00
        E 0 96 28 50
        E 0 96 2a 64
        E 0 96 3b 64
        E 30 96 28 00
        E 0 96 2a 00
        E 0 96 3b 00
        E 0 96 28 50
        E 30 96 28 00
        E 0 96 28 50
        E 0 96 23 7f
        E 0 96 27 64
        E 30 96 28 00
        E 0 96 23 00
        E 0 96 27 00
        E 0 96 28 50
        E 30 96 28 00
        E 0 96 28 50
        E 0 96 2a 64
        E 0 96 3b 64
        E 30 96 28 00
        E 0 96 2a 00
        E 0 96 3b 00
        E 0 96 28 50
        E 30 96 28 00
        E 0 96 28 5a
        E 0 96 23 7f
        E 0 96 39 64
        E 30 96 28 00
        E 0 96 23 00
        E 0 96 39 00
        E 0 96 28 5a
        E 30 96 28 00
        E 0 96 28 5a
        E 0 96 2a 64
        E 0 96 3b 64
        E 30 96 28 00
        E 0 96 2a 00
        E 0 96 3b 00
        E 0 96 28 5a
        E 30 96 28 00
        E 0 96 28 5a
        E 0 96 23 7f
        E 30 96 28 00
        E 0 96 23 00
        E 0 96 28 5a
        E 0 96 31 64
        E 0 96 28 5a
        E 30 96 28 00
        E 0 96 31 00
        E 0 96 28 5a
        E 0 96 2a 64
        E 0 96 3b 64
        E 30 96 28 00
        E 0 96 2a 00
        E 0 96 3b 00
        E 0 96 28 5a
        E 30 96 28 00
        E 0 96 28 5a
        E 0 96 23 7f
        E 0 96 39 64
        E 30 96 28 00
        E 0 96 23 00
        E 0 96 39 00
        E 0 96 28 5a
        E 30 96 28 00
        E 0 96 28 5a
        E 0 96 2a 64
        E 0 96 3b 64
        E 30 96 28 00
        E 0 96 2a 00
        E 0 96 3b 00
        E 0 96 28 5a
        E 30 96 28 00
        E 0 96 28 5a
        E 0 96 31 64
        E 0 96 28 5a
        E 0 96 23 7f
        E 30 96 28 00
        E 0 96 31 00
        E 0 96 23 00
        E 0 96 28 5a
        E 30 96 28 00
        E 0 96 28 5a
        E 0 96 3b 64
        E 30 96 28 00
        E 0 96 3b 00
        E 0 96 28 5a
        E 30 96 28 00
        E 0 96 31 64
        E 0 96 28 5a
        E 0 96 39 64
        E 0 96 2b 64
        E 30 96 31 00
        E 0 96 28 00
        E 0 96 39 00
        E 0 96 2b 00
        E 1890 96 23 7f
        E 0 96 2b 64
        E 0 96 24 64
        E 30 96 23 00
        E 0 96 2b 00
        E 0 96 24 00
        E 450 96 24 64
        E 0 96 23 7f
        E 0 96 2b 64
        E 30 96 24 00
        E 0 96 23 00
        E 0 96 2b 00
        E 210 96 24 64
        E 0 96 2b 64
        E 0 96 23 7f
        E 30 96 24 00
        E 0 96 2b 00
        E 0 96 23 00
        E 90 96 24 64
        E 0 96 23 7f
        E 0 96 2b 64
        E 30 96 24 00
        E 0 96 23 00
        E 0 96 2b 00
        E 90 96 24 64
        E 0 96 23 7f
        E 0 96 2b 64
        E 30 96 24 00
        E 0 96 23 00
        E 0 96 2b 00
        E 930 96 24 64
        E 0 96 23 7f
        E 0 96 2b 64
        E 0 96 23 7f
        E 0 96 2b 64
        E 0 96 24 64
        E 15 96 24 00
        E 0 96 23 00
        E 0 96 2b 00
        E 3705 96 31 64
        E 0 96 2b 64
        E 0 96 23 7f
        E 0 96 24 64
        E 15 96 31 00
        E 0 96 2b 00
        E 0 96 23 00
        E 0 96 24 00
        E 105 96 23 7f
        E 0 96 2b 64
        E 0 96 24 64
        E 0 96 34 64
        E 15 96 23 00
        E 0 96 2b 00
        E 0 96 24 00
        E 0 96 34 00
        E 1905 96 29 64
        E 0 96 23 7f
        E 0 96 24 64
        E 0 96 31 64
        E 15 96 29 00
        E 0 96 23 00
        E 0 96 24 00
        E 0 96 31 00
        E 1785 96 31 64
        E 0 96 29 64
        E 0 96 23 7f
        E 15 96 23 00
        E 105 96 31 00
        E 0 96 29 00
        E 0 96 31 64
        E 0 96 29 64
        E 0 96 23 7f
        E 15 96 29 00
        E 0 96 23 00
        E 105 96 31 00
        E 1800 96 28 1e
        E 15 96 28 00
        E 15 96 28 1e
        E 15 96 28 00
        E 15 96 28 1e
        E 15 96 28 00
        E 15 96 28 1e
        E 15 96 28 00
        E 15 96 28 1e
        E 15 96 28 00
        E 15 96 28 1e
        E 15 96 28 00
        E 15 96 28 1e
        E 15 96 28 00
        E 15 96 28 1e
        E 15 96 28 00
        E 15 96 28 1e
        E 15 96 28 00
        E 15 96 28 1e
        E 15 96 28 00
        E 15 96 28 1e
        E 15 96 28 00
        E 15 96 28 1e
        E 15 96 28 00
        E 15 96 28 1e
        E 15 96 28 00
        E 15 96 28 1e
        E 15 96 28 00
        E 15 96 28 1e
        E 15 96 28 00
        E 15 96 28 1e
        E 15 96 28 00
        E 15 96 28 28
        E 15 96 28 00
        E 15 96 28 28
        E 15 96 28 00
        E 15 96 28 28
        E 15 96 28 00
        E 15 96 28 28
        E 15 96 28 00
        E 15 96 28 28
        E 15 96 28 00
        E 15 96 28 28
        E 15 96 28 00
        E 15 96 28 28
        E 15 96 28 00
        E 15 96 28 28
        E 15 96 28 00
        E 15 96 28 28
        E 15 96 28 00
        E 15 96 28 28
        E 15 96 28 00
        E 15 96 28 28
        E 15 96 28 00
        E 15 96 28 28
        E 15 96 28 00
        E 15 96 28 28
        E 15 96 28 00
        E 15 96 28 28
        E 15 96 28 00
        E 15 96 28 28
        E 15 96 28 00
        E 15 96 28 28
        E 15 96 28 00
        E 15 96 28 32
        E 15 96 28 00
        E 15 96 28 28
        E 15 96 28 00
        E 15 96 28 28
        E 15 96 28 00
        E 15 96 28 28
        E 15 96 28 00
        E 15 96 28 28
        E 15 96 28 00
        E 15 96 28 28
        E 15 96 28 00
        E 15 96 28 28
        E 15 96 28 00
        E 15 96 28 28
        E 15 96 28 00
        E 15 96 28 28
        E 15 96 28 00
        E 15 96 28 28
        E 15 96 28 00
        E 15 96 28 28
        E 15 96 28 00
        E 15 96 28 28
        E 15 96 28 00
        E 15 96 28 28
        E 15 96 28 00
        E 15 96 28 28
        E 15 96 28 00
        E 15 96 28 28
        E 15 96 28 00
        E 15 96 28 28
        E 15 96 28 00
        E 15 96 28 32
        E 30 96 28 32
        E 30 96 28 32
        E 5 96 28 00
        E 25 96 28 32
        E 5 96 28 00
        E 25 96 28 32
        E 5 96 28 00
        E 25 96 28 32
        E 5 96 28 00
        E 25 96 28 32
        E 5 96 28 00
        E 25 96 28 32
        E 5 96 28 00
        E 25 96 28 32
        E 5 96 28 00
        E 25 96 28 32
        E 5 96 28 00
        E 25 96 28 32
        E 5 96 28 00
        E 25 96 28 32
        E 5 96 28 00
        E 25 96 28 32
        E 5 96 28 00
        E 25 96 28 32
        E 5 96 28 00
        E 25 96 28 32
        E 5 96 28 00
        E 25 96 28 32
        E 5 96 28 00
        E 25 96 28 3c
        E 5 96 28 00
        E 25 96 28 46
        E 5 96 28 00
        E 25 96 28 46
        E 15 96 28 00
        E 15 96 28 46
        E 15 96 28 00
        E 15 96 28 46
        E 15 96 28 00
        E 15 96 28 46
        E 15 96 28 00
        E 15 96 28 46
        E 15 96 28 00
        E 15 96 28 46
        E 15 96 28 00
        E 15 96 28 46
        E 15 96 28 00
        E 15 96 28 46
        E 15 96 28 00
        E 15 96 28 46
        E 15 96 28 00
        E 15 96 28 46
        E 15 96 28 00
        E 15 96 28 46
        E 15 96 28 00
        E 15 96 28 46
        E 15 96 28 00
        E 15 96 28 46
        E 15 96 28 00
        E 15 96 28 46
        E 15 96 28 00
        E 15 96 28 46
        E 15 96 28 00
        E 15 96 28 46
        E 15 96 28 00
        E 15 96 28 46
        E 15 96 28 00
        E 15 96 28 46
        E 15 96 28 00
        E 15 96 28 46
        E 15 96 28 00
        E 15 96 28 46
        E 15 96 28 00
        E 15 96 28 46
        E 15 96 28 00
        E 15 96 28 46
        E 15 96 28 00
        E 15 96 28 46
        E 15 96 28 00
        E 15 96 28 46
        E 15 96 28 00
        E 15 96 28 46
        E 15 96 28 00
        E 15 96 28 46
        E 15 96 28 00
        E 15 96 28 46
        E 15 96 28 00
        E 15 96 28 46
        E 15 96 28 00
        E 15 96 28 46
        E 15 96 28 00
        E 15 96 28 46
        E 15 96 28 00
        E 15 96 28 50
        E 15 96 28 00
        E 15 96 28 50
        E 15 96 28 00
        E 15 96 28 50
        E 15 96 28 00
        E 15 96 28 50
        E 15 96 28 00
        E 15 96 28 50
        E 15 96 28 00
        E 15 96 28 50
        E 15 96 28 00
        E 15 96 28 50
        E 15 96 28 00
        E 15 96 28 50
        E 15 96 28 00
        E 15 96 28 50
        E 15 96 28 00
        E 15 96 28 50
        E 15 96 28 00
        E 15 96 28 50
        E 15 96 28 00
        E 15 96 28 50
        E 15 96 28 00
        E 15 96 28 50
        E 15 96 28 00
        E 15 96 28 50
        E 15 96 28 00
        E 15 96 28 50
        E 15 96 28 00
        E 15 96 28 50
        E 15 96 28 00
        E 15 96 39 64
        E 0 96 28 5a
        E 0 96 3f 64
        E 15 96 39 00
        E 0 96 28 00
        E 0 96 3f 00
        E 15 96 28 5a
        E 15 96 28 00
        E 15 96 28 5a
        E 15 96 28 00
        E 15 96 28 5a
        E 0 96 3f 64
        E 15 96 28 00
        E 0 96 3f 00
        E 15 96 28 5a
        E 0 96 3f 64
        E 0 96 31 64
        E 15 96 28 00
        E 0 96 3f 00
        E 0 96 31 00
        E 15 96 28 5a
        E 15 96 28 00
        E 15 96 28 5a
        E 0 96 3f 64
        E 15 96 28 00
        E 0 96 3f 00
        E 15 96 28 5a
        E 15 96 28 00
        E 15 96 3f 64
        E 0 96 28 5a
        E 0 96 39 64
        E 15 96 3f 00
        E 0 96 28 00
        E 0 96 39 00
        E 0 96 28 5a
        E 15 96 28 00
        E 0 96 28 5a
        E 15 96 28 00
        E 0 96 28 5a
        E 15 96 28 00
        E 0 96 28 5a
        E 15 96 28 00
        E 0 96 28 5a
        E 15 96 28 00
        E 0 96 28 5a
        E 0 96 3f 64
        E 15 96 28 00
        E 0 96 3f 00
        E 0 96 28 5a
        E 15 96 28 00
        E 0 96 31 64
        E 0 96 28 5a
        E 0 96 3f 64
        E 15 96 31 00
        E 0 96 28 00
        E 0 96 3f 00
        E 0 96 28 5a
        E 15 96 28 00
        E 0 96 28 5a
        E 15 96 28 00
        E 0 96 28 5a
        E 15 96 28 00
        E 0 96 28 5a
        E 0 96 3f 64
        E 15 96 28 00
        E 0 96 3f 00
        E 0 96 28 5a
        E 15 96 28 00
        E 0 96 28 5a
        E 15 96 28 00
        E 0 96 28 5a
        E 15 96 28 00
        E 0 96 39 64
        E 0 96 23 7f
        E 15 96 39 00
        E 0 96 23 00
        E 45 96 2a 64
        E 0 96 3b 64
        E 15 96 2a 00
        E 0 96 3b 00
        E 45 96 23 7f
        E 0 96 27 64
        E 15 96 23 00
        E 0 96 27 00
        E 45 96 2a 64
        E 0 96 3b 64
        E 15 96 2a 00
        E 0 96 3b 00
        E 45 96 23 7f
        E 15 96 23 00
        E 45 96 2a 64
        E 0 96 3b 64
        E 15 96 2a 00
        E 0 96 3b 00
        E 45 96 27 64
        E 0 96 23 7f
        E 15 96 27 00
        E 0 96 23 00
        E 45 96 3b 64
        E 0 96 2a 64
        E 15 96 3b 00
        E 0 96 2a 00
        E 45 96 23 7f
        E 15 96 23 00
        E 45 96 3b 64
        E 0 96 2a 64
        E 15 96 3b 00
        E 0 96 2a 00
        E 45 96 27 64
        E 0 96 23 7f
        E 15 96 27 00
        E 0 96 23 00
        E 45 96 2a 64
        E 0 96 3b 64
        E 15 96 2a 00
        E 0 96 3b 00
        E 45 96 23 7f
        E 15 96 23 00
        E 45 96 3b 64
        E 0 96 2a 64
        E 15 96 3b 00
        E 0 96 2a 00
        E 45 96 27 64
        E 0 96 23 7f
        E 15 96 27 00
        E 0 96 23 00
        E 45 96 2a 64
        E 0 96 3b 64
        E 15 96 2a 00
        E 0 96 3b 00
        E 45 96 23 7f
        E 15 96 23 00
        E 45 96 3b 64
        E 0 96 2a 64
        E 15 96 3b 00
        E 0 96 2a 00
        E 45 96 23 7f
        E 0 96 27 64
        E 15 96 23 00
        E 0 96 27 00
        E 45 96 2a 64
        E 0 96 3b 64
        E 15 96 2a 00
        E 0 96 3b 00
        E 45 96 23 7f
        E 15 96 23 00
        E 45 96 2a 64
        E 0 96 3b 64
        E 15 96 2a 00
        E 0 96 3b 00
        E 45 96 27 64
        E 0 96 23 7f
        E 15 96 27 00
        E 0 96 23 00
        E 45 96 3b 64
        E 0 96 2a 64
        E 15 96 3b 00
        E 0 96 2a 00
        E 45 96 3f 64
        E 0 96 23 7f
        E 15 96 3f 00
        E 0 96 23 00
        E 45 96 3b 64
        E 0 96 2a 64
        E 15 96 3b 00
        E 0 96 2a 00
        E 15 96 3f 64
        E 15 96 3f 00
        E 15 96 3f 64
        E 0 96 27 64
        E 0 96 23 7f
        E 15 96 3f 00
        E 0 96 27 00
        E 0 96 23 00
        E 45 96 3f 64
        E 0 96 3b 64
        E 0 96 2a 64
        E 15 96 3f 00
        E 0 96 3b 00
        E 0 96 2a 00
        E 45 96 23 7f
        E 0 96 3f 64
        E 15 96 23 00
        E 0 96 3f 00
        E 45 96 2a 64
        E 0 96 3b 64
        E 15 96 2a 00
        E 0 96 3b 00
        E 15 96 3f 64
        E 15 96 3f 00
        E 15 96 3f 64
        E 0 96 23 7f
        E 0 96 27 64
        E 15 96 3f 00
        E 0 96 23 00
        E 0 96 27 00
        E 45 96 3f 64
        E 0 96 3b 64
        E 0 96 2a 64
        E 15 96 3f 00
        E 0 96 3b 00
        E 0 96 2a 00
        E 45 96 23 7f
        E 15 96 23 00
        E 45 96 2a 64
        E 0 96 3b 64
        E 15 96 2a 00
        E 0 96 3b 00
        E 45 96 27 64
        E 0 96 23 7f
        E 15 96 27 00
        E 0 96 23 00
        E 45 96 3b 64
        E 0 96 2a 64
        E 15 96 3b 00
        E 0 96 2a 00
        E 45 96 23 7f
        E 15 96 23 00
        E 45 96 3b 64
        E 0 96 2a 64
        E 15 96 3b 00
        E 0 96 2a 00
        E 45 96 23 7f
        E 0 96 27 64
        E 15 96 23 00
        E 0 96 27 00
        E 45 96 2a 64
        E 0 96 3b 64
        E 15 96 2a 00
        E 0 96 3b 00
        E 45 96 23 7f
        E 15 96 23 00
        E 45 96 2a 64
        E 0 96 3b 64
        E 15 96 2a 00
        E 0 96 3b 00
        E 45 96 23 7f
        E 0 96 27 64
        E 15 96 23 00
        E 0 96 27 00
        E 45 96 3b 64
        E 0 96 2a 64
        E 15 96 3b 00
        E 0 96 2a 00
        E 45 96 23 7f
        E 15 96 23 00
        E 45 96 2a 64
        E 0 96 3b 64
        E 15 96 2a 00
        E 0 96 3b 00
        E 45 96 23 7f
        E 0 96 27 64
        E 15 96 23 00
        E 0 96 27 00
        E 45 96 3b 64
        E 0 96 2a 64
        E 15 96 3b 00
        E 0 96 2a 00
        E 45 96 23 7f
        E 15 96 23 00
        E 45 96 3b 64
        E 0 96 2a 64
        E 15 96 3b 00
        E 0 96 2a 00
        E 45 96 23 7f
        E 0 96 27 64
        E 15 96 23 00
        E 0 96 27 00
        E 45 96 3b 64
        E 0 96 2a 64
        E 15 96 3b 00
        E 0 96 2a 00
        E 45 96 23 7f
        E 15 96 23 00
        E 45 96 2a 64
        E 0 96 3b 64
        E 15 96 2a 00
        E 0 96 3b 00
        E 45 96 27 64
        E 0 96 23 7f
        E 15 96 27 00
        E 0 96 23 00
        E 45 96 2a 64
        E 0 96 3b 64
        E 15 96 2a 00
        E 0 96 3b 00
        E 45 96 3f 64
        E 0 96 23 7f
        E 15 96 3f 00
        E 0 96 23 00
        E 45 96 2a 64
        E 0 96 3b 64
        E 15 96 2a 00
        E 0 96 3b 00
        E 15 96 3f 64
        E 15 96 3f 00
        E 15 96 27 64
        E 0 96 3f 64
        E 0 96 23 7f
        E 15 96 27 00
        E 0 96 3f 00
        E 0 96 23 00
        E 45 96 3b 64
        E 0 96 2a 64
        E 0 96 3f 64
        E 15 96 3b 00
        E 0 96 2a 00
        E 0 96 3f 00
        E 45 96 3f 64
        E 0 96 23 7f
        E 15 96 3f 00
        E 0 96 23 00
        E 45 96 3b 64
        E 0 96 2a 64
        E 15 96 3b 00
        E 0 96 2a 00
        E 15 96 3f 64
        E 15 96 3f 00
        E 15 96 3f 64
        E 0 96 27 64
        E 0 96 23 7f
        E 15 96 3f 00
        E 0 96 27 00
        E 0 96 23 00
        E 45 96 3b 64
        E 0 96 3f 64
        E 0 96 2a 64
        E 15 96 3b 00
        E 0 96 3f 00
        E 0 96 2a 00
        E 45 96 23 7f
        E 0 96 31 64
        E 15 96 23 00
        E 45 96 2a 64
        E 0 96 3b 64
        E 15 96 2a 00
        E 0 96 3b 00
        E 45 96 31 00
        E 0 96 23 7f
        E 0 96 27 64
        E 15 96 23 00
        E 0 96 27 00
        E 45 96 2a 64
        E 0 96 3b 64
        E 15 96 2a 00
        E 0 96 3b 00
        E 45 96 23 7f
        E 15 96 23 00
        E 45 96 3b 64
        E 0 96 2a 64
        E 15 96 3b 00
        E 0 96 2a 00
        E 45 96 27 64
        E 0 96 23 7f
        E 15 96 27 00
        E 0 96 23 00
        E 45 96 2a 64
        E 0 96 3b 64
        E 15 96 2a 00
        E 0 96 3b 00
        E 45 96 23 7f
        E 15 96 23 00
        E 45 96 2a 64
        E 0 96 3b 64
        E 15 96 2a 00
        E 0 96 3b 00
        E 45 96 23 7f
        E 0 96 27 64
        E 15 96 23 00
        E 0 96 27 00
        E 45 96 3b 64
        E 0 96 2a 64
        E 15 96 3b 00
        E 0 96 2a 00
        E 45 96 23 7f
        E 15 96 23 00
        E 45 96 2a 64
        E 0 96 3b 64
        E 15 96 2a 00
        E 0 96 3b 00
        E 45 96 27 64
        E 0 96 23 7f
        E 15 96 27 00
        E 0 96 23 00
        E 45 96 3b 64
        E 0 96 2a 64
        E 15 96 3b 00
        E 0 96 2a 00
        E 45 96 23 7f
        E 15 96 23 00
        E 45 96 3b 64
        E 0 96 2a 64
        E 15 96 3b 00
        E 0 96 2a 00
        E 45 96 27 64
        E 0 96 23 7f
        E 15 96 27 00
        E 0 96 23 00
        E 45 96 2a 64
        E 0 96 3b 64
        E 15 96 2a 00
        E 0 96 3b 00
        E 45 96 23 7f
        E 15 96 23 00
        E 45 96 2a 64
        E 0 96 3b 64
        E 15 96 2a 00
        E 0 96 3b 00
        E 45 96 27 64
        E 0 96 23 7f
        E 15 96 27 00
        E 0 96 23 00
        E 45 96 3b 64
        E 0 96 2a 64
        E 15 96 3b 00
        E 0 96 2a 00
        E 45 96 23 7f
        E 0 96 3f 64
        E 15 96 23 00
        E 0 96 3f 00
        E 45 96 3b 64
        E 0 96 2a 64
        E 15 96 3b 00
        E 0 96 2a 00
        E 15 96 3f 64
        E 15 96 3f 00
        E 15 96 23 7f
        E 0 96 27 64
        E 0 96 3f 64
        E 15 96 23 00
        E 0 96 27 00
        E 0 96 3f 00
        E 45 96 2a 64
        E 0 96 3f 64
        E 0 96 3b 64
        E 15 96 2a 00
        E 0 96 3f 00
        E 0 96 3b 00
        E 45 96 3f 64
        E 0 96 23 7f
        E 15 96 3f 00
        E 0 96 23 00
        E 45 96 2a 64
        E 0 96 3b 64
        E 15 96 2a 00
        E 0 96 3b 00
        E 15 96 3f 64
        E 15 96 3f 00
        E 15 96 23 7f
        E 0 96 27 64
        E 0 96 3f 64
        E 15 96 23 00
        E 0 96 27 00
        E 0 96 3f 00
        E 45 96 3f 64
        E 0 96 2a 64
        E 0 96 3b 64
        E 15 96 3f 00
        E 0 96 2a 00
        E 0 96 3b 00
        E 45 96 23 7f
        E 15 96 23 00
        E 45 96 2a 64
        E 0 96 3b 64
        E 15 96 2a 00
        E 0 96 3b 00
        E 45 96 23 7f
        E 0 96 27 64
        E 15 96 23 00
        E 0 96 27 00
        E 45 96 3b 64
        E 0 96 2a 64
        E 15 96 3b 00
        E 0 96 2a 00
        E 45 96 23 7f
        E 15 96 23 00
        E 45 96 3b 64
        E 0 96 2a 64
        E 15 96 3b 00
        E 0 96 2a 00
        E 45 96 23 7f
        E 0 96 27 64
        E 15 96 23 00
        E 0 96 27 00
        E 45 96 3b 64
        E 0 96 2a 64
        E 15 96 3b 00
        E 0 96 2a 00
        E 45 96 23 7f
        E 15 96 23 00
        E 45 96 3b 64
        E 0 96 2a 64
        E 15 96 3b 00
        E 0 96 2a 00
        E 45 96 23 7f
        E 0 96 27 64
        E 15 96 23 00
        E 0 96 27 00
        E 45 96 2a 64
        E 0 96 3b 64
        E 15 96 2a 00
        E 0 96 3b 00
        E 45 96 23 7f
        E 15 96 23 00
        E 45 96 3b 64
        E 0 96 2a 64
        E 15 96 3b 00
        E 0 96 2a 00
        E 45 96 23 7f
        E 0 96 27 64
        E 15 96 23 00
        E 0 96 27 00
        E 45 96 2a 64
        E 0 96 3b 64
        E 15 96 2a 00
        E 0 96 3b 00
        E 45 96 23 7f
        E 15 96 23 00
        E 45 96 3b 64
        E 0 96 2a 64
        E 15 96 3b 00
        E 0 96 2a 00
        E 45 96 23 7f
        E 0 96 27 64
        E 15 96 23 00
        E 0 96 27 00
        E 45 96 2a 64
        E 0 96 3b 64
        E 15 96 2a 00
        E 0 96 3b 00
        E 45 96 23 7f
        E 15 96 23 00
        E 45 96 2a 64
        E 0 96 3b 64
        E 15 96 2a 00
        E 0 96 3b 00
        E 45 96 23 7f
        E 0 96 27 64
        E 15 96 23 00
        E 0 96 27 00
        E 45 96 3b 64
        E 0 96 2a 64
        E 15 96 3b 00
        E 0 96 2a 00
        E 45 96 23 7f
        E 0 96 3f 64
        E 15 96 23 00
        E 0 96 3f 00
        E 45 96 2a 64
        E 0 96 3b 64
        E 15 96 2a 00
        E 0 96 3b 00
        E 15 96 3f 64
        E 15 96 3f 00
        E 15 96 23 7f
        E 0 96 27 64
        E 0 96 3f 64
        E 15 96 23 00
        E 0 96 27 00
        E 0 96 3f 00
        E 45 96 3b 64
        E 0 96 3f 64
        E 0 96 2a 64
        E 15 96 3b 00
        E 0 96 3f 00
        E 0 96 2a 00
        E 45 96 23 7f
        E 0 96 3f 64
        E 15 96 23 00
        E 0 96 3f 00
        E 45 96 3b 64
        E 0 96 2a 64
        E 15 96 3b 00
        E 0 96 2a 00
        E 15 96 3f 64
        E 15 96 3f 00
        E 15 96 3f 64
        E 0 96 27 64
        E 0 96 23 7f
        E 15 96 3f 00
        E 0 96 27 00
        E 0 96 23 00
        E 45 96 3b 64
        E 0 96 3f 64
        E 0 96 2a 64
        E 15 96 3b 00
        E 0 96 3f 00
        E 0 96 2a 00
        E 45 96 31 64
        E 0 96 23 7f
        E 15 96 31 00
        E 0 96 23 00
        E 45 96 3b 64
        E 0 96 2a 64
        E 15 96 3b 00
        E 0 96 2a 00
        E 45 96 23 7f
        E 0 96 27 64
        E 15 96 23 00
        E 0 96 27 00
        E 45 96 2a 64
        E 0 96 3b 64
        E 15 96 2a 00
        E 0 96 3b 00
        E 45 96 23 7f
        E 15 96 23 00
        E 45 96 3b 64
        E 0 96 2a 64
        E 15 96 3b 00
        E 0 96 2a 00
        E 45 96 27 64
        E 0 96 23 7f
        E 15 96 27 00
        E 0 96 23 00
        E 45 96 2a 64
        E 0 96 3b 64
        E 15 96 2a 00
        E 0 96 3b 00
        E 45 96 23 7f
        E 15 96 23 00
        E 45 96 2a 64
        E 0 96 3b 64
        E 15 96 2a 00
        E 0 96 3b 00
        E 45 96 27 64
        E 0 96 23 7f
        E 15 96 27 00
        E 0 96 23 00
        E 45 96 3b 64
        E 0 96 2a 64
        E 15 96 3b 00
        E 0 96 2a 00
        E 45 96 23 7f
        E 15 96 23 00
        E 45 96 2a 64
        E 0 96 3b 64
        E 15 96 2a 00
        E 0 96 3b 00
        E 45 96 27 64
        E 0 96 23 7f
        E 15 96 27 00
        E 0 96 23 00
        E 45 96 3b 64
        E 0 96 2a 64
        E 15 96 3b 00
        E 0 96 2a 00
        E 45 96 23 7f
        E 15 96 23 00
        E 45 96 3b 64
        E 0 96 2a 64
        E 15 96 3b 00
        E 0 96 2a 00
        E 45 96 27 64
        E 0 96 23 7f
        E 15 96 27 00
        E 0 96 23 00
        E 45 96 3b 64
        E 0 96 2a 64
        E 15 96 3b 00
        E 0 96 2a 00
        E 45 96 23 7f
        E 15 96 23 00
        E 45 96 3b 64
        E 0 96 2a 64
        E 15 96 3b 00
        E 0 96 2a 00
        E 45 96 27 64
        E 0 96 23 7f
        E 15 96 27 00
        E 0 96 23 00
        E 45 96 2a 64
        E 0 96 3b 64
        E 15 96 2a 00
        E 0 96 3b 00
        E 45 96 23 7f
        E 15 96 23 00
        E 45 96 2a 64
        E 0 96 3b 64
        E 15 96 2a 00
        E 0 96 3b 00
        E 45 96 23 7f
        E 0 96 27 64
        E 15 96 23 00
        E 0 96 27 00
        E 45 96 3b 64
        E 0 96 2a 64
        E 15 96 3b 00
        E 0 96 2a 00
        E 45 96 23 7f
        E 15 96 23 00
        E 45 96 3b 64
        E 0 96 2a 64
        E 15 96 3b 00
        E 0 96 2a 00
        E 45 96 27 64
        E 0 96 23 7f
        E 15 96 27 00
        E 0 96 23 00
        E 45 96 3b 64
        E 0 96 2a 64
        E 15 96 3b 00
        E 0 96 2a 00
        E 45 96 23 7f
        E 15 96 23 00
        E 45 96 2a 64
        E 0 96 3b 64
        E 15 96 2a 00
        E 0 96 3b 00
        E 45 96 27 64
        E 0 96 23 7f
        E 15 96 27 00
        E 0 96 23 00
        E 45 96 2a 64
        E 0 96 3b 64
        E 15 96 2a 00
        E 0 96 3b 00
        E 45 96 23 7f
        E 15 96 23 00
        E 45 96 3b 64
        E 0 96 2a 64
        E 15 96 3b 00
        E 0 96 2a 00
        E 45 96 27 64
        E 0 96 23 7f
        E 15 96 27 00
        E 0 96 23 00
        E 45 96 2a 64
        E 0 96 3b 64
        E 15 96 2a 00
        E 0 96 3b 00
        E 45 96 23 7f
        E 15 96 23 00
        E 45 96 2a 64
        E 0 96 3b 64
        E 15 96 2a 00
        E 0 96 3b 00
        E 45 96 27 64
        E 0 96 23 7f
        E 15 96 27 00
        E 0 96 23 00
        E 45 96 2a 64
        E 0 96 3b 64
        E 15 96 2a 00
        E 0 96 3b 00
        E 45 96 23 7f
        E 15 96 23 00
        E 45 96 2a 64
        E 0 96 3b 64
        E 15 96 2a 00
        E 0 96 3b 00
        E 45 96 23 7f
        E 0 96 27 64
        E 15 96 23 00
        E 0 96 27 00
        E 45 96 2a 64
        E 0 96 3b 64
        E 15 96 2a 00
        E 0 96 3b 00
        E 45 96 23 7f
        E 15 96 23 00
        E 45 96 2a 64
        E 0 96 3b 64
        E 15 96 2a 00
        E 0 96 3b 00
        E 45 96 23 7f
        E 0 96 27 64
        E 15 96 23 00
        E 0 96 27 00
        E 45 96 3b 64
        E 0 96 2a 64
        E 15 96 3b 00
        E 0 96 2a 00
        E 45 96 23 7f
        E 15 96 23 00
        E 45 96 2a 64
        E 0 96 3b 64
        E 15 96 2a 00
        E 0 96 3b 00
        E 45 96 27 64
        E 0 96 23 7f
        E 15 96 27 00
        E 0 96 23 00
        E 45 96 3b 64
        E 0 96 2a 64
        E 15 96 3b 00
        E 0 96 2a 00
        E 45 96 23 7f
        E 15 96 23 00
        E 45 96 3b 64
        E 0 96 2a 64
        E 15 96 3b 00
        E 0 96 2a 00
        E 45 96 23 7f
        E 0 96 27 64
        E 15 96 23 00
        E 0 96 27 00
        E 45 96 3b 64
        E 0 96 2a 64
        E 15 96 3b 00
        E 0 96 2a 00
        E 45 96 23 7f
        E 15 96 23 00
        E 45 96 3b 64
        E 0 96 2a 64
        E 15 96 3b 00
        E 0 96 2a 00
        E 45 96 27 64
        E 0 96 23 7f
        E 15 96 27 00
        E 0 96 23 00
        E 45 96 2a 64
        E 0 96 3b 64
        E 15 96 2a 00
        E 0 96 3b 00
        E 45 96 28 3c
        E 0 96 23 7f
        E 15 96 28 00
        E 0 96 23 00
        E 15 96 28 46
        E 15 96 28 00
        E 15 96 28 46
        E 0 96 2a 64
        E 0 96 3b 64
        E 15 96 28 00
        E 0 96 2a 00
        E 0 96 3b 00
        E 15 96 28 46
        E 15 96 28 00
        E 15 96 23 7f
        E 0 96 28 46
        E 0 96 27 64
        E 15 96 23 00
        E 0 96 28 00
        E 0 96 27 00
        E 15 96 28 46
        E 15 96 28 00
        E 15 96 3b 64
        E 0 96 2a 64
        E 0 96 28 46
        E 15 96 3b 00
        E 0 96 2a 00
        E 0 96 28 00
        E 15 96 28 46
        E 15 96 28 00
        E 15 96 23 7f
        E 0 96 28 46
        E 15 96 23 00
        E 0 96 28 00
        E 15 96 28 46
        E 15 96 28 00
        E 15 96 2a 64
        E 0 96 28 46
        E 0 96 3b 64
        E 15 96 2a 00
        E 0 96 28 00
        E 0 96 3b 00
        E 15 96 28 46
        E 15 96 28 00
        E 15 96 23 7f
        E 0 96 28 46
        E 0 96 27 64
        E 15 96 23 00
        E 0 96 28 00
        E 0 96 27 00
        E 15 96 28 46
        E 15 96 28 00
        E 15 96 3b 64
        E 0 96 2a 64
        E 0 96 28 46
        E 15 96 3b 00
        E 0 96 2a 00
        E 0 96 28 00
        E 15 96 28 46
        E 15 96 28 00
        E 15 96 28 46
        E 0 96 23 7f
        E 15 96 28 00
        E 0 96 23 00
        E 15 96 28 46
        E 15 96 28 00
        E 15 96 3b 64
        E 0 96 28 46
        E 0 96 2a 64
        E 15 96 3b 00
        E 0 96 28 00
        E 0 96 2a 00
        E 15 96 28 46
        E 15 96 28 00
        E 15 96 28 46
        E 0 96 27 64
        E 0 96 23 7f
        E 15 96 28 00
        E 0 96 27 00
        E 0 96 23 00
        E 15 96 28 46
        E 15 96 28 00
        E 15 96 2a 64
        E 0 96 28 46
        E 0 96 3b 64
        E 15 96 2a 00
        E 0 96 28 00
        E 0 96 3b 00
        E 15 96 28 46
        E 15 96 28 00
        E 15 96 23 7f
        E 0 96 28 46
        E 15 96 23 00
        E 0 96 28 00
        E 15 96 28 46
        E 15 96 28 00
        E 15 96 28 46
        E 0 96 2a 64
        E 0 96 3b 64
        E 15 96 28 00
        E 0 96 2a 00
        E 0 96 3b 00
        E 15 96 28 46
        E 15 96 28 00
        E 15 96 28 46
        E 0 96 23 7f
        E 0 96 27 64
        E 15 96 28 00
        E 0 96 23 00
        E 0 96 27 00
        E 15 96 28 46
        E 15 96 28 00
        E 15 96 2a 64
        E 0 96 28 46
        E 0 96 3b 64
        E 15 96 2a 00
        E 0 96 28 00
        E 0 96 3b 00
        E 15 96 28 46
        E 15 96 28 00
        E 15 96 23 7f
        E 0 96 28 50
        E 15 96 23 00
        E 0 96 28 00
        E 15 96 28 50
        E 15 96 28 00
        E 15 96 3b 64
        E 0 96 28 50
        E 0 96 2a 64
        E 15 96 3b 00
        E 0 96 28 00
        E 0 96 2a 00
        E 15 96 28 50
        E 15 96 28 00
        E 15 96 23 7f
        E 0 96 27 64
        E 0 96 28 50
        E 15 96 23 00
        E 0 96 27 00
        E 0 96 28 00
        E 15 96 28 50
        E 15 96 28 00
        E 15 96 28 50
        E 0 96 3b 64
        E 0 96 2a 64
        E 15 96 28 00
        E 0 96 3b 00
        E 0 96 2a 00
        E 15 96 28 50
        E 15 96 28 00
        E 15 96 28 50
        E 0 96 23 7f
        E 15 96 28 00
        E 0 96 23 00
        E 15 96 28 50
        E 15 96 28 00
        E 15 96 28 50
        E 0 96 3b 64
        E 0 96 2a 64
        E 15 96 28 00
        E 0 96 3b 00
        E 0 96 2a 00
        E 15 96 28 50
        E 15 96 28 00
        E 15 96 23 7f
        E 0 96 27 64
        E 0 96 28 50
        E 15 96 23 00
        E 0 96 27 00
        E 0 96 28 00
        E 15 96 28 50
        E 15 96 28 00
        E 15 96 3b 64
        E 0 96 28 50
        E 0 96 2a 64
        E 15 96 3b 00
        E 0 96 28 00
        E 0 96 2a 00
        E 15 96 28 50
        E 15 96 28 00
        E 15 96 23 7f
        E 0 96 39 64
        E 0 96 28 5a
        E 15 96 23 00
        E 0 96 39 00
        E 0 96 28 00
        E 0 96 28 64
        E 15 96 28 00
        E 0 96 28 5a
        E 15 96 28 00
        E 0 96 28 64
        E 15 96 28 00
        E 0 96 2a 64
        E 0 96 28 5a
        E 0 96 3b 64
        E 15 96 2a 00
        E 0 96 28 00
        E 0 96 3b 00
        E 0 96 28 64
        E 15 96 28 00
        E 0 96 28 5a
        E 15 96 28 00
        E 0 96 28 5a
        E 15 96 28 00
        E 0 96 28 5a
        E 0 96 23 7f
        E 15 96 28 00
        E 0 96 23 00
        E 0 96 31 64
        E 0 96 28 5a
        E 15 96 31 00
        E 0 96 28 00
        E 0 96 28 5a
        E 15 96 28 00
        E 0 96 28 5a
        E 15 96 28 00
        E 0 96 28 5a
        E 0 96 2a 64
        E 0 96 3b 64
        E 15 96 28 00
        E 0 96 2a 00
        E 0 96 3b 00
        E 0 96 28 5a
        E 15 96 28 00
        E 0 96 28 5a
        E 15 96 28 00
        E 0 96 28 5a
        E 15 96 28 00
        E 0 96 23 7f
        E 0 96 28 5a
        E 0 96 39 64
        E 15 96 23 00
        E 0 96 28 00
        E 0 96 39 00
        E 0 96 28 5a
        E 15 96 28 00
        E 0 96 28 5a
        E 15 96 28 00
        E 0 96 28 5a
        E 15 96 28 00
        E 0 96 28 5a
        E 0 96 2a 64
        E 0 96 3b 64
        E 15 96 28 00
        E 0 96 2a 00
        E 0 96 3b 00
        E 0 96 28 5a
        E 15 96 28 00
        E 0 96 28 5a
        E 15 96 28 00
        E 0 96 28 5a
        E 15 96 28 00
        E 0 96 28 5a
        E 0 96 23 7f
        E 0 96 31 64
        E 15 96 28 00
        E 0 96 23 00
        E 0 96 31 00
        E 0 96 28 5a
        E 15 96 28 00
        E 0 96 28 5a
        E 15 96 28 00
        E 0 96 28 5a
        E 15 96 28 00
        E 0 96 28 5a
        E 0 96 3b 64
        E 15 96 28 00
        E 0 96 3b 00
        E 0 96 28 5a
        E 15 96 28 00
        E 0 96 28 5a
        E 15 96 28 00
        E 0 96 28 5a
        E 15 96 28 00
        E 0 96 31 64
        E 0 96 23 7f
        E 0 96 39 64
        E 15 96 23 00
        E 0 96 39 00
        E 45 96 2a 64
        E 0 96 3b 64
        E 15 96 2a 00
        E 0 96 3b 00
        E 45 96 31 00
        E 0 96 27 64
        E 0 96 23 7f
        E 15 96 27 00
        E 0 96 23 00
        E 45 96 3b 64
        E 0 96 2a 64
        E 15 96 3b 00
        E 0 96 2a 00
        E 45 96 23 7f
        E 15 96 23 00
        E 45 96 2a 64
        E 0 96 3b 64
        E 15 96 2a 00
        E 0 96 3b 00
        E 45 96 23 7f
        E 0 96 27 64
        E 15 96 23 00
        E 0 96 27 00
        E 45 96 2a 64
        E 0 96 3b 64
        E 15 96 2a 00
        E 0 96 3b 00
        E 45 96 23 7f
        E 15 96 23 00
        E 45 96 3b 64
        E 0 96 2a 64
        E 15 96 3b 00
        E 0 96 2a 00
        E 45 96 27 64
        E 0 96 23 7f
        E 15 96 27 00
        E 0 96 23 00
        E 45 96 3b 64
        E 0 96 2a 64
        E 15 96 3b 00
        E 0 96 2a 00
        E 45 96 23 7f
        E 15 96 23 00
        E 45 96 3b 64
        E 0 96 2a 64
        E 15 96 3b 00
        E 0 96 2a 00
        E 45 96 27 64
        E 0 96 23 7f
        E 15 96 27 00
        E 0 96 23 00
        E 45 96 3b 64
        E 0 96 2a 64
        E 15 96 3b 00
        E 0 96 2a 00
        E 45 96 23 7f
        E 15 96 23 00
        E 45 96 2a 64
        E 0 96 3b 64
        E 15 96 2a 00
        E 0 96 3b 00
        E 45 96 27 64
        E 0 96 23 7f
        E 15 96 27 00
        E 0 96 23 00
        E 45 96 2a 64
        E 0 96 3b 64
        E 15 96 2a 00
        E 0 96 3b 00
        E 45 96 23 7f
        E 15 96 23 00
        E 45 96 3b 64
        E 0 96 2a 64
        E 15 96 3b 00
        E 0 96 2a 00
        E 45 96 27 64
        E 0 96 23 7f
        E 15 96 27 00
        E 0 96 23 00
        E 45 96 2a 64
        E 0 96 3b 64
        E 15 96 2a 00
        E 0 96 3b 00
        E 45 96 3f 64
        E 0 96 23 7f
        E 15 96 3f 00
        E 0 96 23 00
        E 45 96 2a 64
        E 0 96 3b 64
        E 15 96 2a 00
        E 0 96 3b 00
        E 15 96 3f 64
        E 15 96 3f 00
        E 15 96 27 64
        E 0 96 23 7f
        E 0 96 3f 64
        E 15 96 27 00
        E 0 96 23 00
        E 0 96 3f 00
        E 45 96 3f 64
        E 0 96 2a 64
        E 0 96 3b 64
        E 15 96 3f 00
        E 0 96 2a 00
        E 0 96 3b 00
        E 45 96 3f 64
        E 0 96 23 7f
        E 15 96 3f 00
        E 0 96 23 00
        E 45 96 3b 64
        E 0 96 2a 64
        E 15 96 3b 00
        E 0 96 2a 00
        E 15 96 3f 64
        E 15 96 3f 00
        E 15 96 23 7f
        E 0 96 3f 64
        E 0 96 27 64
        E 15 96 23 00
        E 0 96 3f 00
        E 0 96 27 00
        E 45 96 3b 64
        E 0 96 2a 64
        E 0 96 3f 64
        E 15 96 3b 00
        E 0 96 2a 00
        E 0 96 3f 00
        E 45 96 23 7f
        E 15 96 23 00
        E 45 96 2a 64
        E 0 96 3b 64
        E 15 96 2a 00
        E 0 96 3b 00
        E 45 96 23 7f
        E 0 96 27 64
        E 15 96 23 00
        E 0 96 27 00
        E 45 96 3b 64
        E 0 96 2a 64
        E 15 96 3b 00
        E 0 96 2a 00
        E 45 96 23 7f
        E 15 96 23 00
        E 45 96 2a 64
        E 0 96 3b 64
        E 15 96 2a 00
        E 0 96 3b 00
        E 45 96 27 64
        E 0 96 23 7f
        E 15 96 27 00
        E 0 96 23 00
        E 45 96 3b 64
        E 0 96 2a 64
        E 15 96 3b 00
        E 0 96 2a 00
        E 45 96 23 7f
        E 15 96 23 00
        E 45 96 2a 64
        E 0 96 3b 64
        E 15 96 2a 00
        E 0 96 3b 00
        E 45 96 23 7f
        E 0 96 27 64
        E 15 96 23 00
        E 0 96 27 00
        E 45 96 2a 64
        E 0 96 3b 64
        E 15 96 2a 00
        E 0 96 3b 00
        E 45 96 23 7f
        E 15 96 23 00
        E 45 96 3b 64
        E 0 96 2a 64
        E 15 96 3b 00
        E 0 96 2a 00
        E 45 96 27 64
        E 0 96 23 7f
        E 15 96 27 00
        E 0 96 23 00
        E 45 96 3b 64
        E 0 96 2a 64
        E 15 96 3b 00
        E 0 96 2a 00
        E 45 96 23 7f
        E 15 96 23 00
        E 45 96 3b 64
        E 0 96 2a 64
        E 15 96 3b 00
        E 0 96 2a 00
        E 45 96 23 7f
        E 0 96 27 64
        E 15 96 23 00
        E 0 96 27 00
        E 45 96 3b 64
        E 0 96 2a 64
        E 15 96 3b 00
        E 0 96 2a 00
        E 45 96 23 7f
        E 15 96 23 00
        E 45 96 2a 64
        E 0 96 3b 64
        E 15 96 2a 00
        E 0 96 3b 00
        E 45 96 27 64
        E 0 96 23 7f
        E 15 96 27 00
        E 0 96 23 00
        E 45 96 2a 64
        E 0 96 3b 64
        E 15 96 2a 00
        E 0 96 3b 00
        E 45 96 3f 64
        E 0 96 23 7f
        E 15 96 3f 00
        E 0 96 23 00
        E 45 96 2a 64
        E 0 96 3b 64
        E 15 96 2a 00
        E 0 96 3b 00
        E 15 96 3f 64
        E 15 96 3f 00
        E 15 96 3f 64
        E 0 96 27 64
        E 0 96 23 7f
        E 15 96 3f 00
        E 0 96 27 00
        E 0 96 23 00
        E 45 96 2a 64
        E 0 96 3b 64
        E 0 96 3f 64
        E 15 96 2a 00
        E 0 96 3b 00
        E 0 96 3f 00
        E 45 96 23 7f
        E 0 96 3f 64
        E 15 96 23 00
        E 0 96 3f 00
        E 45 96 3b 64
        E 0 96 2a 64
        E 15 96 3b 00
        E 0 96 2a 00
        E 15 96 3f 64
        E 15 96 3f 00
        E 15 96 27 64
        E 0 96 3f 64
        E 0 96 23 7f
        E 15 96 27 00
        E 0 96 3f 00
        E 0 96 23 00
        E 45 96 3f 64
        E 0 96 2a 64
        E 0 96 3b 64
        E 15 96 3f 00
        E 0 96 2a 00
        E 0 96 3b 00
        E 45 96 31 64
        E 0 96 23 7f
        E 15 96 23 00
        E 45 96 3b 64
        E 0 96 2a 64
        E 15 96 3b 00
        E 0 96 2a 00
        E 45 96 31 00
        E 0 96 27 64
        E 0 96 23 7f
        E 15 96 27 00
        E 0 96 23 00
        E 45 96 2a 64
        E 0 96 3b 64
        E 15 96 2a 00
        E 0 96 3b 00
        E 45 96 23 7f
        E 15 96 23 00
        E 45 96 2a 64
        E 0 96 3b 64
        E 15 96 2a 00
        E 0 96 3b 00
        E 45 96 23 7f
        E 0 96 27 64
        E 15 96 23 00
        E 0 96 27 00
        E 45 96 2a 64
        E 0 96 3b 64
        E 15 96 2a 00
        E 0 96 3b 00
        E 45 96 23 7f
        E 15 96 23 00
        E 45 96 2a 64
        E 0 96 3b 64
        E 15 96 2a 00
        E 0 96 3b 00
        E 45 96 23 7f
        E 0 96 27 64
        E 15 96 23 00
        E 0 96 27 00
        E 45 96 3b 64
        E 0 96 2a 64
        E 15 96 3b 00
        E 0 96 2a 00
        E 45 96 23 7f
        E 15 96 23 00
        E 45 96 3b 64
        E 0 96 2a 64
        E 15 96 3b 00
        E 0 96 2a 00
        E 45 96 27 64
        E 0 96 23 7f
        E 15 96 27 00
        E 0 96 23 00
        E 45 96 3b 64
        E 0 96 2a 64
        E 15 96 3b 00
        E 0 96 2a 00
        E 45 96 23 7f
        E 15 96 23 00
        E 45 96 3b 64
        E 0 96 2a 64
        E 15 96 3b 00
        E 0 96 2a 00
        E 45 96 27 64
        E 0 96 23 7f
        E 15 96 27 00
        E 0 96 23 00
        E 45 96 2a 64
        E 0 96 3b 64
        E 15 96 2a 00
        E 0 96 3b 00
        E 45 96 23 7f
        E 15 96 23 00
        E 45 96 3b 64
        E 0 96 2a 64
        E 15 96 3b 00
        E 0 96 2a 00
        E 45 96 23 7f
        E 0 96 27 64
        E 15 96 23 00
        E 0 96 27 00
        E 45 96 3b 64
        E 0 96 2a 64
        E 15 96 3b 00
        E 0 96 2a 00
        E 45 96 3f 64
        E 0 96 23 7f
        E 15 96 3f 00
        E 0 96 23 00
        E 45 96 3b 64
        E 0 96 2a 64
        E 15 96 3b 00
        E 0 96 2a 00
        E 15 96 3f 64
        E 15 96 3f 00
        E 15 96 23 7f
        E 0 96 3f 64
        E 0 96 27 64
        E 15 96 23 00
        E 0 96 3f 00
        E 0 96 27 00
        E 45 96 2a 64
        E 0 96 3b 64
        E 0 96 3f 64
        E 15 96 2a 00
        E 0 96 3b 00
        E 0 96 3f 00
        E 45 96 23 7f
        E 0 96 3f 64
        E 15 96 23 00
        E 0 96 3f 00
        E 45 96 2a 64
        E 0 96 3b 64
        E 15 96 2a 00
        E 0 96 3b 00
        E 15 96 3f 64
        E 15 96 3f 00
        E 15 96 23 7f
        E 0 96 27 64
        E 0 96 3f 64
        E 15 96 23 00
        E 0 96 27 00
        E 0 96 3f 00
        E 45 96 3f 64
        E 0 96 3b 64
        E 0 96 2a 64
        E 15 96 3f 00
        E 0 96 3b 00
        E 0 96 2a 00
        E 45 96 23 7f
        E 15 96 23 00
        E 45 96 2a 64
        E 0 96 3b 64
        E 15 96 2a 00
        E 0 96 3b 00
        E 45 96 23 7f
        E 0 96 27 64
        E 15 96 23 00
        E 0 96 27 00
        E 45 96 3b 64
        E 0 96 2a 64
        E 15 96 3b 00
        E 0 96 2a 00
        E 45 96 23 7f
        E 15 96 23 00
        E 45 96 2a 64
        E 0 96 3b 64
        E 15 96 2a 00
        E 0 96 3b 00
        E 45 96 23 7f
        E 0 96 27 64
        E 15 96 23 00
        E 0 96 27 00
        E 45 96 3b 64
        E 0 96 2a 64
        E 15 96 3b 00
        E 0 96 2a 00
        E 45 96 23 7f
        E 15 96 23 00
        E 45 96 2a 64
        E 0 96 3b 64
        E 15 96 2a 00
        E 0 96 3b 00
        E 45 96 23 7f
        E 0 96 27 64
        E 15 96 23 00
        E 0 96 27 00
        E 45 96 2a 64
        E 0 96 3b 64
        E 15 96 2a 00
        E 0 96 3b 00
        E 45 96 23 7f
        E 15 96 23 00
        E 45 96 3b 64
        E 0 96 2a 64
        E 15 96 3b 00
        E 0 96 2a 00
        E 45 96 27 64
        E 0 96 23 7f
        E 15 96 27 00
        E 0 96 23 00
        E 45 96 2a 64
        E 0 96 3b 64
        E 15 96 2a 00
        E 0 96 3b 00
        E 45 96 23 7f
        E 15 96 23 00
        E 45 96 3b 64
        E 0 96 2a 64
        E 15 96 3b 00
        E 0 96 2a 00
        E 45 96 27 64
        E 0 96 23 7f
        E 15 96 27 00
        E 0 96 23 00
        E 45 96 2a 64
        E 0 96 3b 64
        E 15 96 2a 00
        E 0 96 3b 00
        E 45 96 23 7f
        E 15 96 23 00
        E 45 96 3b 64
        E 0 96 2a 64
        E 15 96 3b 00
        E 0 96 2a 00
        E 45 96 23 7f
        E 0 96 27 64
        E 15 96 23 00
        E 0 96 27 00
        E 45 96 2a 64
        E 0 96 3b 64
        E 15 96 2a 00
        E 0 96 3b 00
        E 45 96 23 7f
        E 0 96 3f 64
        E 15 96 23 00
        E 0 96 3f 00
        E 45 96 2a 64
        E 0 96 3b 64
        E 15 96 2a 00
        E 0 96 3b 00
        E 15 96 3f 64
        E 15 96 3f 00
        E 15 96 27 64
        E 0 96 23 7f
        E 0 96 3f 64
        E 15 96 27 00
        E 0 96 23 00
        E 0 96 3f 00
        E 45 96 2a 64
        E 0 96 3f 64
        E 0 96 3b 64
        E 15 96 2a 00
        E 0 96 3f 00
        E 0 96 3b 00
        E 45 96 3f 64
        E 0 96 23 7f
        E 15 96 3f 00
        E 0 96 23 00
        E 45 96 2a 64
        E 0 96 3b 64
        E 15 96 2a 00
        E 0 96 3b 00
        E 15 96 3f 64
        E 15 96 3f 00
        E 15 96 27 64
        E 0 96 3f 64
        E 0 96 23 7f
        E 15 96 27 00
        E 0 96 3f 00
        E 0 96 23 00
        E 45 96 3b 64
        E 0 96 3f 64
        E 0 96 2a 64
        E 15 96 3b 00
        E 0 96 3f 00
        E 0 96 2a 00
        E 45 96 31 64
        E 0 96 23 7f
        E 15 96 31 00
        E 0 96 23 00
        E 45 96 2a 64
        E 0 96 3b 64
        E 15 96 2a 00
        E 0 96 3b 00
        E 45 96 27 64
        E 0 96 23 7f
        E 15 96 27 00
        E 0 96 23 00
        E 45 96 3b 64
        E 0 96 2a 64
        E 15 96 3b 00
        E 0 96 2a 00
        E 45 96 23 7f
        E 15 96 23 00
        E 45 96 2a 64
        E 0 96 3b 64
        E 15 96 2a 00
        E 0 96 3b 00
        E 45 96 23 7f
        E 0 96 27 64
        E 15 96 23 00
        E 0 96 27 00
        E 45 96 3b 64
        E 0 96 2a 64
        E 15 96 3b 00
        E 0 96 2a 00
        E 45 96 23 7f
        E 15 96 23 00
        E 45 96 3b 64
        E 0 96 2a 64
        E 15 96 3b 00
        E 0 96 2a 00
        E 45 96 23 7f
        E 0 96 27 64
        E 15 96 23 00
        E 0 96 27 00
        E 45 96 2a 64
        E 0 96 3b 64
        E 15 96 2a 00
        E 0 96 3b 00
        E 45 96 23 7f
        E 15 96 23 00
        E 45 96 2a 64
        E 0 96 3b 64
        E 15 96 2a 00
        E 0 96 3b 00
        E 45 96 27 64
        E 0 96 23 7f
        E 15 96 27 00
        E 0 96 23 00
        E 45 96 3b 64
        E 0 96 2a 64
        E 15 96 3b 00
        E 0 96 2a 00
        E 45 96 23 7f
        E 15 96 23 00
        E 45 96 2a 64
        E 0 96 3b 64
        E 15 96 2a 00
        E 0 96 3b 00
        E 45 96 23 7f
        E 0 96 27 64
        E 15 96 23 00
        E 0 96 27 00
        E 45 96 3b 64
        E 0 96 2a 64
        E 15 96 3b 00
        E 0 96 2a 00
        E 45 96 23 7f
        E 15 96 23 00
        E 45 96 2a 64
        E 0 96 3b 64
        E 15 96 2a 00
        E 0 96 3b 00
        E 45 96 23 7f
        E 0 96 27 64
        E 15 96 23 00
        E 0 96 27 00
        E 45 96 3b 64
        E 0 96 2a 64
        E 15 96 3b 00
        E 0 96 2a 00
        E 45 96 23 7f
        E 15 96 23 00
        E 45 96 3b 64
        E 0 96 2a 64
        E 15 96 3b 00
        E 0 96 2a 00
        E 45 96 23 7f
        E 0 96 27 64
        E 15 96 23 00
        E 0 96 27 00
        E 45 96 3b 64
        E 0 96 2a 64
        E 15 96 3b 00
        E 0 96 2a 00
        E 45 96 23 7f
        E 15 96 23 00
        E 45 96 2a 64
        E 0 96 3b 64
        E 15 96 2a 00
        E 0 96 3b 00
        E 45 96 27 64
        E 0 96 23 7f
        E 15 96 27 00
        E 0 96 23 00
        E 45 96 3b 64
        E 0 96 2a 64
        E 15 96 3b 00
        E 0 96 2a 00
        E 45 96 23 7f
        E 15 96 23 00
        E 45 96 2a 64
        E 0 96 3b 64
        E 15 96 2a 00
        E 0 96 3b 00
        E 45 96 27 64
        E 0 96 23 7f
        E 15 96 27 00
        E 0 96 23 00
        E 45 96 2a 64
        E 0 96 3b 64
        E 15 96 2a 00
        E 0 96 3b 00
        E 45 96 23 7f
        E 15 96 23 00
        E 45 96 2a 64
        E 0 96 3b 64
        E 15 96 2a 00
        E 0 96 3b 00
        E 45 96 23 7f
        E 0 96 27 64
        E 15 96 23 00
        E 0 96 27 00
        E 45 96 2a 64
        E 0 96 3b 64
        E 15 96 2a 00
        E 0 96 3b 00
        E 45 96 23 7f
        E 15 96 23 00
        E 45 96 3b 64
        E 0 96 2a 64
        E 15 96 3b 00
        E 0 96 2a 00
        E 45 96 27 64
        E 0 96 23 7f
        E 15 96 27 00
        E 0 96 23 00
        E 45 96 2a 64
        E 0 96 3b 64
        E 15 96 2a 00
        E 0 96 3b 00
        E 45 96 23 7f
        E 15 96 23 00
        E 45 96 2a 64
        E 0 96 3b 64
        E 15 96 2a 00
        E 0 96 3b 00
        E 45 96 23 7f
        E 0 96 27 64
        E 15 96 23 00
        E 0 96 27 00
        E 45 96 2a 64
        E 0 96 3b 64
        E 15 96 2a 00
        E 0 96 3b 00
        E 45 96 23 7f
        E 15 96 23 00
        E 45 96 3b 64
        E 0 96 2a 64
        E 15 96 3b 00
        E 0 96 2a 00
        E 45 96 23 7f
        E 0 96 27 64
        E 15 96 23 00
        E 0 96 27 00
        E 45 96 3b 64
        E 0 96 2a 64
        E 15 96 3b 00
        E 0 96 2a 00
        E 45 96 23 7f
        E 15 96 23 00
        E 45 96 2a 64
        E 0 96 3b 64
        E 15 96 2a 00
        E 0 96 3b 00
        E 45 96 23 7f
        E 0 96 27 64
        E 15 96 23 00
        E 0 96 27 00
        E 45 96 2a 64
        E 0 96 3b 64
        E 15 96 2a 00
        E 0 96 3b 00
        E 45 96 23 7f
        E 15 96 23 00
        E 45 96 2a 64
        E 0 96 3b 64
        E 15 96 2a 00
        E 0 96 3b 00
        E 45 96 23 7f
        E 0 96 27 64
        E 15 96 23 00
        E 0 96 27 00
        E 45 96 2a 64
        E 0 96 3b 64
        E 15 96 2a 00
        E 0 96 3b 00
        E 45 96 23 7f
        E 15 96 23 00
        E 45 96 2a 64
        E 0 96 3b 64
        E 15 96 2a 00
        E 0 96 3b 00
        E 45 96 27 64
        E 0 96 23 7f
        E 15 96 27 00
        E 0 96 23 00
        E 45 96 3b 64
        E 0 96 2a 64
        E 15 96 3b 00
        E 0 96 2a 00
        E 45 96 28 3c
        E 0 96 23 7f
        E 15 96 28 00
        E 0 96 23 00
        E 15 96 28 46
        E 15 96 28 00
        E 15 96 2a 64
        E 0 96 28 46
        E 0 96 3b 64
        E 15 96 2a 00
        E 0 96 28 00
        E 0 96 3b 00
        E 15 96 28 46
        E 15 96 28 00
        E 15 96 23 7f
        E 0 96 28 46
        E 0 96 27 64
        E 15 96 23 00
        E 0 96 28 00
        E 0 96 27 00
        E 15 96 28 46
        E 15 96 28 00
        E 15 96 28 46
        E 0 96 3b 64
        E 0 96 2a 64
        E 15 96 28 00
        E 0 96 3b 00
        E 0 96 2a 00
        E 15 96 28 46
        E 15 96 28 00
        E 15 96 23 7f
        E 0 96 28 46
        E 15 96 23 00
        E 0 96 28 00
        E 15 96 28 46
        E 15 96 28 00
        E 15 96 3b 64
        E 0 96 2a 64
        E 0 96 28 46
        E 15 96 3b 00
        E 0 96 2a 00
        E 0 96 28 00
        E 15 96 28 46
        E 15 96 28 00
        E 15 96 23 7f
        E 0 96 28 46
        E 0 96 27 64
        E 15 96 23 00
        E 0 96 28 00
        E 0 96 27 00
        E 15 96 28 46
        E 15 96 28 00
        E 15 96 28 46
        E 0 96 2a 64
        E 0 96 3b 64
        E 15 96 28 00
        E 0 96 2a 00
        E 0 96 3b 00
        E 15 96 28 46
        E 15 96 28 00
        E 15 96 28 46
        E 0 96 23 7f
        E 15 96 28 00
        E 0 96 23 00
        E 15 96 28 46
        E 15 96 28 00
        E 15 96 3b 64
        E 0 96 28 46
        E 0 96 2a 64
        E 15 96 3b 00
        E 0 96 28 00
        E 0 96 2a 00
        E 15 96 28 46
        E 15 96 28 00
        E 15 96 28 46
        E 0 96 23 7f
        E 0 96 27 64
        E 15 96 28 00
        E 0 96 23 00
        E 0 96 27 00
        E 15 96 28 46
        E 15 96 28 00
        E 15 96 28 46
        E 0 96 3b 64
        E 0 96 2a 64
        E 15 96 28 00
        E 0 96 3b 00
        E 0 96 2a 00
        E 15 96 28 46
        E 15 96 28 00
        E 15 96 23 7f
        E 0 96 28 46
        E 15 96 23 00
        E 0 96 28 00
        E 15 96 28 46
        E 15 96 28 00
        E 15 96 2a 64
        E 0 96 3b 64
        E 0 96 28 46
        E 15 96 2a 00
        E 0 96 3b 00
        E 0 96 28 00
        E 15 96 28 46
        E 15 96 28 00
        E 15 96 28 46
        E 0 96 23 7f
        E 0 96 27 64
        E 15 96 28 00
        E 0 96 23 00
        E 0 96 27 00
        E 15 96 28 46
        E 15 96 28 00
        E 15 96 2a 64
        E 0 96 3b 64
        E 0 96 28 46
        E 15 96 2a 00
        E 0 96 3b 00
        E 0 96 28 00
        E 15 96 28 46
        E 15 96 28 00
        E 15 96 23 7f
        E 0 96 28 50
        E 15 96 23 00
        E 0 96 28 00
        E 15 96 28 50
        E 15 96 28 00
        E 15 96 28 50
        E 0 96 2a 64
        E 0 96 3b 64
        E 15 96 28 00
        E 0 96 2a 00
        E 0 96 3b 00
        E 15 96 28 50
        E 15 96 28 00
        E 15 96 23 7f
        E 0 96 28 50
        E 0 96 27 64
        E 15 96 23 00
        E 0 96 28 00
        E 0 96 27 00
        E 15 96 28 50
        E 15 96 28 00
        E 15 96 3b 64
        E 0 96 28 50
        E 0 96 2a 64
        E 15 96 3b 00
        E 0 96 28 00
        E 0 96 2a 00
        E 15 96 28 50
        E 15 96 28 00
        E 15 96 28 50
        E 0 96 23 7f
        E 15 96 28 00
        E 0 96 23 00
        E 15 96 28 50
        E 15 96 28 00
        E 15 96 3b 64
        E 0 96 2a 64
        E 0 96 28 50
        E 15 96 3b 00
        E 0 96 2a 00
        E 0 96 28 00
        E 15 96 28 50
        E 15 96 28 00
        E 15 96 23 7f
        E 0 96 28 50
        E 0 96 27 64
        E 15 96 23 00
        E 0 96 28 00
        E 0 96 27 00
        E 15 96 28 50
        E 15 96 28 00
        E 15 96 2a 64
        E 0 96 3b 64
        E 0 96 28 50
        E 15 96 2a 00
        E 0 96 3b 00
        E 0 96 28 00
        E 15 96 28 50
        E 15 96 28 00
        E 15 96 39 64
        E 0 96 28 5a
        E 0 96 23 7f
        E 15 96 39 00
        E 0 96 28 00
        E 0 96 23 00
        E 0 96 28 64
        E 15 96 28 00
        E 0 96 28 5a
        E 15 96 28 00
        E 0 96 28 64
        E 15 96 28 00
        E 0 96 3b 64
        E 0 96 28 5a
        E 0 96 2a 64
        E 15 96 3b 00
        E 0 96 28 00
        E 0 96 2a 00
        E 0 96 28 64
        E 15 96 28 00
        E 0 96 28 5a
        E 15 96 28 00
        E 0 96 28 5a
        E 15 96 28 00
        E 0 96 28 5a
        E 0 96 23 7f
        E 15 96 28 00
        E 0 96 23 00
        E 0 96 28 5a
        E 0 96 31 64
        E 15 96 28 00
        E 0 96 31 00
        E 0 96 28 5a
        E 15 96 28 00
        E 0 96 28 5a
        E 15 96 28 00
        E 0 96 3b 64
        E 0 96 28 5a
        E 0 96 2a 64
        E 15 96 3b 00
        E 0 96 28 00
        E 0 96 2a 00
        E 0 96 28 5a
        E 15 96 28 00
        E 0 96 28 5a
        E 15 96 28 00
        E 0 96 28 5a
        E 15 96 28 00
        E 0 96 39 64
        E 0 96 28 5a
        E 0 96 23 7f
        E 15 96 39 00
        E 0 96 28 00
        E 0 96 23 00
        E 0 96 28 5a
        E 15 96 28 00
        E 0 96 28 5a
        E 15 96 28 00
        E 0 96 28 5a
        E 15 96 28 00
        E 0 96 2a 64
        E 0 96 3b 64
        E 0 96 28 5a
        E 15 96 2a 00
        E 0 96 3b 00
        E 0 96 28 00
        E 0 96 28 5a
        E 15 96 28 00
        E 0 96 28 5a
        E 15 96 28 00
        E 0 96 28 5a
        E 15 96 28 00
        E 0 96 31 64
        E 0 96 28 5a
        E 0 96 23 7f
        E 15 96 31 00
        E 0 96 28 00
        E 0 96 23 00
        E 0 96 28 5a
        E 15 96 28 00
        E 0 96 28 5a
        E 15 96 28 00
        E 0 96 28 5a
        E 15 96 28 00
        E 0 96 3b 64
        E 0 96 28 5a
        E 15 96 3b 00
        E 0 96 28 00
        E 0 96 28 5a
        E 15 96 28 00
        E 0 96 28 5a
        E 15 96 28 00
        E 0 96 28 5a
        E 15 96 28 00
        E 0 96 39 64
        E 15 96 39 00
        E 105 b0 7b 00
        CCINTERP 32
        CHASE_CC_TAKEOFFS 1
        GUID {669A5E01-74CC-9E26-A2A4-E917E4455824}
        IGNTEMPO 0 120 4 4
        SRCCOLOR 7
      >
    >
  >
  <TRACK {D998253F-B120-2B9A-EF93-1EC027BB35E6}
    NAME "Track8 - Darude_-_Sandstorm_out"
    PEAKCOL 16576
    BEAT -1
    AUTOMODE 0
    VOLPAN 1 0 -1 -1 1
    MUTESOLO 0 0 0
    IPHASE 0
    PLAYOFFS 0 1
    ISBUS 0 0
    BUSCOMP 0 0 0 0 0
    SHOWINMIX 1 0.6667 0.5 1 0.5 -1 -1 -1
    FREEMODE 0
    SEL 1
    REC 0 0 1 0 0 0 0
    VU 2
    TRACKHEIGHT 0 0 0 0 0 0
    INQ 0 0 0 0.5 100 0 0 100
    NCHAN 2
    FX 1
    TRACKID {D998253F-B120-2B9A-EF93-1EC027BB35E6}
    PERF 0
    MIDIOUT 66
    MAINSEND 1 0
    <ITEM
      POSITION 0
      SNAPOFFS 0
      LENGTH 240.000216
      LOOP 1
      ALLTAKES 0
      FADEIN 1 0.01 0 1 0 0 0
      FADEOUT 1 0.01 0 1 0 0 0
      MUTE 0 0
      SEL 1
      IGUID {66BD84D4-9092-A738-7FB5-08194794E180}
      IID 8
      NAME "Track8 - Darude_-_Sandstorm_out.mid"
      VOLPAN 1 0 1 -1
      SOFFS 0 0
      PLAYRATE 1 1 0 -1 0 0.0025
      CHANMODE 0
      GUID {4EDAD002-EE8D-5FCF-11C7-964AEF46E4AA}
      <SOURCE MIDI
        HASDATA 1 120 QN
        CCINTERP 32
        POOLEDEVTS {D10608F1-F295-75F3-88AD-4A81253D8C90}
        <X 0 0 0 0 3 Track8
          /wNUcmFjazg=
        >
        E 0 c7 00 00
        E 0 b7 07 7f
        E 4800 97 34 64
        E 15 97 34 00
        E 15 97 34 64
        E 15 97 34 00
        E 15 97 34 64
        E 15 97 34 00
        E 15 97 34 64
        E 15 97 34 00
        E 15 97 34 64
        E 60 97 34 00
        E 660 97 37 64
        E 30 97 37 00
        E 90 97 34 64
        E 15 97 34 00
        E 15 97 34 64
        E 15 97 34 00
        E 15 97 34 64
        E 15 97 34 00
        E 15 97 34 64
        E 15 97 34 00
        E 15 97 34 64
        E 60 97 34 00
        E 780 97 34 64
        E 15 97 34 00
        E 15 97 34 64
        E 15 97 34 00
        E 15 97 34 64
        E 15 97 34 00
        E 15 97 34 64
        E 15 97 34 00
        E 15 97 34 64
        E 60 97 34 00
        E 300 97 34 64
        E 15 97 34 00
        E 15 97 34 64
        E 15 97 34 00
        E 15 97 34 64
        E 15 97 34 00
        E 15 97 34 64
        E 15 97 34 00
        E 15 97 34 64
        E 60 97 34 00
        E 300 97 34 64
        E 15 97 34 00
        E 15 97 34 64
        E 15 97 34 00
        E 15 97 34 64
        E 15 97 34 00
        E 15 97 34 64
        E 15 97 34 00
        E 15 97 34 64
        E 60 97 34 00
        E 60 97 34 64
        E 15 97 34 00
        E 15 97 34 64
        E 15 97 34 00
        E 15 97 34 64
        E 15 97 34 00
        E 15 97 34 64
        E 15 97 34 00
        E 15 97 34 64
        E 60 97 34 00
        E 60 97 34 64
        E 15 97 34 00
        E 15 97 34 64
        E 15 97 34 00
        E 15 97 34 64
        E 15 97 34 00
        E 15 97 34 64
        E 15 97 34 00
        E 15 97 34 64
        E 45 97 34 00
        E 15 97 34 64
        E 15 97 34 00
        E 45 97 34 64
        E 15 97 34 00
        E 15 97 34 64
        E 15 97 34 00
        E 15 97 34 64
        E 15 97 34 00
        E 15 97 34 64
        E 15 97 34 00
        E 15 97 34 64
        E 45 97 34 00
        E 15 97 34 64
        E 15 97 34 00
        E 45 97 34 64
        E 15 97 34 00
        E 15 97 34 64
        E 15 97 34 00
        E 15 97 34 64
        E 15 97 34 00
        E 15 97 34 64
        E 15 97 34 00
        E 15 97 34 64
        E 45 97 34 00
        E 15 97 34 64
        E 15 97 34 00
        E 15 97 34 64
        E 15 97 34 00
        E 15 97 34 64
        E 15 97 34 00
        E 15 97 34 64
        E 15 97 34 00
        E 15 97 34 64
        E 15 97 34 00
        E 15 97 34 64
        E 15 97 34 00
        E 15 97 34 64
        E 45 97 34 00
        E 15 97 39 64
        E 15 97 39 00
        E 15 97 39 64
        E 15 97 39 00
        E 15 97 39 64
        E 15 97 39 00
        E 15 97 39 64
        E 15 97 39 00
        E 15 97 39 64
        E 15 97 39 00
        E 15 97 39 64
        E 15 97 39 00
        E 15 97 39 64
        E 45 97 39 00
        E 15 97 37 64
        E 15 97 37 00
        E 15 97 37 64
        E 15 97 37 00
        E 15 97 37 64
        E 15 97 37 00
        E 15 97 37 64
        E 15 97 37 00
        E 15 97 37 64
        E 15 97 37 00
        E 15 97 37 64
        E 15 97 37 00
        E 15 97 37 64
        E 45 97 37 00
        E 15 97 32 64
        E 15 97 32 00
        E 15 97 32 64
        E 15 97 32 00
        E 15 97 34 64
        E 15 97 34 00
        E 15 97 34 64
        E 15 97 34 00
        E 15 97 34 64
        E 15 97 34 00
        E 15 97 34 64
        E 15 97 34 00
        E 15 97 34 64
        E 45 97 34 00
        E 15 97 34 64
        E 15 97 34 00
        E 15 97 34 64
        E 15 97 34 00
        E 15 97 34 64
        E 15 97 34 00
        E 15 97 34 64
        E 15 97 34 00
        E 15 97 34 64
        E 15 97 34 00
        E 15 97 34 64
        E 15 97 34 00
        E 15 97 34 64
        E 45 97 34 00
        E 15 97 39 64
        E 15 97 39 00
        E 15 97 39 64
        E 15 97 39 00
        E 15 97 34 64
        E 15 97 34 00
        E 15 97 34 64
        E 15 97 34 00
        E 15 97 34 64
        E 15 97 34 00
        E 15 97 34 64
        E 15 97 34 00
        E 15 97 34 64
        E 45 97 34 00
        E 15 97 34 64
        E 15 97 34 00
        E 15 97 34 64
        E 15 97 34 00
        E 15 97 34 64
        E 15 97 34 00
        E 15 97 34 64
        E 15 97 34 00
        E 15 97 34 64
        E 15 97 34 00
        E 15 97 34 64
        E 15 97 34 00
        E 15 97 34 64
        E 45 97 34 00
        E 15 97 39 64
        E 15 97 39 00
        E 15 97 39 64
        E 15 97 39 00
        E 15 97 34 64
        E 15 97 34 00
        E 15 97 34 64
        E 15 97 34 00
        E 15 97 34 64
        E 15 97 34 00
        E 15 97 34 64
        E 15 97 34 00
        E 15 97 34 64
        E 45 97 34 00
        E 15 97 34 64
        E 15 97 34 00
        E 15 97 34 64
        E 15 97 34 00
        E 15 97 34 64
        E 15 97 34 00
        E 15 97 34 64
        E 15 97 34 00
        E 15 97 34 64
        E 15 97 34 00
        E 15 97 34 64
        E 15 97 34 00
        E 15 97 34 64
        E 45 97 34 00
        E 15 97 39 64
        E 15 97 39 00
        E 15 97 39 64
        E 15 97 39 00
        E 15 97 39 64
        E 15 97 39 00
        E 15 97 39 64
        E 15 97 39 00
        E 15 97 39 64
        E 15 97 39 00
        E 15 97 39 64
        E 15 97 39 00
        E 15 97 39 64
        E 45 97 39 00
        E 15 97 37 64
        E 15 97 37 00
        E 15 97 37 64
        E 15 97 37 00
        E 15 97 37 64
        E 15 97 37 00
        E 15 97 37 64
        E 15 97 37 00
        E 15 97 37 64
        E 15 97 37 00
        E 15 97 37 64
        E 15 97 37 00
        E 15 97 37 64
        E 45 97 37 00
        E 15 97 32 64
        E 15 97 32 00
        E 15 97 32 64
        E 15 97 32 00
        E 15 97 34 64
        E 15 97 34 00
        E 15 97 34 64
        E 15 97 34 00
        E 15 97 34 64
        E 15 97 34 00
        E 15 97 34 64
        E 15 97 34 00
        E 15 97 34 64
        E 45 97 34 00
        E 15 97 34 64
        E 15 97 34 00
        E 15 97 34 64
        E 15 97 34 00
        E 15 97 34 64
        E 15 97 34 00
        E 15 97 34 64
        E 15 97 34 00
        E 15 97 34 64
        E 15 97 34 00
        E 15 97 34 64
        E 15 97 34 00
        E 15 97 34 64
        E 45 97 34 00
        E 15 97 39 64
        E 15 97 39 00
        E 15 97 39 64
        E 15 97 39 00
        E 15 97 34 64
        E 15 97 34 00
        E 15 97 34 64
        E 15 97 34 00
        E 15 97 34 64
        E 15 97 34 00
        E 15 97 34 64
        E 15 97 34 00
        E 15 97 34 64
        E 45 97 34 00
        E 15 97 34 64
        E 15 97 34 00
        E 15 97 34 64
        E 15 97 34 00
        E 15 97 34 64
        E 15 97 34 00
        E 15 97 34 64
        E 15 97 34 00
        E 15 97 34 64
        E 15 97 34 00
        E 15 97 34 64
        E 15 97 34 00
        E 15 97 34 64
        E 45 97 34 00
        E 15 97 39 64
        E 15 97 39 00
        E 15 97 39 64
        E 15 97 39 00
        E 15 97 34 64
        E 15 97 34 00
        E 15 97 34 64
        E 15 97 34 00
        E 15 97 34 64
        E 15 97 34 00
        E 15 97 34 64
        E 15 97 34 00
        E 15 97 34 64
        E 45 97 34 00
        E 15 97 34 64
        E 15 97 34 00
        E 15 97 34 64
        E 15 97 34 00
        E 15 97 34 64
        E 15 97 34 00
        E 15 97 34 64
        E 15 97 34 00
        E 15 97 34 64
        E 15 97 34 00
        E 15 97 34 64
        E 15 97 34 00
        E 15 97 34 64
        E 45 97 34 00
        E 15 97 39 64
        E 15 97 39 00
        E 15 97 39 64
        E 15 97 39 00
        E 15 97 39 64
        E 15 97 39 00
        E 15 97 39 64
        E 15 97 39 00
        E 15 97 39 64
        E 15 97 39 00
        E 15 97 39 64
        E 15 97 39 00
        E 15 97 39 64
        E 45 97 39 00
        E 15 97 37 64
        E 15 97 37 00
        E 15 97 37 64
        E 15 97 37 00
        E 15 97 37 64
        E 15 97 37 00
        E 15 97 37 64
        E 15 97 37 00
        E 15 97 37 64
        E 15 97 37 00
        E 15 97 37 64
        E 15 97 37 00
        E 15 97 37 64
        E 45 97 37 00
        E 15 97 32 64
        E 15 97 32 00
        E 15 97 32 64
        E 15 97 32 00
        E 15 97 34 64
        E 15 97 34 00
        E 15 97 34 64
        E 15 97 34 00
        E 15 97 34 64
        E 15 97 34 00
        E 15 97 34 64
        E 15 97 34 00
        E 15 97 34 64
        E 45 97 34 00
        E 15 97 34 64
        E 15 97 34 00
        E 15 97 34 64
        E 15 97 34 00
        E 15 97 34 64
        E 15 97 34 00
        E 15 97 34 64
        E 15 97 34 00
        E 15 97 34 64
        E 15 97 34 00
        E 15 97 34 64
        E 15 97 34 00
        E 15 97 34 64
        E 45 97 34 00
        E 15 97 39 64
        E 15 97 39 00
        E 15 97 39 64
        E 15 97 39 00
        E 15 97 34 64
        E 15 97 34 00
        E 15 97 34 64
        E 15 97 34 00
        E 15 97 34 64
        E 15 97 34 00
        E 15 97 34 64
        E 15 97 34 00
        E 15 97 34 64
        E 45 97 34 00
        E 15 97 34 64
        E 15 97 34 00
        E 15 97 34 64
        E 15 97 34 00
        E 15 97 34 64
        E 15 97 34 00
        E 15 97 34 64
        E 15 97 34 00
        E 15 97 34 64
        E 15 97 34 00
        E 15 97 34 64
        E 15 97 34 00
        E 15 97 34 64
        E 45 97 34 00
        E 15 97 39 64
        E 15 97 39 00
        E 15 97 39 64
        E 15 97 39 00
        E 15 97 34 64
        E 15 97 34 00
        E 15 97 34 64
        E 15 97 34 00
        E 15 97 34 64
        E 15 97 34 00
        E 15 97 34 64
        E 15 97 34 00
        E 15 97 34 64
        E 45 97 34 00
        E 15 97 34 64
        E 15 97 34 00
        E 15 97 34 64
        E 15 97 34 00
        E 15 97 34 64
        E 15 97 34 00
        E 15 97 34 64
        E 15 97 34 00
        E 15 97 34 64
        E 15 97 34 00
        E 15 97 34 64
        E 15 97 34 00
        E 15 97 34 64
        E 45 97 34 00
        E 15 97 39 64
        E 15 97 39 00
        E 15 97 39 64
        E 15 97 39 00
        E 15 97 39 64
        E 15 97 39 00
        E 15 97 39 64
        E 15 97 39 00
        E 15 97 39 64
        E 15 97 39 00
        E 15 97 39 64
        E 15 97 39 00
        E 15 97 39 64
        E 45 97 39 00
        E 15 97 37 64
        E 15 97 37 00
        E 15 97 37 64
        E 15 97 37 00
        E 15 97 37 64
        E 15 97 37 00
        E 15 97 37 64
        E 15 97 37 00
        E 15 97 37 64
        E 15 97 37 00
        E 15 97 37 64
        E 15 97 37 00
        E 15 97 37 64
        E 45 97 37 00
        E 15 97 32 64
        E 15 97 32 00
        E 15 97 32 64
        E 15 97 32 00
        E 15 97 34 64
        E 15 97 34 00
        E 15 97 34 64
        E 15 97 34 00
        E 15 97 34 64
        E 15 97 34 00
        E 15 97 34 64
        E 15 97 34 00
        E 15 97 34 64
        E 45 97 34 00
        E 15 97 34 64
        E 15 97 34 00
        E 15 97 34 64
        E 15 97 34 00
        E 15 97 34 64
        E 15 97 34 00
        E 15 97 34 64
        E 15 97 34 00
        E 15 97 34 64
        E 15 97 34 00
        E 15 97 34 64
        E 15 97 34 00
        E 15 97 34 64
        E 45 97 34 00
        E 15 97 39 64
        E 15 97 39 00
        E 15 97 39 64
        E 15 97 39 00
        E 15 97 34 64
        E 15 97 34 00
        E 15 97 34 64
        E 15 97 34 00
        E 15 97 34 64
        E 15 97 34 00
        E 15 97 34 64
        E 15 97 34 00
        E 15 97 34 64
        E 45 97 34 00
        E 15 97 34 64
        E 15 97 34 00
        E 15 97 34 64
        E 15 97 34 00
        E 15 97 34 64
        E 15 97 34 00
        E 15 97 34 64
        E 15 97 34 00
        E 15 97 34 64
        E 15 97 34 00
        E 15 97 34 64
        E 15 97 34 00
        E 15 97 34 64
        E 45 97 34 00
        E 15 97 39 64
        E 15 97 39 00
        E 15 97 39 64
        E 15 97 39 00
        E 15 97 34 64
        E 15 97 34 00
        E 15 97 34 64
        E 15 97 34 00
        E 15 97 34 64
        E 15 97 34 00
        E 15 97 34 64
        E 15 97 34 00
        E 15 97 34 64
        E 45 97 34 00
        E 15 97 34 64
        E 15 97 34 00
        E 15 97 34 64
        E 15 97 34 00
        E 15 97 34 64
        E 15 97 34 00
        E 15 97 34 64
        E 15 97 34 00
        E 15 97 34 64
        E 15 97 34 00
        E 15 97 34 64
        E 15 97 34 00
        E 15 97 34 64
        E 45 97 34 00
        E 15 97 37 64
        E 45 97 37 00
        E 15 97 34 64
        E 15 97 34 00
        E 15 97 34 64
        E 15 97 34 00
        E 15 97 34 64
        E 15 97 34 00
        E 15 97 34 64
        E 15 97 34 00
        E 15 97 34 64
        E 45 97 34 00
        E 15 97 34 64
        E 15 97 34 00
        E 15 97 34 64
        E 15 97 34 00
        E 15 97 34 64
        E 15 97 34 00
        E 15 97 34 64
        E 15 97 34 00
        E 15 97 34 64
        E 15 97 34 00
        E 15 97 34 64
        E 15 97 34 00
        E 15 97 37 64
        E 45 97 37 00
        E 15 97 37 64
        E 45 97 37 00
        E 15 97 34 64
        E 15 97 34 00
        E 15 97 34 64
        E 15 97 34 00
        E 15 97 34 64
        E 15 97 34 00
        E 15 97 34 64
        E 15 97 34 00
        E 15 97 34 64
        E 45 97 34 00
        E 15 97 34 64
        E 15 97 34 00
        E 15 97 34 64
        E 15 97 34 00
        E 15 97 34 64
        E 15 97 34 00
        E 15 97 34 64
        E 15 97 34 00
        E 15 97 34 64
        E 15 97 34 00
        E 15 97 34 64
        E 15 97 34 00
        E 15 97 34 64
        E 45 97 34 00
        E 15 97 39 64
        E 15 97 39 00
        E 15 97 39 64
        E 15 97 39 00
        E 15 97 39 64
        E 15 97 39 00
        E 15 97 39 64
        E 15 97 39 00
        E 15 97 39 64
        E 15 97 39 00
        E 15 97 39 64
        E 15 97 39 00
        E 15 97 39 64
        E 45 97 39 00
        E 15 97 37 64
        E 15 97 37 00
        E 15 97 37 64
        E 15 97 37 00
        E 15 97 37 64
        E 15 97 37 00
        E 15 97 37 64
        E 15 97 37 00
        E 15 97 37 64
        E 15 97 37 00
        E 15 97 37 64
        E 15 97 37 00
        E 15 97 37 64
        E 45 97 37 00
        E 15 97 32 64
        E 45 97 32 00
        E 15 97 34 64
        E 15 97 34 00
        E 15 97 34 64
        E 15 97 34 00
        E 15 97 34 64
        E 15 97 34 00
        E 15 97 34 64
        E 15 97 34 00
        E 15 97 34 64
        E 45 97 34 00
        E 15 97 34 64
        E 15 97 34 00
        E 15 97 34 64
        E 15 97 34 00
        E 15 97 34 64
        E 15 97 34 00
        E 15 97 34 64
        E 15 97 34 00
        E 15 97 34 64
        E 15 97 34 00
        E 15 97 34 64
        E 15 97 34 00
        E 15 97 34 64
        E 45 97 34 00
        E 15 97 37 64
        E 45 97 37 00
        E 15 97 34 64
        E 15 97 34 00
        E 15 97 34 64
        E 15 97 34 00
        E 15 97 34 64
        E 15 97 34 00
        E 15 97 34 64
        E 15 97 34 00
        E 15 97 34 64
        E 45 97 34 00
        E 15 97 34 64
        E 15 97 34 00
        E 15 97 34 64
        E 15 97 34 00
        E 15 97 34 64
        E 15 97 34 00
        E 15 97 34 64
        E 15 97 34 00
        E 15 97 34 64
        E 15 97 34 00
        E 15 97 34 64
        E 15 97 34 00
        E 15 97 37 64
        E 45 97 37 00
        E 15 97 37 64
        E 45 97 37 00
        E 15 97 34 64
        E 15 97 34 00
        E 15 97 34 64
        E 15 97 34 00
        E 15 97 34 64
        E 15 97 34 00
        E 15 97 34 64
        E 15 97 34 00
        E 15 97 34 64
        E 45 97 34 00
        E 15 97 34 64
        E 15 97 34 00
        E 15 97 34 64
        E 15 97 34 00
        E 15 97 34 64
        E 15 97 34 00
        E 15 97 34 64
        E 15 97 34 00
        E 15 97 34 64
        E 15 97 34 00
        E 15 97 34 64
        E 15 97 34 00
        E 15 97 34 64
        E 45 97 34 00
        E 15 97 39 64
        E 15 97 39 00
        E 15 97 39 64
        E 15 97 39 00
        E 15 97 39 64
        E 15 97 39 00
        E 15 97 39 64
        E 15 97 39 00
        E 15 97 39 64
        E 15 97 39 00
        E 15 97 39 64
        E 15 97 39 00
        E 15 97 39 64
        E 45 97 39 00
        E 15 97 37 64
        E 15 97 37 00
        E 15 97 37 64
        E 15 97 37 00
        E 15 97 37 64
        E 15 97 37 00
        E 15 97 37 64
        E 15 97 37 00
        E 15 97 37 64
        E 15 97 37 00
        E 15 97 37 64
        E 15 97 37 00
        E 15 97 37 64
        E 45 97 37 00
        E 15 97 32 64
        E 45 97 32 00
        E 15 97 34 64
        E 15 97 34 00
        E 15 97 34 64
        E 15 97 34 00
        E 15 97 34 64
        E 15 97 34 00
        E 15 97 34 64
        E 15 97 34 00
        E 15 97 34 64
        E 45 97 34 00
        E 15 97 34 64
        E 15 97 34 00
        E 15 97 34 64
        E 15 97 34 00
        E 15 97 34 64
        E 15 97 34 00
        E 15 97 34 64
        E 15 97 34 00
        E 15 97 34 64
        E 15 97 34 00
        E 15 97 34 64
        E 15 97 34 00
        E 15 97 37 64
        E 45 97 37 00
        E 15 97 37 64
        E 45 97 37 00
        E 15 97 34 64
        E 15 97 34 00
        E 15 97 34 64
        E 15 97 34 00
        E 15 97 34 64
        E 15 97 34 00
        E 15 97 34 64
        E 15 97 34 00
        E 15 97 34 64
        E 45 97 34 00
        E 15 97 34 64
        E 15 97 34 00
        E 15 97 34 64
        E 15 97 34 00
        E 15 97 34 64
        E 15 97 34 00
        E 15 97 34 64
        E 15 97 34 00
        E 15 97 34 64
        E 15 97 34 00
        E 15 97 34 64
        E 15 97 34 00
        E 15 97 37 64
        E 45 97 37 00
        E 15 97 37 64
        E 45 97 37 00
        E 15 97 34 64
        E 15 97 34 00
        E 15 97 34 64
        E 15 97 34 00
        E 15 97 34 64
        E 15 97 34 00
        E 15 97 34 64
        E 15 97 34 00
        E 15 97 37 64
        E 45 97 37 00
        E 15 97 37 64
        E 45 97 37 00
        E 15 97 34 64
        E 15 97 34 00
        E 15 97 34 64
        E 15 97 34 00
        E 15 97 34 64
        E 15 97 34 00
        E 15 97 34 64
        E 15 97 34 00
        E 15 97 37 64
        E 45 97 37 00
        E 15 97 37 64
        E 45 97 37 00
        E 15 97 34 64
        E 15 97 34 00
        E 15 97 34 64
        E 15 97 34 00
        E 15 97 37 64
        E 45 97 37 00
        E 15 97 34 64
        E 15 97 34 00
        E 15 97 34 64
        E 15 97 34 00
        E 15 97 37 64
        E 45 97 37 00
        E 15 97 34 64
        E 15 97 34 00
        E 15 97 34 64
        E 15 97 34 00
        E 15 97 37 64
        E 45 97 37 00
        E 15 97 34 64
        E 15 97 34 00
        E 15 97 34 64
        E 15 97 34 00
        E 15 97 37 64
        E 45 97 37 00
        E 7695 97 34 64
        E 15 97 34 00
        E 15 97 34 64
        E 15 97 34 00
        E 15 97 34 64
        E 15 97 34 00
        E 15 97 34 64
        E 15 97 34 00
        E 15 97 34 64
        E 60 97 34 00
        E 660 97 37 64
        E 60 97 37 00
        E 60 97 34 64
        E 15 97 34 00
        E 15 97 34 64
        E 15 97 34 00
        E 15 97 34 64
        E 15 97 34 00
        E 15 97 34 64
        E 15 97 34 00
        E 15 97 34 64
        E 60 97 34 00
        E 780 97 34 64
        E 15 97 34 00
        E 15 97 34 64
        E 15 97 34 00
        E 15 97 34 64
        E 15 97 34 00
        E 15 97 34 64
        E 15 97 34 00
        E 15 97 34 64
        E 60 97 34 00
        E 660 97 37 64
        E 45 97 37 00
        E 75 97 39 64
        E 15 97 39 00
        E 15 97 39 64
        E 15 97 39 00
        E 15 97 39 64
        E 15 97 39 00
        E 15 97 39 64
        E 15 97 39 00
        E 15 97 39 64
        E 45 97 39 00
        E 15 97 37 64
        E 30 97 37 00
        E 750 97 34 64
        E 15 97 34 00
        E 15 97 34 64
        E 15 97 34 00
        E 15 97 34 64
        E 15 97 34 00
        E 15 97 34 64
        E 15 97 34 00
        E 15 97 34 64
        E 60 97 34 00
        E 300 97 34 64
        E 15 97 34 00
        E 15 97 34 64
        E 15 97 34 00
        E 15 97 34 64
        E 15 97 34 00
        E 15 97 34 64
        E 15 97 34 00
        E 15 97 34 64
        E 60 97 34 00
        E 300 97 34 64
        E 15 97 34 00
        E 15 97 34 64
        E 15 97 34 00
        E 15 97 34 64
        E 15 97 34 00
        E 15 97 34 64
        E 15 97 34 00
        E 15 97 34 64
        E 60 97 34 00
        E 300 97 34 64
        E 15 97 34 00
        E 15 97 34 64
        E 15 97 34 00
        E 15 97 34 64
        E 15 97 34 00
        E 15 97 34 64
        E 15 97 34 00
        E 15 97 34 64
        E 60 97 34 00
        E 240 97 37 64
        E 45 97 37 00
        E 15 97 34 64
        E 15 97 34 00
        E 15 97 34 64
        E 15 97 34 00
        E 15 97 34 64
        E 15 97 34 00
        E 15 97 34 64
        E 15 97 34 00
        E 15 97 34 64
        E 60 97 34 00
        E 60 97 34 64
        E 15 97 34 00
        E 15 97 34 64
        E 15 97 34 00
        E 15 97 34 64
        E 15 97 34 00
        E 15 97 34 64
        E 15 97 34 00
        E 15 97 34 64
        E 60 97 34 00
        E 60 97 34 64
        E 15 97 34 00
        E 15 97 34 64
        E 15 97 34 00
        E 15 97 34 64
        E 15 97 34 00
        E 15 97 34 64
        E 15 97 34 00
        E 15 97 34 64
        E 60 97 34 00
        E 60 97 34 64
        E 15 97 34 00
        E 15 97 34 64
        E 15 97 34 00
        E 15 97 34 64
        E 15 97 34 00
        E 15 97 34 64
        E 15 97 34 00
        E 15 97 34 64
        E 60 97 34 00
        E 60 97 34 64
        E 15 97 34 00
        E 15 97 34 64
        E 15 97 34 00
        E 15 97 34 64
        E 15 97 34 00
        E 15 97 34 64
        E 15 97 34 00
        E 15 97 34 64
        E 60 97 34 00
        E 60 97 34 64
        E 15 97 34 00
        E 15 97 34 64
        E 15 97 34 00
        E 15 97 34 64
        E 15 97 34 00
        E 15 97 34 64
        E 15 97 34 00
        E 15 97 34 64
        E 60 97 34 00
        E 60 97 34 64
        E 15 97 34 00
        E 15 97 34 64
        E 15 97 34 00
        E 15 97 34 64
        E 15 97 34 00
        E 15 97 34 64
        E 15 97 34 00
        E 15 97 34 64
        E 60 97 34 00
        E 60 97 34 64
        E 15 97 34 00
        E 15 97 34 64
        E 15 97 34 00
        E 15 97 34 64
        E 15 97 34 00
        E 15 97 34 64
        E 15 97 34 00
        E 15 97 34 64
        E 60 97 34 00
        E 60 97 34 64
        E 15 97 34 00
        E 15 97 34 64
        E 15 97 34 00
        E 15 97 34 64
        E 15 97 34 00
        E 15 97 34 64
        E 15 97 34 00
        E 15 97 34 64
        E 15 97 34 00
        E 15 97 34 64
        E 15 97 34 00
        E 15 97 34 64
        E 15 97 34 00
        E 15 97 34 64
        E 15 97 34 00
        E 15 97 34 64
        E 15 97 34 00
        E 15 97 34 64
        E 15 97 34 00
        E 15 97 34 64
        E 15 97 34 00
        E 15 97 34 64
        E 15 97 34 00
        E 15 97 34 64
        E 15 97 34 00
        E 15 97 34 64
        E 15 97 34 00
        E 15 97 34 64
        E 15 97 34 00
        E 15 97 34 64
        E 15 97 34 00
        E 15 97 34 64
        E 15 97 34 00
        E 15 97 34 64
        E 15 97 34 00
        E 15 97 34 64
        E 15 97 34 00
        E 15 97 34 64
        E 15 97 34 00
        E 15 97 34 64
        E 15 97 34 00
        E 15 97 34 64
        E 15 97 34 00
        E 15 97 34 64
        E 15 97 34 00
        E 15 97 34 64
        E 15 97 34 00
        E 15 97 34 64
        E 15 97 34 00
        E 15 97 34 64
        E 15 97 34 00
        E 15 97 34 64
        E 15 97 34 00
        E 15 97 34 64
        E 15 97 34 00
        E 15 97 34 64
        E 15 97 34 00
        E 15 97 34 64
        E 15 97 34 00
        E 15 97 34 64
        E 15 97 34 00
        E 15 97 34 64
        E 15 97 34 00
        E 15 97 34 64
        E 15 97 34 00
        E 15 97 34 64
        E 15 97 34 00
        E 15 97 34 64
        E 15 97 34 00
        E 15 97 34 64
        E 15 97 34 00
        E 15 97 34 64
        E 15 97 34 00
        E 15 97 34 64
        E 15 97 34 00
        E 15 97 34 64
        E 15 97 34 00
        E 15 97 34 64
        E 15 97 34 00
        E 15 97 34 64
        E 15 97 34 00
        E 15 97 34 64
        E 15 97 34 00
        E 15 97 34 64
        E 15 97 34 00
        E 15 97 34 64
        E 15 97 34 00
        E 15 97 34 64
        E 15 97 34 00
        E 15 97 34 64
        E 15 97 34 00
        E 15 97 34 64
        E 15 97 34 00
        E 15 97 34 64
        E 15 97 34 00
        E 15 97 34 64
        E 15 97 34 00
        E 15 97 34 64
        E 15 97 34 00
        E 15 97 34 64
        E 15 97 34 00
        E 15 97 34 64
        E 15 97 34 00
        E 15 97 34 64
        E 15 97 34 00
        E 15 97 34 64
        E 15 97 34 00
        E 15 97 34 64
        E 15 97 34 00
        E 15 97 34 64
        E 15 97 34 00
        E 15 97 34 64
        E 15 97 34 00
        E 15 97 34 64
        E 15 97 34 00
        E 15 97 34 64
        E 15 97 34 00
        E 15 97 34 64
        E 15 97 34 00
        E 15 97 34 64
        E 15 97 34 00
        E 15 97 34 64
        E 15 97 34 00
        E 15 97 34 64
        E 15 97 34 00
        E 15 97 34 64
        E 15 97 34 00
        E 15 97 34 64
        E 15 97 34 00
        E 15 97 34 64
        E 15 97 34 00
        E 15 97 34 64
        E 15 97 34 00
        E 15 97 34 64
        E 15 97 34 00
        E 15 97 34 64
        E 45 97 34 00
        E 15 97 34 64
        E 15 97 34 00
        E 15 97 34 64
        E 15 97 34 00
        E 15 97 34 64
        E 15 97 34 00
        E 15 97 34 64
        E 15 97 34 00
        E 15 97 34 64
        E 15 97 34 00
        E 15 97 34 64
        E 15 97 34 00
        E 15 97 34 64
        E 45 97 34 00
        E 15 97 39 64
        E 15 97 39 00
        E 15 97 39 64
        E 15 97 39 00
        E 15 97 39 64
        E 15 97 39 00
        E 15 97 39 64
        E 15 97 39 00
        E 15 97 39 64
        E 15 97 39 00
        E 15 97 39 64
        E 15 97 39 00
        E 15 97 39 64
        E 45 97 39 00
        E 15 97 37 64
        E 15 97 37 00
        E 15 97 37 64
        E 15 97 37 00
        E 15 97 37 64
        E 15 97 37 00
        E 15 97 37 64
        E 15 97 37 00
        E 15 97 37 64
        E 15 97 37 00
        E 15 97 37 64
        E 15 97 37 00
        E 15 97 37 64
        E 45 97 37 00
        E 15 97 32 64
        E 15 97 32 00
        E 15 97 32 64
        E 15 97 32 00
        E 15 97 34 64
        E 15 97 34 00
        E 15 97 34 64
        E 15 97 34 00
        E 15 97 34 64
        E 15 97 34 00
        E 15 97 34 64
        E 15 97 34 00
        E 15 97 34 64
        E 45 97 34 00
        E 15 97 34 64
        E 15 97 34 00
        E 15 97 34 64
        E 15 97 34 00
        E 15 97 34 64
        E 15 97 34 00
        E 15 97 34 64
        E 15 97 34 00
        E 15 97 34 64
        E 15 97 34 00
        E 15 97 34 64
        E 15 97 34 00
        E 15 97 34 64
        E 45 97 34 00
        E 15 97 39 64
        E 15 97 39 00
        E 15 97 39 64
        E 15 97 39 00
        E 15 97 34 64
        E 15 97 34 00
        E 15 97 34 64
        E 15 97 34 00
        E 15 97 34 64
        E 15 97 34 00
        E 15 97 34 64
        E 15 97 34 00
        E 15 97 34 64
        E 45 97 34 00
        E 15 97 34 64
        E 15 97 34 00
        E 15 97 34 64
        E 15 97 34 00
        E 15 97 34 64
        E 15 97 34 00
        E 15 97 34 64
        E 15 97 34 00
        E 15 97 34 64
        E 15 97 34 00
        E 15 97 34 64
        E 15 97 34 00
        E 15 97 34 64
        E 45 97 34 00
        E 15 97 39 64
        E 15 97 39 00
        E 15 97 39 64
        E 15 97 39 00
        E 15 97 34 64
        E 15 97 34 00
        E 15 97 34 64
        E 15 97 34 00
        E 15 97 34 64
        E 15 97 34 00
        E 15 97 34 64
        E 15 97 34 00
        E 15 97 34 64
        E 45 97 34 00
        E 15 97 34 64
        E 15 97 34 00
        E 15 97 34 64
        E 15 97 34 00
        E 15 97 34 64
        E 15 97 34 00
        E 15 97 34 64
        E 15 97 34 00
        E 15 97 34 64
        E 15 97 34 00
        E 15 97 34 64
        E 15 97 34 00
        E 15 97 34 64
        E 45 97 34 00
        E 15 97 39 64
        E 15 97 39 00
        E 15 97 39 64
        E 15 97 39 00
        E 15 97 39 64
        E 15 97 39 00
        E 15 97 39 64
        E 15 97 39 00
        E 15 97 39 64
        E 15 97 39 00
        E 15 97 39 64
        E 15 97 39 00
        E 15 97 39 64
        E 45 97 39 00
        E 15 97 37 64
        E 15 97 37 00
        E 15 97 37 64
        E 15 97 37 00
        E 15 97 37 64
        E 15 97 37 00
        E 15 97 37 64
        E 15 97 37 00
        E 15 97 37 64
        E 15 97 37 00
        E 15 97 37 64
        E 15 97 37 00
        E 15 97 37 64
        E 45 97 37 00
        E 15 97 32 64
        E 15 97 32 00
        E 15 97 32 64
        E 15 97 32 00
        E 15 97 34 64
        E 15 97 34 00
        E 15 97 34 64
        E 15 97 34 00
        E 15 97 34 64
        E 15 97 34 00
        E 15 97 34 64
        E 15 97 34 00
        E 15 97 34 64
        E 45 97 34 00
        E 15 97 34 64
        E 15 97 34 00
        E 15 97 34 64
        E 15 97 34 00
        E 15 97 34 64
        E 15 97 34 00
        E 15 97 34 64
        E 15 97 34 00
        E 15 97 34 64
        E 15 97 34 00
        E 15 97 34 64
        E 15 97 34 00
        E 15 97 34 64
        E 45 97 34 00
        E 15 97 39 64
        E 15 97 39 00
        E 15 97 39 64
        E 15 97 39 00
        E 15 97 34 64
        E 15 97 34 00
        E 15 97 34 64
        E 15 97 34 00
        E 15 97 34 64
        E 15 97 34 00
        E 15 97 34 64
        E 15 97 34 00
        E 15 97 34 64
        E 45 97 34 00
        E 15 97 34 64
        E 15 97 34 00
        E 15 97 34 64
        E 15 97 34 00
        E 15 97 34 64
        E 15 97 34 00
        E 15 97 34 64
        E 15 97 34 00
        E 15 97 34 64
        E 15 97 34 00
        E 15 97 34 64
        E 15 97 34 00
        E 15 97 34 64
        E 45 97 34 00
        E 15 97 39 64
        E 15 97 39 00
        E 15 97 39 64
        E 15 97 39 00
        E 15 97 34 64
        E 15 97 34 00
        E 15 97 34 64
        E 15 97 34 00
        E 15 97 34 64
        E 15 97 34 00
        E 15 97 34 64
        E 15 97 34 00
        E 15 97 34 64
        E 45 97 34 00
        E 15 97 34 64
        E 15 97 34 00
        E 15 97 34 64
        E 15 97 34 00
        E 15 97 34 64
        E 15 97 34 00
        E 15 97 34 64
        E 15 97 34 00
        E 15 97 34 64
        E 15 97 34 00
        E 15 97 34 64
        E 15 97 34 00
        E 15 97 34 64
        E 45 97 34 00
        E 15 97 39 64
        E 15 97 39 00
        E 15 97 39 64
        E 15 97 39 00
        E 15 97 39 64
        E 15 97 39 00
        E 15 97 39 64
        E 15 97 39 00
        E 15 97 39 64
        E 15 97 39 00
        E 15 97 39 64
        E 15 97 39 00
        E 15 97 39 64
        E 45 97 39 00
        E 15 97 37 64
        E 15 97 37 00
        E 15 97 37 64
        E 15 97 37 00
        E 15 97 37 64
        E 15 97 37 00
        E 15 97 37 64
        E 15 97 37 00
        E 15 97 37 64
        E 15 97 37 00
        E 15 97 37 64
        E 15 97 37 00
        E 15 97 37 64
        E 45 97 37 00
        E 15 97 32 64
        E 15 97 32 00
        E 15 97 32 64
        E 15 97 32 00
        E 15 97 34 64
        E 15 97 34 00
        E 15 97 34 64
        E 15 97 34 00
        E 15 97 34 64
        E 15 97 34 00
        E 15 97 34 64
        E 15 97 34 00
        E 15 97 34 64
        E 45 97 34 00
        E 15 97 34 64
        E 15 97 34 00
        E 15 97 34 64
        E 15 97 34 00
        E 15 97 34 64
        E 15 97 34 00
        E 15 97 34 64
        E 15 97 34 00
        E 15 97 34 64
        E 15 97 34 00
        E 15 97 34 64
        E 15 97 34 00
        E 15 97 34 64
        E 45 97 34 00
        E 15 97 39 64
        E 15 97 39 00
        E 15 97 39 64
        E 15 97 39 00
        E 15 97 34 64
        E 15 97 34 00
        E 15 97 34 64
        E 15 97 34 00
        E 15 97 34 64
        E 15 97 34 00
        E 15 97 34 64
        E 15 97 34 00
        E 15 97 34 64
        E 45 97 34 00
        E 15 97 34 64
        E 15 97 34 00
        E 15 97 34 64
        E 15 97 34 00
        E 15 97 34 64
        E 15 97 34 00
        E 15 97 34 64
        E 15 97 34 00
        E 15 97 34 64
        E 15 97 34 00
        E 15 97 34 64
        E 15 97 34 00
        E 15 97 34 64
        E 45 97 34 00
        E 15 97 39 64
        E 15 97 39 00
        E 15 97 39 64
        E 15 97 39 00
        E 15 97 34 64
        E 15 97 34 00
        E 15 97 34 64
        E 15 97 34 00
        E 15 97 34 64
        E 15 97 34 00
        E 15 97 34 64
        E 15 97 34 00
        E 15 97 34 64
        E 45 97 34 00
        E 15 97 34 64
        E 15 97 34 00
        E 15 97 34 64
        E 15 97 34 00
        E 15 97 34 64
        E 15 97 34 00
        E 15 97 34 64
        E 15 97 34 00
        E 15 97 34 64
        E 15 97 34 00
        E 15 97 34 64
        E 15 97 34 00
        E 15 97 34 64
        E 45 97 34 00
        E 15 97 39 64
        E 15 97 39 00
        E 15 97 39 64
        E 15 97 39 00
        E 15 97 39 64
        E 15 97 39 00
        E 15 97 39 64
        E 15 97 39 00
        E 15 97 39 64
        E 15 97 39 00
        E 15 97 39 64
        E 15 97 39 00
        E 15 97 39 64
        E 45 97 39 00
        E 15 97 37 64
        E 15 97 37 00
        E 15 97 37 64
        E 15 97 37 00
        E 15 97 37 64
        E 15 97 37 00
        E 15 97 37 64
        E 15 97 37 00
        E 15 97 37 64
        E 15 97 37 00
        E 15 97 37 64
        E 15 97 37 00
        E 15 97 37 64
        E 45 97 37 00
        E 15 97 32 64
        E 15 97 32 00
        E 15 97 32 64
        E 15 97 32 00
        E 15 97 34 64
        E 15 97 34 00
        E 15 97 34 64
        E 15 97 34 00
        E 15 97 34 64
        E 15 97 34 00
        E 15 97 34 64
        E 15 97 34 00
        E 15 97 34 64
        E 45 97 34 00
        E 15 97 34 64
        E 15 97 34 00
        E 15 97 34 64
        E 15 97 34 00
        E 15 97 34 64
        E 15 97 34 00
        E 15 97 34 64
        E 15 97 34 00
        E 15 97 34 64
        E 15 97 34 00
        E 15 97 34 64
        E 15 97 34 00
        E 15 97 34 64
        E 45 97 34 00
        E 15 97 39 64
        E 15 97 39 00
        E 15 97 39 64
        E 15 97 39 00
        E 15 97 34 64
        E 15 97 34 00
        E 15 97 34 64
        E 15 97 34 00
        E 15 97 34 64
        E 15 97 34 00
        E 15 97 34 64
        E 15 97 34 00
        E 15 97 34 64
        E 45 97 34 00
        E 15 97 34 64
        E 15 97 34 00
        E 15 97 34 64
        E 15 97 34 00
        E 15 97 34 64
        E 15 97 34 00
        E 15 97 34 64
        E 15 97 34 00
        E 15 97 34 64
        E 15 97 34 00
        E 15 97 34 64
        E 15 97 34 00
        E 15 97 34 64
        E 45 97 34 00
        E 15 97 39 64
        E 15 97 39 00
        E 15 97 39 64
        E 15 97 39 00
        E 15 97 34 64
        E 15 97 34 00
        E 15 97 34 64
        E 15 97 34 00
        E 15 97 34 64
        E 15 97 34 00
        E 15 97 34 64
        E 15 97 34 00
        E 15 97 34 64
        E 45 97 34 00
        E 15 97 34 64
        E 15 97 34 00
        E 15 97 34 64
        E 15 97 34 00
        E 15 97 34 64
        E 15 97 34 00
        E 15 97 34 64
        E 15 97 34 00
        E 15 97 34 64
        E 15 97 34 00
        E 15 97 34 64
        E 15 97 34 00
        E 15 97 34 64
        E 45 97 34 00
        E 15 97 37 64
        E 45 97 37 00
        E 15 97 34 64
        E 15 97 34 00
        E 15 97 34 64
        E 15 97 34 00
        E 15 97 34 64
        E 15 97 34 00
        E 15 97 34 64
        E 15 97 34 00
        E 15 97 34 64
        E 45 97 34 00
        E 15 97 34 64
        E 15 97 34 00
        E 15 97 34 64
        E 15 97 34 00
        E 15 97 34 64
        E 15 97 34 00
        E 15 97 34 64
        E 15 97 34 00
        E 15 97 34 64
        E 15 97 34 00
        E 15 97 34 64
        E 15 97 34 00
        E 15 97 37 64
        E 45 97 37 00
        E 15 97 37 64
        E 45 97 37 00
        E 15 97 34 64
        E 15 97 34 00
        E 15 97 34 64
        E 15 97 34 00
        E 15 97 34 64
        E 15 97 34 00
        E 15 97 34 64
        E 15 97 34 00
        E 15 97 34 64
        E 45 97 34 00
        E 15 97 34 64
        E 15 97 34 00
        E 15 97 34 64
        E 15 97 34 00
        E 15 97 34 64
        E 15 97 34 00
        E 15 97 34 64
        E 15 97 34 00
        E 15 97 34 64
        E 15 97 34 00
        E 15 97 34 64
        E 15 97 34 00
        E 15 97 34 64
        E 45 97 34 00
        E 15 97 39 64
        E 15 97 39 00
        E 15 97 39 64
        E 15 97 39 00
        E 15 97 39 64
        E 15 97 39 00
        E 15 97 39 64
        E 15 97 39 00
        E 15 97 39 64
        E 15 97 39 00
        E 15 97 39 64
        E 15 97 39 00
        E 15 97 39 64
        E 45 97 39 00
        E 15 97 37 64
        E 15 97 37 00
        E 15 97 37 64
        E 15 97 37 00
        E 15 97 37 64
        E 15 97 37 00
        E 15 97 37 64
        E 15 97 37 00
        E 15 97 37 64
        E 15 97 37 00
        E 15 97 37 64
        E 15 97 37 00
        E 15 97 37 64
        E 45 97 37 00
        E 15 97 32 64
        E 45 97 32 00
        E 15 97 34 64
        E 15 97 34 00
        E 15 97 34 64
        E 15 97 34 00
        E 15 97 34 64
        E 15 97 34 00
        E 15 97 34 64
        E 15 97 34 00
        E 15 97 34 64
        E 45 97 34 00
        E 15 97 34 64
        E 15 97 34 00
        E 15 97 34 64
        E 15 97 34 00
        E 15 97 34 64
        E 15 97 34 00
        E 15 97 34 64
        E 15 97 34 00
        E 15 97 34 64
        E 15 97 34 00
        E 15 97 34 64
        E 15 97 34 00
        E 15 97 34 64
        E 45 97 34 00
        E 15 97 37 64
        E 45 97 37 00
        E 15 97 34 64
        E 15 97 34 00
        E 15 97 34 64
        E 15 97 34 00
        E 15 97 34 64
        E 15 97 34 00
        E 15 97 34 64
        E 15 97 34 00
        E 15 97 34 64
        E 45 97 34 00
        E 15 97 34 64
        E 15 97 34 00
        E 15 97 34 64
        E 15 97 34 00
        E 15 97 34 64
        E 15 97 34 00
        E 15 97 34 64
        E 15 97 34 00
        E 15 97 34 64
        E 15 97 34 00
        E 15 97 34 64
        E 15 97 34 00
        E 15 97 37 64
        E 45 97 37 00
        E 15 97 37 64
        E 45 97 37 00
        E 15 97 34 64
        E 15 97 34 00
        E 15 97 34 64
        E 15 97 34 00
        E 15 97 34 64
        E 15 97 34 00
        E 15 97 34 64
        E 15 97 34 00
        E 15 97 34 64
        E 45 97 34 00
        E 15 97 34 64
        E 15 97 34 00
        E 15 97 34 64
        E 15 97 34 00
        E 15 97 34 64
        E 15 97 34 00
        E 15 97 34 64
        E 15 97 34 00
        E 15 97 34 64
        E 15 97 34 00
        E 15 97 34 64
        E 15 97 34 00
        E 15 97 34 64
        E 45 97 34 00
        E 15 97 39 64
        E 15 97 39 00
        E 15 97 39 64
        E 15 97 39 00
        E 15 97 39 64
        E 15 97 39 00
        E 15 97 39 64
        E 15 97 39 00
        E 15 97 39 64
        E 15 97 39 00
        E 15 97 39 64
        E 15 97 39 00
        E 15 97 39 64
        E 45 97 39 00
        E 15 97 37 64
        E 15 97 37 00
        E 15 97 37 64
        E 15 97 37 00
        E 15 97 37 64
        E 15 97 37 00
        E 15 97 37 64
        E 15 97 37 00
        E 15 97 37 64
        E 15 97 37 00
        E 15 97 37 64
        E 15 97 37 00
        E 15 97 37 64
        E 45 97 37 00
        E 15 97 32 64
        E 45 97 32 00
        E 15 97 34 64
        E 15 97 34 00
        E 15 97 34 64
        E 15 97 34 00
        E 15 97 34 64
        E 15 97 34 00
        E 15 97 34 64
        E 15 97 34 00
        E 15 97 34 64
        E 45 97 34 00
        E 15 97 34 64
        E 15 97 34 00
        E 15 97 34 64
        E 15 97 34 00
        E 15 97 34 64
        E 15 97 34 00
        E 15 97 34 64
        E 15 97 34 00
        E 15 97 34 64
        E 15 97 34 00
        E 15 97 34 64
        E 15 97 34 00
        E 15 97 37 64
        E 45 97 37 00
        E 15 97 37 64
        E 45 97 37 00
        E 15 97 34 64
        E 15 97 34 00
        E 15 97 34 64
        E 15 97 34 00
        E 15 97 34 64
        E 15 97 34 00
        E 15 97 34 64
        E 15 97 34 00
        E 15 97 34 64
        E 45 97 34 00
        E 15 97 34 64
        E 15 97 34 00
        E 15 97 34 64
        E 15 97 34 00
        E 15 97 34 64
        E 15 97 34 00
        E 15 97 34 64
        E 15 97 34 00
        E 15 97 34 64
        E 15 97 34 00
        E 15 97 34 64
        E 15 97 34 00
        E 15 97 37 64
        E 45 97 37 00
        E 15 97 37 64
        E 45 97 37 00
        E 15 97 34 64
        E 15 97 34 00
        E 15 97 34 64
        E 15 97 34 00
        E 15 97 34 64
        E 15 97 34 00
        E 15 97 34 64
        E 15 97 34 00
        E 15 97 37 64
        E 45 97 37 00
        E 15 97 37 64
        E 45 97 37 00
        E 15 97 34 64
        E 15 97 34 00
        E 15 97 34 64
        E 15 97 34 00
        E 15 97 34 64
        E 15 97 34 00
        E 15 97 34 64
        E 15 97 34 00
        E 15 97 37 64
        E 45 97 37 00
        E 15 97 37 64
        E 45 97 37 00
        E 15 97 34 64
        E 15 97 34 00
        E 15 97 34 64
        E 15 97 34 00
        E 15 97 37 64
        E 45 97 37 00
        E 15 97 34 64
        E 15 97 34 00
        E 15 97 34 64
        E 15 97 34 00
        E 15 97 37 64
        E 45 97 37 00
        E 15 97 34 64
        E 15 97 34 00
        E 15 97 34 64
        E 15 97 34 00
        E 15 97 37 64
        E 45 97 37 00
        E 15 97 34 64
        E 15 97 34 00
        E 15 97 34 64
        E 15 97 34 00
        E 15 97 37 64
        E 45 97 37 00
        E 15 97 34 64
        E 15 97 34 00
        E 15 97 34 64
        E 15 97 34 00
        E 15 97 34 64
        E 15 97 34 00
        E 15 97 34 64
        E 15 97 34 00
        E 15 97 34 64
        E 45 97 34 00
        E 15 97 34 64
        E 15 97 34 00
        E 15 97 34 64
        E 15 97 34 00
        E 15 97 34 64
        E 15 97 34 00
        E 15 97 34 64
        E 15 97 34 00
        E 15 97 34 64
        E 15 97 34 00
        E 15 97 34 64
        E 15 97 34 00
        E 15 97 34 64
        E 45 97 34 00
        E 15 97 39 64
        E 15 97 39 00
        E 15 97 39 64
        E 15 97 39 00
        E 15 97 39 64
        E 15 97 39 00
        E 15 97 39 64
        E 15 97 39 00
        E 15 97 39 64
        E 15 97 39 00
        E 15 97 39 64
        E 15 97 39 00
        E 15 97 39 64
        E 45 97 39 00
        E 15 97 37 64
        E 15 97 37 00
        E 15 97 37 64
        E 15 97 37 00
        E 15 97 37 64
        E 15 97 37 00
        E 15 97 37 64
        E 15 97 37 00
        E 15 97 37 64
        E 15 97 37 00
        E 15 97 37 64
        E 15 97 37 00
        E 15 97 37 64
        E 45 97 37 00
        E 15 97 32 64
        E 15 97 32 00
        E 15 97 32 64
        E 15 97 32 00
        E 15 97 34 64
        E 15 97 34 00
        E 15 97 34 64
        E 15 97 34 00
        E 15 97 34 64
        E 15 97 34 00
        E 15 97 34 64
        E 15 97 34 00
        E 15 97 34 64
        E 45 97 34 00
        E 15 97 34 64
        E 15 97 34 00
        E 15 97 34 64
        E 15 97 34 00
        E 15 97 34 64
        E 15 97 34 00
        E 15 97 34 64
        E 15 97 34 00
        E 15 97 34 64
        E 15 97 34 00
        E 15 97 34 64
        E 15 97 34 00
        E 15 97 34 64
        E 45 97 34 00
        E 15 97 39 64
        E 15 97 39 00
        E 15 97 39 64
        E 15 97 39 00
        E 15 97 34 64
        E 15 97 34 00
        E 15 97 34 64
        E 15 97 34 00
        E 15 97 34 64
        E 15 97 34 00
        E 15 97 34 64
        E 15 97 34 00
        E 15 97 34 64
        E 45 97 34 00
        E 15 97 34 64
        E 15 97 34 00
        E 15 97 34 64
        E 15 97 34 00
        E 15 97 34 64
        E 15 97 34 00
        E 15 97 34 64
        E 15 97 34 00
        E 15 97 34 64
        E 15 97 34 00
        E 15 97 34 64
        E 15 97 34 00
        E 15 97 34 64
        E 45 97 34 00
        E 15 97 39 64
        E 15 97 39 00
        E 15 97 39 64
        E 15 97 39 00
        E 15 97 34 64
        E 15 97 34 00
        E 15 97 34 64
        E 15 97 34 00
        E 15 97 34 64
        E 15 97 34 00
        E 15 97 34 64
        E 15 97 34 00
        E 15 97 34 64
        E 45 97 34 00
        E 15 97 34 64
        E 15 97 34 00
        E 15 97 34 64
        E 15 97 34 00
        E 15 97 34 64
        E 15 97 34 00
        E 15 97 34 64
        E 15 97 34 00
        E 15 97 34 64
        E 15 97 34 00
        E 15 97 34 64
        E 15 97 34 00
        E 15 97 34 64
        E 45 97 34 00
        E 15 97 39 64
        E 15 97 39 00
        E 15 97 39 64
        E 15 97 39 00
        E 15 97 39 64
        E 15 97 39 00
        E 15 97 39 64
        E 15 97 39 00
        E 15 97 39 64
        E 15 97 39 00
        E 15 97 39 64
        E 15 97 39 00
        E 15 97 39 64
        E 45 97 39 00
        E 15 97 37 64
        E 15 97 37 00
        E 15 97 37 64
        E 15 97 37 00
        E 15 97 37 64
        E 15 97 37 00
        E 15 97 37 64
        E 15 97 37 00
        E 15 97 37 64
        E 15 97 37 00
        E 15 97 37 64
        E 15 97 37 00
        E 15 97 37 64
        E 45 97 37 00
        E 15 97 32 64
        E 15 97 32 00
        E 15 97 32 64
        E 15 97 32 00
        E 15 97 34 64
        E 15 97 34 00
        E 15 97 34 64
        E 15 97 34 00
        E 15 97 34 64
        E 15 97 34 00
        E 15 97 34 64
        E 15 97 34 00
        E 15 97 34 64
        E 45 97 34 00
        E 15 97 34 64
        E 15 97 34 00
        E 15 97 34 64
        E 15 97 34 00
        E 15 97 34 64
        E 15 97 34 00
        E 15 97 34 64
        E 15 97 34 00
        E 15 97 34 64
        E 15 97 34 00
        E 15 97 34 64
        E 15 97 34 00
        E 15 97 34 64
        E 45 97 34 00
        E 15 97 39 64
        E 15 97 39 00
        E 15 97 39 64
        E 15 97 39 00
        E 15 97 34 64
        E 15 97 34 00
        E 15 97 34 64
        E 15 97 34 00
        E 15 97 34 64
        E 15 97 34 00
        E 15 97 34 64
        E 15 97 34 00
        E 15 97 34 64
        E 45 97 34 00
        E 15 97 34 64
        E 15 97 34 00
        E 15 97 34 64
        E 15 97 34 00
        E 15 97 34 64
        E 15 97 34 00
        E 15 97 34 64
        E 15 97 34 00
        E 15 97 34 64
        E 15 97 34 00
        E 15 97 34 64
        E 15 97 34 00
        E 15 97 34 64
        E 45 97 34 00
        E 15 97 39 64
        E 15 97 39 00
        E 15 97 39 64
        E 15 97 39 00
        E 15 97 34 64
        E 15 97 34 00
        E 15 97 34 64
        E 15 97 34 00
        E 15 97 34 64
        E 15 97 34 00
        E 15 97 34 64
        E 15 97 34 00
        E 15 97 34 64
        E 45 97 34 00
        E 15 97 34 64
        E 15 97 34 00
        E 15 97 34 64
        E 15 97 34 00
        E 15 97 34 64
        E 15 97 34 00
        E 15 97 34 64
        E 15 97 34 00
        E 15 97 34 64
        E 15 97 34 00
        E 15 97 34 64
        E 15 97 34 00
        E 15 97 34 64
        E 45 97 34 00
        E 15 97 39 64
        E 15 97 39 00
        E 15 97 39 64
        E 15 97 39 00
        E 15 97 39 64
        E 15 97 39 00
        E 15 97 39 64
        E 15 97 39 00
        E 15 97 39 64
        E 15 97 39 00
        E 15 97 39 64
        E 15 97 39 00
        E 15 97 39 64
        E 45 97 39 00
        E 15 97 37 64
        E 15 97 37 00
        E 15 97 37 64
        E 15 97 37 00
        E 15 97 37 64
        E 15 97 37 00
        E 15 97 37 64
        E 15 97 37 00
        E 15 97 37 64
        E 15 97 37 00
        E 15 97 37 64
        E 15 97 37 00
        E 15 97 37 64
        E 45 97 37 00
        E 15 97 32 64
        E 15 97 32 00
        E 15 97 32 64
        E 15 97 32 00
        E 15 97 34 64
        E 15 97 34 00
        E 15 97 34 64
        E 15 97 34 00
        E 15 97 34 64
        E 15 97 34 00
        E 15 97 34 64
        E 15 97 34 00
        E 15 97 34 64
        E 45 97 34 00
        E 15 97 34 64
        E 15 97 34 00
        E 15 97 34 64
        E 15 97 34 00
        E 15 97 34 64
        E 15 97 34 00
        E 15 97 34 64
        E 15 97 34 00
        E 15 97 34 64
        E 15 97 34 00
        E 15 97 34 64
        E 15 97 34 00
        E 15 97 34 64
        E 45 97 34 00
        E 15 97 39 64
        E 15 97 39 00
        E 15 97 39 64
        E 15 97 39 00
        E 15 97 34 64
        E 15 97 34 00
        E 15 97 34 64
        E 15 97 34 00
        E 15 97 34 64
        E 15 97 34 00
        E 15 97 34 64
        E 15 97 34 00
        E 15 97 34 64
        E 45 97 34 00
        E 15 97 34 64
        E 15 97 34 00
        E 15 97 34 64
        E 15 97 34 00
        E 15 97 34 64
        E 15 97 34 00
        E 15 97 34 64
        E 15 97 34 00
        E 15 97 34 64
        E 15 97 34 00
        E 15 97 34 64
        E 15 97 34 00
        E 15 97 34 64
        E 45 97 34 00
        E 15 97 39 64
        E 15 97 39 00
        E 15 97 39 64
        E 15 97 39 00
        E 15 97 34 64
        E 15 97 34 00
        E 15 97 34 64
        E 15 97 34 00
        E 15 97 34 64
        E 15 97 34 00
        E 15 97 34 64
        E 15 97 34 00
        E 15 97 34 64
        E 45 97 34 00
        E 15 97 34 64
        E 15 97 34 00
        E 15 97 34 64
        E 15 97 34 00
        E 15 97 34 64
        E 15 97 34 00
        E 15 97 34 64
        E 15 97 34 00
        E 15 97 34 64
        E 15 97 34 00
        E 15 97 34 64
        E 15 97 34 00
        E 15 97 34 64
        E 45 97 34 00
        E 15 97 39 64
        E 15 97 39 00
        E 15 97 39 64
        E 15 97 39 00
        E 15 97 39 64
        E 15 97 39 00
        E 15 97 39 64
        E 15 97 39 00
        E 15 97 39 64
        E 15 97 39 00
        E 15 97 39 64
        E 15 97 39 00
        E 15 97 39 64
        E 45 97 39 00
        E 15 97 37 64
        E 15 97 37 00
        E 15 97 37 64
        E 15 97 37 00
        E 15 97 37 64
        E 15 97 37 00
        E 15 97 37 64
        E 15 97 37 00
        E 15 97 37 64
        E 15 97 37 00
        E 15 97 37 64
        E 15 97 37 00
        E 15 97 37 64
        E 45 97 37 00
        E 15 97 32 64
        E 15 97 32 00
        E 15 97 32 64
        E 15 97 32 00
        E 15 97 34 64
        E 15 97 34 00
        E 15 97 34 64
        E 15 97 34 00
        E 15 97 34 64
        E 15 97 34 00
        E 15 97 34 64
        E 15 97 34 00
        E 15 97 34 64
        E 45 97 34 00
        E 15 97 34 64
        E 15 97 34 00
        E 15 97 34 64
        E 15 97 34 00
        E 15 97 34 64
        E 15 97 34 00
        E 15 97 34 64
        E 15 97 34 00
        E 15 97 34 64
        E 15 97 34 00
        E 15 97 34 64
        E 15 97 34 00
        E 15 97 34 64
        E 45 97 34 00
        E 15 97 39 64
        E 15 97 39 00
        E 15 97 39 64
        E 15 97 39 00
        E 15 97 34 64
        E 15 97 34 00
        E 15 97 34 64
        E 15 97 34 00
        E 15 97 34 64
        E 15 97 34 00
        E 15 97 34 64
        E 15 97 34 00
        E 15 97 34 64
        E 45 97 34 00
        E 15 97 34 64
        E 15 97 34 00
        E 15 97 34 64
        E 15 97 34 00
        E 15 97 34 64
        E 15 97 34 00
        E 15 97 34 64
        E 15 97 34 00
        E 15 97 34 64
        E 15 97 34 00
        E 15 97 34 64
        E 15 97 34 00
        E 15 97 34 64
        E 45 97 34 00
        E 15 97 39 64
        E 15 97 39 00
        E 15 97 39 64
        E 15 97 39 00
        E 15 97 34 64
        E 15 97 34 00
        E 15 97 34 64
        E 15 97 34 00
        E 15 97 34 64
        E 15 97 34 00
        E 15 97 34 64
        E 15 97 34 00
        E 15 97 34 64
        E 45 97 34 00
        E 15 97 34 64
        E 15 97 34 00
        E 15 97 34 64
        E 15 97 34 00
        E 15 97 34 64
        E 15 97 34 00
        E 15 97 34 64
        E 15 97 34 00
        E 15 97 34 64
        E 15 97 34 00
        E 15 97 34 64
        E 15 97 34 00
        E 15 97 34 64
        E 45 97 34 00
        E 15 97 37 64
        E 45 97 37 00
        E 15 97 34 64
        E 15 97 34 00
        E 15 97 34 64
        E 15 97 34 00
        E 15 97 34 64
        E 15 97 34 00
        E 15 97 34 64
        E 15 97 34 00
        E 15 97 34 64
        E 45 97 34 00
        E 15 97 34 64
        E 15 97 34 00
        E 15 97 34 64
        E 15 97 34 00
        E 15 97 34 64
        E 15 97 34 00
        E 15 97 34 64
        E 15 97 34 00
        E 15 97 34 64
        E 15 97 34 00
        E 15 97 34 64
        E 15 97 34 00
        E 15 97 37 64
        E 45 97 37 00
        E 15 97 37 64
        E 45 97 37 00
        E 15 97 34 64
        E 15 97 34 00
        E 15 97 34 64
        E 15 97 34 00
        E 15 97 34 64
        E 15 97 34 00
        E 15 97 34 64
        E 15 97 34 00
        E 15 97 34 64
        E 45 97 34 00
        E 15 97 34 64
        E 15 97 34 00
        E 15 97 34 64
        E 15 97 34 00
        E 15 97 34 64
        E 15 97 34 00
        E 15 97 34 64
        E 15 97 34 00
        E 15 97 34 64
        E 15 97 34 00
        E 15 97 34 64
        E 15 97 34 00
        E 15 97 34 64
        E 45 97 34 00
        E 15 97 39 64
        E 15 97 39 00
        E 15 97 39 64
        E 15 97 39 00
        E 15 97 39 64
        E 15 97 39 00
        E 15 97 39 64
        E 15 97 39 00
        E 15 97 39 64
        E 15 97 39 00
        E 15 97 39 64
        E 15 97 39 00
        E 15 97 39 64
        E 45 97 39 00
        E 15 97 37 64
        E 15 97 37 00
        E 15 97 37 64
        E 15 97 37 00
        E 15 97 37 64
        E 15 97 37 00
        E 15 97 37 64
        E 15 97 37 00
        E 15 97 37 64
        E 15 97 37 00
        E 15 97 37 64
        E 15 97 37 00
        E 15 97 37 64
        E 45 97 37 00
        E 15 97 32 64
        E 45 97 32 00
        E 15 97 34 64
        E 15 97 34 00
        E 15 97 34 64
        E 15 97 34 00
        E 15 97 34 64
        E 15 97 34 00
        E 15 97 34 64
        E 15 97 34 00
        E 15 97 34 64
        E 45 97 34 00
        E 15 97 34 64
        E 15 97 34 00
        E 15 97 34 64
        E 15 97 34 00
        E 15 97 34 64
        E 15 97 34 00
        E 15 97 34 64
        E 15 97 34 00
        E 15 97 34 64
        E 15 97 34 00
        E 15 97 34 64
        E 15 97 34 00
        E 15 97 34 64
        E 45 97 34 00
        E 15 97 37 64
        E 45 97 37 00
        E 15 97 34 64
        E 15 97 34 00
        E 15 97 34 64
        E 15 97 34 00
        E 15 97 34 64
        E 15 97 34 00
        E 15 97 34 64
        E 15 97 34 00
        E 15 97 34 64
        E 45 97 34 00
        E 15 97 34 64
        E 15 97 34 00
        E 15 97 34 64
        E 15 97 34 00
        E 15 97 34 64
        E 15 97 34 00
        E 15 97 34 64
        E 15 97 34 00
        E 15 97 34 64
        E 15 97 34 00
        E 15 97 34 64
        E 15 97 34 00
        E 15 97 37 64
        E 45 97 37 00
        E 15 97 37 64
        E 45 97 37 00
        E 15 97 34 64
        E 15 97 34 00
        E 15 97 34 64
        E 15 97 34 00
        E 15 97 34 64
        E 15 97 34 00
        E 15 97 34 64
        E 15 97 34 00
        E 15 97 34 64
        E 45 97 34 00
        E 15 97 34 64
        E 15 97 34 00
        E 15 97 34 64
        E 15 97 34 00
        E 15 97 34 64
        E 15 97 34 00
        E 15 97 34 64
        E 15 97 34 00
        E 15 97 34 64
        E 15 97 34 00
        E 15 97 34 64
        E 15 97 34 00
        E 15 97 34 64
        E 45 97 34 00
        E 15 97 39 64
        E 15 97 39 00
        E 15 97 39 64
        E 15 97 39 00
        E 15 97 39 64
        E 15 97 39 00
        E 15 97 39 64
        E 15 97 39 00
        E 15 97 39 64
        E 15 97 39 00
        E 15 97 39 64
        E 15 97 39 00
        E 15 97 39 64
        E 45 97 39 00
        E 15 97 37 64
        E 15 97 37 00
        E 15 97 37 64
        E 15 97 37 00
        E 15 97 37 64
        E 15 97 37 00
        E 15 97 37 64
        E 15 97 37 00
        E 15 97 37 64
        E 15 97 37 00
        E 15 97 37 64
        E 15 97 37 00
        E 15 97 37 64
        E 45 97 37 00
        E 15 97 32 64
        E 45 97 32 00
        E 15 97 34 64
        E 15 97 34 00
        E 15 97 34 64
        E 15 97 34 00
        E 15 97 34 64
        E 15 97 34 00
        E 15 97 34 64
        E 15 97 34 00
        E 15 97 34 64
        E 45 97 34 00
        E 15 97 34 64
        E 15 97 34 00
        E 15 97 34 64
        E 15 97 34 00
        E 15 97 34 64
        E 15 97 34 00
        E 15 97 34 64
        E 15 97 34 00
        E 15 97 34 64
        E 15 97 34 00
        E 15 97 34 64
        E 15 97 34 00
        E 15 97 37 64
        E 45 97 37 00
        E 15 97 37 64
        E 45 97 37 00
        E 15 97 34 64
        E 15 97 34 00
        E 15 97 34 64
        E 15 97 34 00
        E 15 97 34 64
        E 15 97 34 00
        E 15 97 34 64
        E 15 97 34 00
        E 15 97 34 64
        E 45 97 34 00
        E 15 97 34 64
        E 15 97 34 00
        E 15 97 34 64
        E 15 97 34 00
        E 15 97 34 64
        E 15 97 34 00
        E 15 97 34 64
        E 15 97 34 00
        E 15 97 34 64
        E 15 97 34 00
        E 15 97 34 64
        E 15 97 34 00
        E 15 97 37 64
        E 45 97 37 00
        E 15 97 37 64
        E 45 97 37 00
        E 15 97 34 64
        E 15 97 34 00
        E 15 97 34 64
        E 15 97 34 00
        E 15 97 34 64
        E 15 97 34 00
        E 15 97 34 64
        E 15 97 34 00
        E 15 97 37 64
        E 45 97 37 00
        E 15 97 37 64
        E 45 97 37 00
        E 15 97 34 64
        E 15 97 34 00
        E 15 97 34 64
        E 15 97 34 00
        E 15 97 34 64
        E 15 97 34 00
        E 15 97 34 64
        E 15 97 34 00
        E 15 97 37 64
        E 45 97 37 00
        E 15 97 37 64
        E 45 97 37 00
        E 15 97 34 64
        E 15 97 34 00
        E 15 97 34 64
        E 15 97 34 00
        E 15 97 37 64
        E 45 97 37 00
        E 15 97 34 64
        E 15 97 34 00
        E 15 97 34 64
        E 15 97 34 00
        E 15 97 37 64
        E 45 97 37 00
        E 15 97 34 64
        E 15 97 34 00
        E 15 97 34 64
        E 15 97 34 00
        E 15 97 37 64
        E 45 97 37 00
        E 15 97 34 64
        E 15 97 34 00
        E 15 97 34 64
        E 15 97 34 00
        E 15 97 37 64
        E 45 97 37 00
        E 15 b0 7b 00
        CCINTERP 32
        CHASE_CC_TAKEOFFS 1
        GUID {BC658D81-8D70-965D-FD57-FAD0B8DEEC74}
        IGNTEMPO 0 120 4 4
        SRCCOLOR 8
      >
    >
  >
  <TRACK {6A91EF32-6266-AF51-6F29-7888609916C9}
    NAME "Track9 - Darude_-_Sandstorm_out"
    PEAKCOL 16576
    BEAT -1
    AUTOMODE 0
    VOLPAN 1 0 -1 -1 1
    MUTESOLO 0 0 0
    IPHASE 0
    PLAYOFFS 0 1
    ISBUS 0 0
    BUSCOMP 0 0 0 0 0
    SHOWINMIX 1 0.6667 0.5 1 0.5 -1 -1 -1
    FREEMODE 0
    SEL 0
    REC 0 0 1 0 0 0 0
    VU 2
    TRACKHEIGHT 0 0 0 0 0 0
    INQ 0 0 0 0.5 100 0 0 100
    NCHAN 2
    FX 1
    TRACKID {6A91EF32-6266-AF51-6F29-7888609916C9}
    PERF 0
    MIDIOUT -1
    MAINSEND 1 0
    <ITEM
      POSITION 0
      SNAPOFFS 0
      LENGTH 0.434783
      LOOP 1
      ALLTAKES 0
      FADEIN 1 0.01 0 1 0 0 0
      FADEOUT 1 0.01 0 1 0 0 0
      MUTE 0 0
      SEL 1
      IGUID {D645B47A-6C6A-C83F-723B-B32325FA270A}
      IID 9
      NAME "Track9 - Darude_-_Sandstorm_out.mid"
      VOLPAN 1 0 1 -1
      SOFFS 0 0
      PLAYRATE 1 1 0 -1 0 0.0025
      CHANMODE 0
      GUID {0D55C9FA-A857-C4EF-E797-1511DE5DF85D}
      <SOURCE MIDI
        HASDATA 1 120 QN
        CCINTERP 32
        POOLEDEVTS {66429197-C15A-A8C2-3A18-1A82C06CDBE2}
        <X 0 0 0 0 3 Track9
          /wNUcmFjazk=
        >
        E 0 c8 00 00
        E 0 b8 07 7f
        E 120 b0 7b 00
        CCINTERP 32
        CHASE_CC_TAKEOFFS 1
        GUID {97809B49-8A39-ABFA-D9BB-BF1D0908B966}
        IGNTEMPO 0 120 4 4
        SRCCOLOR 9
      >
    >
  >
  <TRACK {DF716E3E-F42D-CF36-213F-88066CE5ECB3}
    NAME "Track10 - Darude_-_Sandstorm_out"
    PEAKCOL 16576
    BEAT -1
    AUTOMODE 0
    VOLPAN 1 0 -1 -1 1
    MUTESOLO 0 0 0
    IPHASE 0
    PLAYOFFS 0 1
    ISBUS 0 0
    BUSCOMP 0 0 0 0 0
    SHOWINMIX 1 0.6667 0.5 1 0.5 -1 -1 -1
    FREEMODE 0
    SEL 0
    REC 0 0 1 0 0 0 0
    VU 2
    TRACKHEIGHT 0 0 0 0 0 0
    INQ 0 0 0 0.5 100 0 0 100
    NCHAN 2
    FX 1
    TRACKID {DF716E3E-F42D-CF36-213F-88066CE5ECB3}
    PERF 0
    MIDIOUT -1
    MAINSEND 1 0
    <ITEM
      POSITION 0
      SNAPOFFS 0
      LENGTH 240.000216
      LOOP 1
      ALLTAKES 0
      FADEIN 1 0.01 0 1 0 0 0
      FADEOUT 1 0.01 0 1 0 0 0
      MUTE 0 0
      SEL 1
      IGUID {CFA5B2A0-FE73-3FAA-AB67-26B997E3660C}
      IID 10
      NAME "Track10 - Darude_-_Sandstorm_out.mid"
      VOLPAN 1 0 1 -1
      SOFFS 0 0
      PLAYRATE 1 1 0 -1 0 0.0025
      CHANMODE 0
      GUID {C0AF3DC8-FE04-BB26-478D-74A08A1204F4}
      <SOURCE MIDI
        HASDATA 1 120 QN
        CCINTERP 32
        POOLEDEVTS {E7E6D59F-BD83-6A53-CEE9-3771CA6C5EDB}
        <X 0 0 0 0 3 Track10
          /wNUcmFjazEw
        >
        E 0 c9 00 00
        E 0 b9 07 7f
        E 960 99 1c 64
        E 7680 99 1c 00
        E 60 99 1c 7f
        E 60 99 1c 00
        E 60 99 1c 7f
        E 60 99 1c 00
        E 60 99 1c 7f
        E 60 99 1c 00
        E 60 99 21 7f
        E 60 99 21 00
        E 60 99 21 7f
        E 60 99 21 00
        E 60 99 1f 7f
        E 60 99 1f 00
        E 60 99 1f 7f
        E 60 99 1f 00
        E 60 99 1a 7f
        E 60 99 1a 00
        E 60 99 1c 7f
        E 60 99 1c 00
        E 60 99 1c 7f
        E 60 99 1c 00
        E 60 99 1c 7f
        E 60 99 1c 00
        E 60 99 21 7f
        E 60 99 21 00
        E 60 99 1c 7f
        E 60 99 1c 00
        E 60 99 1c 7f
        E 60 99 1c 00
        E 60 99 1c 7f
        E 60 99 1c 00
        E 60 99 1a 7f
        E 60 99 1a 00
        E 60 99 1c 7f
        E 60 99 1c 00
        E 60 99 1c 7f
        E 60 99 1c 00
        E 60 99 1c 7f
        E 60 99 1c 00
        E 60 99 21 7f
        E 60 99 21 00
        E 60 99 21 7f
        E 60 99 21 00
        E 60 99 1f 7f
        E 60 99 1f 00
        E 60 99 1f 7f
        E 60 99 1f 00
        E 60 99 1a 7f
        E 60 99 1a 00
        E 60 99 1c 7f
        E 60 99 1c 00
        E 60 99 1c 7f
        E 60 99 1c 00
        E 60 99 1c 7f
        E 60 99 1c 00
        E 60 99 21 7f
        E 60 99 21 00
        E 60 99 1c 7f
        E 60 99 1c 00
        E 60 99 1c 7f
        E 60 99 1c 00
        E 60 99 1c 7f
        E 60 99 1c 00
        E 60 99 1a 7f
        E 60 99 1a 00
        E 60 99 1c 7f
        E 60 99 1c 00
        E 60 99 1c 7f
        E 60 99 1c 00
        E 60 99 1c 7f
        E 60 99 1c 00
        E 60 99 21 7f
        E 60 99 21 00
        E 60 99 21 7f
        E 60 99 21 00
        E 60 99 1f 7f
        E 60 99 1f 00
        E 60 99 1f 7f
        E 60 99 1f 00
        E 60 99 1a 7f
        E 60 99 1a 00
        E 60 99 1c 7f
        E 60 99 1c 00
        E 60 99 1c 7f
        E 60 99 1c 00
        E 60 99 1c 7f
        E 60 99 1c 00
        E 60 99 21 7f
        E 60 99 21 00
        E 60 99 1c 7f
        E 60 99 1c 00
        E 60 99 1c 7f
        E 60 99 1c 00
        E 60 99 1c 7f
        E 60 99 1c 00
        E 60 99 1a 7f
        E 60 99 1a 00
        E 60 99 1c 7f
        E 60 99 1c 00
        E 60 99 1c 7f
        E 60 99 1c 00
        E 60 99 1c 7f
        E 60 99 1c 00
        E 60 99 21 7f
        E 60 99 21 00
        E 60 99 21 7f
        E 60 99 21 00
        E 60 99 1f 7f
        E 60 99 1f 00
        E 60 99 1f 7f
        E 60 99 1f 00
        E 60 99 1a 7f
        E 60 99 1a 00
        E 60 99 1c 7f
        E 60 99 1c 00
        E 60 99 1c 7f
        E 60 99 1c 00
        E 60 99 1c 7f
        E 60 99 1c 00
        E 60 99 21 7f
        E 60 99 21 00
        E 60 99 1c 7f
        E 60 99 1c 00
        E 60 99 1c 7f
        E 60 99 1c 00
        E 60 99 1c 7f
        E 60 99 1c 00
        E 60 99 1a 7f
        E 60 99 1a 00
        E 60 99 1c 7f
        E 60 99 1c 00
        E 60 99 1c 7f
        E 60 99 1c 00
        E 60 99 1c 7f
        E 60 99 1c 00
        E 60 99 1c 7f
        E 60 99 1c 00
        E 60 99 1c 7f
        E 60 99 1c 00
        E 60 99 1c 7f
        E 60 99 1c 00
        E 60 99 1c 7f
        E 60 99 1c 00
        E 60 99 1c 7f
        E 60 99 1c 00
        E 60 99 1c 7f
        E 60 99 1c 00
        E 60 99 1c 7f
        E 60 99 1c 00
        E 60 99 1c 7f
        E 60 99 1c 00
        E 60 99 1c 7f
        E 60 99 1c 00
        E 60 99 1c 7f
        E 60 99 1c 00
        E 60 99 1c 7f
        E 60 99 1c 00
        E 60 99 1c 7f
        E 60 99 1c 00
        E 60 99 1c 7f
        E 60 99 1c 00
        E 60 99 1c 7f
        E 60 99 1c 00
        E 60 99 1c 7f
        E 60 99 1c 00
        E 60 99 1c 7f
        E 60 99 1c 00
        E 60 99 1c 7f
        E 60 99 1c 00
        E 60 99 1c 7f
        E 60 99 1c 00
        E 60 99 1c 7f
        E 60 99 1c 00
        E 60 99 1c 7f
        E 60 99 1c 00
        E 60 99 1c 7f
        E 60 99 1c 00
        E 60 99 1c 7f
        E 60 99 1c 00
        E 60 99 1c 7f
        E 60 99 1c 00
        E 60 99 1c 7f
        E 60 99 1c 00
        E 60 99 1c 7f
        E 60 99 1c 00
        E 60 99 1c 7f
        E 60 99 1c 00
        E 60 99 1c 7f
        E 60 99 1c 00
        E 60 99 1c 7f
        E 60 99 1c 00
        E 60 99 1c 7f
        E 60 99 1c 00
        E 60 99 1c 7f
        E 60 99 1c 00
        E 60 99 1c 7f
        E 60 99 1c 00
        E 60 99 1c 7f
        E 60 99 1c 00
        E 60 99 1c 7f
        E 60 99 1c 00
        E 60 99 1c 7f
        E 60 99 1c 00
        E 60 99 1c 7f
        E 60 99 1c 00
        E 60 99 1c 7f
        E 60 99 1c 00
        E 60 99 1c 7f
        E 60 99 1c 00
        E 60 99 1c 7f
        E 60 99 1c 00
        E 60 99 1c 7f
        E 60 99 1c 00
        E 60 99 1c 7f
        E 60 99 1c 00
        E 60 99 1c 7f
        E 60 99 1c 00
        E 60 99 1c 7f
        E 60 99 1c 00
        E 60 99 1c 7f
        E 60 99 1c 00
        E 60 99 1c 7f
        E 60 99 1c 00
        E 60 99 1c 7f
        E 60 99 1c 00
        E 0 99 1c 7f
        E 1920 99 1c 00
        E 0 99 1c 7f
        E 1920 99 1c 00
        E 0 99 1c 7f
        E 2400 99 1c 00
        E 11100 99 28 64
        E 60 99 28 00
        E 60 99 28 64
        E 60 99 28 00
        E 60 99 28 64
        E 60 99 28 00
        E 60 99 2d 64
        E 60 99 2d 00
        E 60 99 2d 64
        E 60 99 2d 00
        E 60 99 2b 64
        E 60 99 2b 00
        E 60 99 2b 64
        E 60 99 2b 00
        E 60 99 26 64
        E 60 99 26 00
        E 60 99 28 64
        E 60 99 28 00
        E 60 99 28 64
        E 60 99 28 00
        E 60 99 28 64
        E 60 99 28 00
        E 60 99 2d 64
        E 60 99 2d 00
        E 60 99 28 64
        E 60 99 28 00
        E 60 99 28 64
        E 60 99 28 00
        E 60 99 28 64
        E 60 99 28 00
        E 60 99 26 64
        E 60 99 26 00
        E 60 99 28 64
        E 60 99 28 00
        E 60 99 28 64
        E 60 99 28 00
        E 60 99 28 64
        E 60 99 28 00
        E 60 99 2d 64
        E 60 99 2d 00
        E 60 99 2d 64
        E 60 99 2d 00
        E 60 99 2b 64
        E 60 99 2b 00
        E 60 99 2b 64
        E 60 99 2b 00
        E 60 99 26 64
        E 60 99 26 00
        E 60 99 28 64
        E 60 99 28 00
        E 60 99 28 64
        E 60 99 28 00
        E 60 99 28 64
        E 60 99 28 00
        E 60 99 2d 64
        E 60 99 2d 00
        E 60 99 28 64
        E 60 99 28 00
        E 60 99 28 64
        E 60 99 28 00
        E 60 99 28 64
        E 60 99 28 00
        E 60 99 26 64
        E 60 99 26 00
        E 60 99 28 64
        E 60 99 28 00
        E 60 99 28 64
        E 60 99 28 00
        E 60 99 28 64
        E 60 99 28 00
        E 60 99 2d 64
        E 60 99 2d 00
        E 60 99 2d 64
        E 60 99 2d 00
        E 60 99 2b 64
        E 60 99 2b 00
        E 60 99 2b 64
        E 60 99 2b 00
        E 60 99 26 64
        E 60 99 26 00
        E 60 99 28 64
        E 60 99 28 00
        E 60 99 28 64
        E 60 99 28 00
        E 60 99 28 64
        E 60 99 28 00
        E 60 99 2d 64
        E 60 99 2d 00
        E 60 99 28 64
        E 60 99 28 00
        E 60 99 28 64
        E 60 99 28 00
        E 60 99 28 64
        E 60 99 28 00
        E 60 99 26 64
        E 60 99 26 00
        E 60 99 28 64
        E 60 99 28 00
        E 60 99 28 64
        E 60 99 28 00
        E 60 99 28 64
        E 60 99 28 00
        E 60 99 2d 64
        E 60 99 2d 00
        E 60 99 2d 64
        E 60 99 2d 00
        E 60 99 2b 64
        E 60 99 2b 00
        E 60 99 2b 64
        E 60 99 2b 00
        E 60 99 26 64
        E 60 99 26 00
        E 60 99 28 64
        E 60 99 28 00
        E 60 99 28 64
        E 60 99 28 00
        E 60 99 28 64
        E 60 99 28 00
        E 60 99 2d 64
        E 60 99 2d 00
        E 60 99 28 64
        E 60 99 28 00
        E 60 99 28 64
        E 60 99 28 00
        E 60 99 28 64
        E 60 99 28 00
        E 60 99 26 64
        E 60 99 26 00
        E 60 99 28 64
        E 60 99 28 00
        E 60 99 28 64
        E 60 99 28 00
        E 60 99 28 64
        E 60 99 28 00
        E 60 99 28 64
        E 60 99 28 00
        E 60 99 28 64
        E 60 99 28 00
        E 60 99 28 64
        E 60 99 28 00
        E 60 99 28 64
        E 60 99 28 00
        E 60 99 28 64
        E 60 99 28 00
        E 60 99 28 64
        E 60 99 28 00
        E 60 99 28 64
        E 60 99 28 00
        E 60 99 28 64
        E 60 99 28 00
        E 60 99 28 64
        E 60 99 28 00
        E 60 99 28 64
        E 60 99 28 00
        E 60 99 28 64
        E 60 99 28 00
        E 60 99 28 64
        E 60 99 28 00
        E 60 99 28 64
        E 60 99 28 00
        E 60 99 28 64
        E 60 99 28 00
        E 60 99 28 64
        E 60 99 28 00
        E 60 99 28 64
        E 60 99 28 00
        E 60 99 28 64
        E 60 99 28 00
        E 60 99 28 64
        E 60 99 28 00
        E 60 99 28 64
        E 60 99 28 00
        E 60 99 28 64
        E 60 99 28 00
        E 60 99 28 64
        E 60 99 28 00
        E 60 99 28 64
        E 60 99 28 00
        E 60 99 28 64
        E 60 99 28 00
        E 60 99 28 64
        E 60 99 28 00
        E 60 99 28 64
        E 60 99 28 00
        E 60 99 28 64
        E 60 99 28 00
        E 60 99 28 64
        E 60 99 28 00
        E 60 99 28 64
        E 60 99 28 00
        E 60 99 28 64
        E 60 99 28 00
        E 60 99 28 64
        E 60 99 28 00
        E 60 99 28 64
        E 60 99 28 00
        E 60 99 28 64
        E 60 99 28 00
        E 60 99 28 64
        E 60 99 28 00
        E 60 99 28 64
        E 60 99 28 00
        E 60 99 28 64
        E 60 99 28 00
        E 60 99 28 64
        E 60 99 28 00
        E 60 99 28 64
        E 60 99 28 00
        E 60 99 28 64
        E 60 99 28 00
        E 60 99 28 64
        E 60 99 28 00
        E 60 99 28 64
        E 60 99 28 00
        E 60 99 28 64
        E 60 99 28 00
        E 60 99 28 64
        E 60 99 28 00
        E 60 99 28 64
        E 60 99 28 00
        E 60 99 28 64
        E 60 99 28 00
        E 60 99 28 64
        E 60 99 28 00
        E 60 99 28 64
        E 60 99 28 00
        E 60 99 28 64
        E 60 99 28 00
        E 60 99 28 64
        E 60 99 28 00
        E 60 99 2d 64
        E 60 99 2d 00
        E 60 99 2d 64
        E 60 99 2d 00
        E 60 99 2b 64
        E 60 99 2b 00
        E 60 99 2b 64
        E 60 99 2b 00
        E 60 99 26 64
        E 60 99 26 00
        E 60 99 28 64
        E 60 99 28 00
        E 60 99 28 64
        E 60 99 28 00
        E 60 99 28 64
        E 60 99 28 00
        E 60 99 2d 64
        E 60 99 2d 00
        E 60 99 28 64
        E 60 99 28 00
        E 60 99 28 64
        E 60 99 28 00
        E 60 99 28 64
        E 60 99 28 00
        E 60 99 26 64
        E 60 99 26 00
        E 60 99 28 64
        E 60 99 28 00
        E 60 99 28 64
        E 60 99 28 00
        E 60 99 28 64
        E 60 99 28 00
        E 60 99 2d 64
        E 60 99 2d 00
        E 60 99 2d 64
        E 60 99 2d 00
        E 60 99 2b 64
        E 60 99 2b 00
        E 60 99 2b 64
        E 60 99 2b 00
        E 60 99 26 64
        E 60 99 26 00
        E 60 99 28 64
        E 60 99 28 00
        E 60 99 28 64
        E 60 99 28 00
        E 60 99 28 64
        E 60 99 28 00
        E 60 99 2d 64
        E 60 99 2d 00
        E 60 99 28 64
        E 60 99 28 00
        E 60 99 28 64
        E 60 99 28 00
        E 60 99 28 64
        E 60 99 28 00
        E 60 99 26 64
        E 60 99 26 00
        E 60 99 28 64
        E 60 99 28 00
        E 60 99 28 64
        E 60 99 28 00
        E 60 99 28 64
        E 60 99 28 00
        E 60 99 2d 64
        E 60 99 2d 00
        E 60 99 2d 64
        E 60 99 2d 00
        E 60 99 2b 64
        E 60 99 2b 00
        E 60 99 2b 64
        E 60 99 2b 00
        E 60 99 26 64
        E 60 99 26 00
        E 60 99 28 64
        E 60 99 28 00
        E 60 99 28 64
        E 60 99 28 00
        E 60 99 28 64
        E 60 99 28 00
        E 60 99 2d 64
        E 60 99 2d 00
        E 60 99 28 64
        E 60 99 28 00
        E 60 99 28 64
        E 60 99 28 00
        E 60 99 28 64
        E 60 99 28 00
        E 60 99 26 64
        E 60 99 26 00
        E 60 99 28 64
        E 60 99 28 00
        E 60 99 28 64
        E 60 99 28 00
        E 60 99 28 64
        E 60 99 28 00
        E 60 99 2d 64
        E 60 99 2d 00
        E 60 99 2d 64
        E 60 99 2d 00
        E 60 99 2b 64
        E 60 99 2b 00
        E 60 99 2b 64
        E 60 99 2b 00
        E 60 99 26 64
        E 60 99 26 00
        E 60 99 28 64
        E 60 99 28 00
        E 60 99 28 64
        E 60 99 28 00
        E 60 99 28 64
        E 60 99 28 00
        E 60 99 2d 64
        E 60 99 2d 00
        E 60 99 28 64
        E 60 99 28 00
        E 60 99 28 64
        E 60 99 28 00
        E 60 99 28 64
        E 60 99 28 00
        E 60 99 26 64
        E 60 99 26 00
        E 60 99 28 64
        E 60 99 28 00
        E 60 99 28 64
        E 60 99 28 00
        E 60 99 28 64
        E 60 99 28 00
        E 60 99 28 64
        E 60 99 28 00
        E 60 99 28 64
        E 60 99 28 00
        E 60 99 28 64
        E 60 99 28 00
        E 60 99 28 64
        E 60 99 28 00
        E 60 99 28 64
        E 60 99 28 00
        E 60 99 28 64
        E 60 99 28 00
        E 60 99 28 64
        E 60 99 28 00
        E 60 99 28 64
        E 60 99 28 00
        E 60 99 28 64
        E 60 99 28 00
        E 60 99 28 64
        E 60 99 28 00
        E 60 99 28 64
        E 60 99 28 00
        E 60 99 28 64
        E 60 99 28 00
        E 60 99 28 64
        E 60 99 28 00
        E 60 99 28 64
        E 60 99 28 00
        E 60 99 28 64
        E 60 99 28 00
        E 60 99 28 64
        E 60 99 28 00
        E 60 99 28 64
        E 60 99 28 00
        E 60 99 28 64
        E 60 99 28 00
        E 60 99 28 64
        E 60 99 28 00
        E 60 99 28 64
        E 60 99 28 00
        E 60 99 28 64
        E 60 99 28 00
        E 60 99 28 64
        E 60 99 28 00
        E 60 99 28 64
        E 60 99 28 00
        E 60 99 28 64
        E 60 99 28 00
        E 60 99 28 64
        E 60 99 28 00
        E 60 99 28 64
        E 60 99 28 00
        E 60 99 28 64
        E 60 99 28 00
        E 60 99 28 64
        E 60 99 28 00
        E 60 99 28 64
        E 60 99 28 00
        E 60 99 28 64
        E 60 99 28 00
        E 60 99 28 64
        E 60 99 28 00
        E 60 99 28 64
        E 60 99 28 00
        E 60 99 28 64
        E 60 99 28 00
        E 60 99 28 64
        E 60 99 28 00
        E 60 99 28 64
        E 60 99 28 00
        E 60 99 28 64
        E 60 99 28 00
        E 60 99 28 64
        E 60 99 28 00
        E 60 99 28 64
        E 60 99 28 00
        E 60 99 28 64
        E 60 99 28 00
        E 60 99 28 64
        E 60 99 28 00
        E 60 99 28 64
        E 60 99 28 00
        E 60 99 28 64
        E 60 99 28 00
        E 60 99 28 64
        E 60 99 28 00
        E 60 99 28 64
        E 60 99 28 00
        E 60 99 28 64
        E 59 99 28 00
        E 1 b0 7b 00
        CCINTERP 32
        CHASE_CC_TAKEOFFS 1
        GUID {8417AEC8-ABC5-FDC9-2FAD-27C0152924F7}
        IGNTEMPO 0 120 4 4
        SRCCOLOR 10
      >
    >
  >
  <TRACK {3D834153-F6A2-73B9-0635-814D2A18EC16}
    NAME "Track11 - Darude_-_Sandstorm_out"
    PEAKCOL 16576
    BEAT -1
    AUTOMODE 0
    VOLPAN 1 0 -1 -1 1
    MUTESOLO 0 0 0
    IPHASE 0
    PLAYOFFS 0 1
    ISBUS 0 0
    BUSCOMP 0 0 0 0 0
    SHOWINMIX 1 0.6667 0.5 1 0.5 -1 -1 -1
    FREEMODE 0
    SEL 0
    REC 0 0 1 0 0 0 0
    VU 2
    TRACKHEIGHT 0 0 0 0 0 0
    INQ 0 0 0 0.5 100 0 0 100
    NCHAN 2
    FX 1
    TRACKID {3D834153-F6A2-73B9-0635-814D2A18EC16}
    PERF 0
    MIDIOUT -1
    MAINSEND 1 0
    <ITEM
      POSITION 0
      SNAPOFFS 0
      LENGTH 0.434783
      LOOP 1
      ALLTAKES 0
      FADEIN 1 0.01 0 1 0 0 0
      FADEOUT 1 0.01 0 1 0 0 0
      MUTE 0 0
      SEL 1
      IGUID {F0CD921A-F754-C151-33A8-F3D584AB3CCB}
      IID 11
      NAME "Track11 - Darude_-_Sandstorm_out.mid"
      VOLPAN 1 0 1 -1
      SOFFS 0 0
      PLAYRATE 1 1 0 -1 0 0.0025
      CHANMODE 0
      GUID {EDDD89A2-5A92-0FD2-26A2-F4D92D155A55}
      <SOURCE MIDI
        HASDATA 1 120 QN
        CCINTERP 32
        POOLEDEVTS {E04F92F9-1AB4-58AF-4D40-CF95D0D8BB99}
        <X 0 0 0 0 3 Track11
          /wNUcmFjazEx
        >
        E 0 ca 00 00
        E 0 ba 07 7f
        E 120 b0 7b 00
        CCINTERP 32
        CHASE_CC_TAKEOFFS 1
        GUID {50092977-895D-0742-CA76-0F1482358421}
        IGNTEMPO 0 120 4 4
        SRCCOLOR 11
      >
    >
  >
  <TRACK {5DC89F4F-0868-9311-67A8-CDD2026B85AC}
    NAME "Track12 - Darude_-_Sandstorm_out"
    PEAKCOL 16576
    BEAT -1
    AUTOMODE 0
    VOLPAN 1 0 -1 -1 1
    MUTESOLO 0 0 0
    IPHASE 0
    PLAYOFFS 0 1
    ISBUS 0 0
    BUSCOMP 0 0 0 0 0
    SHOWINMIX 1 0.6667 0.5 1 0.5 -1 -1 -1
    FREEMODE 0
    SEL 0
    REC 0 0 1 0 0 0 0
    VU 2
    TRACKHEIGHT 0 0 0 0 0 0
    INQ 0 0 0 0.5 100 0 0 100
    NCHAN 2
    FX 1
    TRACKID {5DC89F4F-0868-9311-67A8-CDD2026B85AC}
    PERF 0
    MIDIOUT -1
    MAINSEND 1 0
    <ITEM
      POSITION 0
      SNAPOFFS 0
      LENGTH 240.000216
      LOOP 1
      ALLTAKES 0
      FADEIN 1 0.01 0 1 0 0 0
      FADEOUT 1 0.01 0 1 0 0 0
      MUTE 0 0
      SEL 1
      IGUID {A248FAF6-678F-C1E6-4767-F343D7B9B589}
      IID 12
      NAME "Track12 - Darude_-_Sandstorm_out.mid"
      VOLPAN 1 0 1 -1
      SOFFS 0 0
      PLAYRATE 1 1 0 -1 0 0.0025
      CHANMODE 0
      GUID {29DEDCBA-47C5-EBCB-15AF-B470A9BBFB60}
      <SOURCE MIDI
        HASDATA 1 120 QN
        CCINTERP 32
        POOLEDEVTS {91A5E7CE-60CB-B86F-5C7C-F87C9296BE81}
        <X 0 0 0 0 3 Track12
          /wNUcmFjazEy
        >
        E 0 cb 00 00
        E 0 bb 07 7f
        E 4800 9b 47 7f
        E 0 9b 3b 7f
        E 15 9b 47 00
        E 0 9b 3b 00
        E 15 9b 47 7f
        E 0 9b 3b 7f
        E 15 9b 47 00
        E 0 9b 3b 00
        E 15 9b 47 7f
        E 0 9b 3b 7f
        E 15 9b 47 00
        E 0 9b 3b 00
        E 15 9b 47 7f
        E 0 9b 3b 7f
        E 15 9b 47 00
        E 0 9b 3b 00
        E 15 9b 47 7f
        E 0 9b 3b 7f
        E 60 9b 47 00
        E 0 9b 3b 00
        E 660 9b 4a 7f
        E 0 9b 3e 7f
        E 30 9b 4a 00
        E 0 9b 3e 00
        E 90 9b 47 7f
        E 0 9b 3b 7f
        E 15 9b 47 00
        E 0 9b 3b 00
        E 15 9b 47 7f
        E 0 9b 3b 7f
        E 15 9b 47 00
        E 0 9b 3b 00
        E 15 9b 47 7f
        E 0 9b 3b 7f
        E 15 9b 47 00
        E 0 9b 3b 00
        E 15 9b 47 7f
        E 0 9b 3b 7f
        E 15 9b 47 00
        E 0 9b 3b 00
        E 15 9b 47 7f
        E 0 9b 3b 7f
        E 60 9b 47 00
        E 0 9b 3b 00
        E 780 9b 47 7f
        E 0 9b 3b 7f
        E 15 9b 47 00
        E 0 9b 3b 00
        E 15 9b 47 7f
        E 0 9b 3b 7f
        E 15 9b 47 00
        E 0 9b 3b 00
        E 15 9b 47 7f
        E 0 9b 3b 7f
        E 15 9b 47 00
        E 0 9b 3b 00
        E 15 9b 47 7f
        E 0 9b 3b 7f
        E 15 9b 47 00
        E 0 9b 3b 00
        E 15 9b 47 7f
        E 0 9b 3b 7f
        E 60 9b 47 00
        E 0 9b 3b 00
        E 300 9b 47 7f
        E 0 9b 3b 7f
        E 15 9b 47 00
        E 0 9b 3b 00
        E 15 9b 47 7f
        E 0 9b 3b 7f
        E 15 9b 47 00
        E 0 9b 3b 00
        E 15 9b 47 7f
        E 0 9b 3b 7f
        E 15 9b 47 00
        E 0 9b 3b 00
        E 15 9b 47 7f
        E 0 9b 3b 7f
        E 15 9b 47 00
        E 0 9b 3b 00
        E 15 9b 47 7f
        E 0 9b 3b 7f
        E 60 9b 47 00
        E 0 9b 3b 00
        E 300 9b 47 7f
        E 0 9b 3b 7f
        E 15 9b 47 00
        E 0 9b 3b 00
        E 15 9b 47 7f
        E 0 9b 3b 7f
        E 15 9b 47 00
        E 0 9b 3b 00
        E 15 9b 47 7f
        E 0 9b 3b 7f
        E 15 9b 47 00
        E 0 9b 3b 00
        E 15 9b 47 7f
        E 0 9b 3b 7f
        E 15 9b 47 00
        E 0 9b 3b 00
        E 15 9b 47 7f
        E 0 9b 3b 7f
        E 60 9b 47 00
        E 0 9b 3b 00
        E 60 9b 47 7f
        E 0 9b 3b 7f
        E 15 9b 47 00
        E 0 9b 3b 00
        E 15 9b 47 7f
        E 0 9b 3b 7f
        E 15 9b 47 00
        E 0 9b 3b 00
        E 15 9b 47 7f
        E 0 9b 3b 7f
        E 15 9b 47 00
        E 0 9b 3b 00
        E 15 9b 47 7f
        E 0 9b 3b 7f
        E 15 9b 47 00
        E 0 9b 3b 00
        E 15 9b 47 7f
        E 0 9b 3b 7f
        E 60 9b 47 00
        E 0 9b 3b 00
        E 60 9b 47 7f
        E 0 9b 3b 7f
        E 15 9b 47 00
        E 0 9b 3b 00
        E 15 9b 47 7f
        E 0 9b 3b 7f
        E 15 9b 47 00
        E 0 9b 3b 00
        E 15 9b 47 7f
        E 0 9b 3b 7f
        E 15 9b 47 00
        E 0 9b 3b 00
        E 15 9b 47 7f
        E 0 9b 3b 7f
        E 15 9b 47 00
        E 0 9b 3b 00
        E 15 9b 47 7f
        E 0 9b 3b 7f
        E 45 9b 47 00
        E 0 9b 3b 00
        E 15 9b 47 7f
        E 0 9b 3b 7f
        E 15 9b 47 00
        E 0 9b 3b 00
        E 45 9b 47 7f
        E 0 9b 3b 7f
        E 15 9b 47 00
        E 0 9b 3b 00
        E 15 9b 47 7f
        E 0 9b 3b 7f
        E 15 9b 47 00
        E 0 9b 3b 00
        E 15 9b 47 7f
        E 0 9b 3b 7f
        E 15 9b 47 00
        E 0 9b 3b 00
        E 15 9b 47 7f
        E 0 9b 3b 7f
        E 15 9b 47 00
        E 0 9b 3b 00
        E 15 9b 47 7f
        E 0 9b 3b 7f
        E 45 9b 47 00
        E 0 9b 3b 00
        E 15 9b 47 7f
        E 0 9b 3b 7f
        E 15 9b 47 00
        E 0 9b 3b 00
        E 45 9b 47 7f
        E 0 9b 3b 7f
        E 15 9b 47 00
        E 0 9b 3b 00
        E 15 9b 47 7f
        E 0 9b 3b 7f
        E 15 9b 47 00
        E 0 9b 3b 00
        E 15 9b 47 7f
        E 0 9b 3b 7f
        E 15 9b 47 00
        E 0 9b 3b 00
        E 15 9b 47 7f
        E 0 9b 3b 7f
        E 15 9b 47 00
        E 0 9b 3b 00
        E 15 9b 47 7f
        E 0 9b 3b 7f
        E 45 9b 47 00
        E 0 9b 3b 00
        E 15 9b 47 7f
        E 0 9b 3b 7f
        E 15 9b 47 00
        E 0 9b 3b 00
        E 15 9b 47 7f
        E 0 9b 3b 7f
        E 15 9b 47 00
        E 0 9b 3b 00
        E 15 9b 47 7f
        E 0 9b 3b 7f
        E 15 9b 47 00
        E 0 9b 3b 00
        E 15 9b 47 7f
        E 0 9b 3b 7f
        E 15 9b 47 00
        E 0 9b 3b 00
        E 15 9b 47 7f
        E 0 9b 3b 7f
        E 15 9b 47 00
        E 0 9b 3b 00
        E 15 9b 47 7f
        E 0 9b 3b 7f
        E 15 9b 47 00
        E 0 9b 3b 00
        E 15 9b 47 7f
        E 0 9b 3b 7f
        E 45 9b 47 00
        E 0 9b 3b 00
        E 15 9b 4c 7f
        E 0 9b 40 7f
        E 15 9b 4c 00
        E 0 9b 40 00
        E 15 9b 4c 7f
        E 0 9b 40 7f
        E 15 9b 4c 00
        E 0 9b 40 00
        E 15 9b 4c 7f
        E 0 9b 40 7f
        E 15 9b 4c 00
        E 0 9b 40 00
        E 15 9b 4c 7f
        E 0 9b 40 7f
        E 15 9b 4c 00
        E 0 9b 40 00
        E 15 9b 4c 7f
        E 0 9b 40 7f
        E 15 9b 4c 00
        E 0 9b 40 00
        E 15 9b 4c 7f
        E 0 9b 40 7f
        E 15 9b 4c 00
        E 0 9b 40 00
        E 15 9b 4c 7f
        E 0 9b 40 7f
        E 45 9b 4c 00
        E 0 9b 40 00
        E 15 9b 4a 7f
        E 0 9b 3e 7f
        E 15 9b 4a 00
        E 0 9b 3e 00
        E 15 9b 4a 7f
        E 0 9b 3e 7f
        E 15 9b 4a 00
        E 0 9b 3e 00
        E 15 9b 4a 7f
        E 0 9b 3e 7f
        E 15 9b 4a 00
        E 0 9b 3e 00
        E 15 9b 4a 7f
        E 0 9b 3e 7f
        E 15 9b 4a 00
        E 0 9b 3e 00
        E 15 9b 4a 7f
        E 0 9b 3e 7f
        E 15 9b 4a 00
        E 0 9b 3e 00
        E 15 9b 4a 7f
        E 0 9b 3e 7f
        E 15 9b 4a 00
        E 0 9b 3e 00
        E 15 9b 4a 7f
        E 0 9b 3e 7f
        E 45 9b 4a 00
        E 0 9b 3e 00
        E 15 9b 45 7f
        E 0 9b 39 7f
        E 15 9b 45 00
        E 0 9b 39 00
        E 15 9b 45 7f
        E 0 9b 39 7f
        E 15 9b 45 00
        E 0 9b 39 00
        E 15 9b 47 7f
        E 0 9b 3b 7f
        E 15 9b 47 00
        E 0 9b 3b 00
        E 15 9b 47 7f
        E 0 9b 3b 7f
        E 15 9b 47 00
        E 0 9b 3b 00
        E 15 9b 47 7f
        E 0 9b 3b 7f
        E 15 9b 47 00
        E 0 9b 3b 00
        E 15 9b 47 7f
        E 0 9b 3b 7f
        E 15 9b 47 00
        E 0 9b 3b 00
        E 15 9b 47 7f
        E 0 9b 3b 7f
        E 45 9b 47 00
        E 0 9b 3b 00
        E 15 9b 47 7f
        E 0 9b 3b 7f
        E 15 9b 47 00
        E 0 9b 3b 00
        E 15 9b 47 7f
        E 0 9b 3b 7f
        E 15 9b 47 00
        E 0 9b 3b 00
        E 15 9b 47 7f
        E 0 9b 3b 7f
        E 15 9b 47 00
        E 0 9b 3b 00
        E 15 9b 47 7f
        E 0 9b 3b 7f
        E 15 9b 47 00
        E 0 9b 3b 00
        E 15 9b 47 7f
        E 0 9b 3b 7f
        E 15 9b 47 00
        E 0 9b 3b 00
        E 15 9b 47 7f
        E 0 9b 3b 7f
        E 15 9b 47 00
        E 0 9b 3b 00
        E 15 9b 47 7f
        E 0 9b 3b 7f
        E 45 9b 47 00
        E 0 9b 3b 00
        E 15 9b 4c 7f
        E 0 9b 40 7f
        E 15 9b 4c 00
        E 0 9b 40 00
        E 15 9b 4c 7f
        E 0 9b 40 7f
        E 15 9b 4c 00
        E 0 9b 40 00
        E 15 9b 47 7f
        E 0 9b 3b 7f
        E 15 9b 47 00
        E 0 9b 3b 00
        E 15 9b 47 7f
        E 0 9b 3b 7f
        E 15 9b 47 00
        E 0 9b 3b 00
        E 15 9b 47 7f
        E 0 9b 3b 7f
        E 15 9b 47 00
        E 0 9b 3b 00
        E 15 9b 47 7f
        E 0 9b 3b 7f
        E 15 9b 47 00
        E 0 9b 3b 00
        E 15 9b 47 7f
        E 0 9b 3b 7f
        E 45 9b 47 00
        E 0 9b 3b 00
        E 15 9b 47 7f
        E 0 9b 3b 7f
        E 15 9b 47 00
        E 0 9b 3b 00
        E 15 9b 47 7f
        E 0 9b 3b 7f
        E 15 9b 47 00
        E 0 9b 3b 00
        E 15 9b 47 7f
        E 0 9b 3b 7f
        E 15 9b 47 00
        E 0 9b 3b 00
        E 15 9b 47 7f
        E 0 9b 3b 7f
        E 15 9b 47 00
        E 0 9b 3b 00
        E 15 9b 47 7f
        E 0 9b 3b 7f
        E 15 9b 47 00
        E 0 9b 3b 00
        E 15 9b 47 7f
        E 0 9b 3b 7f
        E 15 9b 47 00
        E 0 9b 3b 00
        E 15 9b 47 7f
        E 0 9b 3b 7f
        E 45 9b 47 00
        E 0 9b 3b 00
        E 15 9b 4c 7f
        E 0 9b 40 7f
        E 15 9b 4c 00
        E 0 9b 40 00
        E 15 9b 4c 7f
        E 0 9b 40 7f
        E 15 9b 4c 00
        E 0 9b 40 00
        E 15 9b 47 7f
        E 0 9b 3b 7f
        E 15 9b 47 00
        E 0 9b 3b 00
        E 15 9b 47 7f
        E 0 9b 3b 7f
        E 15 9b 47 00
        E 0 9b 3b 00
        E 15 9b 47 7f
        E 0 9b 3b 7f
        E 15 9b 47 00
        E 0 9b 3b 00
        E 15 9b 47 7f
        E 0 9b 3b 7f
        E 15 9b 47 00
        E 0 9b 3b 00
        E 15 9b 47 7f
        E 0 9b 3b 7f
        E 45 9b 47 00
        E 0 9b 3b 00
        E 15 9b 47 7f
        E 0 9b 3b 7f
        E 15 9b 47 00
        E 0 9b 3b 00
        E 15 9b 47 7f
        E 0 9b 3b 7f
        E 15 9b 47 00
        E 0 9b 3b 00
        E 15 9b 47 7f
        E 0 9b 3b 7f
        E 15 9b 47 00
        E 0 9b 3b 00
        E 15 9b 47 7f
        E 0 9b 3b 7f
        E 15 9b 47 00
        E 0 9b 3b 00
        E 15 9b 47 7f
        E 0 9b 3b 7f
        E 15 9b 47 00
        E 0 9b 3b 00
        E 15 9b 47 7f
        E 0 9b 3b 7f
        E 15 9b 47 00
        E 0 9b 3b 00
        E 15 9b 47 7f
        E 0 9b 3b 7f
        E 45 9b 47 00
        E 0 9b 3b 00
        E 15 9b 4c 7f
        E 0 9b 40 7f
        E 15 9b 4c 00
        E 0 9b 40 00
        E 15 9b 4c 7f
        E 0 9b 40 7f
        E 15 9b 4c 00
        E 0 9b 40 00
        E 15 9b 4c 7f
        E 0 9b 40 7f
        E 15 9b 4c 00
        E 0 9b 40 00
        E 15 9b 4c 7f
        E 0 9b 40 7f
        E 15 9b 4c 00
        E 0 9b 40 00
        E 15 9b 4c 7f
        E 0 9b 40 7f
        E 15 9b 4c 00
        E 0 9b 40 00
        E 15 9b 4c 7f
        E 0 9b 40 7f
        E 15 9b 4c 00
        E 0 9b 40 00
        E 15 9b 4c 7f
        E 0 9b 40 7f
        E 45 9b 4c 00
        E 0 9b 40 00
        E 15 9b 4a 7f
        E 0 9b 3e 7f
        E 15 9b 4a 00
        E 0 9b 3e 00
        E 15 9b 4a 7f
        E 0 9b 3e 7f
        E 15 9b 4a 00
        E 0 9b 3e 00
        E 15 9b 4a 7f
        E 0 9b 3e 7f
        E 15 9b 4a 00
        E 0 9b 3e 00
        E 15 9b 4a 7f
        E 0 9b 3e 7f
        E 15 9b 4a 00
        E 0 9b 3e 00
        E 15 9b 4a 7f
        E 0 9b 3e 7f
        E 15 9b 4a 00
        E 0 9b 3e 00
        E 15 9b 4a 7f
        E 0 9b 3e 7f
        E 15 9b 4a 00
        E 0 9b 3e 00
        E 15 9b 4a 7f
        E 0 9b 3e 7f
        E 45 9b 4a 00
        E 0 9b 3e 00
        E 15 9b 45 7f
        E 0 9b 39 7f
        E 15 9b 45 00
        E 0 9b 39 00
        E 15 9b 45 7f
        E 0 9b 39 7f
        E 15 9b 45 00
        E 0 9b 39 00
        E 15 9b 47 7f
        E 0 9b 3b 7f
        E 15 9b 47 00
        E 0 9b 3b 00
        E 15 9b 47 7f
        E 0 9b 3b 7f
        E 15 9b 47 00
        E 0 9b 3b 00
        E 15 9b 47 7f
        E 0 9b 3b 7f
        E 15 9b 47 00
        E 0 9b 3b 00
        E 15 9b 47 7f
        E 0 9b 3b 7f
        E 15 9b 47 00
        E 0 9b 3b 00
        E 15 9b 47 7f
        E 0 9b 3b 7f
        E 45 9b 47 00
        E 0 9b 3b 00
        E 15 9b 47 7f
        E 0 9b 3b 7f
        E 15 9b 47 00
        E 0 9b 3b 00
        E 15 9b 47 7f
        E 0 9b 3b 7f
        E 15 9b 47 00
        E 0 9b 3b 00
        E 15 9b 47 7f
        E 0 9b 3b 7f
        E 15 9b 47 00
        E 0 9b 3b 00
        E 15 9b 47 7f
        E 0 9b 3b 7f
        E 15 9b 47 00
        E 0 9b 3b 00
        E 15 9b 47 7f
        E 0 9b 3b 7f
        E 15 9b 47 00
        E 0 9b 3b 00
        E 15 9b 47 7f
        E 0 9b 3b 7f
        E 15 9b 47 00
        E 0 9b 3b 00
        E 15 9b 47 7f
        E 0 9b 3b 7f
        E 45 9b 47 00
        E 0 9b 3b 00
        E 15 9b 4c 7f
        E 0 9b 40 7f
        E 15 9b 4c 00
        E 0 9b 40 00
        E 15 9b 4c 7f
        E 0 9b 40 7f
        E 15 9b 4c 00
        E 0 9b 40 00
        E 15 9b 47 7f
        E 0 9b 3b 7f
        E 15 9b 47 00
        E 0 9b 3b 00
        E 15 9b 47 7f
        E 0 9b 3b 7f
        E 15 9b 47 00
        E 0 9b 3b 00
        E 15 9b 47 7f
        E 0 9b 3b 7f
        E 15 9b 47 00
        E 0 9b 3b 00
        E 15 9b 47 7f
        E 0 9b 3b 7f
        E 15 9b 47 00
        E 0 9b 3b 00
        E 15 9b 47 7f
        E 0 9b 3b 7f
        E 45 9b 47 00
        E 0 9b 3b 00
        E 15 9b 47 7f
        E 0 9b 3b 7f
        E 15 9b 47 00
        E 0 9b 3b 00
        E 15 9b 47 7f
        E 0 9b 3b 7f
        E 15 9b 47 00
        E 0 9b 3b 00
        E 15 9b 47 7f
        E 0 9b 3b 7f
        E 15 9b 47 00
        E 0 9b 3b 00
        E 15 9b 47 7f
        E 0 9b 3b 7f
        E 15 9b 47 00
        E 0 9b 3b 00
        E 15 9b 47 7f
        E 0 9b 3b 7f
        E 15 9b 47 00
        E 0 9b 3b 00
        E 15 9b 47 7f
        E 0 9b 3b 7f
        E 15 9b 47 00
        E 0 9b 3b 00
        E 15 9b 47 7f
        E 0 9b 3b 7f
        E 45 9b 47 00
        E 0 9b 3b 00
        E 15 9b 4c 7f
        E 0 9b 40 7f
        E 15 9b 4c 00
        E 0 9b 40 00
        E 15 9b 4c 7f
        E 0 9b 40 7f
        E 15 9b 4c 00
        E 0 9b 40 00
        E 15 9b 47 7f
        E 0 9b 3b 7f
        E 15 9b 47 00
        E 0 9b 3b 00
        E 15 9b 47 7f
        E 0 9b 3b 7f
        E 15 9b 47 00
        E 0 9b 3b 00
        E 15 9b 47 7f
        E 0 9b 3b 7f
        E 15 9b 47 00
        E 0 9b 3b 00
        E 15 9b 47 7f
        E 0 9b 3b 7f
        E 15 9b 47 00
        E 0 9b 3b 00
        E 15 9b 47 7f
        E 0 9b 3b 7f
        E 45 9b 47 00
        E 0 9b 3b 00
        E 15 9b 47 7f
        E 0 9b 3b 7f
        E 15 9b 47 00
        E 0 9b 3b 00
        E 15 9b 47 7f
        E 0 9b 3b 7f
        E 15 9b 47 00
        E 0 9b 3b 00
        E 15 9b 47 7f
        E 0 9b 3b 7f
        E 15 9b 47 00
        E 0 9b 3b 00
        E 15 9b 47 7f
        E 0 9b 3b 7f
        E 15 9b 47 00
        E 0 9b 3b 00
        E 15 9b 47 7f
        E 0 9b 3b 7f
        E 15 9b 47 00
        E 0 9b 3b 00
        E 15 9b 47 7f
        E 0 9b 3b 7f
        E 15 9b 47 00
        E 0 9b 3b 00
        E 15 9b 47 7f
        E 0 9b 3b 7f
        E 45 9b 47 00
        E 0 9b 3b 00
        E 15 9b 4c 7f
        E 0 9b 40 7f
        E 15 9b 4c 00
        E 0 9b 40 00
        E 15 9b 4c 7f
        E 0 9b 40 7f
        E 15 9b 4c 00
        E 0 9b 40 00
        E 15 9b 4c 7f
        E 0 9b 40 7f
        E 15 9b 4c 00
        E 0 9b 40 00
        E 15 9b 4c 7f
        E 0 9b 40 7f
        E 15 9b 4c 00
        E 0 9b 40 00
        E 15 9b 4c 7f
        E 0 9b 40 7f
        E 15 9b 4c 00
        E 0 9b 40 00
        E 15 9b 4c 7f
        E 0 9b 40 7f
        E 15 9b 4c 00
        E 0 9b 40 00
        E 15 9b 4c 7f
        E 0 9b 40 7f
        E 45 9b 4c 00
        E 0 9b 40 00
        E 15 9b 4a 7f
        E 0 9b 3e 7f
        E 15 9b 4a 00
        E 0 9b 3e 00
        E 15 9b 4a 7f
        E 0 9b 3e 7f
        E 15 9b 4a 00
        E 0 9b 3e 00
        E 15 9b 4a 7f
        E 0 9b 3e 7f
        E 15 9b 4a 00
        E 0 9b 3e 00
        E 15 9b 4a 7f
        E 0 9b 3e 7f
        E 15 9b 4a 00
        E 0 9b 3e 00
        E 15 9b 4a 7f
        E 0 9b 3e 7f
        E 15 9b 4a 00
        E 0 9b 3e 00
        E 15 9b 4a 7f
        E 0 9b 3e 7f
        E 15 9b 4a 00
        E 0 9b 3e 00
        E 15 9b 4a 7f
        E 0 9b 3e 7f
        E 45 9b 4a 00
        E 0 9b 3e 00
        E 15 9b 45 7f
        E 0 9b 39 7f
        E 15 9b 45 00
        E 0 9b 39 00
        E 15 9b 45 7f
        E 0 9b 39 7f
        E 15 9b 45 00
        E 0 9b 39 00
        E 15 9b 47 7f
        E 0 9b 3b 7f
        E 15 9b 47 00
        E 0 9b 3b 00
        E 15 9b 47 7f
        E 0 9b 3b 7f
        E 15 9b 47 00
        E 0 9b 3b 00
        E 15 9b 47 7f
        E 0 9b 3b 7f
        E 15 9b 47 00
        E 0 9b 3b 00
        E 15 9b 47 7f
        E 0 9b 3b 7f
        E 15 9b 47 00
        E 0 9b 3b 00
        E 15 9b 47 7f
        E 0 9b 3b 7f
        E 45 9b 47 00
        E 0 9b 3b 00
        E 15 9b 47 7f
        E 0 9b 3b 7f
        E 15 9b 47 00
        E 0 9b 3b 00
        E 15 9b 47 7f
        E 0 9b 3b 7f
        E 15 9b 47 00
        E 0 9b 3b 00
        E 15 9b 47 7f
        E 0 9b 3b 7f
        E 15 9b 47 00
        E 0 9b 3b 00
        E 15 9b 47 7f
        E 0 9b 3b 7f
        E 15 9b 47 00
        E 0 9b 3b 00
        E 15 9b 47 7f
        E 0 9b 3b 7f
        E 15 9b 47 00
        E 0 9b 3b 00
        E 15 9b 47 7f
        E 0 9b 3b 7f
        E 15 9b 47 00
        E 0 9b 3b 00
        E 15 9b 47 7f
        E 0 9b 3b 7f
        E 45 9b 47 00
        E 0 9b 3b 00
        E 15 9b 4c 7f
        E 0 9b 40 7f
        E 15 9b 4c 00
        E 0 9b 40 00
        E 15 9b 4c 7f
        E 0 9b 40 7f
        E 15 9b 4c 00
        E 0 9b 40 00
        E 15 9b 47 7f
        E 0 9b 3b 7f
        E 15 9b 47 00
        E 0 9b 3b 00
        E 15 9b 47 7f
        E 0 9b 3b 7f
        E 15 9b 47 00
        E 0 9b 3b 00
        E 15 9b 47 7f
        E 0 9b 3b 7f
        E 15 9b 47 00
        E 0 9b 3b 00
        E 15 9b 47 7f
        E 0 9b 3b 7f
        E 15 9b 47 00
        E 0 9b 3b 00
        E 15 9b 47 7f
        E 0 9b 3b 7f
        E 45 9b 47 00
        E 0 9b 3b 00
        E 15 9b 47 7f
        E 0 9b 3b 7f
        E 15 9b 47 00
        E 0 9b 3b 00
        E 15 9b 47 7f
        E 0 9b 3b 7f
        E 15 9b 47 00
        E 0 9b 3b 00
        E 15 9b 47 7f
        E 0 9b 3b 7f
        E 15 9b 47 00
        E 0 9b 3b 00
        E 15 9b 47 7f
        E 0 9b 3b 7f
        E 15 9b 47 00
        E 0 9b 3b 00
        E 15 9b 47 7f
        E 0 9b 3b 7f
        E 15 9b 47 00
        E 0 9b 3b 00
        E 15 9b 47 7f
        E 0 9b 3b 7f
        E 15 9b 47 00
        E 0 9b 3b 00
        E 15 9b 47 7f
        E 0 9b 3b 7f
        E 45 9b 47 00
        E 0 9b 3b 00
        E 15 9b 4c 7f
        E 0 9b 40 7f
        E 15 9b 4c 00
        E 0 9b 40 00
        E 15 9b 4c 7f
        E 0 9b 40 7f
        E 15 9b 4c 00
        E 0 9b 40 00
        E 15 9b 47 7f
        E 0 9b 3b 7f
        E 15 9b 47 00
        E 0 9b 3b 00
        E 15 9b 47 7f
        E 0 9b 3b 7f
        E 15 9b 47 00
        E 0 9b 3b 00
        E 15 9b 47 7f
        E 0 9b 3b 7f
        E 15 9b 47 00
        E 0 9b 3b 00
        E 15 9b 47 7f
        E 0 9b 3b 7f
        E 15 9b 47 00
        E 0 9b 3b 00
        E 15 9b 47 7f
        E 0 9b 3b 7f
        E 45 9b 47 00
        E 0 9b 3b 00
        E 15 9b 47 7f
        E 0 9b 3b 7f
        E 15 9b 47 00
        E 0 9b 3b 00
        E 15 9b 47 7f
        E 0 9b 3b 7f
        E 15 9b 47 00
        E 0 9b 3b 00
        E 15 9b 47 7f
        E 0 9b 3b 7f
        E 15 9b 47 00
        E 0 9b 3b 00
        E 15 9b 47 7f
        E 0 9b 3b 7f
        E 15 9b 47 00
        E 0 9b 3b 00
        E 15 9b 47 7f
        E 0 9b 3b 7f
        E 15 9b 47 00
        E 0 9b 3b 00
        E 15 9b 47 7f
        E 0 9b 3b 7f
        E 15 9b 47 00
        E 0 9b 3b 00
        E 15 9b 47 7f
        E 0 9b 3b 7f
        E 45 9b 47 00
        E 0 9b 3b 00
        E 15 9b 4c 7f
        E 0 9b 40 7f
        E 15 9b 4c 00
        E 0 9b 40 00
        E 15 9b 4c 7f
        E 0 9b 40 7f
        E 15 9b 4c 00
        E 0 9b 40 00
        E 15 9b 4c 7f
        E 0 9b 40 7f
        E 15 9b 4c 00
        E 0 9b 40 00
        E 15 9b 4c 7f
        E 0 9b 40 7f
        E 15 9b 4c 00
        E 0 9b 40 00
        E 15 9b 4c 7f
        E 0 9b 40 7f
        E 15 9b 4c 00
        E 0 9b 40 00
        E 15 9b 4c 7f
        E 0 9b 40 7f
        E 15 9b 4c 00
        E 0 9b 40 00
        E 15 9b 4c 7f
        E 0 9b 40 7f
        E 45 9b 4c 00
        E 0 9b 40 00
        E 15 9b 4a 7f
        E 0 9b 3e 7f
        E 15 9b 4a 00
        E 0 9b 3e 00
        E 15 9b 4a 7f
        E 0 9b 3e 7f
        E 15 9b 4a 00
        E 0 9b 3e 00
        E 15 9b 4a 7f
        E 0 9b 3e 7f
        E 15 9b 4a 00
        E 0 9b 3e 00
        E 15 9b 4a 7f
        E 0 9b 3e 7f
        E 15 9b 4a 00
        E 0 9b 3e 00
        E 15 9b 4a 7f
        E 0 9b 3e 7f
        E 15 9b 4a 00
        E 0 9b 3e 00
        E 15 9b 4a 7f
        E 0 9b 3e 7f
        E 15 9b 4a 00
        E 0 9b 3e 00
        E 15 9b 4a 7f
        E 0 9b 3e 7f
        E 45 9b 4a 00
        E 0 9b 3e 00
        E 15 9b 45 7f
        E 0 9b 39 7f
        E 15 9b 45 00
        E 0 9b 39 00
        E 15 9b 45 7f
        E 0 9b 39 7f
        E 15 9b 45 00
        E 0 9b 39 00
        E 15 9b 47 7f
        E 0 9b 3b 7f
        E 15 9b 47 00
        E 0 9b 3b 00
        E 15 9b 47 7f
        E 0 9b 3b 7f
        E 15 9b 47 00
        E 0 9b 3b 00
        E 15 9b 47 7f
        E 0 9b 3b 7f
        E 15 9b 47 00
        E 0 9b 3b 00
        E 15 9b 47 7f
        E 0 9b 3b 7f
        E 15 9b 47 00
        E 0 9b 3b 00
        E 15 9b 47 7f
        E 0 9b 3b 7f
        E 45 9b 47 00
        E 0 9b 3b 00
        E 15 9b 47 7f
        E 0 9b 3b 7f
        E 15 9b 47 00
        E 0 9b 3b 00
        E 15 9b 47 7f
        E 0 9b 3b 7f
        E 15 9b 47 00
        E 0 9b 3b 00
        E 15 9b 47 7f
        E 0 9b 3b 7f
        E 15 9b 47 00
        E 0 9b 3b 00
        E 15 9b 47 7f
        E 0 9b 3b 7f
        E 15 9b 47 00
        E 0 9b 3b 00
        E 15 9b 47 7f
        E 0 9b 3b 7f
        E 15 9b 47 00
        E 0 9b 3b 00
        E 15 9b 47 7f
        E 0 9b 3b 7f
        E 15 9b 47 00
        E 0 9b 3b 00
        E 15 9b 47 7f
        E 0 9b 3b 7f
        E 45 9b 47 00
        E 0 9b 3b 00
        E 15 9b 4c 7f
        E 0 9b 40 7f
        E 15 9b 4c 00
        E 0 9b 40 00
        E 15 9b 4c 7f
        E 0 9b 40 7f
        E 15 9b 4c 00
        E 0 9b 40 00
        E 15 9b 47 7f
        E 0 9b 3b 7f
        E 15 9b 47 00
        E 0 9b 3b 00
        E 15 9b 47 7f
        E 0 9b 3b 7f
        E 15 9b 47 00
        E 0 9b 3b 00
        E 15 9b 47 7f
        E 0 9b 3b 7f
        E 15 9b 47 00
        E 0 9b 3b 00
        E 15 9b 47 7f
        E 0 9b 3b 7f
        E 15 9b 47 00
        E 0 9b 3b 00
        E 15 9b 47 7f
        E 0 9b 3b 7f
        E 45 9b 47 00
        E 0 9b 3b 00
        E 15 9b 47 7f
        E 0 9b 3b 7f
        E 15 9b 47 00
        E 0 9b 3b 00
        E 15 9b 47 7f
        E 0 9b 3b 7f
        E 15 9b 47 00
        E 0 9b 3b 00
        E 15 9b 47 7f
        E 0 9b 3b 7f
        E 15 9b 47 00
        E 0 9b 3b 00
        E 15 9b 47 7f
        E 0 9b 3b 7f
        E 15 9b 47 00
        E 0 9b 3b 00
        E 15 9b 47 7f
        E 0 9b 3b 7f
        E 15 9b 47 00
        E 0 9b 3b 00
        E 15 9b 47 7f
        E 0 9b 3b 7f
        E 15 9b 47 00
        E 0 9b 3b 00
        E 15 9b 47 7f
        E 0 9b 3b 7f
        E 45 9b 47 00
        E 0 9b 3b 00
        E 15 9b 4c 7f
        E 0 9b 40 7f
        E 15 9b 4c 00
        E 0 9b 40 00
        E 15 9b 4c 7f
        E 0 9b 40 7f
        E 15 9b 4c 00
        E 0 9b 40 00
        E 15 9b 47 7f
        E 0 9b 3b 7f
        E 15 9b 47 00
        E 0 9b 3b 00
        E 15 9b 47 7f
        E 0 9b 3b 7f
        E 15 9b 47 00
        E 0 9b 3b 00
        E 15 9b 47 7f
        E 0 9b 3b 7f
        E 15 9b 47 00
        E 0 9b 3b 00
        E 15 9b 47 7f
        E 0 9b 3b 7f
        E 15 9b 47 00
        E 0 9b 3b 00
        E 15 9b 47 7f
        E 0 9b 3b 7f
        E 45 9b 47 00
        E 0 9b 3b 00
        E 15 9b 47 7f
        E 0 9b 3b 7f
        E 15 9b 47 00
        E 0 9b 3b 00
        E 15 9b 47 7f
        E 0 9b 3b 7f
        E 15 9b 47 00
        E 0 9b 3b 00
        E 15 9b 47 7f
        E 0 9b 3b 7f
        E 15 9b 47 00
        E 0 9b 3b 00
        E 15 9b 47 7f
        E 0 9b 3b 7f
        E 15 9b 47 00
        E 0 9b 3b 00
        E 15 9b 47 7f
        E 0 9b 3b 7f
        E 15 9b 47 00
        E 0 9b 3b 00
        E 15 9b 47 7f
        E 0 9b 3b 7f
        E 15 9b 47 00
        E 0 9b 3b 00
        E 15 9b 47 7f
        E 0 9b 3b 7f
        E 45 9b 47 00
        E 0 9b 3b 00
        E 15 9b 4a 7f
        E 0 9b 3e 7f
        E 45 9b 4a 00
        E 0 9b 3e 00
        E 15 9b 47 7f
        E 0 9b 3b 7f
        E 15 9b 47 00
        E 0 9b 3b 00
        E 15 9b 47 7f
        E 0 9b 3b 7f
        E 15 9b 47 00
        E 0 9b 3b 00
        E 15 9b 47 7f
        E 0 9b 3b 7f
        E 15 9b 47 00
        E 0 9b 3b 00
        E 15 9b 47 7f
        E 0 9b 3b 7f
        E 15 9b 47 00
        E 0 9b 3b 00
        E 15 9b 47 7f
        E 0 9b 3b 7f
        E 45 9b 47 00
        E 0 9b 3b 00
        E 15 9b 47 7f
        E 0 9b 3b 7f
        E 15 9b 47 00
        E 0 9b 3b 00
        E 15 9b 47 7f
        E 0 9b 3b 7f
        E 15 9b 47 00
        E 0 9b 3b 00
        E 15 9b 47 7f
        E 0 9b 3b 7f
        E 15 9b 47 00
        E 0 9b 3b 00
        E 15 9b 47 7f
        E 0 9b 3b 7f
        E 15 9b 47 00
        E 0 9b 3b 00
        E 15 9b 47 7f
        E 0 9b 3b 7f
        E 15 9b 47 00
        E 0 9b 3b 00
        E 15 9b 47 7f
        E 0 9b 3b 7f
        E 15 9b 47 00
        E 0 9b 3b 00
        E 15 9b 4a 7f
        E 0 9b 3e 7f
        E 45 9b 4a 00
        E 0 9b 3e 00
        E 15 9b 4a 7f
        E 0 9b 3e 7f
        E 45 9b 4a 00
        E 0 9b 3e 00
        E 15 9b 47 7f
        E 0 9b 3b 7f
        E 15 9b 47 00
        E 0 9b 3b 00
        E 15 9b 47 7f
        E 0 9b 3b 7f
        E 15 9b 47 00
        E 0 9b 3b 00
        E 15 9b 47 7f
        E 0 9b 3b 7f
        E 15 9b 47 00
        E 0 9b 3b 00
        E 15 9b 47 7f
        E 0 9b 3b 7f
        E 15 9b 47 00
        E 0 9b 3b 00
        E 15 9b 47 7f
        E 0 9b 3b 7f
        E 45 9b 47 00
        E 0 9b 3b 00
        E 15 9b 47 7f
        E 0 9b 3b 7f
        E 15 9b 47 00
        E 0 9b 3b 00
        E 15 9b 47 7f
        E 0 9b 3b 7f
        E 15 9b 47 00
        E 0 9b 3b 00
        E 15 9b 47 7f
        E 0 9b 3b 7f
        E 15 9b 47 00
        E 0 9b 3b 00
        E 15 9b 47 7f
        E 0 9b 3b 7f
        E 15 9b 47 00
        E 0 9b 3b 00
        E 15 9b 47 7f
        E 0 9b 3b 7f
        E 15 9b 47 00
        E 0 9b 3b 00
        E 15 9b 47 7f
        E 0 9b 3b 7f
        E 15 9b 47 00
        E 0 9b 3b 00
        E 15 9b 47 7f
        E 0 9b 3b 7f
        E 45 9b 47 00
        E 0 9b 3b 00
        E 15 9b 4c 7f
        E 0 9b 40 7f
        E 15 9b 4c 00
        E 0 9b 40 00
        E 15 9b 4c 7f
        E 0 9b 40 7f
        E 15 9b 4c 00
        E 0 9b 40 00
        E 15 9b 4c 7f
        E 0 9b 40 7f
        E 15 9b 4c 00
        E 0 9b 40 00
        E 15 9b 4c 7f
        E 0 9b 40 7f
        E 15 9b 4c 00
        E 0 9b 40 00
        E 15 9b 4c 7f
        E 0 9b 40 7f
        E 15 9b 4c 00
        E 0 9b 40 00
        E 15 9b 4c 7f
        E 0 9b 40 7f
        E 15 9b 4c 00
        E 0 9b 40 00
        E 15 9b 4c 7f
        E 0 9b 40 7f
        E 45 9b 4c 00
        E 0 9b 40 00
        E 15 9b 4a 7f
        E 0 9b 3e 7f
        E 15 9b 4a 00
        E 0 9b 3e 00
        E 15 9b 4a 7f
        E 0 9b 3e 7f
        E 15 9b 4a 00
        E 0 9b 3e 00
        E 15 9b 4a 7f
        E 0 9b 3e 7f
        E 15 9b 4a 00
        E 0 9b 3e 00
        E 15 9b 4a 7f
        E 0 9b 3e 7f
        E 15 9b 4a 00
        E 0 9b 3e 00
        E 15 9b 4a 7f
        E 0 9b 3e 7f
        E 15 9b 4a 00
        E 0 9b 3e 00
        E 15 9b 4a 7f
        E 0 9b 3e 7f
        E 15 9b 4a 00
        E 0 9b 3e 00
        E 15 9b 4a 7f
        E 0 9b 3e 7f
        E 45 9b 4a 00
        E 0 9b 3e 00
        E 15 9b 45 7f
        E 0 9b 39 7f
        E 45 9b 45 00
        E 0 9b 39 00
        E 15 9b 47 7f
        E 0 9b 3b 7f
        E 15 9b 47 00
        E 0 9b 3b 00
        E 15 9b 47 7f
        E 0 9b 3b 7f
        E 15 9b 47 00
        E 0 9b 3b 00
        E 15 9b 47 7f
        E 0 9b 3b 7f
        E 15 9b 47 00
        E 0 9b 3b 00
        E 15 9b 47 7f
        E 0 9b 3b 7f
        E 15 9b 47 00
        E 0 9b 3b 00
        E 15 9b 47 7f
        E 0 9b 3b 7f
        E 45 9b 47 00
        E 0 9b 3b 00
        E 15 9b 47 7f
        E 0 9b 3b 7f
        E 15 9b 47 00
        E 0 9b 3b 00
        E 15 9b 47 7f
        E 0 9b 3b 7f
        E 15 9b 47 00
        E 0 9b 3b 00
        E 15 9b 47 7f
        E 0 9b 3b 7f
        E 15 9b 47 00
        E 0 9b 3b 00
        E 15 9b 47 7f
        E 0 9b 3b 7f
        E 15 9b 47 00
        E 0 9b 3b 00
        E 15 9b 47 7f
        E 0 9b 3b 7f
        E 15 9b 47 00
        E 0 9b 3b 00
        E 15 9b 47 7f
        E 0 9b 3b 7f
        E 15 9b 47 00
        E 0 9b 3b 00
        E 15 9b 47 7f
        E 0 9b 3b 7f
        E 45 9b 47 00
        E 0 9b 3b 00
        E 15 9b 4a 7f
        E 0 9b 3e 7f
        E 45 9b 4a 00
        E 0 9b 3e 00
        E 15 9b 47 7f
        E 0 9b 3b 7f
        E 15 9b 47 00
        E 0 9b 3b 00
        E 15 9b 47 7f
        E 0 9b 3b 7f
        E 15 9b 47 00
        E 0 9b 3b 00
        E 15 9b 47 7f
        E 0 9b 3b 7f
        E 15 9b 47 00
        E 0 9b 3b 00
        E 15 9b 47 7f
        E 0 9b 3b 7f
        E 15 9b 47 00
        E 0 9b 3b 00
        E 15 9b 47 7f
        E 0 9b 3b 7f
        E 45 9b 47 00
        E 0 9b 3b 00
        E 15 9b 47 7f
        E 0 9b 3b 7f
        E 15 9b 47 00
        E 0 9b 3b 00
        E 15 9b 47 7f
        E 0 9b 3b 7f
        E 15 9b 47 00
        E 0 9b 3b 00
        E 15 9b 47 7f
        E 0 9b 3b 7f
        E 15 9b 47 00
        E 0 9b 3b 00
        E 15 9b 47 7f
        E 0 9b 3b 7f
        E 15 9b 47 00
        E 0 9b 3b 00
        E 15 9b 47 7f
        E 0 9b 3b 7f
        E 15 9b 47 00
        E 0 9b 3b 00
        E 15 9b 47 7f
        E 0 9b 3b 7f
        E 15 9b 47 00
        E 0 9b 3b 00
        E 15 9b 4a 7f
        E 0 9b 3e 7f
        E 45 9b 4a 00
        E 0 9b 3e 00
        E 15 9b 4a 7f
        E 0 9b 3e 7f
        E 45 9b 4a 00
        E 0 9b 3e 00
        E 15 9b 47 7f
        E 0 9b 3b 7f
        E 15 9b 47 00
        E 0 9b 3b 00
        E 15 9b 47 7f
        E 0 9b 3b 7f
        E 15 9b 47 00
        E 0 9b 3b 00
        E 15 9b 47 7f
        E 0 9b 3b 7f
        E 15 9b 47 00
        E 0 9b 3b 00
        E 15 9b 47 7f
        E 0 9b 3b 7f
        E 15 9b 47 00
        E 0 9b 3b 00
        E 15 9b 47 7f
        E 0 9b 3b 7f
        E 45 9b 47 00
        E 0 9b 3b 00
        E 15 9b 47 7f
        E 0 9b 3b 7f
        E 15 9b 47 00
        E 0 9b 3b 00
        E 15 9b 47 7f
        E 0 9b 3b 7f
        E 15 9b 47 00
        E 0 9b 3b 00
        E 15 9b 47 7f
        E 0 9b 3b 7f
        E 15 9b 47 00
        E 0 9b 3b 00
        E 15 9b 47 7f
        E 0 9b 3b 7f
        E 15 9b 47 00
        E 0 9b 3b 00
        E 15 9b 47 7f
        E 0 9b 3b 7f
        E 15 9b 47 00
        E 0 9b 3b 00
        E 15 9b 47 7f
        E 0 9b 3b 7f
        E 15 9b 47 00
        E 0 9b 3b 00
        E 15 9b 47 7f
        E 0 9b 3b 7f
        E 45 9b 47 00
        E 0 9b 3b 00
        E 15 9b 4c 7f
        E 0 9b 40 7f
        E 15 9b 4c 00
        E 0 9b 40 00
        E 15 9b 4c 7f
        E 0 9b 40 7f
        E 15 9b 4c 00
        E 0 9b 40 00
        E 15 9b 4c 7f
        E 0 9b 40 7f
        E 15 9b 4c 00
        E 0 9b 40 00
        E 15 9b 4c 7f
        E 0 9b 40 7f
        E 15 9b 4c 00
        E 0 9b 40 00
        E 15 9b 4c 7f
        E 0 9b 40 7f
        E 15 9b 4c 00
        E 0 9b 40 00
        E 15 9b 4c 7f
        E 0 9b 40 7f
        E 15 9b 4c 00
        E 0 9b 40 00
        E 15 9b 4c 7f
        E 0 9b 40 7f
        E 45 9b 4c 00
        E 0 9b 40 00
        E 15 9b 4a 7f
        E 0 9b 3e 7f
        E 15 9b 4a 00
        E 0 9b 3e 00
        E 15 9b 4a 7f
        E 0 9b 3e 7f
        E 15 9b 4a 00
        E 0 9b 3e 00
        E 15 9b 4a 7f
        E 0 9b 3e 7f
        E 15 9b 4a 00
        E 0 9b 3e 00
        E 15 9b 4a 7f
        E 0 9b 3e 7f
        E 15 9b 4a 00
        E 0 9b 3e 00
        E 15 9b 4a 7f
        E 0 9b 3e 7f
        E 15 9b 4a 00
        E 0 9b 3e 00
        E 15 9b 4a 7f
        E 0 9b 3e 7f
        E 15 9b 4a 00
        E 0 9b 3e 00
        E 15 9b 4a 7f
        E 0 9b 3e 7f
        E 45 9b 4a 00
        E 0 9b 3e 00
        E 15 9b 45 7f
        E 0 9b 39 7f
        E 45 9b 45 00
        E 0 9b 39 00
        E 15 9b 47 7f
        E 0 9b 3b 7f
        E 15 9b 47 00
        E 0 9b 3b 00
        E 15 9b 47 7f
        E 0 9b 3b 7f
        E 15 9b 47 00
        E 0 9b 3b 00
        E 15 9b 47 7f
        E 0 9b 3b 7f
        E 15 9b 47 00
        E 0 9b 3b 00
        E 15 9b 47 7f
        E 0 9b 3b 7f
        E 15 9b 47 00
        E 0 9b 3b 00
        E 15 9b 47 7f
        E 0 9b 3b 7f
        E 45 9b 47 00
        E 0 9b 3b 00
        E 15 9b 47 7f
        E 0 9b 3b 7f
        E 15 9b 47 00
        E 0 9b 3b 00
        E 15 9b 47 7f
        E 0 9b 3b 7f
        E 15 9b 47 00
        E 0 9b 3b 00
        E 15 9b 47 7f
        E 0 9b 3b 7f
        E 15 9b 47 00
        E 0 9b 3b 00
        E 15 9b 47 7f
        E 0 9b 3b 7f
        E 15 9b 47 00
        E 0 9b 3b 00
        E 15 9b 47 7f
        E 0 9b 3b 7f
        E 15 9b 47 00
        E 0 9b 3b 00
        E 15 9b 47 7f
        E 0 9b 3b 7f
        E 15 9b 47 00
        E 0 9b 3b 00
        E 15 9b 4a 7f
        E 0 9b 3e 7f
        E 45 9b 4a 00
        E 0 9b 3e 00
        E 15 9b 4a 7f
        E 0 9b 3e 7f
        E 45 9b 4a 00
        E 0 9b 3e 00
        E 15 9b 47 7f
        E 0 9b 3b 7f
        E 15 9b 47 00
        E 0 9b 3b 00
        E 15 9b 47 7f
        E 0 9b 3b 7f
        E 15 9b 47 00
        E 0 9b 3b 00
        E 15 9b 47 7f
        E 0 9b 3b 7f
        E 15 9b 47 00
        E 0 9b 3b 00
        E 15 9b 47 7f
        E 0 9b 3b 7f
        E 15 9b 47 00
        E 0 9b 3b 00
        E 15 9b 47 7f
        E 0 9b 3b 7f
        E 45 9b 47 00
        E 0 9b 3b 00
        E 15 9b 47 7f
        E 0 9b 3b 7f
        E 15 9b 47 00
        E 0 9b 3b 00
        E 15 9b 47 7f
        E 0 9b 3b 7f
        E 15 9b 47 00
        E 0 9b 3b 00
        E 15 9b 47 7f
        E 0 9b 3b 7f
        E 15 9b 47 00
        E 0 9b 3b 00
        E 15 9b 47 7f
        E 0 9b 3b 7f
        E 15 9b 47 00
        E 0 9b 3b 00
        E 15 9b 47 7f
        E 0 9b 3b 7f
        E 15 9b 47 00
        E 0 9b 3b 00
        E 15 9b 47 7f
        E 0 9b 3b 7f
        E 15 9b 47 00
        E 0 9b 3b 00
        E 15 9b 4a 7f
        E 0 9b 3e 7f
        E 45 9b 4a 00
        E 0 9b 3e 00
        E 15 9b 4a 7f
        E 0 9b 3e 7f
        E 45 9b 4a 00
        E 0 9b 3e 00
        E 15 9b 47 7f
        E 0 9b 3b 7f
        E 15 9b 47 00
        E 0 9b 3b 00
        E 15 9b 47 7f
        E 0 9b 3b 7f
        E 15 9b 47 00
        E 0 9b 3b 00
        E 15 9b 47 7f
        E 0 9b 3b 7f
        E 15 9b 47 00
        E 0 9b 3b 00
        E 15 9b 47 7f
        E 0 9b 3b 7f
        E 15 9b 47 00
        E 0 9b 3b 00
        E 15 9b 4a 7f
        E 0 9b 3e 7f
        E 45 9b 4a 00
        E 0 9b 3e 00
        E 15 9b 4a 7f
        E 0 9b 3e 7f
        E 45 9b 4a 00
        E 0 9b 3e 00
        E 15 9b 47 7f
        E 0 9b 3b 7f
        E 15 9b 47 00
        E 0 9b 3b 00
        E 15 9b 47 7f
        E 0 9b 3b 7f
        E 15 9b 47 00
        E 0 9b 3b 00
        E 15 9b 47 7f
        E 0 9b 3b 7f
        E 15 9b 47 00
        E 0 9b 3b 00
        E 15 9b 47 7f
        E 0 9b 3b 7f
        E 15 9b 47 00
        E 0 9b 3b 00
        E 15 9b 4a 7f
        E 0 9b 3e 7f
        E 45 9b 4a 00
        E 0 9b 3e 00
        E 15 9b 4a 7f
        E 0 9b 3e 7f
        E 45 9b 4a 00
        E 0 9b 3e 00
        E 15 9b 47 7f
        E 0 9b 3b 7f
        E 15 9b 47 00
        E 0 9b 3b 00
        E 15 9b 47 7f
        E 0 9b 3b 7f
        E 15 9b 47 00
        E 0 9b 3b 00
        E 15 9b 4a 7f
        E 0 9b 3e 7f
        E 45 9b 4a 00
        E 0 9b 3e 00
        E 15 9b 47 7f
        E 0 9b 3b 7f
        E 15 9b 47 00
        E 0 9b 3b 00
        E 15 9b 47 7f
        E 0 9b 3b 7f
        E 15 9b 47 00
        E 0 9b 3b 00
        E 15 9b 4a 7f
        E 0 9b 3e 7f
        E 45 9b 4a 00
        E 0 9b 3e 00
        E 15 9b 47 7f
        E 0 9b 3b 7f
        E 15 9b 47 00
        E 0 9b 3b 00
        E 15 9b 47 7f
        E 0 9b 3b 7f
        E 15 9b 47 00
        E 0 9b 3b 00
        E 15 9b 4a 7f
        E 0 9b 3e 7f
        E 45 9b 4a 00
        E 0 9b 3e 00
        E 15 9b 47 7f
        E 0 9b 3b 7f
        E 15 9b 47 00
        E 0 9b 3b 00
        E 15 9b 47 7f
        E 0 9b 3b 7f
        E 15 9b 47 00
        E 0 9b 3b 00
        E 15 9b 4a 7f
        E 0 9b 3e 7f
        E 45 9b 4a 00
        E 0 9b 3e 00
        E 7695 9b 3b 64
        E 0 9b 47 64
        E 15 9b 3b 00
        E 0 9b 47 00
        E 15 9b 3b 64
        E 0 9b 47 64
        E 15 9b 3b 00
        E 0 9b 47 00
        E 15 9b 3b 64
        E 0 9b 47 64
        E 15 9b 3b 00
        E 0 9b 47 00
        E 15 9b 3b 64
        E 0 9b 47 64
        E 15 9b 3b 00
        E 0 9b 47 00
        E 15 9b 47 64
        E 0 9b 3b 64
        E 60 9b 47 00
        E 0 9b 3b 00
        E 660 9b 3e 64
        E 0 9b 4a 64
        E 60 9b 3e 00
        E 0 9b 4a 00
        E 60 9b 47 64
        E 0 9b 3b 64
        E 15 9b 47 00
        E 0 9b 3b 00
        E 15 9b 3b 64
        E 0 9b 47 64
        E 15 9b 3b 00
        E 0 9b 47 00
        E 15 9b 3b 64
        E 0 9b 47 64
        E 15 9b 3b 00
        E 0 9b 47 00
        E 15 9b 3b 64
        E 0 9b 47 64
        E 15 9b 3b 00
        E 0 9b 47 00
        E 15 9b 3b 64
        E 0 9b 47 64
        E 60 9b 3b 00
        E 0 9b 47 00
        E 780 9b 47 64
        E 0 9b 3b 64
        E 15 9b 47 00
        E 0 9b 3b 00
        E 15 9b 3b 64
        E 0 9b 47 64
        E 15 9b 3b 00
        E 0 9b 47 00
        E 15 9b 47 64
        E 0 9b 3b 64
        E 15 9b 47 00
        E 0 9b 3b 00
        E 15 9b 3b 64
        E 0 9b 47 64
        E 15 9b 3b 00
        E 0 9b 47 00
        E 15 9b 3b 64
        E 0 9b 47 64
        E 60 9b 3b 00
        E 0 9b 47 00
        E 660 9b 3e 64
        E 0 9b 4a 64
        E 45 9b 3e 00
        E 0 9b 4a 00
        E 75 9b 40 64
        E 0 9b 4c 64
        E 15 9b 40 00
        E 0 9b 4c 00
        E 15 9b 4c 64
        E 0 9b 40 64
        E 15 9b 4c 00
        E 0 9b 40 00
        E 15 9b 40 64
        E 0 9b 4c 64
        E 15 9b 40 00
        E 0 9b 4c 00
        E 15 9b 4c 64
        E 0 9b 40 64
        E 15 9b 4c 00
        E 0 9b 40 00
        E 15 9b 40 64
        E 0 9b 4c 64
        E 45 9b 40 00
        E 0 9b 4c 00
        E 15 9b 3e 64
        E 0 9b 4a 64
        E 30 9b 3e 00
        E 0 9b 4a 00
        E 750 9b 47 64
        E 0 9b 3b 64
        E 15 9b 47 00
        E 0 9b 3b 00
        E 15 9b 3b 64
        E 0 9b 47 64
        E 15 9b 3b 00
        E 0 9b 47 00
        E 15 9b 47 64
        E 0 9b 3b 64
        E 15 9b 47 00
        E 0 9b 3b 00
        E 15 9b 3b 64
        E 0 9b 47 64
        E 15 9b 3b 00
        E 0 9b 47 00
        E 15 9b 3b 64
        E 0 9b 47 64
        E 60 9b 3b 00
        E 0 9b 47 00
        E 300 9b 3b 64
        E 0 9b 47 64
        E 15 9b 3b 00
        E 0 9b 47 00
        E 15 9b 3b 64
        E 0 9b 47 64
        E 15 9b 3b 00
        E 0 9b 47 00
        E 15 9b 47 64
        E 0 9b 3b 64
        E 15 9b 47 00
        E 0 9b 3b 00
        E 15 9b 3b 64
        E 0 9b 47 64
        E 15 9b 3b 00
        E 0 9b 47 00
        E 15 9b 47 64
        E 0 9b 3b 64
        E 60 9b 47 00
        E 0 9b 3b 00
        E 300 9b 3b 64
        E 0 9b 47 64
        E 15 9b 3b 00
        E 0 9b 47 00
        E 15 9b 3b 64
        E 0 9b 47 64
        E 15 9b 3b 00
        E 0 9b 47 00
        E 15 9b 47 64
        E 0 9b 3b 64
        E 15 9b 47 00
        E 0 9b 3b 00
        E 15 9b 47 64
        E 0 9b 3b 64
        E 15 9b 47 00
        E 0 9b 3b 00
        E 15 9b 3b 64
        E 0 9b 47 64
        E 60 9b 3b 00
        E 0 9b 47 00
        E 300 9b 47 64
        E 0 9b 3b 64
        E 15 9b 47 00
        E 0 9b 3b 00
        E 15 9b 47 64
        E 0 9b 3b 64
        E 15 9b 47 00
        E 0 9b 3b 00
        E 15 9b 3b 64
        E 0 9b 47 64
        E 15 9b 3b 00
        E 0 9b 47 00
        E 15 9b 3b 64
        E 0 9b 47 64
        E 15 9b 3b 00
        E 0 9b 47 00
        E 15 9b 3b 64
        E 0 9b 47 64
        E 60 9b 3b 00
        E 0 9b 47 00
        E 240 9b 4a 64
        E 0 9b 3e 64
        E 45 9b 4a 00
        E 0 9b 3e 00
        E 15 9b 47 64
        E 0 9b 3b 64
        E 15 9b 47 00
        E 0 9b 3b 00
        E 15 9b 3b 64
        E 0 9b 47 64
        E 15 9b 3b 00
        E 0 9b 47 00
        E 15 9b 47 64
        E 0 9b 3b 64
        E 15 9b 47 00
        E 0 9b 3b 00
        E 15 9b 47 64
        E 0 9b 3b 64
        E 15 9b 47 00
        E 0 9b 3b 00
        E 15 9b 3b 64
        E 0 9b 47 64
        E 60 9b 3b 00
        E 0 9b 47 00
        E 60 9b 47 64
        E 0 9b 3b 64
        E 15 9b 47 00
        E 0 9b 3b 00
        E 15 9b 47 64
        E 0 9b 3b 64
        E 15 9b 47 00
        E 0 9b 3b 00
        E 15 9b 3b 64
        E 0 9b 47 64
        E 15 9b 3b 00
        E 0 9b 47 00
        E 15 9b 47 64
        E 0 9b 3b 64
        E 15 9b 47 00
        E 0 9b 3b 00
        E 15 9b 47 64
        E 0 9b 3b 64
        E 60 9b 47 00
        E 0 9b 3b 00
        E 60 9b 3b 64
        E 0 9b 47 64
        E 15 9b 3b 00
        E 0 9b 47 00
        E 15 9b 47 64
        E 0 9b 3b 64
        E 15 9b 47 00
        E 0 9b 3b 00
        E 15 9b 3b 64
        E 0 9b 47 64
        E 15 9b 3b 00
        E 0 9b 47 00
        E 15 9b 3b 64
        E 0 9b 47 64
        E 15 9b 3b 00
        E 0 9b 47 00
        E 15 9b 3b 64
        E 0 9b 47 64
        E 60 9b 3b 00
        E 0 9b 47 00
        E 60 9b 47 64
        E 0 9b 3b 64
        E 15 9b 47 00
        E 0 9b 3b 00
        E 15 9b 47 64
        E 0 9b 3b 64
        E 15 9b 47 00
        E 0 9b 3b 00
        E 15 9b 47 64
        E 0 9b 3b 64
        E 15 9b 47 00
        E 0 9b 3b 00
        E 15 9b 47 64
        E 0 9b 3b 64
        E 15 9b 47 00
        E 0 9b 3b 00
        E 15 9b 47 64
        E 0 9b 3b 64
        E 60 9b 47 00
        E 0 9b 3b 00
        E 60 9b 47 64
        E 0 9b 3b 64
        E 15 9b 47 00
        E 0 9b 3b 00
        E 15 9b 47 64
        E 0 9b 3b 64
        E 15 9b 47 00
        E 0 9b 3b 00
        E 15 9b 47 64
        E 0 9b 3b 64
        E 15 9b 47 00
        E 0 9b 3b 00
        E 15 9b 3b 64
        E 0 9b 47 64
        E 15 9b 3b 00
        E 0 9b 47 00
        E 15 9b 47 64
        E 0 9b 3b 64
        E 60 9b 47 00
        E 0 9b 3b 00
        E 60 9b 47 64
        E 0 9b 3b 64
        E 15 9b 47 00
        E 0 9b 3b 00
        E 15 9b 3b 64
        E 0 9b 47 64
        E 15 9b 3b 00
        E 0 9b 47 00
        E 15 9b 3b 64
        E 0 9b 47 64
        E 15 9b 3b 00
        E 0 9b 47 00
        E 15 9b 3b 64
        E 0 9b 47 64
        E 15 9b 3b 00
        E 0 9b 47 00
        E 15 9b 3b 64
        E 0 9b 47 64
        E 60 9b 3b 00
        E 0 9b 47 00
        E 60 9b 47 64
        E 0 9b 3b 64
        E 15 9b 47 00
        E 0 9b 3b 00
        E 15 9b 47 64
        E 0 9b 3b 64
        E 15 9b 47 00
        E 0 9b 3b 00
        E 15 9b 3b 64
        E 0 9b 47 64
        E 15 9b 3b 00
        E 0 9b 47 00
        E 15 9b 3b 64
        E 0 9b 47 64
        E 15 9b 3b 00
        E 0 9b 47 00
        E 15 9b 3b 64
        E 0 9b 47 64
        E 60 9b 3b 00
        E 0 9b 47 00
        E 60 9b 3b 64
        E 0 9b 47 64
        E 15 9b 3b 00
        E 0 9b 47 00
        E 15 9b 47 64
        E 0 9b 3b 64
        E 15 9b 47 00
        E 0 9b 3b 00
        E 15 9b 47 64
        E 0 9b 3b 64
        E 15 9b 47 00
        E 0 9b 3b 00
        E 15 9b 47 64
        E 0 9b 3b 64
        E 15 9b 47 00
        E 0 9b 3b 00
        E 15 9b 47 64
        E 0 9b 3b 64
        E 60 9b 47 00
        E 0 9b 3b 00
        E 60 9b 3b 64
        E 0 9b 47 64
        E 15 9b 3b 00
        E 0 9b 47 00
        E 15 9b 3b 64
        E 0 9b 47 64
        E 15 9b 3b 00
        E 0 9b 47 00
        E 15 9b 47 64
        E 0 9b 3b 64
        E 15 9b 47 00
        E 0 9b 3b 00
        E 15 9b 47 64
        E 0 9b 3b 64
        E 15 9b 47 00
        E 0 9b 3b 00
        E 15 9b 47 64
        E 0 9b 3b 64
        E 15 9b 47 00
        E 0 9b 3b 00
        E 15 9b 3b 64
        E 0 9b 47 64
        E 15 9b 3b 00
        E 0 9b 47 00
        E 15 9b 47 64
        E 0 9b 3b 64
        E 15 9b 47 00
        E 0 9b 3b 00
        E 15 9b 47 64
        E 0 9b 3b 64
        E 15 9b 47 00
        E 0 9b 3b 00
        E 15 9b 47 64
        E 0 9b 3b 64
        E 15 9b 47 00
        E 0 9b 3b 00
        E 15 9b 3b 64
        E 0 9b 47 64
        E 15 9b 3b 00
        E 0 9b 47 00
        E 15 9b 3b 64
        E 0 9b 47 64
        E 15 9b 3b 00
        E 0 9b 47 00
        E 15 9b 3b 64
        E 0 9b 47 64
        E 15 9b 3b 00
        E 0 9b 47 00
        E 15 9b 3b 64
        E 0 9b 47 64
        E 15 9b 3b 00
        E 0 9b 47 00
        E 15 9b 3b 64
        E 0 9b 47 64
        E 15 9b 3b 00
        E 0 9b 47 00
        E 15 9b 47 64
        E 0 9b 3b 64
        E 15 9b 47 00
        E 0 9b 3b 00
        E 15 9b 47 64
        E 0 9b 3b 64
        E 15 9b 47 00
        E 0 9b 3b 00
        E 15 9b 3b 64
        E 0 9b 47 64
        E 15 9b 3b 00
        E 0 9b 47 00
        E 15 9b 3b 64
        E 0 9b 47 64
        E 15 9b 3b 00
        E 0 9b 47 00
        E 15 9b 3b 64
        E 0 9b 47 64
        E 15 9b 3b 00
        E 0 9b 47 00
        E 15 9b 47 64
        E 0 9b 3b 64
        E 15 9b 47 00
        E 0 9b 3b 00
        E 15 9b 3b 64
        E 0 9b 47 64
        E 15 9b 3b 00
        E 0 9b 47 00
        E 15 9b 47 64
        E 0 9b 3b 64
        E 15 9b 47 00
        E 0 9b 3b 00
        E 15 9b 3b 64
        E 0 9b 47 64
        E 15 9b 3b 00
        E 0 9b 47 00
        E 15 9b 47 64
        E 0 9b 3b 64
        E 15 9b 47 00
        E 0 9b 3b 00
        E 15 9b 47 64
        E 0 9b 3b 64
        E 15 9b 47 00
        E 0 9b 3b 00
        E 15 9b 47 64
        E 0 9b 3b 64
        E 15 9b 47 00
        E 0 9b 3b 00
        E 15 9b 47 64
        E 0 9b 3b 64
        E 15 9b 47 00
        E 0 9b 3b 00
        E 15 9b 3b 64
        E 0 9b 47 64
        E 15 9b 3b 00
        E 0 9b 47 00
        E 15 9b 47 64
        E 0 9b 3b 64
        E 15 9b 47 00
        E 0 9b 3b 00
        E 15 9b 47 64
        E 0 9b 3b 64
        E 15 9b 47 00
        E 0 9b 3b 00
        E 15 9b 47 64
        E 0 9b 3b 64
        E 15 9b 47 00
        E 0 9b 3b 00
        E 15 9b 47 64
        E 0 9b 3b 64
        E 15 9b 47 00
        E 0 9b 3b 00
        E 15 9b 47 64
        E 0 9b 3b 64
        E 15 9b 47 00
        E 0 9b 3b 00
        E 15 9b 47 64
        E 0 9b 3b 64
        E 15 9b 47 00
        E 0 9b 3b 00
        E 15 9b 3b 64
        E 0 9b 47 64
        E 15 9b 3b 00
        E 0 9b 47 00
        E 15 9b 3b 64
        E 0 9b 47 64
        E 15 9b 3b 00
        E 0 9b 47 00
        E 15 9b 47 64
        E 0 9b 3b 64
        E 15 9b 47 00
        E 0 9b 3b 00
        E 15 9b 3b 64
        E 0 9b 47 64
        E 15 9b 3b 00
        E 0 9b 47 00
        E 15 9b 47 64
        E 0 9b 3b 64
        E 15 9b 47 00
        E 0 9b 3b 00
        E 15 9b 47 64
        E 0 9b 3b 64
        E 15 9b 47 00
        E 0 9b 3b 00
        E 15 9b 3b 64
        E 0 9b 47 64
        E 15 9b 3b 00
        E 0 9b 47 00
        E 15 9b 3b 64
        E 0 9b 47 64
        E 15 9b 3b 00
        E 0 9b 47 00
        E 15 9b 3b 64
        E 0 9b 47 64
        E 15 9b 3b 00
        E 0 9b 47 00
        E 15 9b 47 64
        E 0 9b 3b 64
        E 15 9b 47 00
        E 0 9b 3b 00
        E 15 9b 47 64
        E 0 9b 3b 64
        E 15 9b 47 00
        E 0 9b 3b 00
        E 15 9b 47 64
        E 0 9b 3b 64
        E 15 9b 47 00
        E 0 9b 3b 00
        E 15 9b 47 64
        E 0 9b 3b 64
        E 15 9b 47 00
        E 0 9b 3b 00
        E 15 9b 3b 64
        E 0 9b 47 64
        E 15 9b 3b 00
        E 0 9b 47 00
        E 15 9b 47 64
        E 0 9b 3b 64
        E 15 9b 47 00
        E 0 9b 3b 00
        E 15 9b 3b 64
        E 0 9b 47 64
        E 15 9b 3b 00
        E 0 9b 47 00
        E 15 9b 47 64
        E 0 9b 3b 64
        E 15 9b 47 00
        E 0 9b 3b 00
        E 15 9b 3b 64
        E 0 9b 47 64
        E 15 9b 3b 00
        E 0 9b 47 00
        E 15 9b 47 64
        E 0 9b 3b 64
        E 15 9b 47 00
        E 0 9b 3b 00
        E 15 9b 47 64
        E 0 9b 3b 64
        E 15 9b 47 00
        E 0 9b 3b 00
        E 15 9b 3b 64
        E 0 9b 47 64
        E 15 9b 3b 00
        E 0 9b 47 00
        E 15 9b 47 64
        E 0 9b 3b 64
        E 15 9b 47 00
        E 0 9b 3b 00
        E 15 9b 3b 64
        E 0 9b 47 64
        E 15 9b 3b 00
        E 0 9b 47 00
        E 15 9b 47 64
        E 0 9b 3b 64
        E 15 9b 47 00
        E 0 9b 3b 00
        E 15 9b 3b 64
        E 0 9b 47 64
        E 15 9b 3b 00
        E 0 9b 47 00
        E 15 9b 3b 64
        E 0 9b 47 64
        E 15 9b 3b 00
        E 0 9b 47 00
        E 15 9b 47 64
        E 0 9b 3b 64
        E 15 9b 47 00
        E 0 9b 3b 00
        E 15 9b 3b 64
        E 0 9b 47 64
        E 15 9b 3b 00
        E 0 9b 47 00
        E 15 9b 47 64
        E 0 9b 3b 64
        E 15 9b 47 00
        E 0 9b 3b 00
        E 15 9b 3b 64
        E 0 9b 47 64
        E 15 9b 3b 00
        E 0 9b 47 00
        E 15 9b 47 64
        E 0 9b 3b 64
        E 15 9b 47 00
        E 0 9b 3b 00
        E 15 9b 3b 64
        E 0 9b 47 64
        E 15 9b 3b 00
        E 0 9b 47 00
        E 15 9b 47 64
        E 0 9b 3b 64
        E 15 9b 47 00
        E 0 9b 3b 00
        E 15 9b 3b 64
        E 0 9b 47 64
        E 15 9b 3b 00
        E 0 9b 47 00
        E 15 9b 3b 64
        E 0 9b 47 64
        E 45 9b 3b 00
        E 0 9b 47 00
        E 15 9b 3b 64
        E 0 9b 47 64
        E 15 9b 3b 00
        E 0 9b 47 00
        E 15 9b 3b 64
        E 0 9b 47 64
        E 15 9b 3b 00
        E 0 9b 47 00
        E 15 9b 47 64
        E 0 9b 3b 64
        E 15 9b 47 00
        E 0 9b 3b 00
        E 15 9b 47 64
        E 0 9b 3b 64
        E 15 9b 47 00
        E 0 9b 3b 00
        E 15 9b 47 64
        E 0 9b 3b 64
        E 15 9b 47 00
        E 0 9b 3b 00
        E 15 9b 3b 64
        E 0 9b 47 64
        E 15 9b 3b 00
        E 0 9b 47 00
        E 15 9b 47 64
        E 0 9b 3b 64
        E 45 9b 47 00
        E 0 9b 3b 00
        E 15 9b 40 64
        E 0 9b 4c 64
        E 15 9b 40 00
        E 0 9b 4c 00
        E 15 9b 4c 64
        E 0 9b 40 64
        E 15 9b 4c 00
        E 0 9b 40 00
        E 15 9b 4c 64
        E 0 9b 40 64
        E 15 9b 4c 00
        E 0 9b 40 00
        E 15 9b 4c 64
        E 0 9b 40 64
        E 15 9b 4c 00
        E 0 9b 40 00
        E 15 9b 4c 64
        E 0 9b 40 64
        E 15 9b 4c 00
        E 0 9b 40 00
        E 15 9b 40 64
        E 0 9b 4c 64
        E 15 9b 40 00
        E 0 9b 4c 00
        E 15 9b 40 64
        E 0 9b 4c 64
        E 45 9b 40 00
        E 0 9b 4c 00
        E 15 9b 3e 64
        E 0 9b 4a 64
        E 15 9b 3e 00
        E 0 9b 4a 00
        E 15 9b 3e 64
        E 0 9b 4a 64
        E 15 9b 3e 00
        E 0 9b 4a 00
        E 15 9b 3e 64
        E 0 9b 4a 64
        E 15 9b 3e 00
        E 0 9b 4a 00
        E 15 9b 4a 64
        E 0 9b 3e 64
        E 15 9b 4a 00
        E 0 9b 3e 00
        E 15 9b 4a 64
        E 0 9b 3e 64
        E 15 9b 4a 00
        E 0 9b 3e 00
        E 15 9b 3e 64
        E 0 9b 4a 64
        E 15 9b 3e 00
        E 0 9b 4a 00
        E 15 9b 3e 64
        E 0 9b 4a 64
        E 45 9b 3e 00
        E 0 9b 4a 00
        E 15 9b 39 64
        E 0 9b 45 64
        E 15 9b 39 00
        E 0 9b 45 00
        E 15 9b 39 64
        E 0 9b 45 64
        E 15 9b 39 00
        E 0 9b 45 00
        E 15 9b 3b 64
        E 0 9b 47 64
        E 15 9b 3b 00
        E 0 9b 47 00
        E 15 9b 47 64
        E 0 9b 3b 64
        E 15 9b 47 00
        E 0 9b 3b 00
        E 15 9b 3b 64
        E 0 9b 47 64
        E 15 9b 3b 00
        E 0 9b 47 00
        E 15 9b 3b 64
        E 0 9b 47 64
        E 15 9b 3b 00
        E 0 9b 47 00
        E 15 9b 3b 64
        E 0 9b 47 64
        E 45 9b 3b 00
        E 0 9b 47 00
        E 15 9b 3b 64
        E 0 9b 47 64
        E 15 9b 3b 00
        E 0 9b 47 00
        E 15 9b 47 64
        E 0 9b 3b 64
        E 15 9b 47 00
        E 0 9b 3b 00
        E 15 9b 47 64
        E 0 9b 3b 64
        E 15 9b 47 00
        E 0 9b 3b 00
        E 15 9b 47 64
        E 0 9b 3b 64
        E 15 9b 47 00
        E 0 9b 3b 00
        E 15 9b 47 64
        E 0 9b 3b 64
        E 15 9b 47 00
        E 0 9b 3b 00
        E 15 9b 47 64
        E 0 9b 3b 64
        E 15 9b 47 00
        E 0 9b 3b 00
        E 15 9b 47 64
        E 0 9b 3b 64
        E 45 9b 47 00
        E 0 9b 3b 00
        E 15 9b 4c 64
        E 0 9b 40 64
        E 15 9b 4c 00
        E 0 9b 40 00
        E 15 9b 40 64
        E 0 9b 4c 64
        E 15 9b 40 00
        E 0 9b 4c 00
        E 15 9b 3b 64
        E 0 9b 47 64
        E 15 9b 3b 00
        E 0 9b 47 00
        E 15 9b 47 64
        E 0 9b 3b 64
        E 15 9b 47 00
        E 0 9b 3b 00
        E 15 9b 3b 64
        E 0 9b 47 64
        E 15 9b 3b 00
        E 0 9b 47 00
        E 15 9b 47 64
        E 0 9b 3b 64
        E 15 9b 47 00
        E 0 9b 3b 00
        E 15 9b 3b 64
        E 0 9b 47 64
        E 45 9b 3b 00
        E 0 9b 47 00
        E 15 9b 3b 64
        E 0 9b 47 64
        E 15 9b 3b 00
        E 0 9b 47 00
        E 15 9b 47 64
        E 0 9b 3b 64
        E 15 9b 47 00
        E 0 9b 3b 00
        E 15 9b 3b 64
        E 0 9b 47 64
        E 15 9b 3b 00
        E 0 9b 47 00
        E 15 9b 47 64
        E 0 9b 3b 64
        E 15 9b 47 00
        E 0 9b 3b 00
        E 15 9b 3b 64
        E 0 9b 47 64
        E 15 9b 3b 00
        E 0 9b 47 00
        E 15 9b 3b 64
        E 0 9b 47 64
        E 15 9b 3b 00
        E 0 9b 47 00
        E 15 9b 47 64
        E 0 9b 3b 64
        E 45 9b 47 00
        E 0 9b 3b 00
        E 15 9b 40 64
        E 0 9b 4c 64
        E 15 9b 40 00
        E 0 9b 4c 00
        E 15 9b 40 64
        E 0 9b 4c 64
        E 15 9b 40 00
        E 0 9b 4c 00
        E 15 9b 47 64
        E 0 9b 3b 64
        E 15 9b 47 00
        E 0 9b 3b 00
        E 15 9b 47 64
        E 0 9b 3b 64
        E 15 9b 47 00
        E 0 9b 3b 00
        E 15 9b 3b 64
        E 0 9b 47 64
        E 15 9b 3b 00
        E 0 9b 47 00
        E 15 9b 3b 64
        E 0 9b 47 64
        E 15 9b 3b 00
        E 0 9b 47 00
        E 15 9b 3b 64
        E 0 9b 47 64
        E 45 9b 3b 00
        E 0 9b 47 00
        E 15 9b 3b 64
        E 0 9b 47 64
        E 15 9b 3b 00
        E 0 9b 47 00
        E 15 9b 47 64
        E 0 9b 3b 64
        E 15 9b 47 00
        E 0 9b 3b 00
        E 15 9b 47 64
        E 0 9b 3b 64
        E 15 9b 47 00
        E 0 9b 3b 00
        E 15 9b 47 64
        E 0 9b 3b 64
        E 15 9b 47 00
        E 0 9b 3b 00
        E 15 9b 47 64
        E 0 9b 3b 64
        E 15 9b 47 00
        E 0 9b 3b 00
        E 15 9b 3b 64
        E 0 9b 47 64
        E 15 9b 3b 00
        E 0 9b 47 00
        E 15 9b 3b 64
        E 0 9b 47 64
        E 45 9b 3b 00
        E 0 9b 47 00
        E 15 9b 4c 64
        E 0 9b 40 64
        E 15 9b 4c 00
        E 0 9b 40 00
        E 15 9b 40 64
        E 0 9b 4c 64
        E 15 9b 40 00
        E 0 9b 4c 00
        E 15 9b 40 64
        E 0 9b 4c 64
        E 15 9b 40 00
        E 0 9b 4c 00
        E 15 9b 4c 64
        E 0 9b 40 64
        E 15 9b 4c 00
        E 0 9b 40 00
        E 15 9b 4c 64
        E 0 9b 40 64
        E 15 9b 4c 00
        E 0 9b 40 00
        E 15 9b 4c 64
        E 0 9b 40 64
        E 15 9b 4c 00
        E 0 9b 40 00
        E 15 9b 40 64
        E 0 9b 4c 64
        E 45 9b 40 00
        E 0 9b 4c 00
        E 15 9b 4a 64
        E 0 9b 3e 64
        E 15 9b 4a 00
        E 0 9b 3e 00
        E 15 9b 3e 64
        E 0 9b 4a 64
        E 15 9b 3e 00
        E 0 9b 4a 00
        E 15 9b 4a 64
        E 0 9b 3e 64
        E 15 9b 4a 00
        E 0 9b 3e 00
        E 15 9b 4a 64
        E 0 9b 3e 64
        E 15 9b 4a 00
        E 0 9b 3e 00
        E 15 9b 3e 64
        E 0 9b 4a 64
        E 15 9b 3e 00
        E 0 9b 4a 00
        E 15 9b 4a 64
        E 0 9b 3e 64
        E 15 9b 4a 00
        E 0 9b 3e 00
        E 15 9b 3e 64
        E 0 9b 4a 64
        E 45 9b 3e 00
        E 0 9b 4a 00
        E 15 9b 45 64
        E 0 9b 39 64
        E 15 9b 45 00
        E 0 9b 39 00
        E 15 9b 45 64
        E 0 9b 39 64
        E 15 9b 45 00
        E 0 9b 39 00
        E 15 9b 47 64
        E 0 9b 3b 64
        E 15 9b 47 00
        E 0 9b 3b 00
        E 15 9b 3b 64
        E 0 9b 47 64
        E 15 9b 3b 00
        E 0 9b 47 00
        E 15 9b 3b 64
        E 0 9b 47 64
        E 15 9b 3b 00
        E 0 9b 47 00
        E 15 9b 47 64
        E 0 9b 3b 64
        E 15 9b 47 00
        E 0 9b 3b 00
        E 15 9b 47 64
        E 0 9b 3b 64
        E 45 9b 47 00
        E 0 9b 3b 00
        E 15 9b 3b 64
        E 0 9b 47 64
        E 15 9b 3b 00
        E 0 9b 47 00
        E 15 9b 3b 64
        E 0 9b 47 64
        E 15 9b 3b 00
        E 0 9b 47 00
        E 15 9b 47 64
        E 0 9b 3b 64
        E 15 9b 47 00
        E 0 9b 3b 00
        E 15 9b 47 64
        E 0 9b 3b 64
        E 15 9b 47 00
        E 0 9b 3b 00
        E 15 9b 47 64
        E 0 9b 3b 64
        E 15 9b 47 00
        E 0 9b 3b 00
        E 15 9b 47 64
        E 0 9b 3b 64
        E 15 9b 47 00
        E 0 9b 3b 00
        E 15 9b 47 64
        E 0 9b 3b 64
        E 45 9b 47 00
        E 0 9b 3b 00
        E 15 9b 4c 64
        E 0 9b 40 64
        E 15 9b 4c 00
        E 0 9b 40 00
        E 15 9b 4c 64
        E 0 9b 40 64
        E 15 9b 4c 00
        E 0 9b 40 00
        E 15 9b 47 64
        E 0 9b 3b 64
        E 15 9b 47 00
        E 0 9b 3b 00
        E 15 9b 47 64
        E 0 9b 3b 64
        E 15 9b 47 00
        E 0 9b 3b 00
        E 15 9b 47 64
        E 0 9b 3b 64
        E 15 9b 47 00
        E 0 9b 3b 00
        E 15 9b 47 64
        E 0 9b 3b 64
        E 15 9b 47 00
        E 0 9b 3b 00
        E 15 9b 47 64
        E 0 9b 3b 64
        E 45 9b 47 00
        E 0 9b 3b 00
        E 15 9b 47 64
        E 0 9b 3b 64
        E 15 9b 47 00
        E 0 9b 3b 00
        E 15 9b 47 64
        E 0 9b 3b 64
        E 15 9b 47 00
        E 0 9b 3b 00
        E 15 9b 47 64
        E 0 9b 3b 64
        E 15 9b 47 00
        E 0 9b 3b 00
        E 15 9b 47 64
        E 0 9b 3b 64
        E 15 9b 47 00
        E 0 9b 3b 00
        E 15 9b 47 64
        E 0 9b 3b 64
        E 15 9b 47 00
        E 0 9b 3b 00
        E 15 9b 47 64
        E 0 9b 3b 64
        E 15 9b 47 00
        E 0 9b 3b 00
        E 15 9b 3b 64
        E 0 9b 47 64
        E 45 9b 3b 00
        E 0 9b 47 00
        E 15 9b 4c 64
        E 0 9b 40 64
        E 15 9b 4c 00
        E 0 9b 40 00
        E 15 9b 40 64
        E 0 9b 4c 64
        E 15 9b 40 00
        E 0 9b 4c 00
        E 15 9b 3b 64
        E 0 9b 47 64
        E 15 9b 3b 00
        E 0 9b 47 00
        E 15 9b 3b 64
        E 0 9b 47 64
        E 15 9b 3b 00
        E 0 9b 47 00
        E 15 9b 47 64
        E 0 9b 3b 64
        E 15 9b 47 00
        E 0 9b 3b 00
        E 15 9b 47 64
        E 0 9b 3b 64
        E 15 9b 47 00
        E 0 9b 3b 00
        E 15 9b 47 64
        E 0 9b 3b 64
        E 45 9b 47 00
        E 0 9b 3b 00
        E 15 9b 3b 64
        E 0 9b 47 64
        E 15 9b 3b 00
        E 0 9b 47 00
        E 15 9b 3b 64
        E 0 9b 47 64
        E 15 9b 3b 00
        E 0 9b 47 00
        E 15 9b 47 64
        E 0 9b 3b 64
        E 15 9b 47 00
        E 0 9b 3b 00
        E 15 9b 47 64
        E 0 9b 3b 64
        E 15 9b 47 00
        E 0 9b 3b 00
        E 15 9b 3b 64
        E 0 9b 47 64
        E 15 9b 3b 00
        E 0 9b 47 00
        E 15 9b 3b 64
        E 0 9b 47 64
        E 15 9b 3b 00
        E 0 9b 47 00
        E 15 9b 47 64
        E 0 9b 3b 64
        E 45 9b 47 00
        E 0 9b 3b 00
        E 15 9b 4c 64
        E 0 9b 40 64
        E 15 9b 4c 00
        E 0 9b 40 00
        E 15 9b 40 64
        E 0 9b 4c 64
        E 15 9b 40 00
        E 0 9b 4c 00
        E 15 9b 40 64
        E 0 9b 4c 64
        E 15 9b 40 00
        E 0 9b 4c 00
        E 15 9b 40 64
        E 0 9b 4c 64
        E 15 9b 40 00
        E 0 9b 4c 00
        E 15 9b 4c 64
        E 0 9b 40 64
        E 15 9b 4c 00
        E 0 9b 40 00
        E 15 9b 40 64
        E 0 9b 4c 64
        E 15 9b 40 00
        E 0 9b 4c 00
        E 15 9b 40 64
        E 0 9b 4c 64
        E 45 9b 40 00
        E 0 9b 4c 00
        E 15 9b 4a 64
        E 0 9b 3e 64
        E 15 9b 4a 00
        E 0 9b 3e 00
        E 15 9b 3e 64
        E 0 9b 4a 64
        E 15 9b 3e 00
        E 0 9b 4a 00
        E 15 9b 4a 64
        E 0 9b 3e 64
        E 15 9b 4a 00
        E 0 9b 3e 00
        E 15 9b 4a 64
        E 0 9b 3e 64
        E 15 9b 4a 00
        E 0 9b 3e 00
        E 15 9b 4a 64
        E 0 9b 3e 64
        E 15 9b 4a 00
        E 0 9b 3e 00
        E 15 9b 3e 64
        E 0 9b 4a 64
        E 15 9b 3e 00
        E 0 9b 4a 00
        E 15 9b 4a 64
        E 0 9b 3e 64
        E 45 9b 4a 00
        E 0 9b 3e 00
        E 15 9b 39 64
        E 0 9b 45 64
        E 15 9b 39 00
        E 0 9b 45 00
        E 15 9b 45 64
        E 0 9b 39 64
        E 15 9b 45 00
        E 0 9b 39 00
        E 15 9b 47 64
        E 0 9b 3b 64
        E 15 9b 47 00
        E 0 9b 3b 00
        E 15 9b 47 64
        E 0 9b 3b 64
        E 15 9b 47 00
        E 0 9b 3b 00
        E 15 9b 47 64
        E 0 9b 3b 64
        E 15 9b 47 00
        E 0 9b 3b 00
        E 15 9b 47 64
        E 0 9b 3b 64
        E 15 9b 47 00
        E 0 9b 3b 00
        E 15 9b 3b 64
        E 0 9b 47 64
        E 45 9b 3b 00
        E 0 9b 47 00
        E 15 9b 47 64
        E 0 9b 3b 64
        E 15 9b 47 00
        E 0 9b 3b 00
        E 15 9b 47 64
        E 0 9b 3b 64
        E 15 9b 47 00
        E 0 9b 3b 00
        E 15 9b 3b 64
        E 0 9b 47 64
        E 15 9b 3b 00
        E 0 9b 47 00
        E 15 9b 47 64
        E 0 9b 3b 64
        E 15 9b 47 00
        E 0 9b 3b 00
        E 15 9b 47 64
        E 0 9b 3b 64
        E 15 9b 47 00
        E 0 9b 3b 00
        E 15 9b 47 64
        E 0 9b 3b 64
        E 15 9b 47 00
        E 0 9b 3b 00
        E 15 9b 3b 64
        E 0 9b 47 64
        E 45 9b 3b 00
        E 0 9b 47 00
        E 15 9b 4c 64
        E 0 9b 40 64
        E 15 9b 4c 00
        E 0 9b 40 00
        E 15 9b 4c 64
        E 0 9b 40 64
        E 15 9b 4c 00
        E 0 9b 40 00
        E 15 9b 3b 64
        E 0 9b 47 64
        E 15 9b 3b 00
        E 0 9b 47 00
        E 15 9b 47 64
        E 0 9b 3b 64
        E 15 9b 47 00
        E 0 9b 3b 00
        E 15 9b 47 64
        E 0 9b 3b 64
        E 15 9b 47 00
        E 0 9b 3b 00
        E 15 9b 47 64
        E 0 9b 3b 64
        E 15 9b 47 00
        E 0 9b 3b 00
        E 15 9b 3b 64
        E 0 9b 47 64
        E 45 9b 3b 00
        E 0 9b 47 00
        E 15 9b 47 64
        E 0 9b 3b 64
        E 15 9b 47 00
        E 0 9b 3b 00
        E 15 9b 47 64
        E 0 9b 3b 64
        E 15 9b 47 00
        E 0 9b 3b 00
        E 15 9b 3b 64
        E 0 9b 47 64
        E 15 9b 3b 00
        E 0 9b 47 00
        E 15 9b 47 64
        E 0 9b 3b 64
        E 15 9b 47 00
        E 0 9b 3b 00
        E 15 9b 47 64
        E 0 9b 3b 64
        E 15 9b 47 00
        E 0 9b 3b 00
        E 15 9b 47 64
        E 0 9b 3b 64
        E 15 9b 47 00
        E 0 9b 3b 00
        E 15 9b 3b 64
        E 0 9b 47 64
        E 45 9b 3b 00
        E 0 9b 47 00
        E 15 9b 40 64
        E 0 9b 4c 64
        E 15 9b 40 00
        E 0 9b 4c 00
        E 15 9b 4c 64
        E 0 9b 40 64
        E 15 9b 4c 00
        E 0 9b 40 00
        E 15 9b 47 64
        E 0 9b 3b 64
        E 15 9b 47 00
        E 0 9b 3b 00
        E 15 9b 3b 64
        E 0 9b 47 64
        E 15 9b 3b 00
        E 0 9b 47 00
        E 15 9b 47 64
        E 0 9b 3b 64
        E 15 9b 47 00
        E 0 9b 3b 00
        E 15 9b 3b 64
        E 0 9b 47 64
        E 15 9b 3b 00
        E 0 9b 47 00
        E 15 9b 3b 64
        E 0 9b 47 64
        E 45 9b 3b 00
        E 0 9b 47 00
        E 15 9b 3b 64
        E 0 9b 47 64
        E 15 9b 3b 00
        E 0 9b 47 00
        E 15 9b 47 64
        E 0 9b 3b 64
        E 15 9b 47 00
        E 0 9b 3b 00
        E 15 9b 47 64
        E 0 9b 3b 64
        E 15 9b 47 00
        E 0 9b 3b 00
        E 15 9b 3b 64
        E 0 9b 47 64
        E 15 9b 3b 00
        E 0 9b 47 00
        E 15 9b 47 64
        E 0 9b 3b 64
        E 15 9b 47 00
        E 0 9b 3b 00
        E 15 9b 47 64
        E 0 9b 3b 64
        E 15 9b 47 00
        E 0 9b 3b 00
        E 15 9b 47 64
        E 0 9b 3b 64
        E 45 9b 47 00
        E 0 9b 3b 00
        E 15 9b 40 64
        E 0 9b 4c 64
        E 15 9b 40 00
        E 0 9b 4c 00
        E 15 9b 40 64
        E 0 9b 4c 64
        E 15 9b 40 00
        E 0 9b 4c 00
        E 15 9b 4c 64
        E 0 9b 40 64
        E 15 9b 4c 00
        E 0 9b 40 00
        E 15 9b 40 64
        E 0 9b 4c 64
        E 15 9b 40 00
        E 0 9b 4c 00
        E 15 9b 4c 64
        E 0 9b 40 64
        E 15 9b 4c 00
        E 0 9b 40 00
        E 15 9b 4c 64
        E 0 9b 40 64
        E 15 9b 4c 00
        E 0 9b 40 00
        E 15 9b 4c 64
        E 0 9b 40 64
        E 45 9b 4c 00
        E 0 9b 40 00
        E 15 9b 3e 64
        E 0 9b 4a 64
        E 15 9b 3e 00
        E 0 9b 4a 00
        E 15 9b 4a 64
        E 0 9b 3e 64
        E 15 9b 4a 00
        E 0 9b 3e 00
        E 15 9b 4a 64
        E 0 9b 3e 64
        E 15 9b 4a 00
        E 0 9b 3e 00
        E 15 9b 3e 64
        E 0 9b 4a 64
        E 15 9b 3e 00
        E 0 9b 4a 00
        E 15 9b 4a 64
        E 0 9b 3e 64
        E 15 9b 4a 00
        E 0 9b 3e 00
        E 15 9b 4a 64
        E 0 9b 3e 64
        E 15 9b 4a 00
        E 0 9b 3e 00
        E 15 9b 3e 64
        E 0 9b 4a 64
        E 45 9b 3e 00
        E 0 9b 4a 00
        E 15 9b 45 64
        E 0 9b 39 64
        E 15 9b 45 00
        E 0 9b 39 00
        E 15 9b 45 64
        E 0 9b 39 64
        E 15 9b 45 00
        E 0 9b 39 00
        E 15 9b 3b 64
        E 0 9b 47 64
        E 15 9b 3b 00
        E 0 9b 47 00
        E 15 9b 3b 64
        E 0 9b 47 64
        E 15 9b 3b 00
        E 0 9b 47 00
        E 15 9b 47 64
        E 0 9b 3b 64
        E 15 9b 47 00
        E 0 9b 3b 00
        E 15 9b 47 64
        E 0 9b 3b 64
        E 15 9b 47 00
        E 0 9b 3b 00
        E 15 9b 3b 64
        E 0 9b 47 64
        E 45 9b 3b 00
        E 0 9b 47 00
        E 15 9b 47 64
        E 0 9b 3b 64
        E 15 9b 47 00
        E 0 9b 3b 00
        E 15 9b 47 64
        E 0 9b 3b 64
        E 15 9b 47 00
        E 0 9b 3b 00
        E 15 9b 47 64
        E 0 9b 3b 64
        E 15 9b 47 00
        E 0 9b 3b 00
        E 15 9b 47 64
        E 0 9b 3b 64
        E 15 9b 47 00
        E 0 9b 3b 00
        E 15 9b 47 64
        E 0 9b 3b 64
        E 15 9b 47 00
        E 0 9b 3b 00
        E 15 9b 47 64
        E 0 9b 3b 64
        E 15 9b 47 00
        E 0 9b 3b 00
        E 15 9b 3b 64
        E 0 9b 47 64
        E 45 9b 3b 00
        E 0 9b 47 00
        E 15 9b 4c 64
        E 0 9b 40 64
        E 15 9b 4c 00
        E 0 9b 40 00
        E 15 9b 4c 64
        E 0 9b 40 64
        E 15 9b 4c 00
        E 0 9b 40 00
        E 15 9b 47 64
        E 0 9b 3b 64
        E 15 9b 47 00
        E 0 9b 3b 00
        E 15 9b 47 64
        E 0 9b 3b 64
        E 15 9b 47 00
        E 0 9b 3b 00
        E 15 9b 47 64
        E 0 9b 3b 64
        E 15 9b 47 00
        E 0 9b 3b 00
        E 15 9b 47 64
        E 0 9b 3b 64
        E 15 9b 47 00
        E 0 9b 3b 00
        E 15 9b 3b 64
        E 0 9b 47 64
        E 45 9b 3b 00
        E 0 9b 47 00
        E 15 9b 47 64
        E 0 9b 3b 64
        E 15 9b 47 00
        E 0 9b 3b 00
        E 15 9b 47 64
        E 0 9b 3b 64
        E 15 9b 47 00
        E 0 9b 3b 00
        E 15 9b 47 64
        E 0 9b 3b 64
        E 15 9b 47 00
        E 0 9b 3b 00
        E 15 9b 47 64
        E 0 9b 3b 64
        E 15 9b 47 00
        E 0 9b 3b 00
        E 15 9b 3b 64
        E 0 9b 47 64
        E 15 9b 3b 00
        E 0 9b 47 00
        E 15 9b 47 64
        E 0 9b 3b 64
        E 15 9b 47 00
        E 0 9b 3b 00
        E 15 9b 3b 64
        E 0 9b 47 64
        E 45 9b 3b 00
        E 0 9b 47 00
        E 15 9b 4c 64
        E 0 9b 40 64
        E 15 9b 4c 00
        E 0 9b 40 00
        E 15 9b 4c 64
        E 0 9b 40 64
        E 15 9b 4c 00
        E 0 9b 40 00
        E 15 9b 3b 64
        E 0 9b 47 64
        E 15 9b 3b 00
        E 0 9b 47 00
        E 15 9b 3b 64
        E 0 9b 47 64
        E 15 9b 3b 00
        E 0 9b 47 00
        E 15 9b 3b 64
        E 0 9b 47 64
        E 15 9b 3b 00
        E 0 9b 47 00
        E 15 9b 3b 64
        E 0 9b 47 64
        E 15 9b 3b 00
        E 0 9b 47 00
        E 15 9b 3b 64
        E 0 9b 47 64
        E 45 9b 3b 00
        E 0 9b 47 00
        E 15 9b 3b 64
        E 0 9b 47 64
        E 15 9b 3b 00
        E 0 9b 47 00
        E 15 9b 3b 64
        E 0 9b 47 64
        E 15 9b 3b 00
        E 0 9b 47 00
        E 15 9b 3b 64
        E 0 9b 47 64
        E 15 9b 3b 00
        E 0 9b 47 00
        E 15 9b 47 64
        E 0 9b 3b 64
        E 15 9b 47 00
        E 0 9b 3b 00
        E 15 9b 47 64
        E 0 9b 3b 64
        E 15 9b 47 00
        E 0 9b 3b 00
        E 15 9b 3b 64
        E 0 9b 47 64
        E 15 9b 3b 00
        E 0 9b 47 00
        E 15 9b 47 64
        E 0 9b 3b 64
        E 45 9b 47 00
        E 0 9b 3b 00
        E 15 9b 4a 64
        E 0 9b 3e 64
        E 45 9b 4a 00
        E 0 9b 3e 00
        E 15 9b 3b 64
        E 0 9b 47 64
        E 15 9b 3b 00
        E 0 9b 47 00
        E 15 9b 3b 64
        E 0 9b 47 64
        E 15 9b 3b 00
        E 0 9b 47 00
        E 15 9b 47 64
        E 0 9b 3b 64
        E 15 9b 47 00
        E 0 9b 3b 00
        E 15 9b 47 64
        E 0 9b 3b 64
        E 15 9b 47 00
        E 0 9b 3b 00
        E 15 9b 47 64
        E 0 9b 3b 64
        E 45 9b 47 00
        E 0 9b 3b 00
        E 15 9b 47 64
        E 0 9b 3b 64
        E 15 9b 47 00
        E 0 9b 3b 00
        E 15 9b 47 64
        E 0 9b 3b 64
        E 15 9b 47 00
        E 0 9b 3b 00
        E 15 9b 47 64
        E 0 9b 3b 64
        E 15 9b 47 00
        E 0 9b 3b 00
        E 15 9b 47 64
        E 0 9b 3b 64
        E 15 9b 47 00
        E 0 9b 3b 00
        E 15 9b 47 64
        E 0 9b 3b 64
        E 15 9b 47 00
        E 0 9b 3b 00
        E 15 9b 47 64
        E 0 9b 3b 64
        E 15 9b 47 00
        E 0 9b 3b 00
        E 15 9b 4a 64
        E 0 9b 3e 64
        E 45 9b 4a 00
        E 0 9b 3e 00
        E 15 9b 4a 64
        E 0 9b 3e 64
        E 45 9b 4a 00
        E 0 9b 3e 00
        E 15 9b 47 64
        E 0 9b 3b 64
        E 15 9b 47 00
        E 0 9b 3b 00
        E 15 9b 3b 64
        E 0 9b 47 64
        E 15 9b 3b 00
        E 0 9b 47 00
        E 15 9b 47 64
        E 0 9b 3b 64
        E 15 9b 47 00
        E 0 9b 3b 00
        E 15 9b 3b 64
        E 0 9b 47 64
        E 15 9b 3b 00
        E 0 9b 47 00
        E 15 9b 3b 64
        E 0 9b 47 64
        E 45 9b 3b 00
        E 0 9b 47 00
        E 15 9b 3b 64
        E 0 9b 47 64
        E 15 9b 3b 00
        E 0 9b 47 00
        E 15 9b 3b 64
        E 0 9b 47 64
        E 15 9b 3b 00
        E 0 9b 47 00
        E 15 9b 47 64
        E 0 9b 3b 64
        E 15 9b 47 00
        E 0 9b 3b 00
        E 15 9b 47 64
        E 0 9b 3b 64
        E 15 9b 47 00
        E 0 9b 3b 00
        E 15 9b 47 64
        E 0 9b 3b 64
        E 15 9b 47 00
        E 0 9b 3b 00
        E 15 9b 3b 64
        E 0 9b 47 64
        E 15 9b 3b 00
        E 0 9b 47 00
        E 15 9b 3b 64
        E 0 9b 47 64
        E 45 9b 3b 00
        E 0 9b 47 00
        E 15 9b 40 64
        E 0 9b 4c 64
        E 15 9b 40 00
        E 0 9b 4c 00
        E 15 9b 40 64
        E 0 9b 4c 64
        E 15 9b 40 00
        E 0 9b 4c 00
        E 15 9b 4c 64
        E 0 9b 40 64
        E 15 9b 4c 00
        E 0 9b 40 00
        E 15 9b 4c 64
        E 0 9b 40 64
        E 15 9b 4c 00
        E 0 9b 40 00
        E 15 9b 40 64
        E 0 9b 4c 64
        E 15 9b 40 00
        E 0 9b 4c 00
        E 15 9b 4c 64
        E 0 9b 40 64
        E 15 9b 4c 00
        E 0 9b 40 00
        E 15 9b 40 64
        E 0 9b 4c 64
        E 45 9b 40 00
        E 0 9b 4c 00
        E 15 9b 3e 64
        E 0 9b 4a 64
        E 15 9b 3e 00
        E 0 9b 4a 00
        E 15 9b 4a 64
        E 0 9b 3e 64
        E 15 9b 4a 00
        E 0 9b 3e 00
        E 15 9b 3e 64
        E 0 9b 4a 64
        E 15 9b 3e 00
        E 0 9b 4a 00
        E 15 9b 4a 64
        E 0 9b 3e 64
        E 15 9b 4a 00
        E 0 9b 3e 00
        E 15 9b 3e 64
        E 0 9b 4a 64
        E 15 9b 3e 00
        E 0 9b 4a 00
        E 15 9b 4a 64
        E 0 9b 3e 64
        E 15 9b 4a 00
        E 0 9b 3e 00
        E 15 9b 3e 64
        E 0 9b 4a 64
        E 45 9b 3e 00
        E 0 9b 4a 00
        E 15 9b 39 64
        E 0 9b 45 64
        E 45 9b 39 00
        E 0 9b 45 00
        E 15 9b 47 64
        E 0 9b 3b 64
        E 15 9b 47 00
        E 0 9b 3b 00
        E 15 9b 3b 64
        E 0 9b 47 64
        E 15 9b 3b 00
        E 0 9b 47 00
        E 15 9b 3b 64
        E 0 9b 47 64
        E 15 9b 3b 00
        E 0 9b 47 00
        E 15 9b 47 64
        E 0 9b 3b 64
        E 15 9b 47 00
        E 0 9b 3b 00
        E 15 9b 3b 64
        E 0 9b 47 64
        E 45 9b 3b 00
        E 0 9b 47 00
        E 15 9b 47 64
        E 0 9b 3b 64
        E 15 9b 47 00
        E 0 9b 3b 00
        E 15 9b 47 64
        E 0 9b 3b 64
        E 15 9b 47 00
        E 0 9b 3b 00
        E 15 9b 47 64
        E 0 9b 3b 64
        E 15 9b 47 00
        E 0 9b 3b 00
        E 15 9b 3b 64
        E 0 9b 47 64
        E 15 9b 3b 00
        E 0 9b 47 00
        E 15 9b 47 64
        E 0 9b 3b 64
        E 15 9b 47 00
        E 0 9b 3b 00
        E 15 9b 47 64
        E 0 9b 3b 64
        E 15 9b 47 00
        E 0 9b 3b 00
        E 15 9b 3b 64
        E 0 9b 47 64
        E 45 9b 3b 00
        E 0 9b 47 00
        E 15 9b 4a 64
        E 0 9b 3e 64
        E 45 9b 4a 00
        E 0 9b 3e 00
        E 15 9b 3b 64
        E 0 9b 47 64
        E 15 9b 3b 00
        E 0 9b 47 00
        E 15 9b 47 64
        E 0 9b 3b 64
        E 15 9b 47 00
        E 0 9b 3b 00
        E 15 9b 3b 64
        E 0 9b 47 64
        E 15 9b 3b 00
        E 0 9b 47 00
        E 15 9b 3b 64
        E 0 9b 47 64
        E 15 9b 3b 00
        E 0 9b 47 00
        E 15 9b 47 64
        E 0 9b 3b 64
        E 45 9b 47 00
        E 0 9b 3b 00
        E 15 9b 3b 64
        E 0 9b 47 64
        E 15 9b 3b 00
        E 0 9b 47 00
        E 15 9b 47 64
        E 0 9b 3b 64
        E 15 9b 47 00
        E 0 9b 3b 00
        E 15 9b 3b 64
        E 0 9b 47 64
        E 15 9b 3b 00
        E 0 9b 47 00
        E 15 9b 47 64
        E 0 9b 3b 64
        E 15 9b 47 00
        E 0 9b 3b 00
        E 15 9b 47 64
        E 0 9b 3b 64
        E 15 9b 47 00
        E 0 9b 3b 00
        E 15 9b 3b 64
        E 0 9b 47 64
        E 15 9b 3b 00
        E 0 9b 47 00
        E 15 9b 4a 64
        E 0 9b 3e 64
        E 45 9b 4a 00
        E 0 9b 3e 00
        E 15 9b 3e 64
        E 0 9b 4a 64
        E 45 9b 3e 00
        E 0 9b 4a 00
        E 15 9b 47 64
        E 0 9b 3b 64
        E 15 9b 47 00
        E 0 9b 3b 00
        E 15 9b 3b 64
        E 0 9b 47 64
        E 15 9b 3b 00
        E 0 9b 47 00
        E 15 9b 47 64
        E 0 9b 3b 64
        E 15 9b 47 00
        E 0 9b 3b 00
        E 15 9b 47 64
        E 0 9b 3b 64
        E 15 9b 47 00
        E 0 9b 3b 00
        E 15 9b 3b 64
        E 0 9b 47 64
        E 45 9b 3b 00
        E 0 9b 47 00
        E 15 9b 47 64
        E 0 9b 3b 64
        E 15 9b 47 00
        E 0 9b 3b 00
        E 15 9b 3b 64
        E 0 9b 47 64
        E 15 9b 3b 00
        E 0 9b 47 00
        E 15 9b 47 64
        E 0 9b 3b 64
        E 15 9b 47 00
        E 0 9b 3b 00
        E 15 9b 3b 64
        E 0 9b 47 64
        E 15 9b 3b 00
        E 0 9b 47 00
        E 15 9b 47 64
        E 0 9b 3b 64
        E 15 9b 47 00
        E 0 9b 3b 00
        E 15 9b 47 64
        E 0 9b 3b 64
        E 15 9b 47 00
        E 0 9b 3b 00
        E 15 9b 3b 64
        E 0 9b 47 64
        E 45 9b 3b 00
        E 0 9b 47 00
        E 15 9b 4c 64
        E 0 9b 40 64
        E 15 9b 4c 00
        E 0 9b 40 00
        E 15 9b 40 64
        E 0 9b 4c 64
        E 15 9b 40 00
        E 0 9b 4c 00
        E 15 9b 4c 64
        E 0 9b 40 64
        E 15 9b 4c 00
        E 0 9b 40 00
        E 15 9b 40 64
        E 0 9b 4c 64
        E 15 9b 40 00
        E 0 9b 4c 00
        E 15 9b 4c 64
        E 0 9b 40 64
        E 15 9b 4c 00
        E 0 9b 40 00
        E 15 9b 40 64
        E 0 9b 4c 64
        E 15 9b 40 00
        E 0 9b 4c 00
        E 15 9b 4c 64
        E 0 9b 40 64
        E 45 9b 4c 00
        E 0 9b 40 00
        E 15 9b 3e 64
        E 0 9b 4a 64
        E 15 9b 3e 00
        E 0 9b 4a 00
        E 15 9b 4a 64
        E 0 9b 3e 64
        E 15 9b 4a 00
        E 0 9b 3e 00
        E 15 9b 4a 64
        E 0 9b 3e 64
        E 15 9b 4a 00
        E 0 9b 3e 00
        E 15 9b 4a 64
        E 0 9b 3e 64
        E 15 9b 4a 00
        E 0 9b 3e 00
        E 15 9b 4a 64
        E 0 9b 3e 64
        E 15 9b 4a 00
        E 0 9b 3e 00
        E 15 9b 3e 64
        E 0 9b 4a 64
        E 15 9b 3e 00
        E 0 9b 4a 00
        E 15 9b 4a 64
        E 0 9b 3e 64
        E 45 9b 4a 00
        E 0 9b 3e 00
        E 15 9b 39 64
        E 0 9b 45 64
        E 45 9b 39 00
        E 0 9b 45 00
        E 15 9b 47 64
        E 0 9b 3b 64
        E 15 9b 47 00
        E 0 9b 3b 00
        E 15 9b 47 64
        E 0 9b 3b 64
        E 15 9b 47 00
        E 0 9b 3b 00
        E 15 9b 47 64
        E 0 9b 3b 64
        E 15 9b 47 00
        E 0 9b 3b 00
        E 15 9b 47 64
        E 0 9b 3b 64
        E 15 9b 47 00
        E 0 9b 3b 00
        E 15 9b 47 64
        E 0 9b 3b 64
        E 45 9b 47 00
        E 0 9b 3b 00
        E 15 9b 47 64
        E 0 9b 3b 64
        E 15 9b 47 00
        E 0 9b 3b 00
        E 15 9b 47 64
        E 0 9b 3b 64
        E 15 9b 47 00
        E 0 9b 3b 00
        E 15 9b 3b 64
        E 0 9b 47 64
        E 15 9b 3b 00
        E 0 9b 47 00
        E 15 9b 3b 64
        E 0 9b 47 64
        E 15 9b 3b 00
        E 0 9b 47 00
        E 15 9b 3b 64
        E 0 9b 47 64
        E 15 9b 3b 00
        E 0 9b 47 00
        E 15 9b 47 64
        E 0 9b 3b 64
        E 15 9b 47 00
        E 0 9b 3b 00
        E 15 9b 3e 64
        E 0 9b 4a 64
        E 45 9b 3e 00
        E 0 9b 4a 00
        E 15 9b 4a 64
        E 0 9b 3e 64
        E 45 9b 4a 00
        E 0 9b 3e 00
        E 15 9b 47 64
        E 0 9b 3b 64
        E 15 9b 47 00
        E 0 9b 3b 00
        E 15 9b 47 64
        E 0 9b 3b 64
        E 15 9b 47 00
        E 0 9b 3b 00
        E 15 9b 47 64
        E 0 9b 3b 64
        E 15 9b 47 00
        E 0 9b 3b 00
        E 15 9b 3b 64
        E 0 9b 47 64
        E 15 9b 3b 00
        E 0 9b 47 00
        E 15 9b 3b 64
        E 0 9b 47 64
        E 45 9b 3b 00
        E 0 9b 47 00
        E 15 9b 47 64
        E 0 9b 3b 64
        E 15 9b 47 00
        E 0 9b 3b 00
        E 15 9b 3b 64
        E 0 9b 47 64
        E 15 9b 3b 00
        E 0 9b 47 00
        E 15 9b 3b 64
        E 0 9b 47 64
        E 15 9b 3b 00
        E 0 9b 47 00
        E 15 9b 3b 64
        E 0 9b 47 64
        E 15 9b 3b 00
        E 0 9b 47 00
        E 15 9b 47 64
        E 0 9b 3b 64
        E 15 9b 47 00
        E 0 9b 3b 00
        E 15 9b 3b 64
        E 0 9b 47 64
        E 15 9b 3b 00
        E 0 9b 47 00
        E 15 9b 3e 64
        E 0 9b 4a 64
        E 45 9b 3e 00
        E 0 9b 4a 00
        E 15 9b 4a 64
        E 0 9b 3e 64
        E 45 9b 4a 00
        E 0 9b 3e 00
        E 15 9b 3b 64
        E 0 9b 47 64
        E 15 9b 3b 00
        E 0 9b 47 00
        E 15 9b 3b 64
        E 0 9b 47 64
        E 15 9b 3b 00
        E 0 9b 47 00
        E 15 9b 3b 64
        E 0 9b 47 64
        E 15 9b 3b 00
        E 0 9b 47 00
        E 15 9b 47 64
        E 0 9b 3b 64
        E 15 9b 47 00
        E 0 9b 3b 00
        E 15 9b 3e 64
        E 0 9b 4a 64
        E 45 9b 3e 00
        E 0 9b 4a 00
        E 15 9b 3e 64
        E 0 9b 4a 64
        E 45 9b 3e 00
        E 0 9b 4a 00
        E 15 9b 47 64
        E 0 9b 3b 64
        E 15 9b 47 00
        E 0 9b 3b 00
        E 15 9b 3b 64
        E 0 9b 47 64
        E 15 9b 3b 00
        E 0 9b 47 00
        E 15 9b 3b 64
        E 0 9b 47 64
        E 15 9b 3b 00
        E 0 9b 47 00
        E 15 9b 3b 64
        E 0 9b 47 64
        E 15 9b 3b 00
        E 0 9b 47 00
        E 15 9b 4a 64
        E 0 9b 3e 64
        E 45 9b 4a 00
        E 0 9b 3e 00
        E 15 9b 3e 64
        E 0 9b 4a 64
        E 45 9b 3e 00
        E 0 9b 4a 00
        E 15 9b 3b 64
        E 0 9b 47 64
        E 15 9b 3b 00
        E 0 9b 47 00
        E 15 9b 47 64
        E 0 9b 3b 64
        E 15 9b 47 00
        E 0 9b 3b 00
        E 15 9b 3e 64
        E 0 9b 4a 64
        E 45 9b 3e 00
        E 0 9b 4a 00
        E 15 9b 3b 64
        E 0 9b 47 64
        E 15 9b 3b 00
        E 0 9b 47 00
        E 15 9b 3b 64
        E 0 9b 47 64
        E 15 9b 3b 00
        E 0 9b 47 00
        E 15 9b 4a 64
        E 0 9b 3e 64
        E 45 9b 4a 00
        E 0 9b 3e 00
        E 15 9b 3b 64
        E 0 9b 47 64
        E 15 9b 3b 00
        E 0 9b 47 00
        E 15 9b 3b 64
        E 0 9b 47 64
        E 15 9b 3b 00
        E 0 9b 47 00
        E 15 9b 3e 64
        E 0 9b 4a 64
        E 45 9b 3e 00
        E 0 9b 4a 00
        E 15 9b 3b 64
        E 0 9b 47 64
        E 15 9b 3b 00
        E 0 9b 47 00
        E 15 9b 47 64
        E 0 9b 3b 64
        E 15 9b 47 00
        E 0 9b 3b 00
        E 15 9b 4a 64
        E 0 9b 3e 64
        E 45 9b 4a 00
        E 0 9b 3e 00
        E 15 9b 47 64
        E 0 9b 3b 64
        E 15 9b 47 00
        E 0 9b 3b 00
        E 15 9b 47 64
        E 0 9b 3b 64
        E 15 9b 47 00
        E 0 9b 3b 00
        E 15 9b 3b 64
        E 0 9b 47 64
        E 15 9b 3b 00
        E 0 9b 47 00
        E 15 9b 3b 64
        E 0 9b 47 64
        E 15 9b 3b 00
        E 0 9b 47 00
        E 15 9b 47 64
        E 0 9b 3b 64
        E 45 9b 47 00
        E 0 9b 3b 00
        E 15 9b 3b 64
        E 0 9b 47 64
        E 15 9b 3b 00
        E 0 9b 47 00
        E 15 9b 3b 64
        E 0 9b 47 64
        E 15 9b 3b 00
        E 0 9b 47 00
        E 15 9b 3b 64
        E 0 9b 47 64
        E 15 9b 3b 00
        E 0 9b 47 00
        E 15 9b 47 64
        E 0 9b 3b 64
        E 15 9b 47 00
        E 0 9b 3b 00
        E 15 9b 47 64
        E 0 9b 3b 64
        E 15 9b 47 00
        E 0 9b 3b 00
        E 15 9b 47 64
        E 0 9b 3b 64
        E 15 9b 47 00
        E 0 9b 3b 00
        E 15 9b 47 64
        E 0 9b 3b 64
        E 45 9b 47 00
        E 0 9b 3b 00
        E 15 9b 40 64
        E 0 9b 4c 64
        E 15 9b 40 00
        E 0 9b 4c 00
        E 15 9b 40 64
        E 0 9b 4c 64
        E 15 9b 40 00
        E 0 9b 4c 00
        E 15 9b 40 64
        E 0 9b 4c 64
        E 15 9b 40 00
        E 0 9b 4c 00
        E 15 9b 40 64
        E 0 9b 4c 64
        E 15 9b 40 00
        E 0 9b 4c 00
        E 15 9b 4c 64
        E 0 9b 40 64
        E 15 9b 4c 00
        E 0 9b 40 00
        E 15 9b 40 64
        E 0 9b 4c 64
        E 15 9b 40 00
        E 0 9b 4c 00
        E 15 9b 40 64
        E 0 9b 4c 64
        E 45 9b 40 00
        E 0 9b 4c 00
        E 15 9b 3e 64
        E 0 9b 4a 64
        E 15 9b 3e 00
        E 0 9b 4a 00
        E 15 9b 3e 64
        E 0 9b 4a 64
        E 15 9b 3e 00
        E 0 9b 4a 00
        E 15 9b 3e 64
        E 0 9b 4a 64
        E 15 9b 3e 00
        E 0 9b 4a 00
        E 15 9b 3e 64
        E 0 9b 4a 64
        E 15 9b 3e 00
        E 0 9b 4a 00
        E 15 9b 3e 64
        E 0 9b 4a 64
        E 15 9b 3e 00
        E 0 9b 4a 00
        E 15 9b 4a 64
        E 0 9b 3e 64
        E 15 9b 4a 00
        E 0 9b 3e 00
        E 15 9b 4a 64
        E 0 9b 3e 64
        E 45 9b 4a 00
        E 0 9b 3e 00
        E 15 9b 39 64
        E 0 9b 45 64
        E 15 9b 39 00
        E 0 9b 45 00
        E 15 9b 45 64
        E 0 9b 39 64
        E 15 9b 45 00
        E 0 9b 39 00
        E 15 9b 3b 64
        E 0 9b 47 64
        E 15 9b 3b 00
        E 0 9b 47 00
        E 15 9b 47 64
        E 0 9b 3b 64
        E 15 9b 47 00
        E 0 9b 3b 00
        E 15 9b 47 64
        E 0 9b 3b 64
        E 15 9b 47 00
        E 0 9b 3b 00
        E 15 9b 3b 64
        E 0 9b 47 64
        E 15 9b 3b 00
        E 0 9b 47 00
        E 15 9b 3b 64
        E 0 9b 47 64
        E 45 9b 3b 00
        E 0 9b 47 00
        E 15 9b 3b 64
        E 0 9b 47 64
        E 15 9b 3b 00
        E 0 9b 47 00
        E 15 9b 47 64
        E 0 9b 3b 64
        E 15 9b 47 00
        E 0 9b 3b 00
        E 15 9b 3b 64
        E 0 9b 47 64
        E 15 9b 3b 00
        E 0 9b 47 00
        E 15 9b 47 64
        E 0 9b 3b 64
        E 15 9b 47 00
        E 0 9b 3b 00
        E 15 9b 47 64
        E 0 9b 3b 64
        E 15 9b 47 00
        E 0 9b 3b 00
        E 15 9b 3b 64
        E 0 9b 47 64
        E 15 9b 3b 00
        E 0 9b 47 00
        E 15 9b 3b 64
        E 0 9b 47 64
        E 45 9b 3b 00
        E 0 9b 47 00
        E 15 9b 40 64
        E 0 9b 4c 64
        E 15 9b 40 00
        E 0 9b 4c 00
        E 15 9b 4c 64
        E 0 9b 40 64
        E 15 9b 4c 00
        E 0 9b 40 00
        E 15 9b 3b 64
        E 0 9b 47 64
        E 15 9b 3b 00
        E 0 9b 47 00
        E 15 9b 47 64
        E 0 9b 3b 64
        E 15 9b 47 00
        E 0 9b 3b 00
        E 15 9b 47 64
        E 0 9b 3b 64
        E 15 9b 47 00
        E 0 9b 3b 00
        E 15 9b 3b 64
        E 0 9b 47 64
        E 15 9b 3b 00
        E 0 9b 47 00
        E 15 9b 3b 64
        E 0 9b 47 64
        E 45 9b 3b 00
        E 0 9b 47 00
        E 15 9b 3b 64
        E 0 9b 47 64
        E 15 9b 3b 00
        E 0 9b 47 00
        E 15 9b 47 64
        E 0 9b 3b 64
        E 15 9b 47 00
        E 0 9b 3b 00
        E 15 9b 3b 64
        E 0 9b 47 64
        E 15 9b 3b 00
        E 0 9b 47 00
        E 15 9b 47 64
        E 0 9b 3b 64
        E 15 9b 47 00
        E 0 9b 3b 00
        E 15 9b 47 64
        E 0 9b 3b 64
        E 15 9b 47 00
        E 0 9b 3b 00
        E 15 9b 3b 64
        E 0 9b 47 64
        E 15 9b 3b 00
        E 0 9b 47 00
        E 15 9b 47 64
        E 0 9b 3b 64
        E 45 9b 47 00
        E 0 9b 3b 00
        E 15 9b 40 64
        E 0 9b 4c 64
        E 15 9b 40 00
        E 0 9b 4c 00
        E 15 9b 4c 64
        E 0 9b 40 64
        E 15 9b 4c 00
        E 0 9b 40 00
        E 15 9b 3b 64
        E 0 9b 47 64
        E 15 9b 3b 00
        E 0 9b 47 00
        E 15 9b 47 64
        E 0 9b 3b 64
        E 15 9b 47 00
        E 0 9b 3b 00
        E 15 9b 47 64
        E 0 9b 3b 64
        E 15 9b 47 00
        E 0 9b 3b 00
        E 15 9b 3b 64
        E 0 9b 47 64
        E 15 9b 3b 00
        E 0 9b 47 00
        E 15 9b 47 64
        E 0 9b 3b 64
        E 45 9b 47 00
        E 0 9b 3b 00
        E 15 9b 47 64
        E 0 9b 3b 64
        E 15 9b 47 00
        E 0 9b 3b 00
        E 15 9b 47 64
        E 0 9b 3b 64
        E 15 9b 47 00
        E 0 9b 3b 00
        E 15 9b 47 64
        E 0 9b 3b 64
        E 15 9b 47 00
        E 0 9b 3b 00
        E 15 9b 47 64
        E 0 9b 3b 64
        E 15 9b 47 00
        E 0 9b 3b 00
        E 15 9b 47 64
        E 0 9b 3b 64
        E 15 9b 47 00
        E 0 9b 3b 00
        E 15 9b 47 64
        E 0 9b 3b 64
        E 15 9b 47 00
        E 0 9b 3b 00
        E 15 9b 47 64
        E 0 9b 3b 64
        E 45 9b 47 00
        E 0 9b 3b 00
        E 15 9b 4c 64
        E 0 9b 40 64
        E 15 9b 4c 00
        E 0 9b 40 00
        E 15 9b 40 64
        E 0 9b 4c 64
        E 15 9b 40 00
        E 0 9b 4c 00
        E 15 9b 4c 64
        E 0 9b 40 64
        E 15 9b 4c 00
        E 0 9b 40 00
        E 15 9b 40 64
        E 0 9b 4c 64
        E 15 9b 40 00
        E 0 9b 4c 00
        E 15 9b 40 64
        E 0 9b 4c 64
        E 15 9b 40 00
        E 0 9b 4c 00
        E 15 9b 40 64
        E 0 9b 4c 64
        E 15 9b 40 00
        E 0 9b 4c 00
        E 15 9b 40 64
        E 0 9b 4c 64
        E 45 9b 40 00
        E 0 9b 4c 00
        E 15 9b 3e 64
        E 0 9b 4a 64
        E 15 9b 3e 00
        E 0 9b 4a 00
        E 15 9b 3e 64
        E 0 9b 4a 64
        E 15 9b 3e 00
        E 0 9b 4a 00
        E 15 9b 3e 64
        E 0 9b 4a 64
        E 15 9b 3e 00
        E 0 9b 4a 00
        E 15 9b 3e 64
        E 0 9b 4a 64
        E 15 9b 3e 00
        E 0 9b 4a 00
        E 15 9b 4a 64
        E 0 9b 3e 64
        E 15 9b 4a 00
        E 0 9b 3e 00
        E 15 9b 3e 64
        E 0 9b 4a 64
        E 15 9b 3e 00
        E 0 9b 4a 00
        E 15 9b 3e 64
        E 0 9b 4a 64
        E 45 9b 3e 00
        E 0 9b 4a 00
        E 15 9b 39 64
        E 0 9b 45 64
        E 15 9b 39 00
        E 0 9b 45 00
        E 15 9b 45 64
        E 0 9b 39 64
        E 15 9b 45 00
        E 0 9b 39 00
        E 15 9b 3b 64
        E 0 9b 47 64
        E 15 9b 3b 00
        E 0 9b 47 00
        E 15 9b 3b 64
        E 0 9b 47 64
        E 15 9b 3b 00
        E 0 9b 47 00
        E 15 9b 47 64
        E 0 9b 3b 64
        E 15 9b 47 00
        E 0 9b 3b 00
        E 15 9b 3b 64
        E 0 9b 47 64
        E 15 9b 3b 00
        E 0 9b 47 00
        E 15 9b 3b 64
        E 0 9b 47 64
        E 45 9b 3b 00
        E 0 9b 47 00
        E 15 9b 3b 64
        E 0 9b 47 64
        E 15 9b 3b 00
        E 0 9b 47 00
        E 15 9b 47 64
        E 0 9b 3b 64
        E 15 9b 47 00
        E 0 9b 3b 00
        E 15 9b 3b 64
        E 0 9b 47 64
        E 15 9b 3b 00
        E 0 9b 47 00
        E 15 9b 3b 64
        E 0 9b 47 64
        E 15 9b 3b 00
        E 0 9b 47 00
        E 15 9b 47 64
        E 0 9b 3b 64
        E 15 9b 47 00
        E 0 9b 3b 00
        E 15 9b 3b 64
        E 0 9b 47 64
        E 15 9b 3b 00
        E 0 9b 47 00
        E 15 9b 3b 64
        E 0 9b 47 64
        E 45 9b 3b 00
        E 0 9b 47 00
        E 15 9b 40 64
        E 0 9b 4c 64
        E 15 9b 40 00
        E 0 9b 4c 00
        E 15 9b 4c 64
        E 0 9b 40 64
        E 15 9b 4c 00
        E 0 9b 40 00
        E 15 9b 47 64
        E 0 9b 3b 64
        E 15 9b 47 00
        E 0 9b 3b 00
        E 15 9b 3b 64
        E 0 9b 47 64
        E 15 9b 3b 00
        E 0 9b 47 00
        E 15 9b 3b 64
        E 0 9b 47 64
        E 15 9b 3b 00
        E 0 9b 47 00
        E 15 9b 47 64
        E 0 9b 3b 64
        E 15 9b 47 00
        E 0 9b 3b 00
        E 15 9b 47 64
        E 0 9b 3b 64
        E 45 9b 47 00
        E 0 9b 3b 00
        E 15 9b 3b 64
        E 0 9b 47 64
        E 15 9b 3b 00
        E 0 9b 47 00
        E 15 9b 3b 64
        E 0 9b 47 64
        E 15 9b 3b 00
        E 0 9b 47 00
        E 15 9b 47 64
        E 0 9b 3b 64
        E 15 9b 47 00
        E 0 9b 3b 00
        E 15 9b 3b 64
        E 0 9b 47 64
        E 15 9b 3b 00
        E 0 9b 47 00
        E 15 9b 3b 64
        E 0 9b 47 64
        E 15 9b 3b 00
        E 0 9b 47 00
        E 15 9b 47 64
        E 0 9b 3b 64
        E 15 9b 47 00
        E 0 9b 3b 00
        E 15 9b 47 64
        E 0 9b 3b 64
        E 45 9b 47 00
        E 0 9b 3b 00
        E 15 9b 40 64
        E 0 9b 4c 64
        E 15 9b 40 00
        E 0 9b 4c 00
        E 15 9b 40 64
        E 0 9b 4c 64
        E 15 9b 40 00
        E 0 9b 4c 00
        E 15 9b 47 64
        E 0 9b 3b 64
        E 15 9b 47 00
        E 0 9b 3b 00
        E 15 9b 3b 64
        E 0 9b 47 64
        E 15 9b 3b 00
        E 0 9b 47 00
        E 15 9b 3b 64
        E 0 9b 47 64
        E 15 9b 3b 00
        E 0 9b 47 00
        E 15 9b 3b 64
        E 0 9b 47 64
        E 15 9b 3b 00
        E 0 9b 47 00
        E 15 9b 3b 64
        E 0 9b 47 64
        E 45 9b 3b 00
        E 0 9b 47 00
        E 15 9b 47 64
        E 0 9b 3b 64
        E 15 9b 47 00
        E 0 9b 3b 00
        E 15 9b 47 64
        E 0 9b 3b 64
        E 15 9b 47 00
        E 0 9b 3b 00
        E 15 9b 3b 64
        E 0 9b 47 64
        E 15 9b 3b 00
        E 0 9b 47 00
        E 15 9b 3b 64
        E 0 9b 47 64
        E 15 9b 3b 00
        E 0 9b 47 00
        E 15 9b 3b 64
        E 0 9b 47 64
        E 15 9b 3b 00
        E 0 9b 47 00
        E 15 9b 47 64
        E 0 9b 3b 64
        E 15 9b 47 00
        E 0 9b 3b 00
        E 15 9b 47 64
        E 0 9b 3b 64
        E 45 9b 47 00
        E 0 9b 3b 00
        E 15 9b 40 64
        E 0 9b 4c 64
        E 15 9b 40 00
        E 0 9b 4c 00
        E 15 9b 4c 64
        E 0 9b 40 64
        E 15 9b 4c 00
        E 0 9b 40 00
        E 15 9b 4c 64
        E 0 9b 40 64
        E 15 9b 4c 00
        E 0 9b 40 00
        E 15 9b 40 64
        E 0 9b 4c 64
        E 15 9b 40 00
        E 0 9b 4c 00
        E 15 9b 40 64
        E 0 9b 4c 64
        E 15 9b 40 00
        E 0 9b 4c 00
        E 15 9b 4c 64
        E 0 9b 40 64
        E 15 9b 4c 00
        E 0 9b 40 00
        E 15 9b 40 64
        E 0 9b 4c 64
        E 45 9b 40 00
        E 0 9b 4c 00
        E 15 9b 4a 64
        E 0 9b 3e 64
        E 15 9b 4a 00
        E 0 9b 3e 00
        E 15 9b 4a 64
        E 0 9b 3e 64
        E 15 9b 4a 00
        E 0 9b 3e 00
        E 15 9b 4a 64
        E 0 9b 3e 64
        E 15 9b 4a 00
        E 0 9b 3e 00
        E 15 9b 4a 64
        E 0 9b 3e 64
        E 15 9b 4a 00
        E 0 9b 3e 00
        E 15 9b 3e 64
        E 0 9b 4a 64
        E 15 9b 3e 00
        E 0 9b 4a 00
        E 15 9b 4a 64
        E 0 9b 3e 64
        E 15 9b 4a 00
        E 0 9b 3e 00
        E 15 9b 3e 64
        E 0 9b 4a 64
        E 45 9b 3e 00
        E 0 9b 4a 00
        E 15 9b 45 64
        E 0 9b 39 64
        E 15 9b 45 00
        E 0 9b 39 00
        E 15 9b 45 64
        E 0 9b 39 64
        E 15 9b 45 00
        E 0 9b 39 00
        E 15 9b 3b 64
        E 0 9b 47 64
        E 15 9b 3b 00
        E 0 9b 47 00
        E 15 9b 47 64
        E 0 9b 3b 64
        E 15 9b 47 00
        E 0 9b 3b 00
        E 15 9b 47 64
        E 0 9b 3b 64
        E 15 9b 47 00
        E 0 9b 3b 00
        E 15 9b 47 64
        E 0 9b 3b 64
        E 15 9b 47 00
        E 0 9b 3b 00
        E 15 9b 3b 64
        E 0 9b 47 64
        E 45 9b 3b 00
        E 0 9b 47 00
        E 15 9b 47 64
        E 0 9b 3b 64
        E 15 9b 47 00
        E 0 9b 3b 00
        E 15 9b 47 64
        E 0 9b 3b 64
        E 15 9b 47 00
        E 0 9b 3b 00
        E 15 9b 47 64
        E 0 9b 3b 64
        E 15 9b 47 00
        E 0 9b 3b 00
        E 15 9b 47 64
        E 0 9b 3b 64
        E 15 9b 47 00
        E 0 9b 3b 00
        E 15 9b 47 64
        E 0 9b 3b 64
        E 15 9b 47 00
        E 0 9b 3b 00
        E 15 9b 47 64
        E 0 9b 3b 64
        E 15 9b 47 00
        E 0 9b 3b 00
        E 15 9b 3b 64
        E 0 9b 47 64
        E 45 9b 3b 00
        E 0 9b 47 00
        E 15 9b 4c 64
        E 0 9b 40 64
        E 15 9b 4c 00
        E 0 9b 40 00
        E 15 9b 4c 64
        E 0 9b 40 64
        E 15 9b 4c 00
        E 0 9b 40 00
        E 15 9b 47 64
        E 0 9b 3b 64
        E 15 9b 47 00
        E 0 9b 3b 00
        E 15 9b 3b 64
        E 0 9b 47 64
        E 15 9b 3b 00
        E 0 9b 47 00
        E 15 9b 3b 64
        E 0 9b 47 64
        E 15 9b 3b 00
        E 0 9b 47 00
        E 15 9b 3b 64
        E 0 9b 47 64
        E 15 9b 3b 00
        E 0 9b 47 00
        E 15 9b 47 64
        E 0 9b 3b 64
        E 45 9b 47 00
        E 0 9b 3b 00
        E 15 9b 3b 64
        E 0 9b 47 64
        E 15 9b 3b 00
        E 0 9b 47 00
        E 15 9b 3b 64
        E 0 9b 47 64
        E 15 9b 3b 00
        E 0 9b 47 00
        E 15 9b 3b 64
        E 0 9b 47 64
        E 15 9b 3b 00
        E 0 9b 47 00
        E 15 9b 3b 64
        E 0 9b 47 64
        E 15 9b 3b 00
        E 0 9b 47 00
        E 15 9b 3b 64
        E 0 9b 47 64
        E 15 9b 3b 00
        E 0 9b 47 00
        E 15 9b 3b 64
        E 0 9b 47 64
        E 15 9b 3b 00
        E 0 9b 47 00
        E 15 9b 47 64
        E 0 9b 3b 64
        E 45 9b 47 00
        E 0 9b 3b 00
        E 15 9b 4c 64
        E 0 9b 40 64
        E 15 9b 4c 00
        E 0 9b 40 00
        E 15 9b 4c 64
        E 0 9b 40 64
        E 15 9b 4c 00
        E 0 9b 40 00
        E 15 9b 47 64
        E 0 9b 3b 64
        E 15 9b 47 00
        E 0 9b 3b 00
        E 15 9b 3b 64
        E 0 9b 47 64
        E 15 9b 3b 00
        E 0 9b 47 00
        E 15 9b 47 64
        E 0 9b 3b 64
        E 15 9b 47 00
        E 0 9b 3b 00
        E 15 9b 3b 64
        E 0 9b 47 64
        E 15 9b 3b 00
        E 0 9b 47 00
        E 15 9b 3b 64
        E 0 9b 47 64
        E 45 9b 3b 00
        E 0 9b 47 00
        E 15 9b 3b 64
        E 0 9b 47 64
        E 15 9b 3b 00
        E 0 9b 47 00
        E 15 9b 3b 64
        E 0 9b 47 64
        E 15 9b 3b 00
        E 0 9b 47 00
        E 15 9b 3b 64
        E 0 9b 47 64
        E 15 9b 3b 00
        E 0 9b 47 00
        E 15 9b 3b 64
        E 0 9b 47 64
        E 15 9b 3b 00
        E 0 9b 47 00
        E 15 9b 47 64
        E 0 9b 3b 64
        E 15 9b 47 00
        E 0 9b 3b 00
        E 15 9b 3b 64
        E 0 9b 47 64
        E 15 9b 3b 00
        E 0 9b 47 00
        E 15 9b 3b 64
        E 0 9b 47 64
        E 45 9b 3b 00
        E 0 9b 47 00
        E 15 9b 4c 64
        E 0 9b 40 64
        E 15 9b 4c 00
        E 0 9b 40 00
        E 15 9b 40 64
        E 0 9b 4c 64
        E 15 9b 40 00
        E 0 9b 4c 00
        E 15 9b 40 64
        E 0 9b 4c 64
        E 15 9b 40 00
        E 0 9b 4c 00
        E 15 9b 40 64
        E 0 9b 4c 64
        E 15 9b 40 00
        E 0 9b 4c 00
        E 15 9b 4c 64
        E 0 9b 40 64
        E 15 9b 4c 00
        E 0 9b 40 00
        E 15 9b 4c 64
        E 0 9b 40 64
        E 15 9b 4c 00
        E 0 9b 40 00
        E 15 9b 4c 64
        E 0 9b 40 64
        E 45 9b 4c 00
        E 0 9b 40 00
        E 15 9b 4a 64
        E 0 9b 3e 64
        E 15 9b 4a 00
        E 0 9b 3e 00
        E 15 9b 3e 64
        E 0 9b 4a 64
        E 15 9b 3e 00
        E 0 9b 4a 00
        E 15 9b 3e 64
        E 0 9b 4a 64
        E 15 9b 3e 00
        E 0 9b 4a 00
        E 15 9b 3e 64
        E 0 9b 4a 64
        E 15 9b 3e 00
        E 0 9b 4a 00
        E 15 9b 4a 64
        E 0 9b 3e 64
        E 15 9b 4a 00
        E 0 9b 3e 00
        E 15 9b 3e 64
        E 0 9b 4a 64
        E 15 9b 3e 00
        E 0 9b 4a 00
        E 15 9b 4a 64
        E 0 9b 3e 64
        E 45 9b 4a 00
        E 0 9b 3e 00
        E 15 9b 39 64
        E 0 9b 45 64
        E 15 9b 39 00
        E 0 9b 45 00
        E 15 9b 45 64
        E 0 9b 39 64
        E 15 9b 45 00
        E 0 9b 39 00
        E 15 9b 3b 64
        E 0 9b 47 64
        E 15 9b 3b 00
        E 0 9b 47 00
        E 15 9b 3b 64
        E 0 9b 47 64
        E 15 9b 3b 00
        E 0 9b 47 00
        E 15 9b 47 64
        E 0 9b 3b 64
        E 15 9b 47 00
        E 0 9b 3b 00
        E 15 9b 3b 64
        E 0 9b 47 64
        E 15 9b 3b 00
        E 0 9b 47 00
        E 15 9b 47 64
        E 0 9b 3b 64
        E 45 9b 47 00
        E 0 9b 3b 00
        E 15 9b 3b 64
        E 0 9b 47 64
        E 15 9b 3b 00
        E 0 9b 47 00
        E 15 9b 47 64
        E 0 9b 3b 64
        E 15 9b 47 00
        E 0 9b 3b 00
        E 15 9b 3b 64
        E 0 9b 47 64
        E 15 9b 3b 00
        E 0 9b 47 00
        E 15 9b 3b 64
        E 0 9b 47 64
        E 15 9b 3b 00
        E 0 9b 47 00
        E 15 9b 47 64
        E 0 9b 3b 64
        E 15 9b 47 00
        E 0 9b 3b 00
        E 15 9b 3b 64
        E 0 9b 47 64
        E 15 9b 3b 00
        E 0 9b 47 00
        E 15 9b 47 64
        E 0 9b 3b 64
        E 45 9b 47 00
        E 0 9b 3b 00
        E 15 9b 40 64
        E 0 9b 4c 64
        E 15 9b 40 00
        E 0 9b 4c 00
        E 15 9b 4c 64
        E 0 9b 40 64
        E 15 9b 4c 00
        E 0 9b 40 00
        E 15 9b 3b 64
        E 0 9b 47 64
        E 15 9b 3b 00
        E 0 9b 47 00
        E 15 9b 3b 64
        E 0 9b 47 64
        E 15 9b 3b 00
        E 0 9b 47 00
        E 15 9b 47 64
        E 0 9b 3b 64
        E 15 9b 47 00
        E 0 9b 3b 00
        E 15 9b 3b 64
        E 0 9b 47 64
        E 15 9b 3b 00
        E 0 9b 47 00
        E 15 9b 47 64
        E 0 9b 3b 64
        E 45 9b 47 00
        E 0 9b 3b 00
        E 15 9b 3b 64
        E 0 9b 47 64
        E 15 9b 3b 00
        E 0 9b 47 00
        E 15 9b 47 64
        E 0 9b 3b 64
        E 15 9b 47 00
        E 0 9b 3b 00
        E 15 9b 3b 64
        E 0 9b 47 64
        E 15 9b 3b 00
        E 0 9b 47 00
        E 15 9b 3b 64
        E 0 9b 47 64
        E 15 9b 3b 00
        E 0 9b 47 00
        E 15 9b 47 64
        E 0 9b 3b 64
        E 15 9b 47 00
        E 0 9b 3b 00
        E 15 9b 3b 64
        E 0 9b 47 64
        E 15 9b 3b 00
        E 0 9b 47 00
        E 15 9b 47 64
        E 0 9b 3b 64
        E 45 9b 47 00
        E 0 9b 3b 00
        E 15 9b 40 64
        E 0 9b 4c 64
        E 15 9b 40 00
        E 0 9b 4c 00
        E 15 9b 4c 64
        E 0 9b 40 64
        E 15 9b 4c 00
        E 0 9b 40 00
        E 15 9b 3b 64
        E 0 9b 47 64
        E 15 9b 3b 00
        E 0 9b 47 00
        E 15 9b 47 64
        E 0 9b 3b 64
        E 15 9b 47 00
        E 0 9b 3b 00
        E 15 9b 47 64
        E 0 9b 3b 64
        E 15 9b 47 00
        E 0 9b 3b 00
        E 15 9b 3b 64
        E 0 9b 47 64
        E 15 9b 3b 00
        E 0 9b 47 00
        E 15 9b 47 64
        E 0 9b 3b 64
        E 45 9b 47 00
        E 0 9b 3b 00
        E 15 9b 3b 64
        E 0 9b 47 64
        E 15 9b 3b 00
        E 0 9b 47 00
        E 15 9b 47 64
        E 0 9b 3b 64
        E 15 9b 47 00
        E 0 9b 3b 00
        E 15 9b 3b 64
        E 0 9b 47 64
        E 15 9b 3b 00
        E 0 9b 47 00
        E 15 9b 47 64
        E 0 9b 3b 64
        E 15 9b 47 00
        E 0 9b 3b 00
        E 15 9b 47 64
        E 0 9b 3b 64
        E 15 9b 47 00
        E 0 9b 3b 00
        E 15 9b 3b 64
        E 0 9b 47 64
        E 15 9b 3b 00
        E 0 9b 47 00
        E 15 9b 47 64
        E 0 9b 3b 64
        E 45 9b 47 00
        E 0 9b 3b 00
        E 15 9b 4a 64
        E 0 9b 3e 64
        E 45 9b 4a 00
        E 0 9b 3e 00
        E 15 9b 47 64
        E 0 9b 3b 64
        E 15 9b 47 00
        E 0 9b 3b 00
        E 15 9b 47 64
        E 0 9b 3b 64
        E 15 9b 47 00
        E 0 9b 3b 00
        E 15 9b 3b 64
        E 0 9b 47 64
        E 15 9b 3b 00
        E 0 9b 47 00
        E 15 9b 3b 64
        E 0 9b 47 64
        E 15 9b 3b 00
        E 0 9b 47 00
        E 15 9b 47 64
        E 0 9b 3b 64
        E 45 9b 47 00
        E 0 9b 3b 00
        E 15 9b 3b 64
        E 0 9b 47 64
        E 15 9b 3b 00
        E 0 9b 47 00
        E 15 9b 3b 64
        E 0 9b 47 64
        E 15 9b 3b 00
        E 0 9b 47 00
        E 15 9b 47 64
        E 0 9b 3b 64
        E 15 9b 47 00
        E 0 9b 3b 00
        E 15 9b 3b 64
        E 0 9b 47 64
        E 15 9b 3b 00
        E 0 9b 47 00
        E 15 9b 47 64
        E 0 9b 3b 64
        E 15 9b 47 00
        E 0 9b 3b 00
        E 15 9b 3b 64
        E 0 9b 47 64
        E 15 9b 3b 00
        E 0 9b 47 00
        E 15 9b 4a 64
        E 0 9b 3e 64
        E 45 9b 4a 00
        E 0 9b 3e 00
        E 15 9b 3e 64
        E 0 9b 4a 64
        E 45 9b 3e 00
        E 0 9b 4a 00
        E 15 9b 3b 64
        E 0 9b 47 64
        E 15 9b 3b 00
        E 0 9b 47 00
        E 15 9b 47 64
        E 0 9b 3b 64
        E 15 9b 47 00
        E 0 9b 3b 00
        E 15 9b 47 64
        E 0 9b 3b 64
        E 15 9b 47 00
        E 0 9b 3b 00
        E 15 9b 3b 64
        E 0 9b 47 64
        E 15 9b 3b 00
        E 0 9b 47 00
        E 15 9b 47 64
        E 0 9b 3b 64
        E 45 9b 47 00
        E 0 9b 3b 00
        E 15 9b 3b 64
        E 0 9b 47 64
        E 15 9b 3b 00
        E 0 9b 47 00
        E 15 9b 3b 64
        E 0 9b 47 64
        E 15 9b 3b 00
        E 0 9b 47 00
        E 15 9b 47 64
        E 0 9b 3b 64
        E 15 9b 47 00
        E 0 9b 3b 00
        E 15 9b 47 64
        E 0 9b 3b 64
        E 15 9b 47 00
        E 0 9b 3b 00
        E 15 9b 3b 64
        E 0 9b 47 64
        E 15 9b 3b 00
        E 0 9b 47 00
        E 15 9b 47 64
        E 0 9b 3b 64
        E 15 9b 47 00
        E 0 9b 3b 00
        E 15 9b 47 64
        E 0 9b 3b 64
        E 45 9b 47 00
        E 0 9b 3b 00
        E 15 9b 4c 64
        E 0 9b 40 64
        E 15 9b 4c 00
        E 0 9b 40 00
        E 15 9b 4c 64
        E 0 9b 40 64
        E 15 9b 4c 00
        E 0 9b 40 00
        E 15 9b 4c 64
        E 0 9b 40 64
        E 15 9b 4c 00
        E 0 9b 40 00
        E 15 9b 4c 64
        E 0 9b 40 64
        E 15 9b 4c 00
        E 0 9b 40 00
        E 15 9b 40 64
        E 0 9b 4c 64
        E 15 9b 40 00
        E 0 9b 4c 00
        E 15 9b 4c 64
        E 0 9b 40 64
        E 15 9b 4c 00
        E 0 9b 40 00
        E 15 9b 4c 64
        E 0 9b 40 64
        E 45 9b 4c 00
        E 0 9b 40 00
        E 15 9b 4a 64
        E 0 9b 3e 64
        E 15 9b 4a 00
        E 0 9b 3e 00
        E 15 9b 4a 64
        E 0 9b 3e 64
        E 15 9b 4a 00
        E 0 9b 3e 00
        E 15 9b 4a 64
        E 0 9b 3e 64
        E 15 9b 4a 00
        E 0 9b 3e 00
        E 15 9b 4a 64
        E 0 9b 3e 64
        E 15 9b 4a 00
        E 0 9b 3e 00
        E 15 9b 3e 64
        E 0 9b 4a 64
        E 15 9b 3e 00
        E 0 9b 4a 00
        E 15 9b 4a 64
        E 0 9b 3e 64
        E 15 9b 4a 00
        E 0 9b 3e 00
        E 15 9b 4a 64
        E 0 9b 3e 64
        E 45 9b 4a 00
        E 0 9b 3e 00
        E 15 9b 45 64
        E 0 9b 39 64
        E 45 9b 45 00
        E 0 9b 39 00
        E 15 9b 3b 64
        E 0 9b 47 64
        E 15 9b 3b 00
        E 0 9b 47 00
        E 15 9b 3b 64
        E 0 9b 47 64
        E 15 9b 3b 00
        E 0 9b 47 00
        E 15 9b 47 64
        E 0 9b 3b 64
        E 15 9b 47 00
        E 0 9b 3b 00
        E 15 9b 47 64
        E 0 9b 3b 64
        E 15 9b 47 00
        E 0 9b 3b 00
        E 15 9b 47 64
        E 0 9b 3b 64
        E 45 9b 47 00
        E 0 9b 3b 00
        E 15 9b 47 64
        E 0 9b 3b 64
        E 15 9b 47 00
        E 0 9b 3b 00
        E 15 9b 47 64
        E 0 9b 3b 64
        E 15 9b 47 00
        E 0 9b 3b 00
        E 15 9b 3b 64
        E 0 9b 47 64
        E 15 9b 3b 00
        E 0 9b 47 00
        E 15 9b 3b 64
        E 0 9b 47 64
        E 15 9b 3b 00
        E 0 9b 47 00
        E 15 9b 47 64
        E 0 9b 3b 64
        E 15 9b 47 00
        E 0 9b 3b 00
        E 15 9b 47 64
        E 0 9b 3b 64
        E 15 9b 47 00
        E 0 9b 3b 00
        E 15 9b 47 64
        E 0 9b 3b 64
        E 45 9b 47 00
        E 0 9b 3b 00
        E 15 9b 4a 64
        E 0 9b 3e 64
        E 45 9b 4a 00
        E 0 9b 3e 00
        E 15 9b 47 64
        E 0 9b 3b 64
        E 15 9b 47 00
        E 0 9b 3b 00
        E 15 9b 3b 64
        E 0 9b 47 64
        E 15 9b 3b 00
        E 0 9b 47 00
        E 15 9b 3b 64
        E 0 9b 47 64
        E 15 9b 3b 00
        E 0 9b 47 00
        E 15 9b 47 64
        E 0 9b 3b 64
        E 15 9b 47 00
        E 0 9b 3b 00
        E 15 9b 47 64
        E 0 9b 3b 64
        E 45 9b 47 00
        E 0 9b 3b 00
        E 15 9b 47 64
        E 0 9b 3b 64
        E 15 9b 47 00
        E 0 9b 3b 00
        E 15 9b 47 64
        E 0 9b 3b 64
        E 15 9b 47 00
        E 0 9b 3b 00
        E 15 9b 47 64
        E 0 9b 3b 64
        E 15 9b 47 00
        E 0 9b 3b 00
        E 15 9b 3b 64
        E 0 9b 47 64
        E 15 9b 3b 00
        E 0 9b 47 00
        E 15 9b 3b 64
        E 0 9b 47 64
        E 15 9b 3b 00
        E 0 9b 47 00
        E 15 9b 47 64
        E 0 9b 3b 64
        E 15 9b 47 00
        E 0 9b 3b 00
        E 15 9b 4a 64
        E 0 9b 3e 64
        E 45 9b 4a 00
        E 0 9b 3e 00
        E 15 9b 4a 64
        E 0 9b 3e 64
        E 45 9b 4a 00
        E 0 9b 3e 00
        E 15 9b 47 64
        E 0 9b 3b 64
        E 15 9b 47 00
        E 0 9b 3b 00
        E 15 9b 47 64
        E 0 9b 3b 64
        E 15 9b 47 00
        E 0 9b 3b 00
        E 15 9b 3b 64
        E 0 9b 47 64
        E 15 9b 3b 00
        E 0 9b 47 00
        E 15 9b 3b 64
        E 0 9b 47 64
        E 15 9b 3b 00
        E 0 9b 47 00
        E 15 9b 47 64
        E 0 9b 3b 64
        E 45 9b 47 00
        E 0 9b 3b 00
        E 15 9b 47 64
        E 0 9b 3b 64
        E 15 9b 47 00
        E 0 9b 3b 00
        E 15 9b 47 64
        E 0 9b 3b 64
        E 15 9b 47 00
        E 0 9b 3b 00
        E 15 9b 47 64
        E 0 9b 3b 64
        E 15 9b 47 00
        E 0 9b 3b 00
        E 15 9b 47 64
        E 0 9b 3b 64
        E 15 9b 47 00
        E 0 9b 3b 00
        E 15 9b 3b 64
        E 0 9b 47 64
        E 15 9b 3b 00
        E 0 9b 47 00
        E 15 9b 3b 64
        E 0 9b 47 64
        E 15 9b 3b 00
        E 0 9b 47 00
        E 15 9b 47 64
        E 0 9b 3b 64
        E 45 9b 47 00
        E 0 9b 3b 00
        E 15 9b 4c 64
        E 0 9b 40 64
        E 15 9b 4c 00
        E 0 9b 40 00
        E 15 9b 4c 64
        E 0 9b 40 64
        E 15 9b 4c 00
        E 0 9b 40 00
        E 15 9b 4c 64
        E 0 9b 40 64
        E 15 9b 4c 00
        E 0 9b 40 00
        E 15 9b 4c 64
        E 0 9b 40 64
        E 15 9b 4c 00
        E 0 9b 40 00
        E 15 9b 40 64
        E 0 9b 4c 64
        E 15 9b 40 00
        E 0 9b 4c 00
        E 15 9b 40 64
        E 0 9b 4c 64
        E 15 9b 40 00
        E 0 9b 4c 00
        E 15 9b 40 64
        E 0 9b 4c 64
        E 45 9b 40 00
        E 0 9b 4c 00
        E 15 9b 4a 64
        E 0 9b 3e 64
        E 15 9b 4a 00
        E 0 9b 3e 00
        E 15 9b 3e 64
        E 0 9b 4a 64
        E 15 9b 3e 00
        E 0 9b 4a 00
        E 15 9b 3e 64
        E 0 9b 4a 64
        E 15 9b 3e 00
        E 0 9b 4a 00
        E 15 9b 4a 64
        E 0 9b 3e 64
        E 15 9b 4a 00
        E 0 9b 3e 00
        E 15 9b 3e 64
        E 0 9b 4a 64
        E 15 9b 3e 00
        E 0 9b 4a 00
        E 15 9b 3e 64
        E 0 9b 4a 64
        E 15 9b 3e 00
        E 0 9b 4a 00
        E 15 9b 4a 64
        E 0 9b 3e 64
        E 45 9b 4a 00
        E 0 9b 3e 00
        E 15 9b 39 64
        E 0 9b 45 64
        E 45 9b 39 00
        E 0 9b 45 00
        E 15 9b 3b 64
        E 0 9b 47 64
        E 15 9b 3b 00
        E 0 9b 47 00
        E 15 9b 47 64
        E 0 9b 3b 64
        E 15 9b 47 00
        E 0 9b 3b 00
        E 15 9b 47 64
        E 0 9b 3b 64
        E 15 9b 47 00
        E 0 9b 3b 00
        E 15 9b 3b 64
        E 0 9b 47 64
        E 15 9b 3b 00
        E 0 9b 47 00
        E 15 9b 3b 64
        E 0 9b 47 64
        E 45 9b 3b 00
        E 0 9b 47 00
        E 15 9b 47 64
        E 0 9b 3b 64
        E 15 9b 47 00
        E 0 9b 3b 00
        E 15 9b 3b 64
        E 0 9b 47 64
        E 15 9b 3b 00
        E 0 9b 47 00
        E 15 9b 3b 64
        E 0 9b 47 64
        E 15 9b 3b 00
        E 0 9b 47 00
        E 15 9b 47 64
        E 0 9b 3b 64
        E 15 9b 47 00
        E 0 9b 3b 00
        E 15 9b 47 64
        E 0 9b 3b 64
        E 15 9b 47 00
        E 0 9b 3b 00
        E 15 9b 47 64
        E 0 9b 3b 64
        E 15 9b 47 00
        E 0 9b 3b 00
        E 15 9b 3e 64
        E 0 9b 4a 64
        E 45 9b 3e 00
        E 0 9b 4a 00
        E 15 9b 4a 64
        E 0 9b 3e 64
        E 45 9b 4a 00
        E 0 9b 3e 00
        E 15 9b 47 64
        E 0 9b 3b 64
        E 15 9b 47 00
        E 0 9b 3b 00
        E 15 9b 3b 64
        E 0 9b 47 64
        E 15 9b 3b 00
        E 0 9b 47 00
        E 15 9b 47 64
        E 0 9b 3b 64
        E 15 9b 47 00
        E 0 9b 3b 00
        E 15 9b 47 64
        E 0 9b 3b 64
        E 15 9b 47 00
        E 0 9b 3b 00
        E 15 9b 47 64
        E 0 9b 3b 64
        E 45 9b 47 00
        E 0 9b 3b 00
        E 15 9b 3b 64
        E 0 9b 47 64
        E 15 9b 3b 00
        E 0 9b 47 00
        E 15 9b 47 64
        E 0 9b 3b 64
        E 15 9b 47 00
        E 0 9b 3b 00
        E 15 9b 47 64
        E 0 9b 3b 64
        E 15 9b 47 00
        E 0 9b 3b 00
        E 15 9b 3b 64
        E 0 9b 47 64
        E 15 9b 3b 00
        E 0 9b 47 00
        E 15 9b 47 64
        E 0 9b 3b 64
        E 15 9b 47 00
        E 0 9b 3b 00
        E 15 9b 47 64
        E 0 9b 3b 64
        E 15 9b 47 00
        E 0 9b 3b 00
        E 15 9b 4a 64
        E 0 9b 3e 64
        E 45 9b 4a 00
        E 0 9b 3e 00
        E 15 9b 3e 64
        E 0 9b 4a 64
        E 45 9b 3e 00
        E 0 9b 4a 00
        E 15 9b 47 64
        E 0 9b 3b 64
        E 15 9b 47 00
        E 0 9b 3b 00
        E 15 9b 47 64
        E 0 9b 3b 64
        E 15 9b 47 00
        E 0 9b 3b 00
        E 15 9b 3b 64
        E 0 9b 47 64
        E 15 9b 3b 00
        E 0 9b 47 00
        E 15 9b 47 64
        E 0 9b 3b 64
        E 15 9b 47 00
        E 0 9b 3b 00
        E 15 9b 4a 64
        E 0 9b 3e 64
        E 45 9b 4a 00
        E 0 9b 3e 00
        E 15 9b 4a 64
        E 0 9b 3e 64
        E 45 9b 4a 00
        E 0 9b 3e 00
        E 15 9b 3b 64
        E 0 9b 47 64
        E 15 9b 3b 00
        E 0 9b 47 00
        E 15 9b 47 64
        E 0 9b 3b 64
        E 15 9b 47 00
        E 0 9b 3b 00
        E 15 9b 47 64
        E 0 9b 3b 64
        E 15 9b 47 00
        E 0 9b 3b 00
        E 15 9b 3b 64
        E 0 9b 47 64
        E 15 9b 3b 00
        E 0 9b 47 00
        E 15 9b 4a 64
        E 0 9b 3e 64
        E 45 9b 4a 00
        E 0 9b 3e 00
        E 15 9b 4a 64
        E 0 9b 3e 64
        E 45 9b 4a 00
        E 0 9b 3e 00
        E 15 9b 47 64
        E 0 9b 3b 64
        E 15 9b 47 00
        E 0 9b 3b 00
        E 15 9b 3b 64
        E 0 9b 47 64
        E 15 9b 3b 00
        E 0 9b 47 00
        E 15 9b 4a 64
        E 0 9b 3e 64
        E 45 9b 4a 00
        E 0 9b 3e 00
        E 15 9b 47 64
        E 0 9b 3b 64
        E 15 9b 47 00
        E 0 9b 3b 00
        E 15 9b 3b 64
        E 0 9b 47 64
        E 15 9b 3b 00
        E 0 9b 47 00
        E 15 9b 4a 64
        E 0 9b 3e 64
        E 45 9b 4a 00
        E 0 9b 3e 00
        E 15 9b 47 64
        E 0 9b 3b 64
        E 15 9b 47 00
        E 0 9b 3b 00
        E 15 9b 47 64
        E 0 9b 3b 64
        E 15 9b 47 00
        E 0 9b 3b 00
        E 15 9b 3e 64
        E 0 9b 4a 64
        E 45 9b 3e 00
        E 0 9b 4a 00
        E 15 9b 47 64
        E 0 9b 3b 64
        E 15 9b 47 00
        E 0 9b 3b 00
        E 15 9b 47 64
        E 0 9b 3b 64
        E 15 9b 47 00
        E 0 9b 3b 00
        E 15 9b 3e 64
        E 0 9b 4a 64
        E 45 9b 3e 00
        E 0 9b 4a 00
        E 15 b0 7b 00
        CCINTERP 32
        CHASE_CC_TAKEOFFS 1
        GUID {1101B316-475A-0504-8796-63FC60B61FD3}
        IGNTEMPO 0 120 4 4
        SRCCOLOR 12
      >
    >
  >
  <TRACK {34DC22FB-0D21-92DE-5A29-759B65231602}
    NAME "Track13 - Darude_-_Sandstorm_out"
    PEAKCOL 16576
    BEAT -1
    AUTOMODE 0
    VOLPAN 1 0 -1 -1 1
    MUTESOLO 0 0 0
    IPHASE 0
    PLAYOFFS 0 1
    ISBUS 0 0
    BUSCOMP 0 0 0 0 0
    SHOWINMIX 1 0.6667 0.5 1 0.5 -1 -1 -1
    FREEMODE 0
    SEL 0
    REC 0 0 1 0 0 0 0
    VU 2
    TRACKHEIGHT 0 0 0 0 0 0
    INQ 0 0 0 0.5 100 0 0 100
    NCHAN 2
    FX 1
    TRACKID {34DC22FB-0D21-92DE-5A29-759B65231602}
    PERF 0
    MIDIOUT -1
    MAINSEND 1 0
    <ITEM
      POSITION 0
      SNAPOFFS 0
      LENGTH 107.826184
      LOOP 1
      ALLTAKES 0
      FADEIN 1 0.01 0 1 0 0 0
      FADEOUT 1 0.01 0 1 0 0 0
      MUTE 0 0
      SEL 1
      IGUID {D251AECB-92CF-D811-8FAF-2A278FF19A04}
      IID 13
      NAME "Track13 - Darude_-_Sandstorm_out.mid"
      VOLPAN 1 0 1 -1
      SOFFS 0 0
      PLAYRATE 1 1 0 -1 0 0.0025
      CHANMODE 0
      GUID {BCC0158C-6350-BD5F-CD85-F762D4B5EB20}
      <SOURCE MIDI
        HASDATA 1 120 QN
        CCINTERP 32
        POOLEDEVTS {3C518A54-3040-F632-AA42-B472B4A96139}
        <X 0 0 0 0 3 Track13
          /wNUcmFjazEz
        >
        E 0 cc 00 00
        E 0 bc 07 7f
        E 960 9c 58 69
        E 3840 9c 58 00
        E 17280 9c 58 64
        E 7679 9c 58 00
        E 1 b0 7b 00
        CCINTERP 32
        CHASE_CC_TAKEOFFS 1
        GUID {A6958ABD-2FEA-B883-DFED-D039AE604A1E}
        IGNTEMPO 0 120 4 4
        SRCCOLOR 13
      >
    >
  >
  <TRACK {3FE724F8-5832-E70F-4A9E-62ED0FDA7564}
    NAME "Track14 - Darude_-_Sandstorm_out"
    PEAKCOL 16576
    BEAT -1
    AUTOMODE 0
    VOLPAN 1 0 -1 -1 1
    MUTESOLO 0 0 0
    IPHASE 0
    PLAYOFFS 0 1
    ISBUS 0 0
    BUSCOMP 0 0 0 0 0
    SHOWINMIX 1 0.6667 0.5 1 0.5 -1 -1 -1
    FREEMODE 0
    SEL 0
    REC 0 0 1 0 0 0 0
    VU 2
    TRACKHEIGHT 0 0 0 0 0 0
    INQ 0 0 0 0.5 100 0 0 100
    NCHAN 2
    FX 1
    TRACKID {3FE724F8-5832-E70F-4A9E-62ED0FDA7564}
    PERF 0
    MIDIOUT -1
    MAINSEND 1 0
    <ITEM
      POSITION 0
      SNAPOFFS 0
      LENGTH 80.000072
      LOOP 1
      ALLTAKES 0
      FADEIN 1 0.01 0 1 0 0 0
      FADEOUT 1 0.01 0 1 0 0 0
      MUTE 0 0
      SEL 1
      IGUID {F183C3A5-55C2-3050-10E3-3BADE45C5FD2}
      IID 14
      NAME "Track14 - Darude_-_Sandstorm_out.mid"
      VOLPAN 1 0 1 -1
      SOFFS 0 0
      PLAYRATE 1 1 0 -1 0 0.0025
      CHANMODE 0
      GUID {80998BB9-E545-0997-C6B8-1A3AE38EC026}
      <SOURCE MIDI
        HASDATA 1 120 QN
        CCINTERP 32
        POOLEDEVTS {8FF401DA-7046-407A-8186-038426506372}
        <X 0 0 0 0 3 Track14
          /wNUcmFjazE0
        >
        E 0 cd 00 00
        E 0 bd 07 7f
        E 16320 9d 53 64
        E 30 9d 53 00
        E 0 9d 4f 64
        E 30 9d 4f 00
        E 0 9d 4c 64
        E 30 9d 4c 00
        E 0 9d 4f 64
        E 30 9d 4f 00
        E 0 9d 53 64
        E 30 9d 53 00
        E 0 9d 4f 64
        E 30 9d 4f 00
        E 0 9d 4c 64
        E 30 9d 4c 00
        E 0 9d 4f 64
        E 30 9d 4f 00
        E 0 9d 53 64
        E 30 9d 53 00
        E 0 9d 4f 64
        E 30 9d 4f 00
        E 0 9d 4c 64
        E 30 9d 4c 00
        E 0 9d 4f 64
        E 30 9d 4f 00
        E 0 9d 53 64
        E 30 9d 53 00
        E 0 9d 4f 64
        E 30 9d 4f 00
        E 0 9d 4c 64
        E 30 9d 4c 00
        E 0 9d 4f 64
        E 30 9d 4f 00
        E 0 9d 53 64
        E 30 9d 53 00
        E 0 9d 4f 64
        E 30 9d 4f 00
        E 0 9d 4c 64
        E 30 9d 4c 00
        E 0 9d 4f 64
        E 30 9d 4f 00
        E 0 9d 53 64
        E 30 9d 53 00
        E 0 9d 4f 64
        E 30 9d 4f 00
        E 0 9d 4c 64
        E 30 9d 4c 00
        E 0 9d 4f 64
        E 30 9d 4f 00
        E 0 9d 53 64
        E 30 9d 53 00
        E 0 9d 4f 64
        E 30 9d 4f 00
        E 0 9d 4c 64
        E 30 9d 4c 00
        E 0 9d 4f 64
        E 30 9d 4f 00
        E 0 9d 53 64
        E 30 9d 53 00
        E 0 9d 4f 64
        E 30 9d 4f 00
        E 0 9d 4c 64
        E 30 9d 4c 00
        E 0 9d 4f 64
        E 30 9d 4f 00
        E 0 9d 53 64
        E 30 9d 53 00
        E 0 9d 4f 64
        E 30 9d 4f 00
        E 0 9d 4c 64
        E 30 9d 4c 00
        E 0 9d 4f 64
        E 30 9d 4f 00
        E 0 9d 53 64
        E 30 9d 53 00
        E 0 9d 4f 64
        E 30 9d 4f 00
        E 0 9d 4c 64
        E 30 9d 4c 00
        E 0 9d 4f 64
        E 30 9d 4f 00
        E 0 9d 53 64
        E 30 9d 53 00
        E 0 9d 4f 64
        E 30 9d 4f 00
        E 0 9d 4c 64
        E 30 9d 4c 00
        E 0 9d 4f 64
        E 30 9d 4f 00
        E 0 9d 53 64
        E 30 9d 53 00
        E 0 9d 4f 64
        E 30 9d 4f 00
        E 0 9d 4c 64
        E 30 9d 4c 00
        E 0 9d 4f 64
        E 30 9d 4f 00
        E 0 9d 51 64
        E 30 9d 51 00
        E 0 9d 4e 64
        E 30 9d 4e 00
        E 0 9d 4a 64
        E 30 9d 4a 00
        E 0 9d 4e 64
        E 30 9d 4e 00
        E 0 9d 51 64
        E 30 9d 51 00
        E 0 9d 4e 64
        E 30 9d 4e 00
        E 0 9d 4a 64
        E 30 9d 4a 00
        E 0 9d 4e 64
        E 30 9d 4e 00
        E 0 9d 51 64
        E 30 9d 51 00
        E 0 9d 4e 64
        E 30 9d 4e 00
        E 0 9d 4a 64
        E 30 9d 4a 00
        E 0 9d 4e 64
        E 30 9d 4e 00
        E 0 9d 51 64
        E 30 9d 51 00
        E 0 9d 4e 64
        E 30 9d 4e 00
        E 0 9d 4a 64
        E 30 9d 4a 00
        E 0 9d 4e 64
        E 30 9d 4e 00
        E 0 9d 53 64
        E 30 9d 53 00
        E 0 9d 4f 64
        E 30 9d 4f 00
        E 0 9d 4c 64
        E 30 9d 4c 00
        E 0 9d 4f 64
        E 30 9d 4f 00
        E 0 9d 53 64
        E 30 9d 53 00
        E 0 9d 4f 64
        E 30 9d 4f 00
        E 0 9d 4c 64
        E 30 9d 4c 00
        E 0 9d 4f 64
        E 30 9d 4f 00
        E 0 9d 53 64
        E 30 9d 53 00
        E 0 9d 4f 64
        E 30 9d 4f 00
        E 0 9d 4c 64
        E 30 9d 4c 00
        E 0 9d 4f 64
        E 30 9d 4f 00
        E 0 9d 53 64
        E 30 9d 53 00
        E 0 9d 4f 64
        E 30 9d 4f 00
        E 0 9d 4c 64
        E 30 9d 4c 00
        E 0 9d 4f 64
        E 30 9d 4f 00
        E 0 9d 53 64
        E 30 9d 53 00
        E 0 9d 4f 64
        E 30 9d 4f 00
        E 0 9d 4c 64
        E 30 9d 4c 00
        E 0 9d 4f 64
        E 30 9d 4f 00
        E 0 9d 53 64
        E 30 9d 53 00
        E 0 9d 4f 64
        E 30 9d 4f 00
        E 0 9d 4c 64
        E 30 9d 4c 00
        E 0 9d 4f 64
        E 30 9d 4f 00
        E 0 9d 53 64
        E 30 9d 53 00
        E 0 9d 4f 64
        E 30 9d 4f 00
        E 0 9d 4c 64
        E 30 9d 4c 00
        E 0 9d 4f 64
        E 30 9d 4f 00
        E 0 9d 53 64
        E 30 9d 53 00
        E 0 9d 4f 64
        E 30 9d 4f 00
        E 0 9d 4c 64
        E 30 9d 4c 00
        E 0 9d 4f 64
        E 30 9d 4f 00
        E 0 9d 53 64
        E 30 9d 53 00
        E 0 9d 4f 64
        E 30 9d 4f 00
        E 0 9d 4c 64
        E 30 9d 4c 00
        E 0 9d 4f 64
        E 30 9d 4f 00
        E 0 9d 53 64
        E 30 9d 53 00
        E 0 9d 4f 64
        E 30 9d 4f 00
        E 0 9d 4c 64
        E 30 9d 4c 00
        E 0 9d 4f 64
        E 30 9d 4f 00
        E 0 9d 53 64
        E 30 9d 53 00
        E 0 9d 4f 64
        E 30 9d 4f 00
        E 0 9d 4c 64
        E 30 9d 4c 00
        E 0 9d 4f 64
        E 30 9d 4f 00
        E 0 9d 53 64
        E 30 9d 53 00
        E 0 9d 4f 64
        E 30 9d 4f 00
        E 0 9d 4c 64
        E 30 9d 4c 00
        E 0 9d 4f 64
        E 30 9d 4f 00
        E 0 9d 51 64
        E 30 9d 51 00
        E 0 9d 4e 64
        E 30 9d 4e 00
        E 0 9d 4a 64
        E 30 9d 4a 00
        E 0 9d 4e 64
        E 30 9d 4e 00
        E 0 9d 51 64
        E 30 9d 51 00
        E 0 9d 4e 64
        E 30 9d 4e 00
        E 0 9d 4a 64
        E 30 9d 4a 00
        E 0 9d 4e 64
        E 30 9d 4e 00
        E 0 9d 51 64
        E 30 9d 51 00
        E 0 9d 4e 64
        E 30 9d 4e 00
        E 0 9d 4a 64
        E 30 9d 4a 00
        E 0 9d 4e 64
        E 30 9d 4e 00
        E 0 9d 51 64
        E 30 9d 51 00
        E 0 9d 4e 64
        E 30 9d 4e 00
        E 0 9d 4a 64
        E 30 9d 4a 00
        E 0 9d 4e 64
        E 30 9d 4e 00
        E 0 9d 53 64
        E 30 9d 53 00
        E 0 9d 4f 64
        E 30 9d 4f 00
        E 0 9d 4c 64
        E 30 9d 4c 00
        E 0 9d 4f 64
        E 30 9d 4f 00
        E 0 9d 53 64
        E 30 9d 53 00
        E 0 9d 4f 64
        E 30 9d 4f 00
        E 0 9d 4c 64
        E 30 9d 4c 00
        E 0 9d 4f 64
        E 30 9d 4f 00
        E 0 9d 53 64
        E 30 9d 53 00
        E 0 9d 4f 64
        E 30 9d 4f 00
        E 0 9d 4c 64
        E 30 9d 4c 00
        E 0 9d 4f 64
        E 30 9d 4f 00
        E 0 9d 53 64
        E 30 9d 53 00
        E 0 9d 4f 64
        E 30 9d 4f 00
        E 0 9d 4c 64
        E 30 9d 4c 00
        E 0 9d 4f 64
        E 30 9d 4f 00
        E 0 9d 53 64
        E 30 9d 53 00
        E 0 9d 4f 64
        E 30 9d 4f 00
        E 0 9d 4c 64
        E 30 9d 4c 00
        E 0 9d 4f 64
        E 30 9d 4f 00
        E 0 9d 53 64
        E 30 9d 53 00
        E 0 9d 4f 64
        E 30 9d 4f 00
        E 0 9d 4c 64
        E 30 9d 4c 00
        E 0 9d 4f 64
        E 30 9d 4f 00
        E 0 9d 53 64
        E 30 9d 53 00
        E 0 9d 4f 64
        E 30 9d 4f 00
        E 0 9d 4c 64
        E 30 9d 4c 00
        E 0 9d 4f 64
        E 30 9d 4f 00
        E 0 9d 53 64
        E 30 9d 53 00
        E 0 9d 4f 64
        E 30 9d 4f 00
        E 0 9d 4c 64
        E 30 9d 4c 00
        E 0 9d 4f 64
        E 30 9d 4f 00
        E 0 9d 53 64
        E 30 9d 53 00
        E 0 9d 4f 64
        E 30 9d 4f 00
        E 0 9d 4c 64
        E 30 9d 4c 00
        E 0 9d 4f 64
        E 30 9d 4f 00
        E 0 9d 53 64
        E 30 9d 53 00
        E 0 9d 4f 64
        E 30 9d 4f 00
        E 0 9d 4c 64
        E 30 9d 4c 00
        E 0 9d 4f 64
        E 30 9d 4f 00
        E 0 9d 53 64
        E 30 9d 53 00
        E 0 9d 4f 64
        E 30 9d 4f 00
        E 0 9d 4c 64
        E 30 9d 4c 00
        E 0 9d 4f 64
        E 30 9d 4f 00
        E 0 9d 53 64
        E 30 9d 53 00
        E 0 9d 4f 64
        E 30 9d 4f 00
        E 0 9d 4c 64
        E 30 9d 4c 00
        E 0 9d 4f 64
        E 30 9d 4f 00
        E 0 9d 51 64
        E 30 9d 51 00
        E 0 9d 4e 64
        E 30 9d 4e 00
        E 0 9d 4a 64
        E 30 9d 4a 00
        E 0 9d 4e 64
        E 30 9d 4e 00
        E 0 9d 51 64
        E 30 9d 51 00
        E 0 9d 4e 64
        E 30 9d 4e 00
        E 0 9d 4a 64
        E 30 9d 4a 00
        E 0 9d 4e 64
        E 30 9d 4e 00
        E 0 9d 51 64
        E 30 9d 51 00
        E 0 9d 4e 64
        E 30 9d 4e 00
        E 0 9d 4a 64
        E 30 9d 4a 00
        E 0 9d 4e 64
        E 30 9d 4e 00
        E 0 9d 51 64
        E 30 9d 51 00
        E 0 9d 4e 64
        E 30 9d 4e 00
        E 0 9d 4a 64
        E 30 9d 4a 00
        E 0 9d 4e 64
        E 29 9d 4e 00
        E 1 b0 7b 00
        CCINTERP 32
        CHASE_CC_TAKEOFFS 1
        GUID {8D1BB45C-D3A2-8A6E-5C50-26C8E61EE543}
        IGNTEMPO 0 120 4 4
        SRCCOLOR 14
      >
    >
  >
  <TRACK {F951D010-FFA3-90CC-A61C-E4083BC3222C}
    NAME "Track15 - Darude_-_Sandstorm_out"
    PEAKCOL 16576
    BEAT -1
    AUTOMODE 0
    VOLPAN 1 0 -1 -1 1
    MUTESOLO 0 0 0
    IPHASE 0
    PLAYOFFS 0 1
    ISBUS 0 0
    BUSCOMP 0 0 0 0 0
    SHOWINMIX 1 0.6667 0.5 1 0.5 -1 -1 -1
    FREEMODE 0
    SEL 0
    REC 0 0 1 0 0 0 0
    VU 2
    TRACKHEIGHT 0 0 0 0 0 0
    INQ 0 0 0 0.5 100 0 0 100
    NCHAN 2
    FX 1
    TRACKID {F951D010-FFA3-90CC-A61C-E4083BC3222C}
    PERF 0
    MIDIOUT -1
    MAINSEND 1 0
    <ITEM
      POSITION 0
      SNAPOFFS 0
      LENGTH 190.869737
      LOOP 1
      ALLTAKES 0
      FADEIN 1 0.01 0 1 0 0 0
      FADEOUT 1 0.01 0 1 0 0 0
      MUTE 0 0
      SEL 1
      IGUID {8012B5A5-9DCA-3A17-5C6C-D336EAFA3E16}
      IID 15
      NAME "Track15 - Darude_-_Sandstorm_out.mid"
      VOLPAN 1 0 1 -1
      SOFFS 0 0
      PLAYRATE 1 1 0 -1 0 0.0025
      CHANMODE 0
      GUID {9BCDB319-812C-C43A-54B6-DCD05897EA06}
      <SOURCE MIDI
        HASDATA 1 120 QN
        CCINTERP 32
        POOLEDEVTS {B712DFF5-E2BE-F7EA-EEF4-B165A56D8EBF}
        <X 0 0 0 0 3 Track15
          /wNUcmFjazE1
        >
        E 0 ce 00 00
        E 0 be 07 7f
        E 480 9e 48 7f
        E 360 9e 48 00
        E 7320 9e 45 7f
        E 360 9e 45 00
        E 3480 9e 4a 64
        E 360 9e 4a 00
        E 3480 9e 45 7f
        E 360 9e 45 00
        E 5400 9e 45 7f
        E 360 9e 45 00
        E 1560 9e 46 7f
        E 360 9e 46 00
        E 1560 9e 46 7f
        E 360 9e 46 00
        E 3480 9e 45 7f
        E 360 9e 45 00
        E 1560 9e 44 64
        E 360 9e 44 00
        E 1560 9e 46 64
        E 360 9e 46 00
        E 5400 9e 46 64
        E 360 9e 46 00
        E 13080 9e 41 64
        E 359 9e 41 00
        E 1 b0 7b 00
        CCINTERP 32
        CHASE_CC_TAKEOFFS 1
        GUID {78C6AD48-E023-CE61-9314-0B964C3FC02C}
        IGNTEMPO 0 120 4 4
        SRCCOLOR 15
      >
    >
  >
  <TRACK {7CBEC78E-0472-83D9-F22E-C439FF6483F6}
    NAME "Track16 - Darude_-_Sandstorm_out"
    PEAKCOL 16576
    BEAT -1
    AUTOMODE 0
    VOLPAN 1 0 -1 -1 1
    MUTESOLO 0 0 0
    IPHASE 0
    PLAYOFFS 0 1
    ISBUS 0 0
    BUSCOMP 0 0 0 0 0
    SHOWINMIX 1 0.6667 0.5 1 0.5 -1 -1 -1
    FREEMODE 0
    SEL 0
    REC 0 0 1 0 0 0 0
    VU 2
    TRACKHEIGHT 0 0 0 0 0 0
    INQ 0 0 0 0.5 100 0 0 100
    NCHAN 2
    FX 1
    TRACKID {7CBEC78E-0472-83D9-F22E-C439FF6483F6}
    PERF 0
    MIDIOUT -1
    MAINSEND 1 0
    <ITEM
      POSITION 0
      SNAPOFFS 0
      LENGTH 244.782829
      LOOP 1
      ALLTAKES 0
      FADEIN 1 0.01 0 1 0 0 0
      FADEOUT 1 0.01 0 1 0 0 0
      MUTE 0 0
      SEL 1
      IGUID {0C448A3A-D6C5-8506-C7D8-74BB894AAE65}
      IID 16
      NAME "Track16 - Darude_-_Sandstorm_out.mid"
      VOLPAN 1 0 1 -1
      SOFFS 0 0
      PLAYRATE 1 1 0 -1 0 0.0025
      CHANMODE 0
      GUID {A6B10C13-C7C1-4B4D-FFDB-2D2804773058}
      <SOURCE MIDI
        HASDATA 1 120 QN
        CCINTERP 32
        POOLEDEVTS {25B23EAB-EB20-0EDF-0DB1-80F001CCD860}
        <X 0 0 0 0 3 Track16
          /wNUcmFjazE2
        >
        E 0 cf 00 00
        E 0 bf 07 7f
        E 720 9f 02 7f
        E 1200 9f 02 00
        E 2760 9f 05 7f
        E 1080 9f 05 00
        E 0 9f 05 7f
        E 960 9f 05 00
        E 0 9f 05 7f
        E 480 9f 05 00
        E 0 9f 05 7f
        E 480 9f 05 00
        E 0 9f 05 7f
        E 240 9f 05 00
        E 0 9f 05 7f
        E 240 9f 05 00
        E 0 9f 05 7f
        E 480 9f 05 00
        E 13440 9f 1c 7f
        E 1440 9f 1c 00
        E 480 9f 2a 7f
        E 480 9f 2a 00
        E 0 9f 2a 7f
        E 240 9f 2a 00
        E 0 9f 2a 7f
        E 120 9f 2a 00
        E 0 9f 2a 7f
        E 120 9f 2a 00
        E 0 9f 2a 7f
        E 960 9f 2a 00
        E 0 9f 2a 7f
        E 960 9f 2a 00
        E 2880 9f 1c 64
        E 1920 9f 1c 00
        E 0 9f 1c 64
        E 1920 9f 1c 00
        E 0 9f 1c 64
        E 1920 9f 1c 00
        E 30720 9f 3f 64
        E 1319 9f 3f 00
        E 1 b0 7b 00
        CCINTERP 32
        CHASE_CC_TAKEOFFS 1
        GUID {65402925-1365-77C4-F678-8292574ACE66}
        IGNTEMPO 0 120 4 4
        SRCCOLOR 16
      >
    >
  >
>
