<REAPER_PROJECT 0.1 "6.29/linux-x86_64" 1626506727
  RIPPLE 0
  GROUPOVERRIDE 0 0 0
  AUTOXFADE 1
  ENVATTACH 1
  POOLEDENVATTACH 0
  MIXERUIFLAGS 11 48
  PEAKGAIN 1
  FEEDBACK 0
  PANLAW 1
  PROJOFFS 0 0 0
  MAXPROJLEN 0 600
  GRID 3199 8 1 8 1 0 0 0
  TIMEMODE 1 5 -1 30 0 0 -1
  VIDEO_CONFIG 0 0 256
  PANMODE 3
  CURSOR 5.333336
  ZOOM 1.65356763727899 0 0
  VZOOMEX 6 266
  USE_REC_CFG 0
  RECMODE 1
  SMPTESYNC 0 30 100 40 1000 300 0 0 1 0 0
  LOOP 0
  LOOPGRAN 0 4
  RECORD_PATH "" ""
  <RECORD_CFG
  >
  <APPLYFX_CFG
  >
  RENDER_FILE ""
  RENDER_PATTERN ""
  RENDER_FMT 0 2 0
  RENDER_1X 0
  RENDER_RANGE 1 0 0 18 1000
  RENDER_RESAMPLE 3 0 1
  RENDER_ADDTOPROJ 0
  RENDER_STEMS 0
  RENDER_DITHER 0
  TIMELOCKMODE 1
  TEMPOENVLOCKMODE 1
  ITEMMIX 0
  DEFPITCHMODE 589824 0
  TAKELANE 1
  SAMPLERATE 44100 0 0
  <RENDER_CFG
  >
  LOCK 1
  <METRONOME 6 2
    VOL 0.25 0.125
    FREQ 800 1600 1
    BEATLEN 4
    SAMPLES "" ""
    PATTERN 2863311530 2863311529
  >
  GLOBAL_AUTO -1
  TEMPO 120 4 4
  PLAYRATE 1 0 0.25 4
  SELECTION 0 0
  SELECTION2 0 0
  MASTERAUTOMODE 0
  MASTERTRACKHEIGHT 0 0
  MASTERPEAKCOL 16576
  MASTERMUTESOLO 0
  MASTERTRACKVIEW 0 0.6667 0.5 0.5 -1 -1 -1 0 0 0 -1 -1 0
  MASTERHWOUT 0 0 1 0 0 0 0 -1
  MASTER_NCH 2 2
  MASTER_VOLUME 1 0 -1 -1 1
  MASTER_FX 1
  MASTER_SEL 0
  <MASTERPLAYSPEEDENV
    EGUID {1A68DBEE-81EC-4E42-EC75-030D51D9EA78}
    ACT 0 -1
    VIS 0 1 1
    LANEHEIGHT 0 0
    ARM 0
    DEFSHAPE 0 -1 -1
  >
  <TEMPOENVEX
    EGUID {3AF0DFD2-C476-D47D-35C9-FEB0EDD837B2}
    ACT 1 -1
    VIS 1 0 1
    LANEHEIGHT 0 0
    ARM 0
    DEFSHAPE 1 -1 -1
    PT 0.000000000000 89.9999550000 1 262148 0 1
    PT 21.333344000000 94.9999920833 1
    PT 26.385976000000 100.0000000000 1
    PT 31.185976000000 120.0000000000 1
    PT 142.685976000000 89.9999550000 1
    PT 164.019320000000 94.9999920833 1
    PT 169.071952000000 100.0000000000 1
    PT 173.871952000000 120.0000000000 1
  >
  <PROJBAY
  >
  <TRACK {B1769F6A-CBC4-AAC4-21F2-68AA2763A246}
    NAME halo_120
    PEAKCOL 16576
    BEAT -1
    AUTOMODE 0
    VOLPAN 1 0 -1 -1 1
    MUTESOLO 0 0 0
    IPHASE 0
    PLAYOFFS 0 1
    ISBUS 0 0
    BUSCOMP 0 0 0 0 0
    SHOWINMIX 1 0.6667 0.5 1 0.5 -1 -1 -1
    FREEMODE 0
    SEL 0
    REC 0 0 1 0 0 0 0
    VU 2
    TRACKHEIGHT 0 0 0 0 0 0
    INQ 0 0 0 0.5 100 0 0 100
    NCHAN 2
    FX 1
    TRACKID {B1769F6A-CBC4-AAC4-21F2-68AA2763A246}
    PERF 0
    MIDIOUT -1
    MAINSEND 1 0
    <ITEM
      POSITION 0
      SNAPOFFS 0
      LENGTH 173.871952
      LOOP 1
      ALLTAKES 0
      FADEIN 1 0.01 0 1 0 0 0
      FADEOUT 1 0.01 0 1 0 0 0
      MUTE 0 0
      SEL 0
      IGUID {A1478BBE-38DA-E584-1200-078A452EDF9F}
      IID 1
      NAME halo_120.mid
      VOLPAN 1 0 1 -1
      SOFFS 0 0
      PLAYRATE 1 1 0 -1 0 0.0025
      CHANMODE 0
      GUID {0CD2592F-6966-6F8D-D459-7620658F5AD2}
      <SOURCE MIDI
        HASDATA 1 96 QN
        CCINTERP 32
        POOLEDEVTS {82C34E2E-86B1-42D6-6A33-9E5B4057B2F7}
        E 30624 b0 7b 00
        CCINTERP 32
        CHASE_CC_TAKEOFFS 1
        GUID {D46FB9C6-940C-B88F-CC1C-41252BCBABF6}
        IGNTEMPO 0 120 4 4
        SRCCOLOR 23
      >
    >
  >
  <TRACK {EBC627BB-4052-12D5-7416-756D71DA00B1}
    NAME "choir - halo_120"
    PEAKCOL 16576
    BEAT -1
    AUTOMODE 0
    VOLPAN 1 0 -1 -1 1
    MUTESOLO 0 0 0
    IPHASE 0
    PLAYOFFS 0 1
    ISBUS 0 0
    BUSCOMP 0 0 0 0 0
    SHOWINMIX 1 0.6667 0.5 1 0.5 -1 -1 -1
    FREEMODE 0
    SEL 1
    REC 0 0 1 0 0 0 0
    VU 2
    TRACKHEIGHT 0 0 0 0 0 0
    INQ 0 0 0 0.5 100 0 0 100
    NCHAN 2
    FX 1
    TRACKID {EBC627BB-4052-12D5-7416-756D71DA00B1}
    PERF 0
    MIDIOUT 74
    MAINSEND 1 0
    <ITEM
      POSITION 0
      SNAPOFFS 0
      LENGTH 180.871952
      LOOP 1
      ALLTAKES 0
      FADEIN 1 0.01 0 1 0 0 0
      FADEOUT 1 0.01 0 1 0 0 0
      MUTE 0 0
      SEL 1
      IGUID {0DA0C3A1-DD7D-E48B-0A5F-954632D47A98}
      IID 2
      NAME "choir - halo_120.mid"
      VOLPAN 1 0 1 -1
      SOFFS 0 0
      PLAYRATE 1 1 0 -1 0 0.0025
      CHANMODE 0
      GUID {DBA878F6-9564-BB34-0F6A-F38A0926FBD0}
      <SOURCE MIDI
        HASDATA 1 96 QN
        CCINTERP 32
        POOLEDEVTS {5930612E-8C75-1C04-8F95-3B37082606E5}
        <X 0 0 0 0 3 choir
          /wNjaG9pcg==
        >
        E 0 c0 34 00
        E 0 b0 0a 40
        E 0 b0 07 7f
        E 0 e0 00 40
        E 0 b0 65 00
        E 0 b0 64 00
        E 0 b0 06 0c
        E 0 b0 0a 40
        E 0 b0 07 7f
        E 0 e0 00 40
        E 0 b0 65 00
        E 0 b0 64 00
        E 0 b0 06 0c
        E 0 b0 0a 40
        E 0 b0 07 7f
        E 0 e0 00 40
        E 0 b0 07 7f
        E 0 b0 0a 40
        E 0 b0 65 00
        E 0 b0 64 00
        E 0 b0 06 0c
        E 0 b0 0a 40
        E 0 b0 07 7f
        E 0 e0 00 40
        E 0 b0 07 7f
        E 0 b0 0a 40
        E 384 90 28 6e
        E 192 80 28 00
        E 0 90 2a 6e
        E 96 80 2a 00
        E 0 90 2b 6e
        E 96 80 2b 00
        E 0 90 2a 6e
        E 96 80 2a 00
        E 0 90 2d 6e
        E 96 80 2d 00
        E 0 90 2b 6e
        E 96 80 2b 00
        E 0 90 2a 6e
        E 96 80 2a 00
        E 0 90 28 6e
        E 552 80 28 00
        E 24 90 2f 6e
        E 96 80 2f 00
        E 0 90 31 6e
        E 96 80 31 00
        E 0 90 32 6e
        E 288 80 32 00
        E 0 90 31 6e
        E 96 80 31 00
        E 0 90 2d 6e
        E 96 80 2d 00
        E 0 90 31 6e
        E 96 80 31 00
        E 0 90 2f 6e
        E 552 80 2f 00
        E 24 90 23 6e
        E 96 80 23 00
        E 0 90 26 6e
        E 96 80 26 00
        E 0 90 28 6e
        E 96 80 28 00
        E 0 90 2b 6e
        E 96 80 2b 00
        E 0 90 2d 6e
        E 96 80 2d 00
        E 0 90 2a 6e
        E 264 80 2a 00
        E 24 90 28 6e
        E 96 80 28 00
        E 0 90 2b 6e
        E 96 80 2b 00
        E 0 90 2a 6e
        E 96 80 2a 00
        E 0 90 28 6e
        E 96 80 28 00
        E 0 90 2a 6e
        E 96 80 2a 00
        E 0 90 26 6e
        E 264 80 26 00
        E 24 90 28 6e
        E 744 80 28 00
        E 16056 90 28 4b
        E 376 80 28 00
        E 8 90 2a 4b
        E 376 80 2a 00
        E 8 90 2f 4b
        E 376 80 2f 00
        E 8 90 31 4b
        E 360 80 31 00
        E 24 90 28 4b
        E 376 80 28 00
        E 8 90 2a 4b
        E 376 80 2a 00
        E 8 90 2f 4b
        E 376 80 2f 00
        E 8 90 31 4b
        E 1539 b0 07 7e
        E 3 b0 07 7d
        E 3 b0 07 7c
        E 3 b0 07 7b
        E 3 b0 07 7a
        E 3 b0 07 79
        E 3 b0 07 78
        E 3 b0 07 77
        E 3 b0 07 76
        E 3 b0 07 75
        E 3 b0 07 74
        E 3 b0 07 73
        E 3 b0 07 72
        E 4 b0 07 71
        E 3 b0 07 70
        E 3 b0 07 6f
        E 3 b0 07 6e
        E 3 b0 07 6d
        E 3 b0 07 6c
        E 3 b0 07 6b
        E 3 b0 07 6a
        E 3 b0 07 69
        E 3 b0 07 68
        E 3 b0 07 67
        E 3 b0 07 66
        E 3 b0 07 65
        E 3 b0 07 64
        E 4 b0 07 63
        E 3 b0 07 62
        E 3 b0 07 61
        E 3 b0 07 60
        E 3 b0 07 5f
        E 3 b0 07 5e
        E 3 b0 07 5d
        E 3 b0 07 5c
        E 3 b0 07 5b
        E 3 b0 07 5a
        E 3 b0 07 59
        E 3 b0 07 58
        E 3 b0 07 57
        E 3 b0 07 56
        E 4 b0 07 55
        E 3 b0 07 54
        E 3 b0 07 53
        E 3 b0 07 52
        E 3 b0 07 51
        E 3 b0 07 50
        E 3 b0 07 4f
        E 3 b0 07 4e
        E 3 b0 07 4d
        E 3 b0 07 4c
        E 3 b0 07 4b
        E 3 b0 07 4a
        E 3 b0 07 49
        E 3 b0 07 48
        E 4 b0 07 47
        E 3 b0 07 46
        E 3 b0 07 45
        E 3 b0 07 44
        E 3 b0 07 43
        E 3 b0 07 42
        E 3 b0 07 41
        E 3 b0 07 40
        E 3 b0 07 3f
        E 3 b0 07 3e
        E 3 b0 07 3d
        E 3 b0 07 3c
        E 3 b0 07 3b
        E 3 b0 07 3a
        E 4 b0 07 39
        E 3 b0 07 38
        E 3 b0 07 37
        E 3 b0 07 36
        E 3 b0 07 35
        E 3 b0 07 34
        E 3 b0 07 33
        E 3 b0 07 32
        E 3 b0 07 31
        E 3 b0 07 30
        E 3 b0 07 2f
        E 3 b0 07 2e
        E 3 b0 07 2d
        E 3 b0 07 2c
        E 4 b0 07 2b
        E 3 b0 07 2a
        E 3 b0 07 29
        E 3 b0 07 28
        E 3 b0 07 27
        E 3 b0 07 26
        E 3 b0 07 25
        E 3 b0 07 24
        E 3 b0 07 23
        E 3 b0 07 22
        E 3 b0 07 21
        E 3 b0 07 20
        E 3 b0 07 1f
        E 3 b0 07 1e
        E 4 b0 07 1d
        E 3 b0 07 1c
        E 3 b0 07 1b
        E 3 b0 07 1a
        E 3 b0 07 19
        E 3 b0 07 18
        E 3 b0 07 17
        E 3 b0 07 16
        E 3 b0 07 15
        E 3 b0 07 14
        E 3 b0 07 13
        E 3 b0 07 12
        E 3 b0 07 11
        E 3 b0 07 10
        E 4 b0 07 0f
        E 3 b0 07 0e
        E 3 b0 07 0d
        E 3 b0 07 0c
        E 3 b0 07 0b
        E 3 b0 07 0a
        E 1 80 31 00
        E 2 b0 07 09
        E 3 b0 07 08
        E 3 b0 07 07
        E 3 b0 07 06
        E 3 b0 07 05
        E 3 b0 07 04
        E 3 b0 07 03
        E 4 b0 07 02
        E 384 b0 07 7f
        E 0 90 28 5c
        E 192 80 28 00
        E 0 90 2a 5c
        E 96 80 2a 00
        E 0 90 2b 5c
        E 96 80 2b 00
        E 0 90 2a 5c
        E 96 80 2a 00
        E 0 90 2d 5c
        E 96 80 2d 00
        E 0 90 2b 5c
        E 96 80 2b 00
        E 0 90 2a 5c
        E 96 80 2a 00
        E 0 90 28 5c
        E 552 80 28 00
        E 24 90 2f 5c
        E 96 80 2f 00
        E 0 90 31 5c
        E 96 80 31 00
        E 0 90 32 5c
        E 288 80 32 00
        E 0 90 31 5c
        E 96 80 31 00
        E 0 90 2d 5c
        E 96 80 2d 00
        E 0 90 31 5c
        E 96 80 31 00
        E 0 90 2f 5c
        E 552 80 2f 00
        E 24 90 23 5c
        E 96 80 23 00
        E 0 90 26 5c
        E 96 80 26 00
        E 0 90 28 5c
        E 96 80 28 00
        E 0 90 2b 5c
        E 96 80 2b 00
        E 0 90 2d 5c
        E 96 80 2d 00
        E 0 90 2a 5c
        E 264 80 2a 00
        E 24 90 28 5c
        E 96 80 28 00
        E 0 90 2b 5c
        E 96 80 2b 00
        E 0 90 2a 5c
        E 96 80 2a 00
        E 0 90 28 5c
        E 96 80 28 00
        E 0 90 2a 5c
        E 96 80 2a 00
        E 0 90 26 5c
        E 264 80 26 00
        E 24 90 28 5c
        E 771 b0 07 7e
        E 3 b0 07 7d
        E 3 b0 07 7c
        E 3 b0 07 7b
        E 3 b0 07 7a
        E 3 b0 07 79
        E 3 b0 07 78
        E 3 b0 07 77
        E 3 b0 07 76
        E 3 b0 07 75
        E 3 b0 07 74
        E 3 b0 07 73
        E 3 b0 07 72
        E 4 b0 07 71
        E 3 b0 07 70
        E 3 b0 07 6f
        E 3 b0 07 6e
        E 3 b0 07 6d
        E 3 b0 07 6c
        E 3 b0 07 6b
        E 3 b0 07 6a
        E 3 b0 07 69
        E 3 b0 07 68
        E 3 b0 07 67
        E 3 b0 07 66
        E 3 b0 07 65
        E 3 b0 07 64
        E 4 b0 07 63
        E 3 b0 07 62
        E 3 b0 07 61
        E 3 b0 07 60
        E 3 b0 07 5f
        E 3 b0 07 5e
        E 3 b0 07 5d
        E 3 b0 07 5c
        E 3 b0 07 5b
        E 3 b0 07 5a
        E 3 b0 07 59
        E 3 b0 07 58
        E 3 b0 07 57
        E 3 b0 07 56
        E 4 b0 07 55
        E 3 b0 07 54
        E 3 b0 07 53
        E 3 b0 07 52
        E 3 b0 07 51
        E 3 b0 07 50
        E 3 b0 07 4f
        E 3 b0 07 4e
        E 3 b0 07 4d
        E 3 b0 07 4c
        E 3 b0 07 4b
        E 3 b0 07 4a
        E 3 b0 07 49
        E 3 b0 07 48
        E 4 b0 07 47
        E 3 b0 07 46
        E 3 b0 07 45
        E 3 b0 07 44
        E 3 b0 07 43
        E 3 b0 07 42
        E 3 b0 07 41
        E 3 b0 07 40
        E 3 b0 07 3f
        E 3 b0 07 3e
        E 3 b0 07 3d
        E 3 b0 07 3c
        E 3 b0 07 3b
        E 3 b0 07 3a
        E 4 b0 07 39
        E 3 b0 07 38
        E 3 b0 07 37
        E 3 b0 07 36
        E 3 b0 07 35
        E 3 b0 07 34
        E 3 b0 07 33
        E 3 b0 07 32
        E 3 b0 07 31
        E 3 b0 07 30
        E 3 b0 07 2f
        E 3 b0 07 2e
        E 3 b0 07 2d
        E 3 b0 07 2c
        E 4 b0 07 2b
        E 3 b0 07 2a
        E 3 b0 07 29
        E 3 b0 07 28
        E 3 b0 07 27
        E 3 b0 07 26
        E 3 b0 07 25
        E 3 b0 07 24
        E 3 b0 07 23
        E 3 b0 07 22
        E 3 b0 07 21
        E 3 b0 07 20
        E 3 b0 07 1f
        E 3 b0 07 1e
        E 4 b0 07 1d
        E 3 b0 07 1c
        E 3 b0 07 1b
        E 3 b0 07 1a
        E 3 b0 07 19
        E 3 b0 07 18
        E 3 b0 07 17
        E 3 b0 07 16
        E 3 b0 07 15
        E 3 b0 07 14
        E 3 b0 07 13
        E 3 b0 07 12
        E 3 b0 07 11
        E 3 b0 07 10
        E 4 b0 07 0f
        E 3 b0 07 0e
        E 3 b0 07 0d
        E 3 b0 07 0c
        E 3 b0 07 0b
        E 3 b0 07 0a
        E 1 80 28 00
        E 2 b0 07 09
        E 3 b0 07 08
        E 3 b0 07 07
        E 3 b0 07 06
        E 3 b0 07 05
        E 3 b0 07 04
        E 3 b0 07 03
        E 4 b0 07 02
        E 96 c0 34 00
        E 0 b0 65 00
        E 0 b0 64 00
        E 0 b0 06 0c
        E 0 b0 0a 40
        E 0 b0 07 02
        E 0 e0 00 40
        E 1 c0 34 00
        E 0 b0 65 00
        E 0 b0 64 00
        E 0 b0 06 0c
        E 0 b0 0a 40
        E 0 b0 07 02
        E 0 e0 00 40
        E 0 b0 65 00
        E 0 b0 64 00
        E 0 b0 06 0c
        E 0 b0 0a 40
        E 0 b0 07 02
        E 0 e0 00 40
        E 95 b0 7b 00
        CCINTERP 32
        CHASE_CC_TAKEOFFS 1
        GUID {D6E405D3-F98E-31CF-637F-F3610EA7179F}
        IGNTEMPO 0 120 4 4
        SRCCOLOR 24
      >
    >
  >
  <TRACK {FE22D3BA-7181-59DF-FA84-1DDEF8332671}
    NAME "viola #2 - halo_120"
    PEAKCOL 16576
    BEAT -1
    AUTOMODE 0
    VOLPAN 1 0 -1 -1 1
    MUTESOLO 0 0 0
    IPHASE 0
    PLAYOFFS 0 1
    ISBUS 0 0
    BUSCOMP 0 0 0 0 0
    SHOWINMIX 1 0.6667 0.5 1 0.5 -1 -1 -1
    FREEMODE 0
    SEL 0
    REC 0 0 1 0 0 0 0
    VU 2
    TRACKHEIGHT 0 0 0 0 0 0
    INQ 0 0 0 0.5 100 0 0 100
    NCHAN 2
    FX 1
    TRACKID {FE22D3BA-7181-59DF-FA84-1DDEF8332671}
    PERF 0
    MIDIOUT 66
    MAINSEND 1 0
    <ITEM
      POSITION 0
      SNAPOFFS 0
      LENGTH 180.871952
      LOOP 1
      ALLTAKES 0
      FADEIN 1 0.01 0 1 0 0 0
      FADEOUT 1 0.01 0 1 0 0 0
      MUTE 0 0
      SEL 0
      IGUID {E3A4CB66-A6F9-6106-6173-D0EFF76A2629}
      IID 3
      NAME "viola #2 - halo_120.mid"
      VOLPAN 1 0 1 -1
      SOFFS 0 0
      PLAYRATE 1 1 0 -1 0 0.0025
      CHANMODE 0
      GUID {BC30CB5A-5894-DA2C-97B3-2726F40FBF0C}
      <SOURCE MIDI
        HASDATA 1 96 QN
        CCINTERP 32
        POOLEDEVTS {8C514828-0E04-18A5-87BD-B381A0E4635F}
        <X 0 0 0 0 3 "viola #2"
          /wN2aW9sYSAjMg==
        >
        E 0 c1 29 00
        E 0 b1 0a 40
        E 0 b1 07 7f
        E 0 e1 00 40
        E 0 b1 65 00
        E 0 b1 64 00
        E 0 b1 06 0c
        E 0 b1 0a 40
        E 0 b1 07 7f
        E 0 e1 00 40
        E 0 b1 65 00
        E 0 b1 64 00
        E 0 b1 06 0c
        E 0 b1 0a 40
        E 0 b1 07 7f
        E 0 e1 00 40
        E 0 b1 65 00
        E 0 b1 64 00
        E 0 b1 06 0c
        E 0 b1 0a 40
        E 0 b1 07 7f
        E 0 e1 00 40
        E 392 91 28 6e
        E 192 81 28 00
        E 0 91 2a 6e
        E 96 81 2a 00
        E 0 91 2b 6e
        E 96 81 2b 00
        E 0 91 2a 6e
        E 96 81 2a 00
        E 0 91 2d 6e
        E 96 81 2d 00
        E 0 91 2b 6e
        E 96 81 2b 00
        E 0 91 2a 6e
        E 96 81 2a 00
        E 0 91 28 6e
        E 552 81 28 00
        E 24 91 2f 6e
        E 96 81 2f 00
        E 0 91 31 6e
        E 96 81 31 00
        E 0 91 32 6e
        E 288 81 32 00
        E 0 91 31 6e
        E 96 81 31 00
        E 0 91 2d 6e
        E 96 81 2d 00
        E 0 91 31 6e
        E 96 81 31 00
        E 0 91 2f 6e
        E 552 81 2f 00
        E 24 91 23 6e
        E 96 81 23 00
        E 0 91 26 6e
        E 96 81 26 00
        E 0 91 28 6e
        E 96 81 28 00
        E 0 91 2b 6e
        E 96 81 2b 00
        E 0 91 2d 6e
        E 96 81 2d 00
        E 0 91 2a 6e
        E 264 81 2a 00
        E 24 91 28 6e
        E 96 81 28 00
        E 0 91 2b 6e
        E 96 81 2b 00
        E 0 91 2a 6e
        E 96 81 2a 00
        E 0 91 28 6e
        E 96 81 28 00
        E 0 91 2a 6e
        E 96 81 2a 00
        E 0 91 26 6e
        E 264 81 26 00
        E 24 91 28 6e
        E 744 81 28 00
        E 400 91 28 6e
        E 27 81 28 00
        E 5 91 28 6e
        E 27 81 28 00
        E 5 91 28 6e
        E 27 81 28 00
        E 5 91 34 6e
        E 264 81 34 00
        E 24 91 28 6e
        E 27 81 28 00
        E 5 91 28 6e
        E 27 81 28 00
        E 5 91 28 6e
        E 27 81 28 00
        E 5 91 36 6e
        E 264 81 36 00
        E 24 91 28 6e
        E 27 81 28 00
        E 5 91 28 6e
        E 27 81 28 00
        E 5 91 28 6e
        E 27 81 28 00
        E 5 91 37 6e
        E 264 81 37 00
        E 24 91 28 6e
        E 27 81 28 00
        E 5 91 28 6e
        E 27 81 28 00
        E 5 91 28 6e
        E 27 81 28 00
        E 5 91 39 6e
        E 80 81 39 00
        E 16 91 28 6e
        E 27 81 28 00
        E 5 91 39 6e
        E 31 81 39 00
        E 1 91 28 6e
        E 27 81 28 00
        E 5 91 39 6e
        E 31 81 39 00
        E 1 91 37 6e
        E 31 81 37 00
        E 1 91 36 6e
        E 31 81 36 00
        E 1 91 28 6e
        E 27 81 28 00
        E 5 91 28 6e
        E 27 81 28 00
        E 5 91 28 6e
        E 27 81 28 00
        E 5 91 34 6e
        E 264 81 34 00
        E 24 91 28 6e
        E 27 81 28 00
        E 5 91 28 6e
        E 27 81 28 00
        E 5 91 28 6e
        E 27 81 28 00
        E 5 91 36 6e
        E 264 81 36 00
        E 24 91 28 6e
        E 27 81 28 00
        E 5 91 28 6e
        E 27 81 28 00
        E 5 91 28 6e
        E 27 81 28 00
        E 5 91 37 6e
        E 264 81 37 00
        E 24 91 28 6e
        E 27 81 28 00
        E 5 91 28 6e
        E 27 81 28 00
        E 5 91 28 6e
        E 27 81 28 00
        E 5 91 39 6e
        E 80 81 39 00
        E 16 91 28 6e
        E 27 81 28 00
        E 5 91 39 6e
        E 31 81 39 00
        E 1 91 28 6e
        E 27 81 28 00
        E 5 91 39 6e
        E 31 81 39 00
        E 1 91 37 6e
        E 31 81 37 00
        E 1 91 36 6e
        E 31 81 36 00
        E 1 91 28 6e
        E 27 81 28 00
        E 5 91 28 6e
        E 27 81 28 00
        E 5 91 28 6e
        E 27 81 28 00
        E 5 91 34 6e
        E 80 81 34 00
        E 16 91 28 6e
        E 27 81 28 00
        E 5 91 28 6e
        E 27 81 28 00
        E 5 91 28 6e
        E 27 81 28 00
        E 5 91 39 6e
        E 80 81 39 00
        E 16 91 28 6e
        E 27 81 28 00
        E 5 91 28 6e
        E 27 81 28 00
        E 5 91 28 6e
        E 27 81 28 00
        E 5 91 36 6e
        E 80 81 36 00
        E 16 91 28 6e
        E 27 81 28 00
        E 5 91 28 6e
        E 27 81 28 00
        E 5 91 28 6e
        E 27 81 28 00
        E 5 91 36 6e
        E 31 81 36 00
        E 1 91 36 6e
        E 31 81 36 00
        E 1 91 34 6e
        E 31 81 34 00
        E 1 91 28 6e
        E 27 81 28 00
        E 5 91 28 6e
        E 27 81 28 00
        E 5 91 28 6e
        E 27 81 28 00
        E 5 91 34 6e
        E 80 81 34 00
        E 16 91 28 6e
        E 27 81 28 00
        E 5 91 28 6e
        E 27 81 28 00
        E 5 91 28 6e
        E 27 81 28 00
        E 5 91 36 6e
        E 31 81 36 00
        E 1 91 36 6e
        E 31 81 36 00
        E 1 91 34 6e
        E 31 81 34 00
        E 1 91 28 6e
        E 27 81 28 00
        E 5 91 28 6e
        E 27 81 28 00
        E 5 91 28 6e
        E 27 81 28 00
        E 5 91 39 6e
        E 80 81 39 00
        E 16 91 28 6e
        E 27 81 28 00
        E 5 91 39 6e
        E 31 81 39 00
        E 1 91 28 6e
        E 27 81 28 00
        E 5 91 39 6e
        E 31 81 39 00
        E 1 91 37 6e
        E 31 81 37 00
        E 1 91 36 6e
        E 31 81 36 00
        E 1 91 28 6e
        E 27 81 28 00
        E 5 91 28 6e
        E 27 81 28 00
        E 5 91 28 6e
        E 27 81 28 00
        E 5 91 34 6e
        E 80 81 34 00
        E 16 91 28 6e
        E 27 81 28 00
        E 5 91 28 6e
        E 27 81 28 00
        E 5 91 28 6e
        E 27 81 28 00
        E 5 91 37 6e
        E 80 81 37 00
        E 16 91 28 6e
        E 27 81 28 00
        E 5 91 28 6e
        E 27 81 28 00
        E 5 91 28 6e
        E 27 81 28 00
        E 5 91 39 6e
        E 80 81 39 00
        E 16 91 28 6e
        E 27 81 28 00
        E 5 91 39 6e
        E 31 81 39 00
        E 1 91 28 6e
        E 27 81 28 00
        E 5 91 39 6e
        E 31 81 39 00
        E 1 91 37 6e
        E 31 81 37 00
        E 1 91 36 6e
        E 31 81 36 00
        E 1 91 28 6e
        E 27 81 28 00
        E 5 91 28 6e
        E 27 81 28 00
        E 5 91 28 6e
        E 27 81 28 00
        E 5 91 34 6e
        E 80 81 34 00
        E 16 91 28 6e
        E 27 81 28 00
        E 5 91 28 6e
        E 27 81 28 00
        E 5 91 28 6e
        E 27 81 28 00
        E 5 91 37 6e
        E 80 81 37 00
        E 16 91 28 6e
        E 27 81 28 00
        E 5 91 28 6e
        E 27 81 28 00
        E 5 91 28 6e
        E 27 81 28 00
        E 5 91 39 6e
        E 80 81 39 00
        E 16 91 28 6e
        E 27 81 28 00
        E 5 91 39 6e
        E 31 81 39 00
        E 1 91 28 6e
        E 27 81 28 00
        E 5 91 39 6e
        E 31 81 39 00
        E 1 91 37 6e
        E 31 81 37 00
        E 1 91 36 6e
        E 31 81 36 00
        E 1 91 28 6e
        E 27 81 28 00
        E 5 91 28 6e
        E 27 81 28 00
        E 5 91 28 6e
        E 27 81 28 00
        E 5 91 34 6e
        E 264 81 34 00
        E 24 91 28 6e
        E 27 81 28 00
        E 5 91 28 6e
        E 27 81 28 00
        E 5 91 28 6e
        E 27 81 28 00
        E 5 91 36 6e
        E 264 81 36 00
        E 24 91 28 6e
        E 27 81 28 00
        E 5 91 28 6e
        E 27 81 28 00
        E 5 91 28 6e
        E 27 81 28 00
        E 5 91 37 6e
        E 264 81 37 00
        E 24 91 28 6e
        E 27 81 28 00
        E 5 91 28 6e
        E 27 81 28 00
        E 5 91 28 6e
        E 27 81 28 00
        E 5 91 39 6e
        E 80 81 39 00
        E 16 91 28 6e
        E 27 81 28 00
        E 5 91 39 6e
        E 31 81 39 00
        E 1 91 28 6e
        E 27 81 28 00
        E 5 91 39 6e
        E 31 81 39 00
        E 1 91 37 6e
        E 31 81 37 00
        E 1 91 36 6e
        E 31 81 36 00
        E 1 91 28 6e
        E 27 81 28 00
        E 5 91 28 6e
        E 27 81 28 00
        E 5 91 28 6e
        E 27 81 28 00
        E 5 91 34 6e
        E 80 81 34 00
        E 16 91 28 6e
        E 27 81 28 00
        E 5 91 28 6e
        E 27 81 28 00
        E 5 91 28 6e
        E 27 81 28 00
        E 5 91 36 6e
        E 80 81 36 00
        E 16 91 28 6e
        E 27 81 28 00
        E 5 91 28 6e
        E 27 81 28 00
        E 5 91 28 6e
        E 27 81 28 00
        E 5 91 37 6e
        E 80 81 37 00
        E 16 91 28 6e
        E 27 81 28 00
        E 5 91 28 6e
        E 27 81 28 00
        E 5 91 28 6e
        E 27 81 28 00
        E 5 91 39 6e
        E 80 81 39 00
        E 16 91 28 6e
        E 27 81 28 00
        E 5 91 28 6e
        E 27 81 28 00
        E 5 91 28 6e
        E 27 81 28 00
        E 5 91 34 6e
        E 80 81 34 00
        E 16 91 28 6e
        E 27 81 28 00
        E 5 91 28 6e
        E 27 81 28 00
        E 5 91 28 6e
        E 27 81 28 00
        E 5 91 36 6e
        E 80 81 36 00
        E 16 91 28 6e
        E 27 81 28 00
        E 5 91 28 6e
        E 27 81 28 00
        E 5 91 28 6e
        E 27 81 28 00
        E 5 91 37 6e
        E 80 81 37 00
        E 16 91 28 6e
        E 27 81 28 00
        E 5 91 28 6e
        E 27 81 28 00
        E 5 91 28 6e
        E 27 81 28 00
        E 5 91 39 6e
        E 80 81 39 00
        E 16 91 28 6e
        E 27 81 28 00
        E 5 91 28 6e
        E 27 81 28 00
        E 5 91 28 6e
        E 27 81 28 00
        E 5 91 34 6e
        E 80 81 34 00
        E 16 91 28 6e
        E 27 81 28 00
        E 5 91 28 6e
        E 27 81 28 00
        E 5 91 28 6e
        E 27 81 28 00
        E 5 91 36 6e
        E 80 81 36 00
        E 16 91 28 6e
        E 27 81 28 00
        E 5 91 28 6e
        E 27 81 28 00
        E 5 91 28 6e
        E 27 81 28 00
        E 5 91 37 6e
        E 80 81 37 00
        E 16 91 28 6e
        E 27 81 28 00
        E 5 91 28 6e
        E 27 81 28 00
        E 5 91 28 6e
        E 27 81 28 00
        E 5 91 39 6e
        E 80 81 39 00
        E 1312 91 28 6e
        E 27 81 28 00
        E 5 91 28 6e
        E 27 81 28 00
        E 5 91 28 6e
        E 27 81 28 00
        E 5 91 34 6e
        E 80 81 34 00
        E 16 91 28 6e
        E 27 81 28 00
        E 5 91 28 6e
        E 27 81 28 00
        E 5 91 28 6e
        E 27 81 28 00
        E 5 91 37 6e
        E 80 81 37 00
        E 16 91 28 6e
        E 27 81 28 00
        E 5 91 28 6e
        E 27 81 28 00
        E 5 91 28 6e
        E 27 81 28 00
        E 5 91 39 6e
        E 80 81 39 00
        E 16 91 28 6e
        E 27 81 28 00
        E 5 91 39 6e
        E 31 81 39 00
        E 1 91 28 6e
        E 27 81 28 00
        E 5 91 39 6e
        E 31 81 39 00
        E 1 91 37 6e
        E 31 81 37 00
        E 1 91 36 6e
        E 31 81 36 00
        E 1 91 28 6e
        E 27 81 28 00
        E 5 91 28 6e
        E 27 81 28 00
        E 5 91 28 6e
        E 27 81 28 00
        E 5 91 34 6e
        E 80 81 34 00
        E 16 91 28 6e
        E 27 81 28 00
        E 5 91 28 6e
        E 27 81 28 00
        E 5 91 28 6e
        E 27 81 28 00
        E 5 91 37 6e
        E 80 81 37 00
        E 16 91 28 6e
        E 27 81 28 00
        E 5 91 28 6e
        E 27 81 28 00
        E 5 91 28 6e
        E 27 81 28 00
        E 5 91 39 6e
        E 80 81 39 00
        E 16 91 28 6e
        E 27 81 28 00
        E 5 91 39 6e
        E 31 81 39 00
        E 1 91 28 6e
        E 27 81 28 00
        E 5 91 39 6e
        E 31 81 39 00
        E 1 91 37 6e
        E 31 81 37 00
        E 1 91 36 6e
        E 31 81 36 00
        E 1 91 28 6e
        E 27 81 28 00
        E 5 91 28 6e
        E 27 81 28 00
        E 5 91 28 6e
        E 27 81 28 00
        E 5 91 34 6e
        E 80 81 34 00
        E 16 91 28 6e
        E 27 81 28 00
        E 5 91 28 6e
        E 27 81 28 00
        E 5 91 28 6e
        E 27 81 28 00
        E 5 91 37 6e
        E 80 81 37 00
        E 16 91 28 6e
        E 27 81 28 00
        E 5 91 28 6e
        E 27 81 28 00
        E 5 91 28 6e
        E 27 81 28 00
        E 5 91 39 6e
        E 80 81 39 00
        E 16 91 28 6e
        E 27 81 28 00
        E 5 91 39 6e
        E 31 81 39 00
        E 1 91 28 6e
        E 27 81 28 00
        E 5 91 39 6e
        E 31 81 39 00
        E 1 91 37 6e
        E 31 81 37 00
        E 1 91 36 6e
        E 31 81 36 00
        E 1 91 28 6e
        E 27 81 28 00
        E 5 91 28 6e
        E 27 81 28 00
        E 5 91 28 6e
        E 27 81 28 00
        E 5 91 34 6e
        E 80 81 34 00
        E 16 91 28 6e
        E 27 81 28 00
        E 5 91 28 6e
        E 27 81 28 00
        E 5 91 28 6e
        E 27 81 28 00
        E 5 91 37 6e
        E 80 81 37 00
        E 16 91 28 6e
        E 27 81 28 00
        E 5 91 28 6e
        E 27 81 28 00
        E 5 91 28 6e
        E 27 81 28 00
        E 5 91 39 6e
        E 80 81 39 00
        E 16 91 28 6e
        E 27 81 28 00
        E 5 91 39 6e
        E 31 81 39 00
        E 1 91 28 6e
        E 27 81 28 00
        E 5 91 39 6e
        E 31 81 39 00
        E 1 91 37 6e
        E 31 81 37 00
        E 1 91 36 6e
        E 31 81 36 00
        E 1297 91 28 6e
        E 27 81 28 00
        E 5 91 28 6e
        E 27 81 28 00
        E 5 91 28 6e
        E 27 81 28 00
        E 5 91 34 6e
        E 264 81 34 00
        E 24 91 28 6e
        E 27 81 28 00
        E 5 91 28 6e
        E 27 81 28 00
        E 5 91 28 6e
        E 27 81 28 00
        E 5 91 36 6e
        E 264 81 36 00
        E 24 91 28 6e
        E 27 81 28 00
        E 5 91 28 6e
        E 27 81 28 00
        E 5 91 28 6e
        E 27 81 28 00
        E 5 91 37 6e
        E 264 81 37 00
        E 24 91 28 6e
        E 27 81 28 00
        E 5 91 28 6e
        E 27 81 28 00
        E 5 91 28 6e
        E 27 81 28 00
        E 5 91 39 6e
        E 80 81 39 00
        E 16 91 28 6e
        E 27 81 28 00
        E 5 91 39 6e
        E 31 81 39 00
        E 1 91 28 6e
        E 27 81 28 00
        E 5 91 39 6e
        E 31 81 39 00
        E 1 91 37 6e
        E 31 81 37 00
        E 1 91 36 6e
        E 31 81 36 00
        E 1 91 28 6e
        E 27 81 28 00
        E 5 91 28 6e
        E 27 81 28 00
        E 5 91 28 6e
        E 27 81 28 00
        E 5 91 34 6e
        E 264 81 34 00
        E 24 91 28 6e
        E 27 81 28 00
        E 5 91 28 6e
        E 27 81 28 00
        E 5 91 28 6e
        E 27 81 28 00
        E 5 91 36 6e
        E 264 81 36 00
        E 24 91 28 6e
        E 27 81 28 00
        E 5 91 28 6e
        E 27 81 28 00
        E 5 91 28 6e
        E 27 81 28 00
        E 5 91 37 6e
        E 264 81 37 00
        E 24 91 28 6e
        E 27 81 28 00
        E 5 91 28 6e
        E 27 81 28 00
        E 5 91 28 6e
        E 27 81 28 00
        E 5 91 39 6e
        E 80 81 39 00
        E 16 91 28 6e
        E 27 81 28 00
        E 5 91 39 6e
        E 31 81 39 00
        E 1 91 28 6e
        E 27 81 28 00
        E 5 91 39 6e
        E 31 81 39 00
        E 1 91 37 6e
        E 31 81 37 00
        E 1 91 36 6e
        E 31 81 36 00
        E 7393 c1 29 00
        E 0 b1 65 00
        E 0 b1 64 00
        E 0 b1 06 0c
        E 0 b1 0a 40
        E 0 b1 07 7f
        E 0 e1 00 40
        E 1 c1 29 00
        E 0 b1 65 00
        E 0 b1 64 00
        E 0 b1 06 0c
        E 0 b1 0a 40
        E 0 b1 07 7f
        E 0 e1 00 40
        E 0 b1 65 00
        E 0 b1 64 00
        E 0 b1 06 0c
        E 0 b1 0a 40
        E 0 b1 07 7f
        E 0 e1 00 40
        E 95 b0 7b 00
        CCINTERP 32
        CHASE_CC_TAKEOFFS 1
        GUID {4F7FC59A-521E-DA27-80ED-277DE8E9AE8C}
        IGNTEMPO 0 120 4 4
        SRCCOLOR 25
      >
    >
  >
  <TRACK {7745E8AB-C00C-779E-216F-C3EF40813634}
    NAME "strings 2 #2 - halo_120"
    PEAKCOL 16576
    BEAT -1
    AUTOMODE 0
    VOLPAN 1 0 -1 -1 1
    MUTESOLO 0 0 0
    IPHASE 0
    PLAYOFFS 0 1
    ISBUS 0 0
    BUSCOMP 0 0 0 0 0
    SHOWINMIX 1 0.6667 0.5 1 0.5 -1 -1 -1
    FREEMODE 0
    SEL 0
    REC 0 0 1 0 0 0 0
    VU 2
    TRACKHEIGHT 0 0 0 0 0 0
    INQ 0 0 0 0.5 100 0 0 100
    NCHAN 2
    FX 1
    TRACKID {7745E8AB-C00C-779E-216F-C3EF40813634}
    PERF 0
    MIDIOUT 65
    MAINSEND 1 0
    <ITEM
      POSITION 0
      SNAPOFFS 0
      LENGTH 180.871952
      LOOP 1
      ALLTAKES 0
      FADEIN 1 0.01 0 1 0 0 0
      FADEOUT 1 0.01 0 1 0 0 0
      MUTE 0 0
      SEL 0
      IGUID {322CC08D-32AD-87AD-416F-4AE90015B566}
      IID 4
      NAME "strings 2 #2 - halo_120.mid"
      VOLPAN 1 0 1 -1
      SOFFS 0 0
      PLAYRATE 1 1 0 -1 0 0.0025
      CHANMODE 0
      GUID {76805AA9-526B-C0AB-7832-EFAB91908D09}
      <SOURCE MIDI
        HASDATA 1 96 QN
        CCINTERP 32
        POOLEDEVTS {241BA7C1-20B2-29B1-B11E-FFE5017D1BDB}
        <X 0 0 0 0 3 "strings 2 #2"
          /wNzdHJpbmdzIDIgIzI=
        >
        E 0 c2 30 00
        E 0 b2 0a 40
        E 0 b2 07 7f
        E 0 e2 00 40
        E 0 b2 65 00
        E 0 b2 64 00
        E 0 b2 06 0c
        E 0 b2 0a 40
        E 0 b2 07 7f
        E 0 e2 00 40
        E 0 b2 65 00
        E 0 b2 64 00
        E 0 b2 06 0c
        E 0 b2 0a 40
        E 0 b2 07 7f
        E 0 e2 00 40
        E 0 b2 65 00
        E 0 b2 64 00
        E 0 b2 06 0c
        E 0 b2 0a 40
        E 0 b2 07 7f
        E 0 e2 00 40
        E 11904 92 2f 6e
        E 80 82 2f 00
        E 40 92 2f 6e
        E 35 82 2f 00
        E 1 92 31 6e
        E 35 82 31 00
        E 1 92 32 6e
        E 80 82 32 00
        E 40 92 2f 6e
        E 35 82 2f 00
        E 1 92 32 6e
        E 35 82 32 00
        E 1 92 31 6e
        E 31 82 31 00
        E 1 92 2f 6e
        E 31 82 2f 00
        E 1 92 2d 6e
        E 31 82 2d 00
        E 1 92 28 6e
        E 71 82 28 00
        E 1 92 2d 6e
        E 23 82 2d 00
        E 1 92 28 6e
        E 35 82 28 00
        E 1 92 2f 6e
        E 31 82 2f 00
        E 1 92 31 6e
        E 31 82 31 00
        E 1 92 2f 6e
        E 31 82 2f 00
        E 1 92 2d 6e
        E 35 82 2d 00
        E 1 92 28 6e
        E 23 82 28 00
        E 1 92 2f 6e
        E 80 82 2f 00
        E 40 92 31 6e
        E 35 82 31 00
        E 1 92 32 6e
        E 35 82 32 00
        E 1 92 34 6e
        E 128 82 34 00
        E 88 92 32 6e
        E 35 82 32 00
        E 1 92 31 6e
        E 35 82 31 00
        E 1 92 32 6e
        E 31 82 32 00
        E 1 92 31 6e
        E 31 82 31 00
        E 1 92 2f 6e
        E 31 82 2f 00
        E 1 92 34 6e
        E 31 82 34 00
        E 1 92 32 6e
        E 31 82 32 00
        E 1 92 31 6e
        E 31 82 31 00
        E 1 92 2f 6e
        E 31 82 2f 00
        E 1 92 32 6e
        E 31 82 32 00
        E 1 92 34 6e
        E 31 82 34 00
        E 1 92 36 6e
        E 31 82 36 00
        E 1 92 32 6e
        E 31 82 32 00
        E 1 92 2f 6e
        E 31 82 2f 00
        E 1 92 39 6e
        E 119 82 39 00
        E 1 92 39 6e
        E 35 82 39 00
        E 1 92 36 6e
        E 35 82 36 00
        E 1 92 39 6e
        E 23 82 39 00
        E 1 92 37 6e
        E 23 82 37 00
        E 1 92 39 6e
        E 47 82 39 00
        E 1 92 34 6e
        E 31 82 34 00
        E 1 92 32 6e
        E 31 82 32 00
        E 1 92 2f 6e
        E 31 82 2f 00
        E 1 92 39 6e
        E 128 82 39 00
        E 16 92 32 6e
        E 31 82 32 00
        E 1 92 34 6e
        E 31 82 34 00
        E 1 92 36 6e
        E 31 82 36 00
        E 1 92 37 6e
        E 23 82 37 00
        E 1 92 39 6e
        E 23 82 39 00
        E 1 92 34 6e
        E 80 82 34 00
        E 40 92 32 6e
        E 35 82 32 00
        E 1 92 34 6e
        E 35 82 34 00
        E 1 92 36 6e
        E 80 82 36 00
        E 40 92 34 6e
        E 31 82 34 00
        E 1 92 36 6e
        E 31 82 36 00
        E 1 92 37 6e
        E 31 82 37 00
        E 1 92 36 6e
        E 31 82 36 00
        E 1 92 34 6e
        E 31 82 34 00
        E 1 92 36 6e
        E 31 82 36 00
        E 1 92 34 6e
        E 35 82 34 00
        E 1 92 32 6e
        E 35 82 32 00
        E 1 92 31 6e
        E 71 82 31 00
        E 1 92 32 6e
        E 71 82 32 00
        E 1 92 34 6e
        E 47 82 34 00
        E 1 92 34 6e
        E 80 82 34 00
        E 40 92 34 6e
        E 35 82 34 00
        E 1 92 36 6e
        E 35 82 36 00
        E 1 92 37 6e
        E 80 82 37 00
        E 40 92 34 6e
        E 35 82 34 00
        E 1 92 37 6e
        E 35 82 37 00
        E 1 92 36 6e
        E 31 82 36 00
        E 1 92 34 6e
        E 31 82 34 00
        E 1 92 32 6e
        E 31 82 32 00
        E 1 92 2a 6e
        E 31 82 2a 00
        E 1 92 28 6e
        E 31 82 28 00
        E 1 92 26 6e
        E 31 82 26 00
        E 1 92 32 6e
        E 31 82 32 00
        E 1 92 31 6e
        E 31 82 31 00
        E 1 92 32 6e
        E 31 82 32 00
        E 1 92 32 6e
        E 31 82 32 00
        E 1 92 31 6e
        E 31 82 31 00
        E 1 92 32 6e
        E 31 82 32 00
        E 1 92 2b 5c
        E 27 82 2b 00
        E 5 92 32 5c
        E 27 82 32 00
        E 5 92 37 5c
        E 27 82 37 00
        E 5 92 2b 5c
        E 27 82 2b 00
        E 5 92 32 5c
        E 27 82 32 00
        E 5 92 30 5c
        E 27 82 30 00
        E 5 92 37 5c
        E 27 82 37 00
        E 5 92 32 5c
        E 27 82 32 00
        E 5 92 35 5c
        E 27 82 35 00
        E 5 92 30 5c
        E 27 82 30 00
        E 5 92 37 5c
        E 27 82 37 00
        E 5 92 32 5c
        E 27 82 32 00
        E 5 92 35 5c
        E 27 82 35 00
        E 5 92 30 5c
        E 27 82 30 00
        E 5 92 37 5c
        E 27 82 37 00
        E 5 92 39 5c
        E 27 82 39 00
        E 5 92 3a 5c
        E 27 82 3a 00
        E 5 92 3c 5c
        E 27 82 3c 00
        E 5 92 3a 5c
        E 27 82 3a 00
        E 5 92 39 5c
        E 27 82 39 00
        E 5 92 34 5c
        E 27 82 34 00
        E 5 92 37 5c
        E 27 82 37 00
        E 5 92 32 5c
        E 27 82 32 00
        E 5 92 39 5c
        E 27 82 39 00
        E 5 92 34 5c
        E 27 82 34 00
        E 5 92 37 5c
        E 27 82 37 00
        E 5 92 32 5c
        E 27 82 32 00
        E 5 92 39 5c
        E 27 82 39 00
        E 5 92 34 5c
        E 27 82 34 00
        E 5 92 37 5c
        E 27 82 37 00
        E 5 92 32 5c
        E 27 82 32 00
        E 5 92 39 5c
        E 27 82 39 00
        E 5 92 34 5c
        E 27 82 34 00
        E 5 92 37 5c
        E 27 82 37 00
        E 5 92 32 5c
        E 27 82 32 00
        E 5 92 36 5c
        E 27 82 36 00
        E 5 92 37 5c
        E 27 82 37 00
        E 5 92 36 5c
        E 27 82 36 00
        E 5 92 34 5c
        E 27 82 34 00
        E 5 92 32 5c
        E 43 82 32 00
        E 1541 92 2f 6e
        E 47 82 2f 00
        E 25 92 34 6e
        E 47 82 34 00
        E 25 92 36 6e
        E 35 82 36 00
        E 1 92 37 6e
        E 31 82 37 00
        E 1 92 36 6e
        E 31 82 36 00
        E 1 92 34 6e
        E 31 82 34 00
        E 1 92 32 6e
        E 71 82 32 00
        E 1 92 2f 6e
        E 35 82 2f 00
        E 1 92 34 6e
        E 31 82 34 00
        E 1 92 2f 6e
        E 31 82 2f 00
        E 1 92 36 6e
        E 31 82 36 00
        E 1 92 2f 6e
        E 31 82 2f 00
        E 1 92 37 6e
        E 31 82 37 00
        E 1 92 2f 6e
        E 31 82 2f 00
        E 1 92 39 6e
        E 71 82 39 00
        E 1 92 37 6e
        E 31 82 37 00
        E 1 92 36 6e
        E 31 82 36 00
        E 1 92 34 6e
        E 31 82 34 00
        E 1 92 32 6e
        E 23 82 32 00
        E 1 92 2f 6e
        E 47 82 2f 00
        E 25 92 34 6e
        E 47 82 34 00
        E 25 92 36 6e
        E 35 82 36 00
        E 1 92 37 6e
        E 31 82 37 00
        E 1 92 36 6e
        E 31 82 36 00
        E 1 92 34 6e
        E 31 82 34 00
        E 1 92 32 6e
        E 71 82 32 00
        E 1 92 2f 6e
        E 35 82 2f 00
        E 1 92 34 6e
        E 31 82 34 00
        E 1 92 2f 6e
        E 31 82 2f 00
        E 1 92 36 6e
        E 31 82 36 00
        E 1 92 2f 6e
        E 31 82 2f 00
        E 1 92 37 6e
        E 31 82 37 00
        E 1 92 2f 6e
        E 31 82 2f 00
        E 1 92 39 6e
        E 71 82 39 00
        E 1 92 37 6e
        E 31 82 37 00
        E 1 92 36 6e
        E 31 82 36 00
        E 1 92 34 6e
        E 31 82 34 00
        E 1 92 32 6e
        E 23 82 32 00
        E 1 92 2b 5c
        E 27 82 2b 00
        E 5 92 32 5c
        E 27 82 32 00
        E 5 92 37 5c
        E 27 82 37 00
        E 5 92 2b 5c
        E 27 82 2b 00
        E 5 92 32 5c
        E 27 82 32 00
        E 5 92 30 5c
        E 27 82 30 00
        E 5 92 37 5c
        E 27 82 37 00
        E 5 92 32 5c
        E 27 82 32 00
        E 5 92 35 5c
        E 27 82 35 00
        E 5 92 30 5c
        E 27 82 30 00
        E 5 92 37 5c
        E 27 82 37 00
        E 5 92 32 5c
        E 27 82 32 00
        E 5 92 35 5c
        E 27 82 35 00
        E 5 92 30 5c
        E 27 82 30 00
        E 5 92 37 5c
        E 27 82 37 00
        E 5 92 39 5c
        E 27 82 39 00
        E 5 92 3a 5c
        E 27 82 3a 00
        E 5 92 3c 5c
        E 27 82 3c 00
        E 5 92 3a 5c
        E 27 82 3a 00
        E 5 92 39 5c
        E 27 82 39 00
        E 5 92 34 5c
        E 27 82 34 00
        E 5 92 37 5c
        E 27 82 37 00
        E 5 92 32 5c
        E 27 82 32 00
        E 5 92 39 5c
        E 27 82 39 00
        E 5 92 34 5c
        E 27 82 34 00
        E 5 92 37 5c
        E 27 82 37 00
        E 5 92 32 5c
        E 27 82 32 00
        E 5 92 39 5c
        E 27 82 39 00
        E 5 92 34 5c
        E 27 82 34 00
        E 5 92 37 5c
        E 27 82 37 00
        E 5 92 32 5c
        E 27 82 32 00
        E 5 92 39 5c
        E 27 82 39 00
        E 5 92 34 5c
        E 27 82 34 00
        E 5 92 37 5c
        E 27 82 37 00
        E 5 92 32 5c
        E 27 82 32 00
        E 5 92 36 5c
        E 27 82 36 00
        E 5 92 37 5c
        E 27 82 37 00
        E 5 92 36 5c
        E 27 82 36 00
        E 5 92 34 5c
        E 27 82 34 00
        E 5 92 32 5c
        E 43 82 32 00
        E 5 92 28 5c
        E 384 82 28 00
        E 0 92 2a 5c
        E 384 82 2a 00
        E 0 92 2b 5c
        E 384 82 2b 00
        E 0 92 2d 5c
        E 384 82 2d 00
        E 0 92 28 5c
        E 192 82 28 00
        E 0 92 2a 5c
        E 96 82 2a 00
        E 0 92 2b 5c
        E 96 82 2b 00
        E 0 92 2d 5c
        E 384 82 2d 00
        E 0 92 2f 5c
        E 192 82 2f 00
        E 0 92 2a 5c
        E 96 82 2a 00
        E 0 92 2b 5c
        E 96 82 2b 00
        E 0 92 31 5c
        E 384 82 31 00
        E 0 92 32 5c
        E 192 82 32 00
        E 0 92 34 5c
        E 96 82 34 00
        E 0 92 36 5c
        E 96 82 36 00
        E 0 92 37 5c
        E 192 82 37 00
        E 0 92 39 5c
        E 168 82 39 00
        E 24 92 3b 5c
        E 744 82 3b 00
        E 5880 c2 30 00
        E 0 b2 65 00
        E 0 b2 64 00
        E 0 b2 06 0c
        E 0 b2 0a 40
        E 0 b2 07 7f
        E 0 e2 00 40
        E 1 c2 30 00
        E 0 b2 65 00
        E 0 b2 64 00
        E 0 b2 06 0c
        E 0 b2 0a 40
        E 0 b2 07 7f
        E 0 e2 00 40
        E 0 b2 65 00
        E 0 b2 64 00
        E 0 b2 06 0c
        E 0 b2 0a 40
        E 0 b2 07 7f
        E 0 e2 00 40
        E 95 b0 7b 00
        CCINTERP 32
        CHASE_CC_TAKEOFFS 1
        GUID {D275F004-3615-D139-A88B-7A8EED9FDFD3}
        IGNTEMPO 0 120 4 4
        SRCCOLOR 26
      >
    >
  >
  <TRACK {340FF013-92F4-BC2D-9851-75A109CCBF09}
    NAME "strings - halo_120"
    PEAKCOL 16576
    BEAT -1
    AUTOMODE 0
    VOLPAN 1 0 -1 -1 1
    MUTESOLO 0 0 0
    IPHASE 0
    PLAYOFFS 0 1
    ISBUS 0 0
    BUSCOMP 0 0 0 0 0
    SHOWINMIX 1 0.6667 0.5 1 0.5 -1 -1 -1
    FREEMODE 0
    SEL 0
    REC 0 0 1 0 0 0 0
    VU 2
    TRACKHEIGHT 0 0 0 0 0 0
    INQ 0 0 0 0.5 100 0 0 100
    NCHAN 2
    FX 1
    TRACKID {340FF013-92F4-BC2D-9851-75A109CCBF09}
    PERF 0
    MIDIOUT 67
    MAINSEND 1 0
    <ITEM
      POSITION 0
      SNAPOFFS 0
      LENGTH 180.871952
      LOOP 1
      ALLTAKES 0
      FADEIN 1 0.01 0 1 0 0 0
      FADEOUT 1 0.01 0 1 0 0 0
      MUTE 0 0
      SEL 0
      IGUID {0662ABD8-4398-9E63-68EB-F1376B0E5E22}
      IID 5
      NAME "strings - halo_120.mid"
      VOLPAN 1 0 1 -1
      SOFFS 0 0
      PLAYRATE 1 1 0 -1 0 0.0025
      CHANMODE 0
      GUID {0E5F7418-AC6F-7CBF-E7A2-107279D03A54}
      <SOURCE MIDI
        HASDATA 1 96 QN
        CCINTERP 32
        POOLEDEVTS {1571A366-9C48-8CD2-21BE-4EFCC484F9DE}
        <X 0 0 0 0 3 strings
          /wNzdHJpbmdz
        >
        E 0 c3 30 00
        E 0 b3 0a 40
        E 0 b3 07 7f
        E 0 e3 00 40
        E 0 b3 65 00
        E 0 b3 64 00
        E 0 b3 06 0c
        E 0 b3 0a 40
        E 0 b3 07 7f
        E 0 e3 00 40
        E 0 b3 65 00
        E 0 b3 64 00
        E 0 b3 06 0c
        E 0 b3 0a 40
        E 0 b3 07 7f
        E 0 e3 00 40
        E 0 b3 07 7f
        E 0 b3 0a 40
        E 0 b3 65 00
        E 0 b3 64 00
        E 0 b3 06 0c
        E 0 b3 0a 40
        E 0 b3 07 7f
        E 0 e3 00 40
        E 0 b3 07 7f
        E 0 b3 0a 40
        E 0 93 28 6e
        E 5736 83 28 00
        E 1560 93 28 6e
        E 576 83 28 00
        E 0 93 2a 6e
        E 96 83 2a 00
        E 0 93 2b 6e
        E 96 83 2b 00
        E 384 93 2f 6e
        E 360 83 2f 00
        E 24 93 31 6e
        E 360 83 31 00
        E 24 93 32 6e
        E 168 83 32 00
        E 24 93 34 6e
        E 80 83 34 00
        E 16 93 36 6e
        E 80 83 36 00
        E 16 93 37 6e
        E 168 83 37 00
        E 24 93 39 6e
        E 168 83 39 00
        E 24 93 3b 6e
        E 744 83 3b 00
        E 1176 93 2f 6e
        E 80 83 2f 00
        E 40 93 2f 6e
        E 35 83 2f 00
        E 1 93 31 6e
        E 35 83 31 00
        E 1 93 32 6e
        E 80 83 32 00
        E 40 93 2f 6e
        E 35 83 2f 00
        E 1 93 32 6e
        E 35 83 32 00
        E 1 93 31 6e
        E 31 83 31 00
        E 1 93 2f 6e
        E 31 83 2f 00
        E 1 93 2d 6e
        E 31 83 2d 00
        E 1 93 28 6e
        E 71 83 28 00
        E 1 93 2d 6e
        E 23 83 2d 00
        E 1 93 28 6e
        E 35 83 28 00
        E 1 93 2f 6e
        E 31 83 2f 00
        E 1 93 31 6e
        E 31 83 31 00
        E 1 93 2f 6e
        E 31 83 2f 00
        E 1 93 2d 6e
        E 35 83 2d 00
        E 1 93 28 6e
        E 23 83 28 00
        E 1 93 2f 6e
        E 80 83 2f 00
        E 40 93 31 6e
        E 35 83 31 00
        E 1 93 32 6e
        E 35 83 32 00
        E 1 93 34 6e
        E 128 83 34 00
        E 88 93 32 6e
        E 35 83 32 00
        E 1 93 31 6e
        E 35 83 31 00
        E 1 93 32 6e
        E 31 83 32 00
        E 1 93 31 6e
        E 31 83 31 00
        E 1 93 2f 6e
        E 31 83 2f 00
        E 1 93 34 6e
        E 31 83 34 00
        E 1 93 32 6e
        E 31 83 32 00
        E 1 93 31 6e
        E 31 83 31 00
        E 1 93 2f 6e
        E 31 83 2f 00
        E 1 93 32 6e
        E 31 83 32 00
        E 1 93 34 6e
        E 31 83 34 00
        E 1 93 36 6e
        E 31 83 36 00
        E 1 93 32 6e
        E 31 83 32 00
        E 1 93 2f 6e
        E 31 83 2f 00
        E 1 93 39 6e
        E 119 83 39 00
        E 1 93 39 6e
        E 35 83 39 00
        E 1 93 36 6e
        E 35 83 36 00
        E 1 93 39 6e
        E 23 83 39 00
        E 1 93 37 6e
        E 23 83 37 00
        E 1 93 39 6e
        E 47 83 39 00
        E 1 93 34 6e
        E 31 83 34 00
        E 1 93 32 6e
        E 31 83 32 00
        E 1 93 2f 6e
        E 31 83 2f 00
        E 1 93 39 6e
        E 128 83 39 00
        E 16 93 32 6e
        E 31 83 32 00
        E 1 93 34 6e
        E 31 83 34 00
        E 1 93 36 6e
        E 31 83 36 00
        E 1 93 37 6e
        E 23 83 37 00
        E 1 93 39 6e
        E 23 83 39 00
        E 1 93 34 6e
        E 80 83 34 00
        E 40 93 32 6e
        E 35 83 32 00
        E 1 93 34 6e
        E 35 83 34 00
        E 1 93 36 6e
        E 80 83 36 00
        E 40 93 34 6e
        E 31 83 34 00
        E 1 93 36 6e
        E 31 83 36 00
        E 1 93 37 6e
        E 31 83 37 00
        E 1 93 36 6e
        E 31 83 36 00
        E 1 93 34 6e
        E 31 83 34 00
        E 1 93 36 6e
        E 31 83 36 00
        E 1 93 34 6e
        E 35 83 34 00
        E 1 93 32 6e
        E 35 83 32 00
        E 1 93 31 6e
        E 71 83 31 00
        E 1 93 32 6e
        E 71 83 32 00
        E 1 93 34 6e
        E 47 83 34 00
        E 1 93 34 6e
        E 80 83 34 00
        E 40 93 34 6e
        E 35 83 34 00
        E 1 93 36 6e
        E 35 83 36 00
        E 1 93 37 6e
        E 80 83 37 00
        E 40 93 34 6e
        E 35 83 34 00
        E 1 93 37 6e
        E 35 83 37 00
        E 1 93 36 6e
        E 31 83 36 00
        E 1 93 34 6e
        E 31 83 34 00
        E 1 93 32 6e
        E 31 83 32 00
        E 1 93 2a 6e
        E 31 83 2a 00
        E 1 93 28 6e
        E 31 83 28 00
        E 1 93 26 6e
        E 31 83 26 00
        E 1 93 32 6e
        E 31 83 32 00
        E 1 93 31 6e
        E 31 83 31 00
        E 1 93 32 6e
        E 31 83 32 00
        E 1 93 32 6e
        E 31 83 32 00
        E 1 93 31 6e
        E 31 83 31 00
        E 1 93 32 6e
        E 31 83 32 00
        E 1 93 2b 6e
        E 552 83 2b 00
        E 84 93 2d 6e
        E 644 83 2d 00
        E 1552 93 2f 6e
        E 47 83 2f 00
        E 25 93 34 6e
        E 47 83 34 00
        E 25 93 36 6e
        E 35 83 36 00
        E 1 93 37 6e
        E 31 83 37 00
        E 1 93 36 6e
        E 31 83 36 00
        E 1 93 34 6e
        E 31 83 34 00
        E 1 93 32 6e
        E 71 83 32 00
        E 1 93 2f 6e
        E 35 83 2f 00
        E 1 93 34 6e
        E 31 83 34 00
        E 1 93 2f 6e
        E 31 83 2f 00
        E 1 93 36 6e
        E 31 83 36 00
        E 1 93 2f 6e
        E 31 83 2f 00
        E 1 93 37 6e
        E 31 83 37 00
        E 1 93 2f 6e
        E 31 83 2f 00
        E 1 93 39 6e
        E 71 83 39 00
        E 1 93 37 6e
        E 31 83 37 00
        E 1 93 36 6e
        E 31 83 36 00
        E 1 93 34 6e
        E 31 83 34 00
        E 1 93 32 6e
        E 23 83 32 00
        E 1 93 2f 6e
        E 47 83 2f 00
        E 25 93 34 6e
        E 47 83 34 00
        E 25 93 36 6e
        E 35 83 36 00
        E 1 93 37 6e
        E 31 83 37 00
        E 1 93 36 6e
        E 31 83 36 00
        E 1 93 34 6e
        E 31 83 34 00
        E 1 93 32 6e
        E 71 83 32 00
        E 1 93 2f 6e
        E 35 83 2f 00
        E 1 93 34 6e
        E 31 83 34 00
        E 1 93 2f 6e
        E 31 83 2f 00
        E 1 93 36 6e
        E 31 83 36 00
        E 1 93 2f 6e
        E 31 83 2f 00
        E 1 93 37 6e
        E 31 83 37 00
        E 1 93 2f 6e
        E 31 83 2f 00
        E 1 93 39 6e
        E 71 83 39 00
        E 1 93 37 6e
        E 31 83 37 00
        E 1 93 36 6e
        E 31 83 36 00
        E 1 93 34 6e
        E 31 83 34 00
        E 1 93 32 6e
        E 23 83 32 00
        E 1 93 2b 6e
        E 552 83 2b 00
        E 84 93 2d 6e
        E 644 83 2d 00
        E 4624 93 28 6e
        E 3649 b3 07 7e
        E 2 b3 07 7d
        E 1 b3 07 7c
        E 2 b3 07 7b
        E 1 b3 07 7a
        E 2 b3 07 79
        E 1 b3 07 78
        E 2 b3 07 77
        E 1 b3 07 76
        E 2 b3 07 75
        E 1 b3 07 74
        E 2 b3 07 73
        E 1 b3 07 72
        E 2 b3 07 71
        E 2 b3 07 70
        E 1 b3 07 6f
        E 2 b3 07 6e
        E 1 b3 07 6d
        E 2 b3 07 6c
        E 1 b3 07 6b
        E 2 b3 07 6a
        E 1 b3 07 69
        E 2 b3 07 68
        E 1 b3 07 67
        E 2 b3 07 66
        E 1 b3 07 65
        E 2 b3 07 64
        E 2 b3 07 63
        E 1 b3 07 62
        E 2 b3 07 61
        E 1 b3 07 60
        E 2 b3 07 5f
        E 1 b3 07 5e
        E 2 b3 07 5d
        E 1 b3 07 5c
        E 2 b3 07 5b
        E 1 b3 07 5a
        E 2 b3 07 59
        E 1 b3 07 58
        E 2 b3 07 57
        E 1 b3 07 56
        E 2 b3 07 55
        E 2 b3 07 54
        E 1 b3 07 53
        E 2 b3 07 52
        E 1 b3 07 51
        E 2 b3 07 50
        E 1 b3 07 4f
        E 2 b3 07 4e
        E 1 b3 07 4d
        E 2 b3 07 4c
        E 1 b3 07 4b
        E 2 b3 07 4a
        E 1 b3 07 49
        E 2 b3 07 48
        E 2 b3 07 47
        E 1 b3 07 46
        E 2 b3 07 45
        E 1 b3 07 44
        E 2 b3 07 43
        E 1 b3 07 42
        E 2 b3 07 41
        E 1 b3 07 40
        E 2 b3 07 3f
        E 1 b3 07 3e
        E 2 b3 07 3d
        E 1 b3 07 3c
        E 2 b3 07 3b
        E 1 b3 07 3a
        E 2 b3 07 39
        E 2 b3 07 38
        E 1 b3 07 37
        E 2 b3 07 36
        E 1 b3 07 35
        E 2 b3 07 34
        E 1 b3 07 33
        E 2 b3 07 32
        E 1 b3 07 31
        E 2 b3 07 30
        E 1 b3 07 2f
        E 2 b3 07 2e
        E 1 b3 07 2d
        E 2 b3 07 2c
        E 2 b3 07 2b
        E 1 b3 07 2a
        E 2 b3 07 29
        E 1 b3 07 28
        E 2 b3 07 27
        E 1 b3 07 26
        E 2 b3 07 25
        E 1 b3 07 24
        E 2 b3 07 23
        E 1 b3 07 22
        E 2 b3 07 21
        E 1 b3 07 20
        E 2 b3 07 1f
        E 1 b3 07 1e
        E 2 b3 07 1d
        E 2 b3 07 1c
        E 1 b3 07 1b
        E 2 b3 07 1a
        E 1 b3 07 19
        E 2 b3 07 18
        E 1 b3 07 17
        E 2 b3 07 16
        E 1 b3 07 15
        E 2 b3 07 14
        E 1 b3 07 13
        E 2 b3 07 12
        E 1 b3 07 11
        E 0 83 28 00
        E 2 b3 07 10
        E 2 b3 07 0f
        E 1 b3 07 0e
        E 2 b3 07 0d
        E 1 b3 07 0c
        E 2 b3 07 0b
        E 1 b3 07 0a
        E 2 b3 07 09
        E 1 b3 07 08
        E 2 b3 07 07
        E 1 b3 07 06
        E 2 b3 07 05
        E 1 b3 07 04
        E 2 b3 07 03
        E 2 b3 07 02
        E 2016 c3 30 00
        E 0 b3 65 00
        E 0 b3 64 00
        E 0 b3 06 0c
        E 0 b3 0a 40
        E 0 b3 07 02
        E 0 e3 00 40
        E 1 c3 30 00
        E 0 b3 65 00
        E 0 b3 64 00
        E 0 b3 06 0c
        E 0 b3 0a 40
        E 0 b3 07 02
        E 0 e3 00 40
        E 0 b3 65 00
        E 0 b3 64 00
        E 0 b3 06 0c
        E 0 b3 0a 40
        E 0 b3 07 02
        E 0 e3 00 40
        E 95 b0 7b 00
        CCINTERP 32
        CHASE_CC_TAKEOFFS 1
        GUID {C7DE075A-CB75-8F46-5504-A9E198FA9479}
        IGNTEMPO 0 120 4 4
        SRCCOLOR 27
      >
    >
  >
  <TRACK {BAB1F89D-BB46-C8F0-4953-7F144ED11AE5}
    NAME "strings 2 - halo_120"
    PEAKCOL 16576
    BEAT -1
    AUTOMODE 0
    VOLPAN 1 0 -1 -1 1
    MUTESOLO 0 0 0
    IPHASE 0
    PLAYOFFS 0 1
    ISBUS 0 0
    BUSCOMP 0 0 0 0 0
    SHOWINMIX 1 0.6667 0.5 1 0.5 -1 -1 -1
    FREEMODE 0
    SEL 0
    REC 0 0 1 0 0 0 0
    VU 2
    TRACKHEIGHT 0 0 0 0 0 0
    INQ 0 0 0 0.5 100 0 0 100
    NCHAN 2
    FX 1
    TRACKID {BAB1F89D-BB46-C8F0-4953-7F144ED11AE5}
    PERF 0
    MIDIOUT 71
    MAINSEND 1 0
    <ITEM
      POSITION 0
      SNAPOFFS 0
      LENGTH 180.871952
      LOOP 1
      ALLTAKES 0
      FADEIN 1 0.01 0 1 0 0 0
      FADEOUT 1 0.01 0 1 0 0 0
      MUTE 0 0
      SEL 0
      IGUID {DD4AF74E-FC04-B5DA-E81B-B01C019FA926}
      IID 6
      NAME "strings 2 - halo_120.mid"
      VOLPAN 1 0 1 -1
      SOFFS 0 0
      PLAYRATE 1 1 0 -1 0 0.0025
      CHANMODE 0
      GUID {564130B0-7E35-B07E-BE1F-143F14783A17}
      <SOURCE MIDI
        HASDATA 1 96 QN
        CCINTERP 32
        POOLEDEVTS {7E7D85C8-68F4-C6F9-53FD-A260CFDA5F2F}
        <X 0 0 0 0 3 "strings 2"
          /wNzdHJpbmdzIDI=
        >
        E 0 c4 30 00
        E 0 b4 0a 40
        E 0 b4 07 7f
        E 0 e4 00 40
        E 0 b4 65 00
        E 0 b4 64 00
        E 0 b4 06 0c
        E 0 b4 0a 40
        E 0 b4 07 7f
        E 0 e4 00 40
        E 0 b4 65 00
        E 0 b4 64 00
        E 0 b4 06 0c
        E 0 b4 0a 40
        E 0 b4 07 7f
        E 0 e4 00 40
        E 0 b4 07 7f
        E 0 b4 0a 40
        E 0 b4 65 00
        E 0 b4 64 00
        E 0 b4 06 0c
        E 0 b4 0a 40
        E 0 b4 07 7f
        E 0 e4 00 40
        E 0 b4 07 7f
        E 0 b4 0a 40
        E 11904 94 2f 6e
        E 80 84 2f 00
        E 40 94 2f 6e
        E 35 84 2f 00
        E 1 94 31 6e
        E 35 84 31 00
        E 1 94 32 6e
        E 80 84 32 00
        E 40 94 2f 6e
        E 35 84 2f 00
        E 1 94 32 6e
        E 35 84 32 00
        E 1 94 31 6e
        E 31 84 31 00
        E 1 94 2f 6e
        E 31 84 2f 00
        E 1 94 2d 6e
        E 31 84 2d 00
        E 1 94 28 6e
        E 71 84 28 00
        E 1 94 2d 6e
        E 23 84 2d 00
        E 1 94 28 6e
        E 35 84 28 00
        E 1 94 2f 6e
        E 31 84 2f 00
        E 1 94 31 6e
        E 31 84 31 00
        E 1 94 2f 6e
        E 31 84 2f 00
        E 1 94 2d 6e
        E 35 84 2d 00
        E 1 94 28 6e
        E 23 84 28 00
        E 1 94 2f 6e
        E 80 84 2f 00
        E 40 94 31 6e
        E 35 84 31 00
        E 1 94 32 6e
        E 35 84 32 00
        E 1 94 34 6e
        E 128 84 34 00
        E 88 94 32 6e
        E 35 84 32 00
        E 1 94 31 6e
        E 35 84 31 00
        E 1 94 32 6e
        E 31 84 32 00
        E 1 94 31 6e
        E 31 84 31 00
        E 1 94 2f 6e
        E 31 84 2f 00
        E 1 94 34 6e
        E 31 84 34 00
        E 1 94 32 6e
        E 31 84 32 00
        E 1 94 31 6e
        E 31 84 31 00
        E 1 94 2f 6e
        E 31 84 2f 00
        E 1 94 32 6e
        E 31 84 32 00
        E 1 94 34 6e
        E 31 84 34 00
        E 1 94 36 6e
        E 31 84 36 00
        E 1 94 32 6e
        E 31 84 32 00
        E 1 94 2f 6e
        E 31 84 2f 00
        E 1 94 39 6e
        E 119 84 39 00
        E 1 94 39 6e
        E 35 84 39 00
        E 1 94 36 6e
        E 35 84 36 00
        E 1 94 39 6e
        E 23 84 39 00
        E 1 94 37 6e
        E 23 84 37 00
        E 1 94 39 6e
        E 47 84 39 00
        E 1 94 34 6e
        E 31 84 34 00
        E 1 94 32 6e
        E 31 84 32 00
        E 1 94 2f 6e
        E 31 84 2f 00
        E 1 94 39 6e
        E 128 84 39 00
        E 16 94 32 6e
        E 31 84 32 00
        E 1 94 34 6e
        E 31 84 34 00
        E 1 94 36 6e
        E 31 84 36 00
        E 1 94 37 6e
        E 23 84 37 00
        E 1 94 39 6e
        E 23 84 39 00
        E 1 94 34 6e
        E 80 84 34 00
        E 40 94 32 6e
        E 35 84 32 00
        E 1 94 34 6e
        E 35 84 34 00
        E 1 94 36 6e
        E 80 84 36 00
        E 40 94 34 6e
        E 31 84 34 00
        E 1 94 36 6e
        E 31 84 36 00
        E 1 94 37 6e
        E 31 84 37 00
        E 1 94 36 6e
        E 31 84 36 00
        E 1 94 34 6e
        E 31 84 34 00
        E 1 94 36 6e
        E 31 84 36 00
        E 1 94 34 6e
        E 35 84 34 00
        E 1 94 32 6e
        E 35 84 32 00
        E 1 94 31 6e
        E 71 84 31 00
        E 1 94 32 6e
        E 71 84 32 00
        E 1 94 34 6e
        E 47 84 34 00
        E 1 94 34 6e
        E 80 84 34 00
        E 40 94 34 6e
        E 35 84 34 00
        E 1 94 36 6e
        E 35 84 36 00
        E 1 94 37 6e
        E 80 84 37 00
        E 40 94 34 6e
        E 35 84 34 00
        E 1 94 37 6e
        E 35 84 37 00
        E 1 94 36 6e
        E 31 84 36 00
        E 1 94 34 6e
        E 31 84 34 00
        E 1 94 32 6e
        E 31 84 32 00
        E 1 94 2a 6e
        E 31 84 2a 00
        E 1 94 28 6e
        E 31 84 28 00
        E 1 94 26 6e
        E 31 84 26 00
        E 1 94 32 6e
        E 31 84 32 00
        E 1 94 31 6e
        E 31 84 31 00
        E 1 94 32 6e
        E 31 84 32 00
        E 1 94 32 6e
        E 31 84 32 00
        E 1 94 31 6e
        E 31 84 31 00
        E 1 94 32 6e
        E 31 84 32 00
        E 1 94 2b 5c
        E 27 84 2b 00
        E 5 94 32 5c
        E 27 84 32 00
        E 5 94 37 5c
        E 27 84 37 00
        E 5 94 2b 5c
        E 27 84 2b 00
        E 5 94 32 5c
        E 27 84 32 00
        E 5 94 30 5c
        E 27 84 30 00
        E 5 94 37 5c
        E 27 84 37 00
        E 5 94 32 5c
        E 27 84 32 00
        E 5 94 35 5c
        E 27 84 35 00
        E 5 94 30 5c
        E 27 84 30 00
        E 5 94 37 5c
        E 27 84 37 00
        E 5 94 32 5c
        E 27 84 32 00
        E 5 94 35 5c
        E 27 84 35 00
        E 5 94 30 5c
        E 27 84 30 00
        E 5 94 37 5c
        E 27 84 37 00
        E 5 94 39 5c
        E 27 84 39 00
        E 5 94 3a 5c
        E 27 84 3a 00
        E 5 94 3c 5c
        E 27 84 3c 00
        E 5 94 3a 5c
        E 27 84 3a 00
        E 5 94 39 5c
        E 27 84 39 00
        E 5 94 34 5c
        E 27 84 34 00
        E 5 94 37 5c
        E 27 84 37 00
        E 5 94 32 5c
        E 27 84 32 00
        E 5 94 39 5c
        E 27 84 39 00
        E 5 94 34 5c
        E 27 84 34 00
        E 5 94 37 5c
        E 27 84 37 00
        E 5 94 32 5c
        E 27 84 32 00
        E 5 94 39 5c
        E 27 84 39 00
        E 5 94 34 5c
        E 27 84 34 00
        E 5 94 37 5c
        E 27 84 37 00
        E 5 94 32 5c
        E 27 84 32 00
        E 5 94 39 5c
        E 27 84 39 00
        E 5 94 34 5c
        E 27 84 34 00
        E 5 94 37 5c
        E 27 84 37 00
        E 5 94 32 5c
        E 27 84 32 00
        E 5 94 36 5c
        E 27 84 36 00
        E 5 94 37 5c
        E 27 84 37 00
        E 5 94 36 5c
        E 27 84 36 00
        E 5 94 34 5c
        E 27 84 34 00
        E 5 94 32 5c
        E 43 84 32 00
        E 1541 94 2f 6e
        E 47 84 2f 00
        E 25 94 34 6e
        E 47 84 34 00
        E 25 94 36 6e
        E 35 84 36 00
        E 1 94 37 6e
        E 31 84 37 00
        E 1 94 36 6e
        E 31 84 36 00
        E 1 94 34 6e
        E 31 84 34 00
        E 1 94 32 6e
        E 71 84 32 00
        E 1 94 2f 6e
        E 35 84 2f 00
        E 1 94 34 6e
        E 31 84 34 00
        E 1 94 2f 6e
        E 31 84 2f 00
        E 1 94 36 6e
        E 31 84 36 00
        E 1 94 2f 6e
        E 31 84 2f 00
        E 1 94 37 6e
        E 31 84 37 00
        E 1 94 2f 6e
        E 31 84 2f 00
        E 1 94 39 6e
        E 71 84 39 00
        E 1 94 37 6e
        E 31 84 37 00
        E 1 94 36 6e
        E 31 84 36 00
        E 1 94 34 6e
        E 31 84 34 00
        E 1 94 32 6e
        E 23 84 32 00
        E 1 94 2f 6e
        E 47 84 2f 00
        E 25 94 34 6e
        E 47 84 34 00
        E 25 94 36 6e
        E 35 84 36 00
        E 1 94 37 6e
        E 31 84 37 00
        E 1 94 36 6e
        E 31 84 36 00
        E 1 94 34 6e
        E 31 84 34 00
        E 1 94 32 6e
        E 71 84 32 00
        E 1 94 2f 6e
        E 35 84 2f 00
        E 1 94 34 6e
        E 31 84 34 00
        E 1 94 2f 6e
        E 31 84 2f 00
        E 1 94 36 6e
        E 31 84 36 00
        E 1 94 2f 6e
        E 31 84 2f 00
        E 1 94 37 6e
        E 31 84 37 00
        E 1 94 2f 6e
        E 31 84 2f 00
        E 1 94 39 6e
        E 71 84 39 00
        E 1 94 37 6e
        E 31 84 37 00
        E 1 94 36 6e
        E 31 84 36 00
        E 1 94 34 6e
        E 31 84 34 00
        E 1 94 32 6e
        E 23 84 32 00
        E 1 94 2b 5c
        E 27 84 2b 00
        E 5 94 32 5c
        E 27 84 32 00
        E 5 94 37 5c
        E 27 84 37 00
        E 5 94 2b 5c
        E 27 84 2b 00
        E 5 94 32 5c
        E 27 84 32 00
        E 5 94 30 5c
        E 27 84 30 00
        E 5 94 37 5c
        E 27 84 37 00
        E 5 94 32 5c
        E 27 84 32 00
        E 5 94 35 5c
        E 27 84 35 00
        E 5 94 30 5c
        E 27 84 30 00
        E 5 94 37 5c
        E 27 84 37 00
        E 5 94 32 5c
        E 27 84 32 00
        E 5 94 35 5c
        E 27 84 35 00
        E 5 94 30 5c
        E 27 84 30 00
        E 5 94 37 5c
        E 27 84 37 00
        E 5 94 39 5c
        E 27 84 39 00
        E 5 94 3a 5c
        E 27 84 3a 00
        E 5 94 3c 5c
        E 27 84 3c 00
        E 5 94 3a 5c
        E 27 84 3a 00
        E 5 94 39 5c
        E 27 84 39 00
        E 5 94 34 5c
        E 27 84 34 00
        E 5 94 37 5c
        E 27 84 37 00
        E 5 94 32 5c
        E 27 84 32 00
        E 5 94 39 5c
        E 27 84 39 00
        E 5 94 34 5c
        E 27 84 34 00
        E 5 94 37 5c
        E 27 84 37 00
        E 5 94 32 5c
        E 27 84 32 00
        E 5 94 39 5c
        E 27 84 39 00
        E 5 94 34 5c
        E 27 84 34 00
        E 5 94 37 5c
        E 27 84 37 00
        E 5 94 32 5c
        E 27 84 32 00
        E 5 94 39 5c
        E 27 84 39 00
        E 5 94 34 5c
        E 27 84 34 00
        E 5 94 37 5c
        E 27 84 37 00
        E 5 94 32 5c
        E 27 84 32 00
        E 5 94 36 5c
        E 27 84 36 00
        E 5 94 37 5c
        E 27 84 37 00
        E 5 94 36 5c
        E 27 84 36 00
        E 5 94 34 5c
        E 27 84 34 00
        E 5 94 32 5c
        E 43 84 32 00
        E 5 94 28 5c
        E 384 84 28 00
        E 0 94 2a 5c
        E 384 84 2a 00
        E 0 94 2b 5c
        E 384 84 2b 00
        E 0 94 2d 5c
        E 384 84 2d 00
        E 0 94 28 5c
        E 192 84 28 00
        E 0 94 2a 5c
        E 96 84 2a 00
        E 0 94 2b 5c
        E 96 84 2b 00
        E 0 94 2d 5c
        E 384 84 2d 00
        E 0 94 2f 5c
        E 192 84 2f 00
        E 0 94 2a 5c
        E 96 84 2a 00
        E 0 94 2b 5c
        E 96 84 2b 00
        E 0 94 31 5c
        E 384 84 31 00
        E 0 94 32 5c
        E 192 84 32 00
        E 0 94 34 5c
        E 96 84 34 00
        E 0 94 36 5c
        E 96 84 36 00
        E 0 94 37 5c
        E 192 84 37 00
        E 0 94 39 5c
        E 168 84 39 00
        E 24 94 3b 5c
        E 744 84 3b 00
        E 5880 c4 30 00
        E 0 b4 65 00
        E 0 b4 64 00
        E 0 b4 06 0c
        E 0 b4 0a 40
        E 0 b4 07 7f
        E 0 e4 00 40
        E 1 c4 30 00
        E 0 b4 65 00
        E 0 b4 64 00
        E 0 b4 06 0c
        E 0 b4 0a 40
        E 0 b4 07 7f
        E 0 e4 00 40
        E 0 b4 65 00
        E 0 b4 64 00
        E 0 b4 06 0c
        E 0 b4 0a 40
        E 0 b4 07 7f
        E 0 e4 00 40
        E 95 b0 7b 00
        CCINTERP 32
        CHASE_CC_TAKEOFFS 1
        GUID {79E1C1AF-7565-2ACF-AB2F-3A77B9A4D9DD}
        IGNTEMPO 0 120 4 4
        SRCCOLOR 28
      >
    >
  >
  <TRACK {6189ECC2-4303-FB37-A467-36302D0F72BB}
    NAME "viola - halo_120"
    PEAKCOL 16576
    BEAT -1
    AUTOMODE 0
    VOLPAN 1 0 -1 -1 1
    MUTESOLO 0 0 0
    IPHASE 0
    PLAYOFFS 0 1
    ISBUS 0 0
    BUSCOMP 0 0 0 0 0
    SHOWINMIX 1 0.6667 0.5 1 0.5 -1 -1 -1
    FREEMODE 0
    SEL 0
    REC 0 0 1 0 0 0 0
    VU 2
    TRACKHEIGHT 0 0 0 0 0 0
    INQ 0 0 0 0.5 100 0 0 100
    NCHAN 2
    FX 1
    TRACKID {6189ECC2-4303-FB37-A467-36302D0F72BB}
    PERF 0
    MIDIOUT 72
    MAINSEND 1 0
    <ITEM
      POSITION 0
      SNAPOFFS 0
      LENGTH 180.871952
      LOOP 1
      ALLTAKES 0
      FADEIN 1 0.01 0 1 0 0 0
      FADEOUT 1 0.01 0 1 0 0 0
      MUTE 0 0
      SEL 0
      IGUID {8FEECC7C-EBAE-72EF-3D71-386BDF168B50}
      IID 7
      NAME "viola - halo_120.mid"
      VOLPAN 1 0 1 -1
      SOFFS 0 0
      PLAYRATE 1 1 0 -1 0 0.0025
      CHANMODE 0
      GUID {7F1D1100-7424-0232-1295-7662BC6CC8C0}
      <SOURCE MIDI
        HASDATA 1 96 QN
        CCINTERP 32
        POOLEDEVTS {A705E2DE-4977-BD6B-67D6-2815FC20E3A9}
        <X 0 0 0 0 3 viola
          /wN2aW9sYQ==
        >
        E 0 c5 29 00
        E 0 b5 0a 40
        E 0 b5 07 7f
        E 0 e5 00 40
        E 0 b5 65 00
        E 0 b5 64 00
        E 0 b5 06 0c
        E 0 b5 0a 40
        E 0 b5 07 7f
        E 0 e5 00 40
        E 0 b5 65 00
        E 0 b5 64 00
        E 0 b5 06 0c
        E 0 b5 0a 40
        E 0 b5 07 7f
        E 0 e5 00 40
        E 0 b5 07 7f
        E 0 b5 0a 40
        E 0 b5 65 00
        E 0 b5 64 00
        E 0 b5 06 0c
        E 0 b5 0a 40
        E 0 b5 07 7f
        E 0 e5 00 40
        E 0 b5 07 7f
        E 0 b5 0a 40
        E 392 95 28 6e
        E 192 85 28 00
        E 0 95 2a 6e
        E 96 85 2a 00
        E 0 95 2b 6e
        E 96 85 2b 00
        E 0 95 2a 6e
        E 96 85 2a 00
        E 0 95 2d 6e
        E 96 85 2d 00
        E 0 95 2b 6e
        E 96 85 2b 00
        E 0 95 2a 6e
        E 96 85 2a 00
        E 0 95 28 6e
        E 552 85 28 00
        E 24 95 2f 6e
        E 96 85 2f 00
        E 0 95 31 6e
        E 96 85 31 00
        E 0 95 32 6e
        E 288 85 32 00
        E 0 95 31 6e
        E 96 85 31 00
        E 0 95 2d 6e
        E 96 85 2d 00
        E 0 95 31 6e
        E 96 85 31 00
        E 0 95 2f 6e
        E 552 85 2f 00
        E 24 95 23 6e
        E 96 85 23 00
        E 0 95 26 6e
        E 96 85 26 00
        E 0 95 28 6e
        E 96 85 28 00
        E 0 95 2b 6e
        E 96 85 2b 00
        E 0 95 2d 6e
        E 96 85 2d 00
        E 0 95 2a 6e
        E 264 85 2a 00
        E 24 95 28 6e
        E 96 85 28 00
        E 0 95 2b 6e
        E 96 85 2b 00
        E 0 95 2a 6e
        E 96 85 2a 00
        E 0 95 28 6e
        E 96 85 28 00
        E 0 95 2a 6e
        E 96 85 2a 00
        E 0 95 26 6e
        E 264 85 26 00
        E 24 95 28 6e
        E 744 85 28 00
        E 400 95 28 6e
        E 27 85 28 00
        E 5 95 28 6e
        E 27 85 28 00
        E 5 95 28 6e
        E 27 85 28 00
        E 5 95 34 6e
        E 264 85 34 00
        E 24 95 28 6e
        E 27 85 28 00
        E 5 95 28 6e
        E 27 85 28 00
        E 5 95 28 6e
        E 27 85 28 00
        E 5 95 36 6e
        E 264 85 36 00
        E 24 95 28 6e
        E 27 85 28 00
        E 5 95 28 6e
        E 27 85 28 00
        E 5 95 28 6e
        E 27 85 28 00
        E 5 95 37 6e
        E 264 85 37 00
        E 24 95 28 6e
        E 27 85 28 00
        E 5 95 28 6e
        E 27 85 28 00
        E 5 95 28 6e
        E 27 85 28 00
        E 5 95 39 6e
        E 80 85 39 00
        E 16 95 28 6e
        E 27 85 28 00
        E 5 95 39 6e
        E 31 85 39 00
        E 1 95 28 6e
        E 27 85 28 00
        E 5 95 39 6e
        E 31 85 39 00
        E 1 95 37 6e
        E 31 85 37 00
        E 1 95 36 6e
        E 31 85 36 00
        E 1 95 28 6e
        E 27 85 28 00
        E 5 95 28 6e
        E 27 85 28 00
        E 5 95 28 6e
        E 27 85 28 00
        E 5 95 34 6e
        E 264 85 34 00
        E 24 95 28 6e
        E 27 85 28 00
        E 5 95 28 6e
        E 27 85 28 00
        E 5 95 28 6e
        E 27 85 28 00
        E 5 95 36 6e
        E 264 85 36 00
        E 24 95 28 6e
        E 27 85 28 00
        E 5 95 28 6e
        E 27 85 28 00
        E 5 95 28 6e
        E 27 85 28 00
        E 5 95 37 6e
        E 264 85 37 00
        E 24 95 28 6e
        E 27 85 28 00
        E 5 95 28 6e
        E 27 85 28 00
        E 5 95 28 6e
        E 27 85 28 00
        E 5 95 39 6e
        E 80 85 39 00
        E 16 95 28 6e
        E 27 85 28 00
        E 5 95 39 6e
        E 31 85 39 00
        E 1 95 28 6e
        E 27 85 28 00
        E 5 95 39 6e
        E 31 85 39 00
        E 1 95 37 6e
        E 31 85 37 00
        E 1 95 36 6e
        E 31 85 36 00
        E 1 95 28 6e
        E 27 85 28 00
        E 5 95 28 6e
        E 27 85 28 00
        E 5 95 28 6e
        E 27 85 28 00
        E 5 95 34 6e
        E 80 85 34 00
        E 16 95 28 6e
        E 27 85 28 00
        E 5 95 28 6e
        E 27 85 28 00
        E 5 95 28 6e
        E 27 85 28 00
        E 5 95 39 6e
        E 80 85 39 00
        E 16 95 28 6e
        E 27 85 28 00
        E 5 95 28 6e
        E 27 85 28 00
        E 5 95 28 6e
        E 27 85 28 00
        E 5 95 36 6e
        E 80 85 36 00
        E 16 95 28 6e
        E 27 85 28 00
        E 5 95 28 6e
        E 27 85 28 00
        E 5 95 28 6e
        E 27 85 28 00
        E 5 95 36 6e
        E 31 85 36 00
        E 1 95 36 6e
        E 31 85 36 00
        E 1 95 34 6e
        E 31 85 34 00
        E 1 95 28 6e
        E 27 85 28 00
        E 5 95 28 6e
        E 27 85 28 00
        E 5 95 28 6e
        E 27 85 28 00
        E 5 95 34 6e
        E 80 85 34 00
        E 16 95 28 6e
        E 27 85 28 00
        E 5 95 28 6e
        E 27 85 28 00
        E 5 95 28 6e
        E 27 85 28 00
        E 5 95 36 6e
        E 31 85 36 00
        E 1 95 36 6e
        E 31 85 36 00
        E 1 95 34 6e
        E 31 85 34 00
        E 1 95 28 6e
        E 27 85 28 00
        E 5 95 28 6e
        E 27 85 28 00
        E 5 95 28 6e
        E 27 85 28 00
        E 5 95 39 6e
        E 80 85 39 00
        E 16 95 28 6e
        E 27 85 28 00
        E 5 95 39 6e
        E 31 85 39 00
        E 1 95 28 6e
        E 27 85 28 00
        E 5 95 39 6e
        E 31 85 39 00
        E 1 95 37 6e
        E 31 85 37 00
        E 1 95 36 6e
        E 31 85 36 00
        E 1 95 28 6e
        E 27 85 28 00
        E 5 95 28 6e
        E 27 85 28 00
        E 5 95 28 6e
        E 27 85 28 00
        E 5 95 34 6e
        E 80 85 34 00
        E 16 95 28 6e
        E 27 85 28 00
        E 5 95 28 6e
        E 27 85 28 00
        E 5 95 28 6e
        E 27 85 28 00
        E 5 95 37 6e
        E 80 85 37 00
        E 16 95 28 6e
        E 27 85 28 00
        E 5 95 28 6e
        E 27 85 28 00
        E 5 95 28 6e
        E 27 85 28 00
        E 5 95 39 6e
        E 80 85 39 00
        E 16 95 28 6e
        E 27 85 28 00
        E 5 95 39 6e
        E 31 85 39 00
        E 1 95 28 6e
        E 27 85 28 00
        E 5 95 39 6e
        E 31 85 39 00
        E 1 95 37 6e
        E 31 85 37 00
        E 1 95 36 6e
        E 31 85 36 00
        E 1 95 28 6e
        E 27 85 28 00
        E 5 95 28 6e
        E 27 85 28 00
        E 5 95 28 6e
        E 27 85 28 00
        E 5 95 34 6e
        E 80 85 34 00
        E 16 95 28 6e
        E 27 85 28 00
        E 5 95 28 6e
        E 27 85 28 00
        E 5 95 28 6e
        E 27 85 28 00
        E 5 95 37 6e
        E 80 85 37 00
        E 16 95 28 6e
        E 27 85 28 00
        E 5 95 28 6e
        E 27 85 28 00
        E 5 95 28 6e
        E 27 85 28 00
        E 5 95 39 6e
        E 80 85 39 00
        E 16 95 28 6e
        E 27 85 28 00
        E 5 95 39 6e
        E 31 85 39 00
        E 1 95 28 6e
        E 27 85 28 00
        E 5 95 39 6e
        E 31 85 39 00
        E 1 95 37 6e
        E 31 85 37 00
        E 1 95 36 6e
        E 31 85 36 00
        E 1 95 28 6e
        E 27 85 28 00
        E 5 95 28 6e
        E 27 85 28 00
        E 5 95 28 6e
        E 27 85 28 00
        E 5 95 34 6e
        E 264 85 34 00
        E 24 95 28 6e
        E 27 85 28 00
        E 5 95 28 6e
        E 27 85 28 00
        E 5 95 28 6e
        E 27 85 28 00
        E 5 95 36 6e
        E 264 85 36 00
        E 24 95 28 6e
        E 27 85 28 00
        E 5 95 28 6e
        E 27 85 28 00
        E 5 95 28 6e
        E 27 85 28 00
        E 5 95 37 6e
        E 264 85 37 00
        E 24 95 28 6e
        E 27 85 28 00
        E 5 95 28 6e
        E 27 85 28 00
        E 5 95 28 6e
        E 27 85 28 00
        E 5 95 39 6e
        E 80 85 39 00
        E 16 95 28 6e
        E 27 85 28 00
        E 5 95 39 6e
        E 31 85 39 00
        E 1 95 28 6e
        E 27 85 28 00
        E 5 95 39 6e
        E 31 85 39 00
        E 1 95 37 6e
        E 31 85 37 00
        E 1 95 36 6e
        E 31 85 36 00
        E 1 95 28 6e
        E 27 85 28 00
        E 5 95 28 6e
        E 27 85 28 00
        E 5 95 28 6e
        E 27 85 28 00
        E 5 95 34 6e
        E 80 85 34 00
        E 16 95 28 6e
        E 27 85 28 00
        E 5 95 28 6e
        E 27 85 28 00
        E 5 95 28 6e
        E 27 85 28 00
        E 5 95 36 6e
        E 80 85 36 00
        E 16 95 28 6e
        E 27 85 28 00
        E 5 95 28 6e
        E 27 85 28 00
        E 5 95 28 6e
        E 27 85 28 00
        E 5 95 37 6e
        E 80 85 37 00
        E 16 95 28 6e
        E 27 85 28 00
        E 5 95 28 6e
        E 27 85 28 00
        E 5 95 28 6e
        E 27 85 28 00
        E 5 95 39 6e
        E 80 85 39 00
        E 16 95 28 6e
        E 27 85 28 00
        E 5 95 28 6e
        E 27 85 28 00
        E 5 95 28 6e
        E 27 85 28 00
        E 5 95 34 6e
        E 80 85 34 00
        E 16 95 28 6e
        E 27 85 28 00
        E 5 95 28 6e
        E 27 85 28 00
        E 5 95 28 6e
        E 27 85 28 00
        E 5 95 36 6e
        E 80 85 36 00
        E 16 95 28 6e
        E 27 85 28 00
        E 5 95 28 6e
        E 27 85 28 00
        E 5 95 28 6e
        E 27 85 28 00
        E 5 95 37 6e
        E 80 85 37 00
        E 16 95 28 6e
        E 27 85 28 00
        E 5 95 28 6e
        E 27 85 28 00
        E 5 95 28 6e
        E 27 85 28 00
        E 5 95 39 6e
        E 80 85 39 00
        E 16 95 28 6e
        E 27 85 28 00
        E 5 95 28 6e
        E 27 85 28 00
        E 5 95 28 6e
        E 27 85 28 00
        E 5 95 34 6e
        E 80 85 34 00
        E 16 95 28 6e
        E 27 85 28 00
        E 5 95 28 6e
        E 27 85 28 00
        E 5 95 28 6e
        E 27 85 28 00
        E 5 95 36 6e
        E 80 85 36 00
        E 16 95 28 6e
        E 27 85 28 00
        E 5 95 28 6e
        E 27 85 28 00
        E 5 95 28 6e
        E 27 85 28 00
        E 5 95 37 6e
        E 80 85 37 00
        E 16 95 28 6e
        E 27 85 28 00
        E 5 95 28 6e
        E 27 85 28 00
        E 5 95 28 6e
        E 27 85 28 00
        E 5 95 39 6e
        E 80 85 39 00
        E 1312 95 28 6e
        E 27 85 28 00
        E 5 95 28 6e
        E 27 85 28 00
        E 5 95 28 6e
        E 27 85 28 00
        E 5 95 34 6e
        E 80 85 34 00
        E 16 95 28 6e
        E 27 85 28 00
        E 5 95 28 6e
        E 27 85 28 00
        E 5 95 28 6e
        E 27 85 28 00
        E 5 95 37 6e
        E 80 85 37 00
        E 16 95 28 6e
        E 27 85 28 00
        E 5 95 28 6e
        E 27 85 28 00
        E 5 95 28 6e
        E 27 85 28 00
        E 5 95 39 6e
        E 80 85 39 00
        E 16 95 28 6e
        E 27 85 28 00
        E 5 95 39 6e
        E 31 85 39 00
        E 1 95 28 6e
        E 27 85 28 00
        E 5 95 39 6e
        E 31 85 39 00
        E 1 95 37 6e
        E 31 85 37 00
        E 1 95 36 6e
        E 31 85 36 00
        E 1 95 28 6e
        E 27 85 28 00
        E 5 95 28 6e
        E 27 85 28 00
        E 5 95 28 6e
        E 27 85 28 00
        E 5 95 34 6e
        E 80 85 34 00
        E 16 95 28 6e
        E 27 85 28 00
        E 5 95 28 6e
        E 27 85 28 00
        E 5 95 28 6e
        E 27 85 28 00
        E 5 95 37 6e
        E 80 85 37 00
        E 16 95 28 6e
        E 27 85 28 00
        E 5 95 28 6e
        E 27 85 28 00
        E 5 95 28 6e
        E 27 85 28 00
        E 5 95 39 6e
        E 80 85 39 00
        E 16 95 28 6e
        E 27 85 28 00
        E 5 95 39 6e
        E 31 85 39 00
        E 1 95 28 6e
        E 27 85 28 00
        E 5 95 39 6e
        E 31 85 39 00
        E 1 95 37 6e
        E 31 85 37 00
        E 1 95 36 6e
        E 31 85 36 00
        E 1 95 28 6e
        E 27 85 28 00
        E 5 95 28 6e
        E 27 85 28 00
        E 5 95 28 6e
        E 27 85 28 00
        E 5 95 34 6e
        E 80 85 34 00
        E 16 95 28 6e
        E 27 85 28 00
        E 5 95 28 6e
        E 27 85 28 00
        E 5 95 28 6e
        E 27 85 28 00
        E 5 95 37 6e
        E 80 85 37 00
        E 16 95 28 6e
        E 27 85 28 00
        E 5 95 28 6e
        E 27 85 28 00
        E 5 95 28 6e
        E 27 85 28 00
        E 5 95 39 6e
        E 80 85 39 00
        E 16 95 28 6e
        E 27 85 28 00
        E 5 95 39 6e
        E 31 85 39 00
        E 1 95 28 6e
        E 27 85 28 00
        E 5 95 39 6e
        E 31 85 39 00
        E 1 95 37 6e
        E 31 85 37 00
        E 1 95 36 6e
        E 31 85 36 00
        E 1 95 28 6e
        E 27 85 28 00
        E 5 95 28 6e
        E 27 85 28 00
        E 5 95 28 6e
        E 27 85 28 00
        E 5 95 34 6e
        E 80 85 34 00
        E 16 95 28 6e
        E 27 85 28 00
        E 5 95 28 6e
        E 27 85 28 00
        E 5 95 28 6e
        E 27 85 28 00
        E 5 95 37 6e
        E 80 85 37 00
        E 16 95 28 6e
        E 27 85 28 00
        E 5 95 28 6e
        E 27 85 28 00
        E 5 95 28 6e
        E 27 85 28 00
        E 5 95 39 6e
        E 80 85 39 00
        E 16 95 28 6e
        E 27 85 28 00
        E 5 95 39 6e
        E 31 85 39 00
        E 1 95 28 6e
        E 27 85 28 00
        E 5 95 39 6e
        E 31 85 39 00
        E 1 95 37 6e
        E 31 85 37 00
        E 1 95 36 6e
        E 31 85 36 00
        E 1297 95 28 6e
        E 27 85 28 00
        E 5 95 28 6e
        E 27 85 28 00
        E 5 95 28 6e
        E 27 85 28 00
        E 5 95 34 6e
        E 264 85 34 00
        E 24 95 28 6e
        E 27 85 28 00
        E 5 95 28 6e
        E 27 85 28 00
        E 5 95 28 6e
        E 27 85 28 00
        E 5 95 36 6e
        E 264 85 36 00
        E 24 95 28 6e
        E 27 85 28 00
        E 5 95 28 6e
        E 27 85 28 00
        E 5 95 28 6e
        E 27 85 28 00
        E 5 95 37 6e
        E 264 85 37 00
        E 24 95 28 6e
        E 27 85 28 00
        E 5 95 28 6e
        E 27 85 28 00
        E 5 95 28 6e
        E 27 85 28 00
        E 5 95 39 6e
        E 80 85 39 00
        E 16 95 28 6e
        E 27 85 28 00
        E 5 95 39 6e
        E 31 85 39 00
        E 1 95 28 6e
        E 27 85 28 00
        E 5 95 39 6e
        E 31 85 39 00
        E 1 95 37 6e
        E 31 85 37 00
        E 1 95 36 6e
        E 31 85 36 00
        E 1 95 28 6e
        E 27 85 28 00
        E 5 95 28 6e
        E 27 85 28 00
        E 5 95 28 6e
        E 27 85 28 00
        E 5 95 34 6e
        E 264 85 34 00
        E 24 95 28 6e
        E 27 85 28 00
        E 5 95 28 6e
        E 27 85 28 00
        E 5 95 28 6e
        E 27 85 28 00
        E 5 95 36 6e
        E 264 85 36 00
        E 24 95 28 6e
        E 27 85 28 00
        E 5 95 28 6e
        E 27 85 28 00
        E 5 95 28 6e
        E 27 85 28 00
        E 5 95 37 6e
        E 264 85 37 00
        E 24 95 28 6e
        E 27 85 28 00
        E 5 95 28 6e
        E 27 85 28 00
        E 5 95 28 6e
        E 27 85 28 00
        E 5 95 39 6e
        E 80 85 39 00
        E 16 95 28 6e
        E 27 85 28 00
        E 5 95 39 6e
        E 31 85 39 00
        E 1 95 28 6e
        E 27 85 28 00
        E 5 95 39 6e
        E 31 85 39 00
        E 1 95 37 6e
        E 31 85 37 00
        E 1 95 36 6e
        E 31 85 36 00
        E 7393 c5 29 00
        E 0 b5 65 00
        E 0 b5 64 00
        E 0 b5 06 0c
        E 0 b5 0a 40
        E 0 b5 07 7f
        E 0 e5 00 40
        E 1 c5 29 00
        E 0 b5 65 00
        E 0 b5 64 00
        E 0 b5 06 0c
        E 0 b5 0a 40
        E 0 b5 07 7f
        E 0 e5 00 40
        E 0 b5 65 00
        E 0 b5 64 00
        E 0 b5 06 0c
        E 0 b5 0a 40
        E 0 b5 07 7f
        E 0 e5 00 40
        E 95 b0 7b 00
        CCINTERP 32
        CHASE_CC_TAKEOFFS 1
        GUID {457DF1CA-754E-D876-46BF-5EF00A2CB047}
        IGNTEMPO 0 120 4 4
        SRCCOLOR 29
      >
    >
  >
  <TRACK {F3862135-9588-0126-2C79-50DDB5DB26D8}
    NAME "timpani - halo_120"
    PEAKCOL 16576
    BEAT -1
    AUTOMODE 0
    VOLPAN 1 0 -1 -1 1
    MUTESOLO 0 0 0
    IPHASE 0
    PLAYOFFS 0 1
    ISBUS 0 0
    BUSCOMP 0 0 0 0 0
    SHOWINMIX 1 0.6667 0.5 1 0.5 -1 -1 -1
    FREEMODE 0
    SEL 0
    REC 0 0 1 0 0 0 0
    VU 2
    TRACKHEIGHT 0 0 0 0 0 0
    INQ 0 0 0 0.5 100 0 0 100
    NCHAN 2
    FX 1
    TRACKID {F3862135-9588-0126-2C79-50DDB5DB26D8}
    PERF 0
    MIDIOUT -1
    MAINSEND 1 0
    <ITEM
      POSITION 0
      SNAPOFFS 0
      LENGTH 180.871952
      LOOP 1
      ALLTAKES 0
      FADEIN 1 0.01 0 1 0 0 0
      FADEOUT 1 0.01 0 1 0 0 0
      MUTE 0 0
      SEL 0
      IGUID {6D9E19AA-3E61-1B14-4258-071150F9AF24}
      IID 8
      NAME "timpani - halo_120.mid"
      VOLPAN 1 0 1 -1
      SOFFS 0 0
      PLAYRATE 1 1 0 -1 0 0.0025
      CHANMODE 0
      GUID {FC75F48D-FAFE-8938-64FE-63DBB951E586}
      <SOURCE MIDI
        HASDATA 1 96 QN
        CCINTERP 32
        POOLEDEVTS {87E41CD5-B129-9F2B-C745-B10DE53393EA}
        <X 0 0 0 0 3 timpani
          /wN0aW1wYW5p
        >
        E 0 c6 2f 00
        E 0 b6 0a 40
        E 0 b6 07 7f
        E 0 e6 00 40
        E 0 b6 65 00
        E 0 b6 64 00
        E 0 b6 06 0c
        E 0 b6 0a 40
        E 0 b6 07 7f
        E 0 e6 00 40
        E 0 b6 65 00
        E 0 b6 64 00
        E 0 b6 06 0c
        E 0 b6 0a 40
        E 0 b6 07 7f
        E 0 e6 00 40
        E 0 b6 07 7f
        E 0 b6 0a 40
        E 0 b6 65 00
        E 0 b6 64 00
        E 0 b6 06 0c
        E 0 b6 0a 40
        E 0 b6 07 7f
        E 0 e6 00 40
        E 0 b6 07 7f
        E 0 b6 0a 40
        E 5760 96 1c 6e
        E 27 86 1c 00
        E 5 96 1c 6e
        E 27 86 1c 00
        E 5 96 1c 6e
        E 27 86 1c 00
        E 293 96 1c 6e
        E 27 86 1c 00
        E 5 96 1c 6e
        E 27 86 1c 00
        E 5 96 1c 6e
        E 27 86 1c 00
        E 293 96 1c 6e
        E 27 86 1c 00
        E 5 96 1c 6e
        E 27 86 1c 00
        E 5 96 1c 6e
        E 27 86 1c 00
        E 293 96 1c 6e
        E 27 86 1c 00
        E 5 96 1c 6e
        E 27 86 1c 00
        E 5 96 1c 6e
        E 27 86 1c 00
        E 101 96 1c 6e
        E 27 86 1c 00
        E 37 96 1c 6e
        E 27 86 1c 00
        E 101 96 1c 6e
        E 27 86 1c 00
        E 5 96 1c 6e
        E 27 86 1c 00
        E 5 96 1c 6e
        E 27 86 1c 00
        E 293 96 1c 6e
        E 27 86 1c 00
        E 5 96 1c 6e
        E 27 86 1c 00
        E 5 96 1c 6e
        E 27 86 1c 00
        E 293 96 1c 6e
        E 27 86 1c 00
        E 5 96 1c 6e
        E 27 86 1c 00
        E 5 96 1c 6e
        E 27 86 1c 00
        E 293 96 1c 6e
        E 27 86 1c 00
        E 5 96 1c 6e
        E 27 86 1c 00
        E 5 96 1c 6e
        E 27 86 1c 00
        E 101 96 1c 6e
        E 27 86 1c 00
        E 37 96 1c 6e
        E 27 86 1c 00
        E 101 96 1c 6e
        E 27 86 1c 00
        E 5 96 1c 6e
        E 27 86 1c 00
        E 5 96 1c 6e
        E 27 86 1c 00
        E 101 96 1c 6e
        E 27 86 1c 00
        E 5 96 1c 6e
        E 27 86 1c 00
        E 5 96 1c 6e
        E 27 86 1c 00
        E 101 96 1c 6e
        E 27 86 1c 00
        E 5 96 1c 6e
        E 27 86 1c 00
        E 5 96 1c 6e
        E 27 86 1c 00
        E 101 96 1c 6e
        E 27 86 1c 00
        E 5 96 1c 6e
        E 27 86 1c 00
        E 5 96 1c 6e
        E 27 86 1c 00
        E 101 96 1c 6e
        E 27 86 1c 00
        E 5 96 1c 6e
        E 27 86 1c 00
        E 5 96 1c 6e
        E 27 86 1c 00
        E 101 96 1c 6e
        E 27 86 1c 00
        E 5 96 1c 6e
        E 27 86 1c 00
        E 5 96 1c 6e
        E 27 86 1c 00
        E 101 96 1c 6e
        E 27 86 1c 00
        E 5 96 1c 6e
        E 27 86 1c 00
        E 5 96 1c 6e
        E 27 86 1c 00
        E 101 96 1c 6e
        E 27 86 1c 00
        E 37 96 1c 6e
        E 27 86 1c 00
        E 101 96 1c 6e
        E 27 86 1c 00
        E 5 96 1c 6e
        E 27 86 1c 00
        E 5 96 1c 6e
        E 27 86 1c 00
        E 101 96 1c 6e
        E 27 86 1c 00
        E 5 96 1c 6e
        E 27 86 1c 00
        E 5 96 1c 6e
        E 27 86 1c 00
        E 101 96 1c 6e
        E 27 86 1c 00
        E 5 96 1c 6e
        E 27 86 1c 00
        E 5 96 1c 6e
        E 27 86 1c 00
        E 101 96 1c 6e
        E 27 86 1c 00
        E 37 96 1c 6e
        E 27 86 1c 00
        E 101 96 1c 6e
        E 27 86 1c 00
        E 5 96 1c 6e
        E 27 86 1c 00
        E 5 96 1c 6e
        E 27 86 1c 00
        E 101 96 1c 6e
        E 27 86 1c 00
        E 5 96 1c 6e
        E 27 86 1c 00
        E 5 96 1c 6e
        E 27 86 1c 00
        E 101 96 1c 6e
        E 27 86 1c 00
        E 5 96 1c 6e
        E 27 86 1c 00
        E 5 96 1c 6e
        E 27 86 1c 00
        E 101 96 1c 6e
        E 27 86 1c 00
        E 37 96 1c 6e
        E 27 86 1c 00
        E 101 96 1c 6e
        E 27 86 1c 00
        E 5 96 1c 6e
        E 27 86 1c 00
        E 5 96 1c 6e
        E 27 86 1c 00
        E 293 96 1c 6e
        E 27 86 1c 00
        E 5 96 1c 6e
        E 27 86 1c 00
        E 5 96 1c 6e
        E 27 86 1c 00
        E 293 96 1c 6e
        E 27 86 1c 00
        E 5 96 1c 6e
        E 27 86 1c 00
        E 5 96 1c 6e
        E 27 86 1c 00
        E 293 96 1c 6e
        E 27 86 1c 00
        E 5 96 1c 6e
        E 27 86 1c 00
        E 5 96 1c 6e
        E 27 86 1c 00
        E 101 96 1c 6e
        E 27 86 1c 00
        E 37 96 1c 6e
        E 27 86 1c 00
        E 101 96 1c 6e
        E 27 86 1c 00
        E 5 96 1c 6e
        E 27 86 1c 00
        E 5 96 1c 6e
        E 27 86 1c 00
        E 101 96 1c 6e
        E 27 86 1c 00
        E 5 96 1c 6e
        E 27 86 1c 00
        E 5 96 1c 6e
        E 27 86 1c 00
        E 101 96 1c 6e
        E 27 86 1c 00
        E 5 96 1c 6e
        E 27 86 1c 00
        E 5 96 1c 6e
        E 27 86 1c 00
        E 101 96 1c 6e
        E 27 86 1c 00
        E 5 96 1c 6e
        E 27 86 1c 00
        E 5 96 1c 6e
        E 27 86 1c 00
        E 101 96 1c 6e
        E 27 86 1c 00
        E 5 96 1c 6e
        E 27 86 1c 00
        E 5 96 1c 6e
        E 27 86 1c 00
        E 101 96 1c 6e
        E 27 86 1c 00
        E 5 96 1c 6e
        E 27 86 1c 00
        E 5 96 1c 6e
        E 27 86 1c 00
        E 101 96 1c 6e
        E 27 86 1c 00
        E 5 96 1c 6e
        E 27 86 1c 00
        E 5 96 1c 6e
        E 27 86 1c 00
        E 101 96 1c 6e
        E 27 86 1c 00
        E 5 96 1c 6e
        E 27 86 1c 00
        E 5 96 1c 6e
        E 27 86 1c 00
        E 101 96 1c 6e
        E 27 86 1c 00
        E 5 96 1c 6e
        E 27 86 1c 00
        E 5 96 1c 6e
        E 27 86 1c 00
        E 101 96 1c 6e
        E 27 86 1c 00
        E 5 96 1c 6e
        E 27 86 1c 00
        E 5 96 1c 6e
        E 27 86 1c 00
        E 101 96 1c 6e
        E 27 86 1c 00
        E 5 96 1c 6e
        E 27 86 1c 00
        E 5 96 1c 6e
        E 27 86 1c 00
        E 101 96 1c 6e
        E 27 86 1c 00
        E 5 96 1c 6e
        E 27 86 1c 00
        E 5 96 1c 6e
        E 27 86 1c 00
        E 1397 96 1c 6e
        E 27 86 1c 00
        E 5 96 1c 6e
        E 27 86 1c 00
        E 5 96 1c 6e
        E 27 86 1c 00
        E 101 96 1c 6e
        E 27 86 1c 00
        E 5 96 1c 6e
        E 27 86 1c 00
        E 5 96 1c 6e
        E 27 86 1c 00
        E 101 96 1c 6e
        E 27 86 1c 00
        E 5 96 1c 6e
        E 27 86 1c 00
        E 5 96 1c 6e
        E 27 86 1c 00
        E 101 96 1c 6e
        E 27 86 1c 00
        E 37 96 1c 6e
        E 27 86 1c 00
        E 101 96 1c 6e
        E 27 86 1c 00
        E 5 96 1c 6e
        E 27 86 1c 00
        E 5 96 1c 6e
        E 27 86 1c 00
        E 101 96 1c 6e
        E 27 86 1c 00
        E 5 96 1c 6e
        E 27 86 1c 00
        E 5 96 1c 6e
        E 27 86 1c 00
        E 101 96 1c 6e
        E 27 86 1c 00
        E 5 96 1c 6e
        E 27 86 1c 00
        E 5 96 1c 6e
        E 27 86 1c 00
        E 101 96 1c 6e
        E 27 86 1c 00
        E 37 96 1c 6e
        E 27 86 1c 00
        E 101 96 1c 6e
        E 27 86 1c 00
        E 5 96 1c 6e
        E 27 86 1c 00
        E 5 96 1c 6e
        E 27 86 1c 00
        E 101 96 1c 6e
        E 27 86 1c 00
        E 5 96 1c 6e
        E 27 86 1c 00
        E 5 96 1c 6e
        E 27 86 1c 00
        E 101 96 1c 6e
        E 27 86 1c 00
        E 5 96 1c 6e
        E 27 86 1c 00
        E 5 96 1c 6e
        E 27 86 1c 00
        E 101 96 1c 6e
        E 27 86 1c 00
        E 37 96 1c 6e
        E 27 86 1c 00
        E 101 96 1c 6e
        E 27 86 1c 00
        E 5 96 1c 6e
        E 27 86 1c 00
        E 5 96 1c 6e
        E 27 86 1c 00
        E 101 96 1c 6e
        E 27 86 1c 00
        E 5 96 1c 6e
        E 27 86 1c 00
        E 5 96 1c 6e
        E 27 86 1c 00
        E 101 96 1c 6e
        E 27 86 1c 00
        E 5 96 1c 6e
        E 27 86 1c 00
        E 5 96 1c 6e
        E 27 86 1c 00
        E 101 96 1c 6e
        E 27 86 1c 00
        E 37 96 1c 6e
        E 27 86 1c 00
        E 1397 96 1c 6e
        E 27 86 1c 00
        E 5 96 1c 6e
        E 27 86 1c 00
        E 5 96 1c 6e
        E 27 86 1c 00
        E 293 96 1c 6e
        E 27 86 1c 00
        E 5 96 1c 6e
        E 27 86 1c 00
        E 5 96 1c 6e
        E 27 86 1c 00
        E 293 96 1c 6e
        E 27 86 1c 00
        E 5 96 1c 6e
        E 27 86 1c 00
        E 5 96 1c 6e
        E 27 86 1c 00
        E 293 96 1c 6e
        E 27 86 1c 00
        E 5 96 1c 6e
        E 27 86 1c 00
        E 5 96 1c 6e
        E 27 86 1c 00
        E 101 96 1c 6e
        E 27 86 1c 00
        E 37 96 1c 6e
        E 27 86 1c 00
        E 101 96 1c 6e
        E 27 86 1c 00
        E 5 96 1c 6e
        E 27 86 1c 00
        E 5 96 1c 6e
        E 27 86 1c 00
        E 293 96 1c 6e
        E 27 86 1c 00
        E 5 96 1c 6e
        E 27 86 1c 00
        E 5 96 1c 6e
        E 27 86 1c 00
        E 293 96 1c 6e
        E 27 86 1c 00
        E 5 96 1c 6e
        E 27 86 1c 00
        E 5 96 1c 6e
        E 27 86 1c 00
        E 293 96 1c 6e
        E 27 86 1c 00
        E 5 96 1c 6e
        E 27 86 1c 00
        E 5 96 1c 6e
        E 27 86 1c 00
        E 101 96 1c 6e
        E 27 86 1c 00
        E 37 96 1c 6e
        E 27 86 1c 00
        E 7493 c6 2f 00
        E 0 b6 65 00
        E 0 b6 64 00
        E 0 b6 06 0c
        E 0 b6 0a 40
        E 0 b6 07 7f
        E 0 e6 00 40
        E 1 c6 2f 00
        E 0 b6 65 00
        E 0 b6 64 00
        E 0 b6 06 0c
        E 0 b6 0a 40
        E 0 b6 07 7f
        E 0 e6 00 40
        E 0 b6 65 00
        E 0 b6 64 00
        E 0 b6 06 0c
        E 0 b6 0a 40
        E 0 b6 07 7f
        E 0 e6 00 40
        E 95 b0 7b 00
        CCINTERP 32
        CHASE_CC_TAKEOFFS 1
        GUID {28974C63-DDBD-2C51-36C0-1CCFAD574326}
        IGNTEMPO 0 120 4 4
        SRCCOLOR 30
      >
    >
  >
  <TRACK {03CCCC37-AFF8-7217-CE10-05087E7AFB67}
    NAME "strings #2 - halo_120"
    PEAKCOL 16576
    BEAT -1
    AUTOMODE 0
    VOLPAN 1 0 -1 -1 1
    MUTESOLO 0 0 0
    IPHASE 0
    PLAYOFFS 0 1
    ISBUS 0 0
    BUSCOMP 0 0 0 0 0
    SHOWINMIX 1 0.6667 0.5 1 0.5 -1 -1 -1
    FREEMODE 0
    SEL 0
    REC 0 0 1 0 0 0 0
    VU 2
    TRACKHEIGHT 0 0 0 0 0 0
    INQ 0 0 0 0.5 100 0 0 100
    NCHAN 2
    FX 1
    TRACKID {03CCCC37-AFF8-7217-CE10-05087E7AFB67}
    PERF 0
    MIDIOUT -1
    MAINSEND 1 0
    <ITEM
      POSITION 0
      SNAPOFFS 0
      LENGTH 180.871952
      LOOP 1
      ALLTAKES 0
      FADEIN 1 0.01 0 1 0 0 0
      FADEOUT 1 0.01 0 1 0 0 0
      MUTE 0 0
      SEL 0
      IGUID {6BCA40DB-32CD-DBA5-E41D-052086775857}
      IID 9
      NAME "strings #2 - halo_120.mid"
      VOLPAN 1 0 1 -1
      SOFFS 0 0
      PLAYRATE 1 1 0 -1 0 0.0025
      CHANMODE 0
      GUID {B92E6F07-78C7-A18E-131D-B1EDBCF5D78E}
      <SOURCE MIDI
        HASDATA 1 96 QN
        CCINTERP 32
        POOLEDEVTS {4C2E4AC1-CFCE-A41A-682D-3677FA364E8A}
        <X 0 0 0 0 3 "strings #2"
          /wNzdHJpbmdzICMy
        >
        E 0 c7 30 00
        E 0 b7 0a 40
        E 0 b7 07 02
        E 0 e7 00 40
        E 0 b7 65 00
        E 0 b7 64 00
        E 0 b7 06 0c
        E 0 b7 0a 40
        E 0 b7 07 02
        E 0 e7 00 40
        E 0 b7 65 00
        E 0 b7 64 00
        E 0 b7 06 0c
        E 0 b7 0a 40
        E 0 b7 07 02
        E 0 e7 00 40
        E 0 b7 65 00
        E 0 b7 64 00
        E 0 b7 06 0c
        E 0 b7 0a 40
        E 0 b7 07 02
        E 0 e7 00 40
        E 0 97 1c 6e
        E 5736 87 1c 00
        E 1560 97 28 6e
        E 576 87 28 00
        E 0 97 2a 6e
        E 96 87 2a 00
        E 0 97 2b 6e
        E 96 87 2b 00
        E 0 97 2d 6e
        E 2280 87 2d 00
        E 1560 97 2f 6e
        E 80 87 2f 00
        E 40 97 2f 6e
        E 35 87 2f 00
        E 1 97 31 6e
        E 35 87 31 00
        E 1 97 32 6e
        E 80 87 32 00
        E 40 97 2f 6e
        E 35 87 2f 00
        E 1 97 32 6e
        E 35 87 32 00
        E 1 97 31 6e
        E 31 87 31 00
        E 1 97 2f 6e
        E 31 87 2f 00
        E 1 97 2d 6e
        E 31 87 2d 00
        E 1 97 28 6e
        E 71 87 28 00
        E 1 97 2d 6e
        E 23 87 2d 00
        E 1 97 28 6e
        E 35 87 28 00
        E 1 97 2f 6e
        E 31 87 2f 00
        E 1 97 31 6e
        E 31 87 31 00
        E 1 97 2f 6e
        E 31 87 2f 00
        E 1 97 2d 6e
        E 35 87 2d 00
        E 1 97 28 6e
        E 23 87 28 00
        E 1 97 2f 6e
        E 80 87 2f 00
        E 40 97 31 6e
        E 35 87 31 00
        E 1 97 32 6e
        E 35 87 32 00
        E 1 97 34 6e
        E 128 87 34 00
        E 88 97 32 6e
        E 35 87 32 00
        E 1 97 31 6e
        E 35 87 31 00
        E 1 97 32 6e
        E 31 87 32 00
        E 1 97 31 6e
        E 31 87 31 00
        E 1 97 2f 6e
        E 31 87 2f 00
        E 1 97 34 6e
        E 31 87 34 00
        E 1 97 32 6e
        E 31 87 32 00
        E 1 97 31 6e
        E 31 87 31 00
        E 1 97 2f 6e
        E 31 87 2f 00
        E 1 97 32 6e
        E 31 87 32 00
        E 1 97 34 6e
        E 31 87 34 00
        E 1 97 36 6e
        E 31 87 36 00
        E 1 97 32 6e
        E 31 87 32 00
        E 1 97 2f 6e
        E 31 87 2f 00
        E 1 97 39 6e
        E 119 87 39 00
        E 1 97 39 6e
        E 35 87 39 00
        E 1 97 36 6e
        E 35 87 36 00
        E 1 97 39 6e
        E 23 87 39 00
        E 1 97 37 6e
        E 23 87 37 00
        E 1 97 39 6e
        E 47 87 39 00
        E 1 97 34 6e
        E 31 87 34 00
        E 1 97 32 6e
        E 31 87 32 00
        E 1 97 2f 6e
        E 31 87 2f 00
        E 1 97 39 6e
        E 128 87 39 00
        E 16 97 32 6e
        E 31 87 32 00
        E 1 97 34 6e
        E 31 87 34 00
        E 1 97 36 6e
        E 31 87 36 00
        E 1 97 37 6e
        E 23 87 37 00
        E 1 97 39 6e
        E 23 87 39 00
        E 1 97 34 6e
        E 80 87 34 00
        E 40 97 32 6e
        E 35 87 32 00
        E 1 97 34 6e
        E 35 87 34 00
        E 1 97 36 6e
        E 80 87 36 00
        E 40 97 34 6e
        E 31 87 34 00
        E 1 97 36 6e
        E 31 87 36 00
        E 1 97 37 6e
        E 31 87 37 00
        E 1 97 36 6e
        E 31 87 36 00
        E 1 97 34 6e
        E 31 87 34 00
        E 1 97 36 6e
        E 31 87 36 00
        E 1 97 34 6e
        E 35 87 34 00
        E 1 97 32 6e
        E 35 87 32 00
        E 1 97 31 6e
        E 71 87 31 00
        E 1 97 32 6e
        E 71 87 32 00
        E 1 97 34 6e
        E 47 87 34 00
        E 1 97 34 6e
        E 80 87 34 00
        E 40 97 34 6e
        E 35 87 34 00
        E 1 97 36 6e
        E 35 87 36 00
        E 1 97 37 6e
        E 80 87 37 00
        E 40 97 34 6e
        E 35 87 34 00
        E 1 97 37 6e
        E 35 87 37 00
        E 1 97 36 6e
        E 31 87 36 00
        E 1 97 34 6e
        E 31 87 34 00
        E 1 97 32 6e
        E 31 87 32 00
        E 1 97 2a 6e
        E 31 87 2a 00
        E 1 97 28 6e
        E 31 87 28 00
        E 1 97 26 6e
        E 31 87 26 00
        E 1 97 32 6e
        E 31 87 32 00
        E 1 97 31 6e
        E 31 87 31 00
        E 1 97 32 6e
        E 31 87 32 00
        E 1 97 32 6e
        E 31 87 32 00
        E 1 97 31 6e
        E 31 87 31 00
        E 1 97 32 6e
        E 31 87 32 00
        E 1 97 2b 6e
        E 552 87 2b 00
        E 84 97 2d 6e
        E 644 87 2d 00
        E 1552 97 2f 6e
        E 47 87 2f 00
        E 25 97 34 6e
        E 47 87 34 00
        E 25 97 36 6e
        E 35 87 36 00
        E 1 97 37 6e
        E 31 87 37 00
        E 1 97 36 6e
        E 31 87 36 00
        E 1 97 34 6e
        E 31 87 34 00
        E 1 97 32 6e
        E 71 87 32 00
        E 1 97 2f 6e
        E 35 87 2f 00
        E 1 97 34 6e
        E 31 87 34 00
        E 1 97 2f 6e
        E 31 87 2f 00
        E 1 97 36 6e
        E 31 87 36 00
        E 1 97 2f 6e
        E 31 87 2f 00
        E 1 97 37 6e
        E 31 87 37 00
        E 1 97 2f 6e
        E 31 87 2f 00
        E 1 97 39 6e
        E 71 87 39 00
        E 1 97 37 6e
        E 31 87 37 00
        E 1 97 36 6e
        E 31 87 36 00
        E 1 97 34 6e
        E 31 87 34 00
        E 1 97 32 6e
        E 23 87 32 00
        E 1 97 2f 6e
        E 47 87 2f 00
        E 25 97 34 6e
        E 47 87 34 00
        E 25 97 36 6e
        E 35 87 36 00
        E 1 97 37 6e
        E 31 87 37 00
        E 1 97 36 6e
        E 31 87 36 00
        E 1 97 34 6e
        E 31 87 34 00
        E 1 97 32 6e
        E 71 87 32 00
        E 1 97 2f 6e
        E 35 87 2f 00
        E 1 97 34 6e
        E 31 87 34 00
        E 1 97 2f 6e
        E 31 87 2f 00
        E 1 97 36 6e
        E 31 87 36 00
        E 1 97 2f 6e
        E 31 87 2f 00
        E 1 97 37 6e
        E 31 87 37 00
        E 1 97 2f 6e
        E 31 87 2f 00
        E 1 97 39 6e
        E 71 87 39 00
        E 1 97 37 6e
        E 31 87 37 00
        E 1 97 36 6e
        E 31 87 36 00
        E 1 97 34 6e
        E 31 87 34 00
        E 1 97 32 6e
        E 23 87 32 00
        E 1 97 2b 6e
        E 552 87 2b 00
        E 84 97 2d 6e
        E 644 87 2d 00
        E 4624 97 1c 6e
        E 3816 87 1c 00
        E 2040 c7 30 00
        E 0 b7 65 00
        E 0 b7 64 00
        E 0 b7 06 0c
        E 0 b7 0a 40
        E 0 b7 07 02
        E 0 e7 00 40
        E 1 c7 30 00
        E 0 b7 65 00
        E 0 b7 64 00
        E 0 b7 06 0c
        E 0 b7 0a 40
        E 0 b7 07 02
        E 0 e7 00 40
        E 0 b7 65 00
        E 0 b7 64 00
        E 0 b7 06 0c
        E 0 b7 0a 40
        E 0 b7 07 02
        E 0 e7 00 40
        E 95 b0 7b 00
        CCINTERP 32
        CHASE_CC_TAKEOFFS 1
        GUID {0831E2FE-A9C4-7BD1-C02D-249C176F483B}
        IGNTEMPO 0 120 4 4
        SRCCOLOR 31
      >
    >
  >
>
